<svg id="epLdOsTKfFn1" xmlns="http://www.w3.org/2000/svg" xmlns:xlink="http://www.w3.org/1999/xlink" viewBox="0 0 61 54" shape-rendering="geometricPrecision" text-rendering="geometricPrecision" project-id="dd9791b321044bdea5c77ddf0e67d729" export-id="86051ff50e40471e8000b524126dfeea" cached="false">
<style><![CDATA[
#epLdOsTKfFn6_ts {animation: epLdOsTKfFn6_ts__ts 4000ms linear infinite normal forwards}@keyframes epLdOsTKfFn6_ts__ts { 0% {transform: translate(30.450001px,26.999999px) scale(1,1)} 50% {transform: translate(30.450001px,26.999999px) scale(1,1)} 62.5% {transform: translate(30.450001px,26.999999px) scale(0.9,0.9)} 75% {transform: translate(30.450001px,26.999999px) scale(1,1)} 100% {transform: translate(30.450001px,26.999999px) scale(1,1)}} #epLdOsTKfFn8_tr {animation: epLdOsTKfFn8_tr__tr 4000ms linear infinite normal forwards}@keyframes epLdOsTKfFn8_tr__tr { 0% {transform: translate(30.4px,26.999998px) rotate(0deg)} 25% {transform: translate(30.4px,26.999998px) rotate(360deg)} 100% {transform: translate(30.4px,26.999998px) rotate(360deg)}} #epLdOsTKfFn8 {animation: epLdOsTKfFn8_s_do 4000ms linear infinite normal forwards}@keyframes epLdOsTKfFn8_s_do { 0% {stroke-dashoffset: 85.45} 25% {stroke-dashoffset: 0} 100% {stroke-dashoffset: 0}} #epLdOsTKfFn9_tr {animation: epLdOsTKfFn9_tr__tr 4000ms linear infinite normal forwards}@keyframes epLdOsTKfFn9_tr__tr { 0% {transform: translate(30.400002px,27px) rotate(0deg)} 17.5% {transform: translate(30.400002px,27px) rotate(0deg)} 32.5% {transform: translate(30.400002px,27px) rotate(360deg)} 100% {transform: translate(30.400002px,27px) rotate(360deg)}} #epLdOsTKfFn9 {animation: epLdOsTKfFn9_s_do 4000ms linear infinite normal forwards}@keyframes epLdOsTKfFn9_s_do { 0% {stroke-dashoffset: 25.13} 17.5% {stroke-dashoffset: 25.13} 32.5% {stroke-dashoffset: 0} 100% {stroke-dashoffset: 0}}
]]></style>
<path d="M49.3,2h7.5C58,2,59,3,59,4.2v7.5" fill="none" stroke="#ff671f" stroke-width="2.5" stroke-linecap="round" stroke-linejoin="round"/><path d="M11.6,2h-7.5C2.9,2,1.9,3,1.9,4.2v7.5" fill="none" stroke="#ff671f" stroke-width="2.5" stroke-linecap="round" stroke-linejoin="round"/><path d="M49.3,52h7.5C58,52,59,51,59,49.8v-7.5" fill="none" stroke="#ff671f" stroke-width="2.5" stroke-linecap="round" stroke-linejoin="round"/><path d="M11.6,52h-7.5c-1.2,0-2.2-1-2.2-2.2v-7.5" fill="none" stroke="#ff671f" stroke-width="2.5" stroke-linecap="round" stroke-linejoin="round"/><g id="epLdOsTKfFn6_ts" transform="translate(30.450001,26.999999) scale(1,1)"><g transform="translate(-30.45,-26.999999)"><path d="M55.3,27C38.7,45.1,22.1,45.1,5.6,27C22.2,8.9,38.8,8.9,55.3,27Z" fill="none" stroke="#ff671f" stroke-width="2.5" stroke-linecap="round" stroke-linejoin="round"/><g id="epLdOsTKfFn8_tr" transform="translate(30.4,26.999998) rotate(0)"><path id="epLdOsTKfFn8" d="M44,27c0,7.5-6.1,13.6-13.6,13.6s-13.6-6.1-13.6-13.6s6.1-13.6,13.6-13.6s13.6,6.1,13.6,13.6Z" transform="translate(-30.4,-26.999998)" fill="none" stroke="#ff671f" stroke-width="2.5" stroke-linecap="round" stroke-linejoin="round" stroke-dashoffset="85.45" stroke-dasharray="85.45"/></g><g id="epLdOsTKfFn9_tr" transform="translate(30.400002,27) rotate(0)"><path id="epLdOsTKfFn9" d="M34.4,27c0,2.2-1.8,4-4,4s-4-1.8-4-4s1.8-4,4-4s4,1.8,4,4Z" transform="translate(-30.400002,-27)" fill="none" stroke="#ff671f" stroke-width="2.5" stroke-linecap="round" stroke-linejoin="round" stroke-dashoffset="25.13" stroke-dasharray="25.13"/></g></g></g></svg>
