<svg width="61" height="54" viewBox="0 0 61 54" fill="none" xmlns="http://www.w3.org/2000/svg">
<path d="M49.4397 2H56.9297C58.1597 2 59.1597 3 59.1597 4.23V11.72M11.77 2H4.28005C3.05005 2 2.05005 3 2.05005 4.23V11.72M49.4397 52H56.9297C58.1597 52 59.1597 51 59.1597 49.77V42.28M11.77 52H4.28005C3.05005 52 2.05005 51 2.05005 49.77V42.28M55.4805 27.01C38.9005 45.12 22.3205 45.12 5.74048 27.01C22.3205 8.89999 38.9005 8.89999 55.4805 27.01ZM44.1905 27.0099C44.1905 34.5099 38.1105 40.5899 30.6105 40.5899C23.1105 40.5899 17.0305 34.5099 17.0305 27.0099C17.0305 19.5099 23.1105 13.4299 30.6105 13.4299C38.1105 13.4299 44.1905 19.5099 44.1905 27.0099ZM34.58 27.01C34.58 29.2 32.8 30.98 30.61 30.98C28.42 30.98 26.64 29.2 26.64 27.01C26.64 24.82 28.42 23.04 30.61 23.04C32.8 23.04 34.58 24.82 34.58 27.01Z" stroke="#FF671F" stroke-width="2.5" stroke-linecap="round" stroke-linejoin="round"/>
</svg>
