<svg width="47" height="41" viewBox="0 0 47 41" fill="none" xmlns="http://www.w3.org/2000/svg">
<mask id="path-1-outside-1_5116_1146" maskUnits="userSpaceOnUse" x="-0.199219" y="0" width="48" height="36" fill="black">
<rect fill="white" x="-0.199219" width="48" height="36"/>
<path d="M12.5667 16.1885C12.5167 16.6513 12.5283 17.065 12.419 17.4464C12.091 18.6017 11.2746 19.312 10.057 19.515C8.88585 19.7101 7.89615 19.3076 7.20185 18.3831C6.48661 17.4296 6.4401 16.3914 7.02159 15.3588C7.17859 15.08 7.20418 14.8982 7.01577 14.6206C6.09585 13.2601 6.90994 11.1012 9.10449 11.1034C9.42548 9.53213 10.3838 8.61101 12.1155 8.48723C12.0457 8.24413 11.948 8.00883 11.9131 7.76573C11.7852 6.86468 12.2271 6.15099 13.1354 5.77964C15.5184 4.80276 17.9036 3.83147 20.2878 2.85682C21.6194 2.31263 22.9487 1.76174 24.2814 1.21866C25.5305 0.710153 26.54 1.09711 27.0796 2.29032C28.1984 4.76039 29.3148 7.23157 30.4301 9.70275C30.729 10.364 30.6244 10.6127 29.9266 10.906C29.173 11.2216 28.4182 11.5327 27.6169 11.865C27.9123 12.4839 28.1914 13.0739 28.4728 13.6627C28.6787 14.092 28.8787 14.5224 29.0985 14.9451C29.1497 15.0432 29.2648 15.1793 29.3532 15.1804C30.3801 15.1971 31.4071 15.1904 32.4875 15.1904C32.4875 14.9819 32.4875 14.8191 32.4875 14.6563C32.4875 11.5952 32.4875 8.53407 32.4875 5.47297C32.4875 4.62992 32.6747 4.45372 33.5679 4.45372C36.3986 4.45372 39.2281 4.45372 42.0588 4.45372C43.8347 4.45372 44.8919 5.13954 45.4338 6.77547C45.8141 7.92408 46.049 9.11506 46.3921 10.2759C46.7131 11.3565 46.8201 12.4471 46.798 13.5679C46.7631 15.3209 46.7899 17.0739 46.7875 18.8269C46.7875 19.5618 46.5328 19.8049 45.7746 19.8083C45.0919 19.8105 44.4104 19.8027 43.7277 19.815C43.6021 19.8172 43.4102 19.8618 43.366 19.9443C43.1171 20.406 42.9043 20.8855 42.6624 21.394C43.6533 21.394 44.6616 21.394 45.6711 21.394C46.5735 21.394 46.7352 21.5479 46.7352 22.4077C46.7352 26.2895 46.7352 30.1714 46.7352 34.0543C46.7352 34.7937 46.5235 35 45.7629 35C33.0341 35 15.1067 35 2.37663 35C1.6044 35 1.3939 34.8004 1.3939 34.0655C1.3939 32.6883 1.35204 31.3088 1.416 29.9339C1.44624 29.2949 1.60906 28.6392 1.8463 28.0392C2.17892 27.1962 2.88252 26.6955 3.8071 26.4802C3.942 26.449 4.13157 26.3007 4.14669 26.1869C4.43395 24.1562 11.991 22.8515 14.0228 23.5195C14.0495 23.5284 14.0786 23.5284 14.1181 23.534C14.2705 23.3054 14.4147 23.0656 14.5833 22.8415C15.3009 21.8903 16.322 21.471 17.5001 21.4119C18.4654 21.3628 19.4353 21.4018 20.4576 21.4018C20.1575 20.8197 19.9109 20.3424 19.626 19.7904C19.219 19.7904 18.7282 19.7904 18.2386 19.7904C17.6722 19.7904 17.107 19.7904 16.5406 19.7904C15.7161 19.7893 15.4986 19.5841 15.4963 18.8091C15.4963 18.1835 15.4614 17.5545 15.5056 16.9312C15.5579 16.1952 15.3741 15.5317 14.9659 14.8693C14.3391 15.6119 13.5238 16.048 12.5644 16.1896L12.5667 16.1885ZM45.4175 33.7399V22.711H20.0168C19.954 23.2128 19.9016 23.708 19.8284 24.2009C19.3609 27.369 17.5757 29.4532 14.3251 30.3219C12.5051 30.8093 5.43877 30.8773 3.56636 30.8985C3.31283 30.9018 3.05813 30.8985 2.82089 30.8985V33.7399H45.4175ZM29.0194 9.84549C27.9821 7.48694 26.9703 5.18638 25.9573 2.88582C25.6596 2.21003 25.4572 2.12974 24.7652 2.41522C21.1077 3.92291 17.4512 5.43171 13.7948 6.94051C13.1587 7.20257 13.0924 7.35424 13.3645 7.95753C14.3623 10.1756 15.3625 12.3925 16.3627 14.6094C16.4197 14.7343 16.4894 14.8548 16.5674 15.0053C20.7169 13.2868 24.8455 11.5751 29.0194 9.8466V9.84549ZM33.8772 5.80194V18.4779C34.4122 18.4779 34.9181 18.4645 35.4228 18.4835C35.7066 18.4935 35.8113 18.4121 35.8717 18.1288C36.2253 16.4717 37.8151 15.2451 39.5863 15.2261C41.425 15.2071 43.0322 16.4338 43.4288 18.1467C43.4556 18.2638 43.5498 18.4567 43.6196 18.4589C44.2208 18.4835 44.8221 18.4734 45.4129 18.4734V15.7971C45.0465 15.7971 44.7011 15.7993 44.3569 15.7971C43.8301 15.7937 43.523 15.554 43.523 15.1514C43.523 14.7544 43.8335 14.5057 44.3592 14.4957C44.7035 14.489 45.0477 14.4946 45.4047 14.4946V12.6289C42.9648 12.6289 40.5574 12.6289 38.15 12.6289C37.4429 12.6289 37.2383 12.4382 37.2371 11.7691C37.2348 9.93359 37.2371 8.09693 37.2371 6.26138C37.2371 6.11418 37.2371 5.96698 37.2371 5.80417H33.8796L33.8772 5.80194ZM18.5933 22.721C16.6779 22.5638 15.8242 23.0578 15.1276 24.7094C14.9252 25.19 14.5031 25.3417 14.0449 25.0205C12.8412 24.1786 5.42016 24.9045 5.46784 26.8427C5.48412 27.5039 5.24571 27.7158 4.56304 27.7292C3.53496 27.7493 2.82321 28.5343 2.91044 29.5748C4.66538 29.6172 11.6165 29.5826 13.3424 29.2358C16.6464 28.5723 18.5328 26.6899 18.5944 22.7199L18.5933 22.721ZM45.2373 11.313C45.0512 10.577 44.8884 9.87671 44.6976 9.1842C44.4848 8.40917 44.2999 7.62076 44.0057 6.8736C43.7149 6.13314 43.102 5.75845 42.2379 5.78075C41.3831 5.80306 40.5283 5.78521 39.6735 5.78521C39.3177 5.78521 38.9606 5.78521 38.5908 5.78521V11.313H45.2373ZM12.1608 14.8904C13.0912 14.8202 13.775 14.4332 14.146 13.6381C14.2333 13.4508 14.2367 13.1709 14.1565 12.9791C13.8192 12.1684 13.4366 11.3755 13.0703 10.5759C12.8295 10.0518 12.4306 9.8388 11.8375 9.91909C10.9292 10.0418 10.3407 10.8993 10.5466 11.8037C10.6606 12.3044 10.4861 12.649 10.0547 12.6858C9.8709 12.7014 9.66854 12.6122 9.48711 12.5408C9.05914 12.3724 8.65791 12.3958 8.31134 12.6925C7.97291 12.9813 7.8822 13.3616 8.07176 13.7519C8.18922 13.9939 8.36483 14.2292 8.56952 14.4087C9.0382 14.8191 9.05797 15.167 8.58115 15.5462C7.98803 16.0201 7.81823 16.7405 8.15201 17.3772C8.47881 18.0017 9.27778 18.3496 9.98604 18.1768C10.7548 17.9883 11.2607 17.404 11.2025 16.6691C11.1769 16.3524 11.0141 16.039 10.8839 15.7368C10.6501 15.1971 10.9874 14.7399 11.5968 14.8001C11.798 14.8202 11.9957 14.8626 12.162 14.8893L12.1608 14.8904ZM42.167 18.9541C42.1658 17.627 41.0331 16.5409 39.648 16.5386C38.2617 16.5364 37.1266 17.6092 37.1092 18.9373C37.0917 20.2554 38.2791 21.4007 39.6538 21.3907C41.0203 21.3817 42.1682 20.2677 42.167 18.9529V18.9541ZM23.522 16.5386C22.1253 16.5297 20.9588 17.6304 20.9588 18.9552C20.9588 20.2543 22.1171 21.3751 23.4767 21.3907C24.8478 21.4074 26.0085 20.3168 26.0213 19.002C26.0341 17.6449 24.9199 16.5476 23.522 16.5386ZM26.5935 21.3026H36.58C36.3602 20.8364 36.1578 20.3826 35.9264 19.9421C35.8845 19.8618 35.7252 19.796 35.6194 19.7949C32.9352 19.7871 30.251 19.786 27.5657 19.796C27.4529 19.796 27.2878 19.8819 27.2378 19.9733C27.0086 20.4004 26.8109 20.8442 26.5935 21.3026ZM19.7121 15.1335C19.7225 15.1547 19.733 15.177 19.7446 15.1982H27.7076C27.2598 14.2403 26.8319 13.3248 26.3923 12.3825C24.1372 13.3114 21.9252 14.2213 19.7132 15.1324L19.7121 15.1335ZM27.3831 18.4545H32.4619V16.5743H26.5132C26.7051 16.8933 26.904 17.1687 27.0424 17.4698C27.1819 17.7709 27.2622 18.0976 27.3831 18.4556V18.4545ZM19.5493 18.4567C19.8598 17.7943 20.1517 17.1732 20.4389 16.5587H16.9337V18.4567H19.5493Z"/>
<path d="M25.0234 26.0565C25.0199 26.3888 24.7001 26.6932 24.3501 26.6966C24.0058 26.6999 23.679 26.3988 23.6697 26.0665C23.6604 25.7152 23.9907 25.4008 24.3594 25.4097C24.7059 25.4175 25.0258 25.7286 25.0223 26.0565H25.0234Z"/>
<path d="M39.156 26.5081C39.1642 26.8471 38.8664 27.1437 38.5082 27.156C38.1326 27.1694 37.8011 26.8661 37.8046 26.5148C37.8081 26.178 38.1186 25.8892 38.4792 25.887C38.8385 25.8847 39.149 26.1691 39.1572 26.507L39.156 26.5081Z"/>
<path d="M37.3266 30.2439C37.3255 30.5717 37.001 30.8873 36.6614 30.8929C36.3242 30.8985 35.988 30.5873 35.9776 30.2595C35.966 29.9182 36.3137 29.5826 36.6684 29.5915C37.0115 29.6004 37.329 29.9149 37.3278 30.245L37.3266 30.2439Z"/>
<path d="M19.4271 31.6579C19.0736 31.6501 18.7794 31.3557 18.7805 31.0089C18.7805 30.6632 19.0806 30.3654 19.4318 30.3598C19.7993 30.3543 20.1133 30.6699 20.1017 31.0334C20.09 31.3758 19.7784 31.6657 19.4283 31.6579H19.4271Z"/>
<path d="M42.6868 31.6055C42.324 31.5954 42.0332 31.301 42.0437 30.9553C42.0553 30.6108 42.3577 30.332 42.7206 30.332C43.0764 30.332 43.3916 30.6286 43.3951 30.9631C43.3974 31.3166 43.0683 31.6155 42.6868 31.6055Z"/>
<path d="M29.7812 29.606C29.7777 29.9472 29.4753 30.2394 29.1206 30.2405C28.745 30.2428 28.4403 29.9372 28.4542 29.5737C28.467 29.2335 28.781 28.9481 29.1334 28.9581C29.4928 28.9681 29.7847 29.2592 29.7812 29.606Z"/>
<path d="M25.6503 8.86081C25.5631 8.95336 25.434 9.20093 25.2293 9.28791C23.0882 10.2023 20.9379 11.0945 18.784 11.9821C18.3967 12.1416 18.0258 11.9832 17.8757 11.6476C17.7083 11.2729 17.8408 10.9562 18.2758 10.7744C20.3831 9.88898 22.4916 9.00689 24.6048 8.13261C25.1665 7.90066 25.6666 8.19171 25.6503 8.86192V8.86081Z"/>
<path d="M17.2617 9.04258C16.7965 9.03254 16.5406 8.85523 16.4604 8.52626C16.3731 8.1683 16.5557 7.91739 16.9116 7.77019C18.7061 7.02638 20.4983 6.277 22.2904 5.52984C22.5963 5.40272 22.8975 5.26667 23.2057 5.14512C23.6697 4.96223 24.0326 5.06817 24.2024 5.42614C24.3826 5.80863 24.2221 6.15656 23.7511 6.35394C21.881 7.1379 20.0086 7.91627 18.1362 8.69465C17.8199 8.82624 17.4989 8.9489 17.2628 9.04258H17.2617Z"/>
<path d="M40.3004 18.9619C40.2969 19.3076 39.9957 19.6008 39.6433 19.6031C39.2735 19.6053 38.9653 19.292 38.9804 18.9273C38.9944 18.5816 39.3026 18.3028 39.6584 18.3128C40.0166 18.3229 40.3039 18.6139 40.3004 18.963V18.9619Z"/>
<path d="M23.5174 18.3128C23.8709 18.324 24.1779 18.6273 24.1733 18.963C24.1698 19.3109 23.8174 19.6243 23.458 19.5997C23.1092 19.5763 22.801 19.2518 22.8196 18.9273C22.8393 18.595 23.172 18.3028 23.5162 18.3128H23.5174Z"/>
<path d="M4.9224 10.4599C2.64993 10.4599 0.800781 8.68796 0.800781 6.50895C0.800781 4.32994 2.64993 2.55685 4.9224 2.55685C7.19487 2.55685 9.04402 4.32994 9.04402 6.50895C9.04402 8.68796 7.19487 10.4611 4.9224 10.4611V10.4599ZM4.9224 3.672C3.29073 3.672 1.96377 4.94439 1.96377 6.50895C1.96377 8.07351 3.29073 9.3459 4.9224 9.3459C6.55407 9.3459 7.88103 8.07351 7.88103 6.50895C7.88103 4.94439 6.55407 3.672 4.9224 3.672Z"/>
<path d="M7.08695 3.64513L1.93572 8.5845L2.75807 9.37303L7.9093 4.43367L7.08695 3.64513Z"/>
</mask>
<path d="M12.5667 16.1885C12.5167 16.6513 12.5283 17.065 12.419 17.4464C12.091 18.6017 11.2746 19.312 10.057 19.515C8.88585 19.7101 7.89615 19.3076 7.20185 18.3831C6.48661 17.4296 6.4401 16.3914 7.02159 15.3588C7.17859 15.08 7.20418 14.8982 7.01577 14.6206C6.09585 13.2601 6.90994 11.1012 9.10449 11.1034C9.42548 9.53213 10.3838 8.61101 12.1155 8.48723C12.0457 8.24413 11.948 8.00883 11.9131 7.76573C11.7852 6.86468 12.2271 6.15099 13.1354 5.77964C15.5184 4.80276 17.9036 3.83147 20.2878 2.85682C21.6194 2.31263 22.9487 1.76174 24.2814 1.21866C25.5305 0.710153 26.54 1.09711 27.0796 2.29032C28.1984 4.76039 29.3148 7.23157 30.4301 9.70275C30.729 10.364 30.6244 10.6127 29.9266 10.906C29.173 11.2216 28.4182 11.5327 27.6169 11.865C27.9123 12.4839 28.1914 13.0739 28.4728 13.6627C28.6787 14.092 28.8787 14.5224 29.0985 14.9451C29.1497 15.0432 29.2648 15.1793 29.3532 15.1804C30.3801 15.1971 31.4071 15.1904 32.4875 15.1904C32.4875 14.9819 32.4875 14.8191 32.4875 14.6563C32.4875 11.5952 32.4875 8.53407 32.4875 5.47297C32.4875 4.62992 32.6747 4.45372 33.5679 4.45372C36.3986 4.45372 39.2281 4.45372 42.0588 4.45372C43.8347 4.45372 44.8919 5.13954 45.4338 6.77547C45.8141 7.92408 46.049 9.11506 46.3921 10.2759C46.7131 11.3565 46.8201 12.4471 46.798 13.5679C46.7631 15.3209 46.7899 17.0739 46.7875 18.8269C46.7875 19.5618 46.5328 19.8049 45.7746 19.8083C45.0919 19.8105 44.4104 19.8027 43.7277 19.815C43.6021 19.8172 43.4102 19.8618 43.366 19.9443C43.1171 20.406 42.9043 20.8855 42.6624 21.394C43.6533 21.394 44.6616 21.394 45.6711 21.394C46.5735 21.394 46.7352 21.5479 46.7352 22.4077C46.7352 26.2895 46.7352 30.1714 46.7352 34.0543C46.7352 34.7937 46.5235 35 45.7629 35C33.0341 35 15.1067 35 2.37663 35C1.6044 35 1.3939 34.8004 1.3939 34.0655C1.3939 32.6883 1.35204 31.3088 1.416 29.9339C1.44624 29.2949 1.60906 28.6392 1.8463 28.0392C2.17892 27.1962 2.88252 26.6955 3.8071 26.4802C3.942 26.449 4.13157 26.3007 4.14669 26.1869C4.43395 24.1562 11.991 22.8515 14.0228 23.5195C14.0495 23.5284 14.0786 23.5284 14.1181 23.534C14.2705 23.3054 14.4147 23.0656 14.5833 22.8415C15.3009 21.8903 16.322 21.471 17.5001 21.4119C18.4654 21.3628 19.4353 21.4018 20.4576 21.4018C20.1575 20.8197 19.9109 20.3424 19.626 19.7904C19.219 19.7904 18.7282 19.7904 18.2386 19.7904C17.6722 19.7904 17.107 19.7904 16.5406 19.7904C15.7161 19.7893 15.4986 19.5841 15.4963 18.8091C15.4963 18.1835 15.4614 17.5545 15.5056 16.9312C15.5579 16.1952 15.3741 15.5317 14.9659 14.8693C14.3391 15.6119 13.5238 16.048 12.5644 16.1896L12.5667 16.1885ZM45.4175 33.7399V22.711H20.0168C19.954 23.2128 19.9016 23.708 19.8284 24.2009C19.3609 27.369 17.5757 29.4532 14.3251 30.3219C12.5051 30.8093 5.43877 30.8773 3.56636 30.8985C3.31283 30.9018 3.05813 30.8985 2.82089 30.8985V33.7399H45.4175ZM29.0194 9.84549C27.9821 7.48694 26.9703 5.18638 25.9573 2.88582C25.6596 2.21003 25.4572 2.12974 24.7652 2.41522C21.1077 3.92291 17.4512 5.43171 13.7948 6.94051C13.1587 7.20257 13.0924 7.35424 13.3645 7.95753C14.3623 10.1756 15.3625 12.3925 16.3627 14.6094C16.4197 14.7343 16.4894 14.8548 16.5674 15.0053C20.7169 13.2868 24.8455 11.5751 29.0194 9.8466V9.84549ZM33.8772 5.80194V18.4779C34.4122 18.4779 34.9181 18.4645 35.4228 18.4835C35.7066 18.4935 35.8113 18.4121 35.8717 18.1288C36.2253 16.4717 37.8151 15.2451 39.5863 15.2261C41.425 15.2071 43.0322 16.4338 43.4288 18.1467C43.4556 18.2638 43.5498 18.4567 43.6196 18.4589C44.2208 18.4835 44.8221 18.4734 45.4129 18.4734V15.7971C45.0465 15.7971 44.7011 15.7993 44.3569 15.7971C43.8301 15.7937 43.523 15.554 43.523 15.1514C43.523 14.7544 43.8335 14.5057 44.3592 14.4957C44.7035 14.489 45.0477 14.4946 45.4047 14.4946V12.6289C42.9648 12.6289 40.5574 12.6289 38.15 12.6289C37.4429 12.6289 37.2383 12.4382 37.2371 11.7691C37.2348 9.93359 37.2371 8.09693 37.2371 6.26138C37.2371 6.11418 37.2371 5.96698 37.2371 5.80417H33.8796L33.8772 5.80194ZM18.5933 22.721C16.6779 22.5638 15.8242 23.0578 15.1276 24.7094C14.9252 25.19 14.5031 25.3417 14.0449 25.0205C12.8412 24.1786 5.42016 24.9045 5.46784 26.8427C5.48412 27.5039 5.24571 27.7158 4.56304 27.7292C3.53496 27.7493 2.82321 28.5343 2.91044 29.5748C4.66538 29.6172 11.6165 29.5826 13.3424 29.2358C16.6464 28.5723 18.5328 26.6899 18.5944 22.7199L18.5933 22.721ZM45.2373 11.313C45.0512 10.577 44.8884 9.87671 44.6976 9.1842C44.4848 8.40917 44.2999 7.62076 44.0057 6.8736C43.7149 6.13314 43.102 5.75845 42.2379 5.78075C41.3831 5.80306 40.5283 5.78521 39.6735 5.78521C39.3177 5.78521 38.9606 5.78521 38.5908 5.78521V11.313H45.2373ZM12.1608 14.8904C13.0912 14.8202 13.775 14.4332 14.146 13.6381C14.2333 13.4508 14.2367 13.1709 14.1565 12.9791C13.8192 12.1684 13.4366 11.3755 13.0703 10.5759C12.8295 10.0518 12.4306 9.8388 11.8375 9.91909C10.9292 10.0418 10.3407 10.8993 10.5466 11.8037C10.6606 12.3044 10.4861 12.649 10.0547 12.6858C9.8709 12.7014 9.66854 12.6122 9.48711 12.5408C9.05914 12.3724 8.65791 12.3958 8.31134 12.6925C7.97291 12.9813 7.8822 13.3616 8.07176 13.7519C8.18922 13.9939 8.36483 14.2292 8.56952 14.4087C9.0382 14.8191 9.05797 15.167 8.58115 15.5462C7.98803 16.0201 7.81823 16.7405 8.15201 17.3772C8.47881 18.0017 9.27778 18.3496 9.98604 18.1768C10.7548 17.9883 11.2607 17.404 11.2025 16.6691C11.1769 16.3524 11.0141 16.039 10.8839 15.7368C10.6501 15.1971 10.9874 14.7399 11.5968 14.8001C11.798 14.8202 11.9957 14.8626 12.162 14.8893L12.1608 14.8904ZM42.167 18.9541C42.1658 17.627 41.0331 16.5409 39.648 16.5386C38.2617 16.5364 37.1266 17.6092 37.1092 18.9373C37.0917 20.2554 38.2791 21.4007 39.6538 21.3907C41.0203 21.3817 42.1682 20.2677 42.167 18.9529V18.9541ZM23.522 16.5386C22.1253 16.5297 20.9588 17.6304 20.9588 18.9552C20.9588 20.2543 22.1171 21.3751 23.4767 21.3907C24.8478 21.4074 26.0085 20.3168 26.0213 19.002C26.0341 17.6449 24.9199 16.5476 23.522 16.5386ZM26.5935 21.3026H36.58C36.3602 20.8364 36.1578 20.3826 35.9264 19.9421C35.8845 19.8618 35.7252 19.796 35.6194 19.7949C32.9352 19.7871 30.251 19.786 27.5657 19.796C27.4529 19.796 27.2878 19.8819 27.2378 19.9733C27.0086 20.4004 26.8109 20.8442 26.5935 21.3026ZM19.7121 15.1335C19.7225 15.1547 19.733 15.177 19.7446 15.1982H27.7076C27.2598 14.2403 26.8319 13.3248 26.3923 12.3825C24.1372 13.3114 21.9252 14.2213 19.7132 15.1324L19.7121 15.1335ZM27.3831 18.4545H32.4619V16.5743H26.5132C26.7051 16.8933 26.904 17.1687 27.0424 17.4698C27.1819 17.7709 27.2622 18.0976 27.3831 18.4556V18.4545ZM19.5493 18.4567C19.8598 17.7943 20.1517 17.1732 20.4389 16.5587H16.9337V18.4567H19.5493Z" fill="#FF671F"/>
<path d="M25.0234 26.0565C25.0199 26.3888 24.7001 26.6932 24.3501 26.6966C24.0058 26.6999 23.679 26.3988 23.6697 26.0665C23.6604 25.7152 23.9907 25.4008 24.3594 25.4097C24.7059 25.4175 25.0258 25.7286 25.0223 26.0565H25.0234Z" fill="#FF671F"/>
<path d="M39.156 26.5081C39.1642 26.8471 38.8664 27.1437 38.5082 27.156C38.1326 27.1694 37.8011 26.8661 37.8046 26.5148C37.8081 26.178 38.1186 25.8892 38.4792 25.887C38.8385 25.8847 39.149 26.1691 39.1572 26.507L39.156 26.5081Z" fill="#FF671F"/>
<path d="M37.3266 30.2439C37.3255 30.5717 37.001 30.8873 36.6614 30.8929C36.3242 30.8985 35.988 30.5873 35.9776 30.2595C35.966 29.9182 36.3137 29.5826 36.6684 29.5915C37.0115 29.6004 37.329 29.9149 37.3278 30.245L37.3266 30.2439Z" fill="#FF671F"/>
<path d="M19.4271 31.6579C19.0736 31.6501 18.7794 31.3557 18.7805 31.0089C18.7805 30.6632 19.0806 30.3654 19.4318 30.3598C19.7993 30.3543 20.1133 30.6699 20.1017 31.0334C20.09 31.3758 19.7784 31.6657 19.4283 31.6579H19.4271Z" fill="#FF671F"/>
<path d="M42.6868 31.6055C42.324 31.5954 42.0332 31.301 42.0437 30.9553C42.0553 30.6108 42.3577 30.332 42.7206 30.332C43.0764 30.332 43.3916 30.6286 43.3951 30.9631C43.3974 31.3166 43.0683 31.6155 42.6868 31.6055Z" fill="#FF671F"/>
<path d="M29.7812 29.606C29.7777 29.9472 29.4753 30.2394 29.1206 30.2405C28.745 30.2428 28.4403 29.9372 28.4542 29.5737C28.467 29.2335 28.781 28.9481 29.1334 28.9581C29.4928 28.9681 29.7847 29.2592 29.7812 29.606Z" fill="#FF671F"/>
<path d="M25.6503 8.86081C25.5631 8.95336 25.434 9.20093 25.2293 9.28791C23.0882 10.2023 20.9379 11.0945 18.784 11.9821C18.3967 12.1416 18.0258 11.9832 17.8757 11.6476C17.7083 11.2729 17.8408 10.9562 18.2758 10.7744C20.3831 9.88898 22.4916 9.00689 24.6048 8.13261C25.1665 7.90066 25.6666 8.19171 25.6503 8.86192V8.86081Z" fill="#FF671F"/>
<path d="M17.2617 9.04258C16.7965 9.03254 16.5406 8.85523 16.4604 8.52626C16.3731 8.1683 16.5557 7.91739 16.9116 7.77019C18.7061 7.02638 20.4983 6.277 22.2904 5.52984C22.5963 5.40272 22.8975 5.26667 23.2057 5.14512C23.6697 4.96223 24.0326 5.06817 24.2024 5.42614C24.3826 5.80863 24.2221 6.15656 23.7511 6.35394C21.881 7.1379 20.0086 7.91627 18.1362 8.69465C17.8199 8.82624 17.4989 8.9489 17.2628 9.04258H17.2617Z" fill="#FF671F"/>
<path d="M40.3004 18.9619C40.2969 19.3076 39.9957 19.6008 39.6433 19.6031C39.2735 19.6053 38.9653 19.292 38.9804 18.9273C38.9944 18.5816 39.3026 18.3028 39.6584 18.3128C40.0166 18.3229 40.3039 18.6139 40.3004 18.963V18.9619Z" fill="#FF671F"/>
<path d="M23.5174 18.3128C23.8709 18.324 24.1779 18.6273 24.1733 18.963C24.1698 19.3109 23.8174 19.6243 23.458 19.5997C23.1092 19.5763 22.801 19.2518 22.8196 18.9273C22.8393 18.595 23.172 18.3028 23.5162 18.3128H23.5174Z" fill="#FF671F"/>
<path d="M4.9224 10.4599C2.64993 10.4599 0.800781 8.68796 0.800781 6.50895C0.800781 4.32994 2.64993 2.55685 4.9224 2.55685C7.19487 2.55685 9.04402 4.32994 9.04402 6.50895C9.04402 8.68796 7.19487 10.4611 4.9224 10.4611V10.4599ZM4.9224 3.672C3.29073 3.672 1.96377 4.94439 1.96377 6.50895C1.96377 8.07351 3.29073 9.3459 4.9224 9.3459C6.55407 9.3459 7.88103 8.07351 7.88103 6.50895C7.88103 4.94439 6.55407 3.672 4.9224 3.672Z" fill="#FF671F"/>
<path d="M7.08695 3.64513L1.93572 8.5845L2.75807 9.37303L7.9093 4.43367L7.08695 3.64513Z" fill="#FF671F"/>
<path d="M12.5667 16.1885C12.5167 16.6513 12.5283 17.065 12.419 17.4464C12.091 18.6017 11.2746 19.312 10.057 19.515C8.88585 19.7101 7.89615 19.3076 7.20185 18.3831C6.48661 17.4296 6.4401 16.3914 7.02159 15.3588C7.17859 15.08 7.20418 14.8982 7.01577 14.6206C6.09585 13.2601 6.90994 11.1012 9.10449 11.1034C9.42548 9.53213 10.3838 8.61101 12.1155 8.48723C12.0457 8.24413 11.948 8.00883 11.9131 7.76573C11.7852 6.86468 12.2271 6.15099 13.1354 5.77964C15.5184 4.80276 17.9036 3.83147 20.2878 2.85682C21.6194 2.31263 22.9487 1.76174 24.2814 1.21866C25.5305 0.710153 26.54 1.09711 27.0796 2.29032C28.1984 4.76039 29.3148 7.23157 30.4301 9.70275C30.729 10.364 30.6244 10.6127 29.9266 10.906C29.173 11.2216 28.4182 11.5327 27.6169 11.865C27.9123 12.4839 28.1914 13.0739 28.4728 13.6627C28.6787 14.092 28.8787 14.5224 29.0985 14.9451C29.1497 15.0432 29.2648 15.1793 29.3532 15.1804C30.3801 15.1971 31.4071 15.1904 32.4875 15.1904C32.4875 14.9819 32.4875 14.8191 32.4875 14.6563C32.4875 11.5952 32.4875 8.53407 32.4875 5.47297C32.4875 4.62992 32.6747 4.45372 33.5679 4.45372C36.3986 4.45372 39.2281 4.45372 42.0588 4.45372C43.8347 4.45372 44.8919 5.13954 45.4338 6.77547C45.8141 7.92408 46.049 9.11506 46.3921 10.2759C46.7131 11.3565 46.8201 12.4471 46.798 13.5679C46.7631 15.3209 46.7899 17.0739 46.7875 18.8269C46.7875 19.5618 46.5328 19.8049 45.7746 19.8083C45.0919 19.8105 44.4104 19.8027 43.7277 19.815C43.6021 19.8172 43.4102 19.8618 43.366 19.9443C43.1171 20.406 42.9043 20.8855 42.6624 21.394C43.6533 21.394 44.6616 21.394 45.6711 21.394C46.5735 21.394 46.7352 21.5479 46.7352 22.4077C46.7352 26.2895 46.7352 30.1714 46.7352 34.0543C46.7352 34.7937 46.5235 35 45.7629 35C33.0341 35 15.1067 35 2.37663 35C1.6044 35 1.3939 34.8004 1.3939 34.0655C1.3939 32.6883 1.35204 31.3088 1.416 29.9339C1.44624 29.2949 1.60906 28.6392 1.8463 28.0392C2.17892 27.1962 2.88252 26.6955 3.8071 26.4802C3.942 26.449 4.13157 26.3007 4.14669 26.1869C4.43395 24.1562 11.991 22.8515 14.0228 23.5195C14.0495 23.5284 14.0786 23.5284 14.1181 23.534C14.2705 23.3054 14.4147 23.0656 14.5833 22.8415C15.3009 21.8903 16.322 21.471 17.5001 21.4119C18.4654 21.3628 19.4353 21.4018 20.4576 21.4018C20.1575 20.8197 19.9109 20.3424 19.626 19.7904C19.219 19.7904 18.7282 19.7904 18.2386 19.7904C17.6722 19.7904 17.107 19.7904 16.5406 19.7904C15.7161 19.7893 15.4986 19.5841 15.4963 18.8091C15.4963 18.1835 15.4614 17.5545 15.5056 16.9312C15.5579 16.1952 15.3741 15.5317 14.9659 14.8693C14.3391 15.6119 13.5238 16.048 12.5644 16.1896L12.5667 16.1885ZM45.4175 33.7399V22.711H20.0168C19.954 23.2128 19.9016 23.708 19.8284 24.2009C19.3609 27.369 17.5757 29.4532 14.3251 30.3219C12.5051 30.8093 5.43877 30.8773 3.56636 30.8985C3.31283 30.9018 3.05813 30.8985 2.82089 30.8985V33.7399H45.4175ZM29.0194 9.84549C27.9821 7.48694 26.9703 5.18638 25.9573 2.88582C25.6596 2.21003 25.4572 2.12974 24.7652 2.41522C21.1077 3.92291 17.4512 5.43171 13.7948 6.94051C13.1587 7.20257 13.0924 7.35424 13.3645 7.95753C14.3623 10.1756 15.3625 12.3925 16.3627 14.6094C16.4197 14.7343 16.4894 14.8548 16.5674 15.0053C20.7169 13.2868 24.8455 11.5751 29.0194 9.8466V9.84549ZM33.8772 5.80194V18.4779C34.4122 18.4779 34.9181 18.4645 35.4228 18.4835C35.7066 18.4935 35.8113 18.4121 35.8717 18.1288C36.2253 16.4717 37.8151 15.2451 39.5863 15.2261C41.425 15.2071 43.0322 16.4338 43.4288 18.1467C43.4556 18.2638 43.5498 18.4567 43.6196 18.4589C44.2208 18.4835 44.8221 18.4734 45.4129 18.4734V15.7971C45.0465 15.7971 44.7011 15.7993 44.3569 15.7971C43.8301 15.7937 43.523 15.554 43.523 15.1514C43.523 14.7544 43.8335 14.5057 44.3592 14.4957C44.7035 14.489 45.0477 14.4946 45.4047 14.4946V12.6289C42.9648 12.6289 40.5574 12.6289 38.15 12.6289C37.4429 12.6289 37.2383 12.4382 37.2371 11.7691C37.2348 9.93359 37.2371 8.09693 37.2371 6.26138C37.2371 6.11418 37.2371 5.96698 37.2371 5.80417H33.8796L33.8772 5.80194ZM18.5933 22.721C16.6779 22.5638 15.8242 23.0578 15.1276 24.7094C14.9252 25.19 14.5031 25.3417 14.0449 25.0205C12.8412 24.1786 5.42016 24.9045 5.46784 26.8427C5.48412 27.5039 5.24571 27.7158 4.56304 27.7292C3.53496 27.7493 2.82321 28.5343 2.91044 29.5748C4.66538 29.6172 11.6165 29.5826 13.3424 29.2358C16.6464 28.5723 18.5328 26.6899 18.5944 22.7199L18.5933 22.721ZM45.2373 11.313C45.0512 10.577 44.8884 9.87671 44.6976 9.1842C44.4848 8.40917 44.2999 7.62076 44.0057 6.8736C43.7149 6.13314 43.102 5.75845 42.2379 5.78075C41.3831 5.80306 40.5283 5.78521 39.6735 5.78521C39.3177 5.78521 38.9606 5.78521 38.5908 5.78521V11.313H45.2373ZM12.1608 14.8904C13.0912 14.8202 13.775 14.4332 14.146 13.6381C14.2333 13.4508 14.2367 13.1709 14.1565 12.9791C13.8192 12.1684 13.4366 11.3755 13.0703 10.5759C12.8295 10.0518 12.4306 9.8388 11.8375 9.91909C10.9292 10.0418 10.3407 10.8993 10.5466 11.8037C10.6606 12.3044 10.4861 12.649 10.0547 12.6858C9.8709 12.7014 9.66854 12.6122 9.48711 12.5408C9.05914 12.3724 8.65791 12.3958 8.31134 12.6925C7.97291 12.9813 7.8822 13.3616 8.07176 13.7519C8.18922 13.9939 8.36483 14.2292 8.56952 14.4087C9.0382 14.8191 9.05797 15.167 8.58115 15.5462C7.98803 16.0201 7.81823 16.7405 8.15201 17.3772C8.47881 18.0017 9.27778 18.3496 9.98604 18.1768C10.7548 17.9883 11.2607 17.404 11.2025 16.6691C11.1769 16.3524 11.0141 16.039 10.8839 15.7368C10.6501 15.1971 10.9874 14.7399 11.5968 14.8001C11.798 14.8202 11.9957 14.8626 12.162 14.8893L12.1608 14.8904ZM42.167 18.9541C42.1658 17.627 41.0331 16.5409 39.648 16.5386C38.2617 16.5364 37.1266 17.6092 37.1092 18.9373C37.0917 20.2554 38.2791 21.4007 39.6538 21.3907C41.0203 21.3817 42.1682 20.2677 42.167 18.9529V18.9541ZM23.522 16.5386C22.1253 16.5297 20.9588 17.6304 20.9588 18.9552C20.9588 20.2543 22.1171 21.3751 23.4767 21.3907C24.8478 21.4074 26.0085 20.3168 26.0213 19.002C26.0341 17.6449 24.9199 16.5476 23.522 16.5386ZM26.5935 21.3026H36.58C36.3602 20.8364 36.1578 20.3826 35.9264 19.9421C35.8845 19.8618 35.7252 19.796 35.6194 19.7949C32.9352 19.7871 30.251 19.786 27.5657 19.796C27.4529 19.796 27.2878 19.8819 27.2378 19.9733C27.0086 20.4004 26.8109 20.8442 26.5935 21.3026ZM19.7121 15.1335C19.7225 15.1547 19.733 15.177 19.7446 15.1982H27.7076C27.2598 14.2403 26.8319 13.3248 26.3923 12.3825C24.1372 13.3114 21.9252 14.2213 19.7132 15.1324L19.7121 15.1335ZM27.3831 18.4545H32.4619V16.5743H26.5132C26.7051 16.8933 26.904 17.1687 27.0424 17.4698C27.1819 17.7709 27.2622 18.0976 27.3831 18.4556V18.4545ZM19.5493 18.4567C19.8598 17.7943 20.1517 17.1732 20.4389 16.5587H16.9337V18.4567H19.5493Z" stroke="#FF671F" stroke-width="0.2" mask="url(#path-1-outside-1_5116_1146)"/>
<path d="M25.0234 26.0565C25.0199 26.3888 24.7001 26.6932 24.3501 26.6966C24.0058 26.6999 23.679 26.3988 23.6697 26.0665C23.6604 25.7152 23.9907 25.4008 24.3594 25.4097C24.7059 25.4175 25.0258 25.7286 25.0223 26.0565H25.0234Z" stroke="#FF671F" stroke-width="0.2" mask="url(#path-1-outside-1_5116_1146)"/>
<path d="M39.156 26.5081C39.1642 26.8471 38.8664 27.1437 38.5082 27.156C38.1326 27.1694 37.8011 26.8661 37.8046 26.5148C37.8081 26.178 38.1186 25.8892 38.4792 25.887C38.8385 25.8847 39.149 26.1691 39.1572 26.507L39.156 26.5081Z" stroke="#FF671F" stroke-width="0.2" mask="url(#path-1-outside-1_5116_1146)"/>
<path d="M37.3266 30.2439C37.3255 30.5717 37.001 30.8873 36.6614 30.8929C36.3242 30.8985 35.988 30.5873 35.9776 30.2595C35.966 29.9182 36.3137 29.5826 36.6684 29.5915C37.0115 29.6004 37.329 29.9149 37.3278 30.245L37.3266 30.2439Z" stroke="#FF671F" stroke-width="0.2" mask="url(#path-1-outside-1_5116_1146)"/>
<path d="M19.4271 31.6579C19.0736 31.6501 18.7794 31.3557 18.7805 31.0089C18.7805 30.6632 19.0806 30.3654 19.4318 30.3598C19.7993 30.3543 20.1133 30.6699 20.1017 31.0334C20.09 31.3758 19.7784 31.6657 19.4283 31.6579H19.4271Z" stroke="#FF671F" stroke-width="0.2" mask="url(#path-1-outside-1_5116_1146)"/>
<path d="M42.6868 31.6055C42.324 31.5954 42.0332 31.301 42.0437 30.9553C42.0553 30.6108 42.3577 30.332 42.7206 30.332C43.0764 30.332 43.3916 30.6286 43.3951 30.9631C43.3974 31.3166 43.0683 31.6155 42.6868 31.6055Z" stroke="#FF671F" stroke-width="0.2" mask="url(#path-1-outside-1_5116_1146)"/>
<path d="M29.7812 29.606C29.7777 29.9472 29.4753 30.2394 29.1206 30.2405C28.745 30.2428 28.4403 29.9372 28.4542 29.5737C28.467 29.2335 28.781 28.9481 29.1334 28.9581C29.4928 28.9681 29.7847 29.2592 29.7812 29.606Z" stroke="#FF671F" stroke-width="0.2" mask="url(#path-1-outside-1_5116_1146)"/>
<path d="M25.6503 8.86081C25.5631 8.95336 25.434 9.20093 25.2293 9.28791C23.0882 10.2023 20.9379 11.0945 18.784 11.9821C18.3967 12.1416 18.0258 11.9832 17.8757 11.6476C17.7083 11.2729 17.8408 10.9562 18.2758 10.7744C20.3831 9.88898 22.4916 9.00689 24.6048 8.13261C25.1665 7.90066 25.6666 8.19171 25.6503 8.86192V8.86081Z" stroke="#FF671F" stroke-width="0.2" mask="url(#path-1-outside-1_5116_1146)"/>
<path d="M17.2617 9.04258C16.7965 9.03254 16.5406 8.85523 16.4604 8.52626C16.3731 8.1683 16.5557 7.91739 16.9116 7.77019C18.7061 7.02638 20.4983 6.277 22.2904 5.52984C22.5963 5.40272 22.8975 5.26667 23.2057 5.14512C23.6697 4.96223 24.0326 5.06817 24.2024 5.42614C24.3826 5.80863 24.2221 6.15656 23.7511 6.35394C21.881 7.1379 20.0086 7.91627 18.1362 8.69465C17.8199 8.82624 17.4989 8.9489 17.2628 9.04258H17.2617Z" stroke="#FF671F" stroke-width="0.2" mask="url(#path-1-outside-1_5116_1146)"/>
<path d="M40.3004 18.9619C40.2969 19.3076 39.9957 19.6008 39.6433 19.6031C39.2735 19.6053 38.9653 19.292 38.9804 18.9273C38.9944 18.5816 39.3026 18.3028 39.6584 18.3128C40.0166 18.3229 40.3039 18.6139 40.3004 18.963V18.9619Z" stroke="#FF671F" stroke-width="0.2" mask="url(#path-1-outside-1_5116_1146)"/>
<path d="M23.5174 18.3128C23.8709 18.324 24.1779 18.6273 24.1733 18.963C24.1698 19.3109 23.8174 19.6243 23.458 19.5997C23.1092 19.5763 22.801 19.2518 22.8196 18.9273C22.8393 18.595 23.172 18.3028 23.5162 18.3128H23.5174Z" stroke="#FF671F" stroke-width="0.2" mask="url(#path-1-outside-1_5116_1146)"/>
<path d="M4.9224 10.4599C2.64993 10.4599 0.800781 8.68796 0.800781 6.50895C0.800781 4.32994 2.64993 2.55685 4.9224 2.55685C7.19487 2.55685 9.04402 4.32994 9.04402 6.50895C9.04402 8.68796 7.19487 10.4611 4.9224 10.4611V10.4599ZM4.9224 3.672C3.29073 3.672 1.96377 4.94439 1.96377 6.50895C1.96377 8.07351 3.29073 9.3459 4.9224 9.3459C6.55407 9.3459 7.88103 8.07351 7.88103 6.50895C7.88103 4.94439 6.55407 3.672 4.9224 3.672Z" stroke="#FF671F" stroke-width="0.2" mask="url(#path-1-outside-1_5116_1146)"/>
<path d="M7.08695 3.64513L1.93572 8.5845L2.75807 9.37303L7.9093 4.43367L7.08695 3.64513Z" stroke="#FF671F" stroke-width="0.2" mask="url(#path-1-outside-1_5116_1146)"/>
</svg>
