<svg width="38" height="41" viewBox="0 0 38 41" fill="none" xmlns="http://www.w3.org/2000/svg">
<mask id="path-1-outside-1_5116_1153" maskUnits="userSpaceOnUse" x="-0.800781" y="0" width="39" height="40" fill="black">
<rect fill="white" x="-0.800781" width="39" height="40"/>
<path d="M18.7129 7.13496C25.6307 7.13701 31.2335 12.8996 31.2315 20.01C31.2295 27.1153 25.6187 32.8718 18.697 32.8697C11.7663 32.8677 6.1665 27.0918 6.17846 19.9558C6.18942 12.8781 11.8061 7.13291 18.7129 7.13496ZM18.7179 8.35789C12.4955 8.34459 7.3819 13.5843 7.36895 19.9885C7.35599 26.3805 12.4567 31.6325 18.69 31.6478C24.9124 31.6622 30.026 26.4215 30.039 20.0172C30.0519 13.6231 24.9533 8.37324 18.7169 8.35891L18.7179 8.35789Z"/>
<path d="M2.02322 5.14654C1.13857 3.77113 1.21727 2.49805 2.21748 1.60567C3.12902 0.792089 4.48189 0.800276 5.38347 1.62409C6.15256 2.32613 6.62178 3.74964 5.55981 5.12812C5.64648 5.19362 5.73315 5.26014 5.81982 5.32461C6.81604 6.0727 7.35699 7.06844 7.36795 8.34766C7.37293 8.93507 7.37193 9.52147 7.36795 10.1089C7.36396 10.5899 7.15376 10.8058 6.68255 10.8068C4.75685 10.8099 2.83215 10.8089 0.90645 10.8068C0.432248 10.8068 0.215072 10.5919 0.215072 10.116C0.215072 9.36387 0.163268 8.6035 0.246951 7.85951C0.380445 6.67649 1.01703 5.78513 2.02421 5.14654H2.02322ZM6.17448 9.56752C6.17448 9.11519 6.18842 8.70686 6.17149 8.30058C6.12865 7.21683 5.43528 6.30193 4.45101 6.00925C3.47172 5.71759 2.41772 6.10544 1.83094 6.97224C1.28601 7.77661 1.39659 8.67718 1.4195 9.56649H6.17448V9.56752ZM2.59804 3.44877C2.59305 4.09963 3.14795 4.67579 3.78354 4.68091C4.41714 4.68603 4.97801 4.11601 4.982 3.46309C4.98698 2.81121 4.43308 2.23607 3.79649 2.23198C3.16389 2.22686 2.60302 2.7979 2.59804 3.44979V3.44877Z"/>
<path d="M35.4206 5.10561C35.7394 5.40853 36.0841 5.68279 36.366 6.01334C36.9159 6.65909 37.1899 7.42764 37.1958 8.29035C37.1998 8.90233 37.2008 9.51533 37.1958 10.1283C37.1919 10.5848 36.9767 10.8058 36.5294 10.8068C34.5917 10.8099 32.6541 10.8099 30.7154 10.8068C30.2631 10.8068 30.047 10.5888 30.043 10.1355C30.037 9.48462 30.0201 8.83274 30.047 8.18289C30.0958 6.99885 30.6198 6.06656 31.5393 5.3635C31.6369 5.28879 31.7375 5.2192 31.8352 5.14859C30.9864 3.63297 31.076 2.42437 32.0882 1.56781C33.0008 0.795159 34.3108 0.812556 35.1984 1.61079C36.1837 2.49703 36.2574 3.70154 35.4206 5.10459V5.10561ZM36.0014 9.56956C36.0014 9.11212 36.0223 8.68025 35.9974 8.25146C35.9267 7.00908 35.048 6.0727 33.8326 5.91919C32.7726 5.78513 31.6469 6.52093 31.3679 7.63743C31.2145 8.25044 31.2384 8.90949 31.1807 9.56956H36.0014ZM34.8109 3.45286C34.8089 2.7979 34.252 2.22891 33.6154 2.23095C32.9808 2.233 32.4249 2.80609 32.4259 3.45798C32.4279 4.11089 32.9868 4.68193 33.6204 4.68091C34.256 4.67886 34.8119 4.10475 34.8099 3.45286H34.8109Z"/>
<path d="M5.59667 33.2995C5.91645 33.6035 6.26115 33.8788 6.54308 34.2104C7.092 34.8571 7.36396 35.6267 7.36795 36.4894C7.37094 37.0891 7.37193 37.6888 7.36795 38.2885C7.36496 38.7746 7.15675 38.9967 6.69251 38.9977C4.75486 39.0008 2.8172 39.0008 0.878556 38.9977C0.431252 38.9977 0.21806 38.7756 0.213079 38.3182C0.208098 37.7185 0.206106 37.1188 0.213079 36.5191C0.227026 35.2706 0.750043 34.2912 1.71738 33.5503C1.80604 33.4817 1.89769 33.4172 1.98735 33.3487C1.99532 33.3425 1.99432 33.3251 1.99831 33.3129C1.15252 31.8914 1.22424 30.692 2.20951 29.8047C3.09714 29.0055 4.40718 28.986 5.31872 29.7577C6.33088 30.6152 6.42154 31.8269 5.59567 33.2995H5.59667ZM1.4464 37.7502H6.16949C6.16949 37.2815 6.19838 36.8353 6.16451 36.3942C6.06688 35.1212 5.10154 34.1633 3.88416 34.0998C2.70762 34.0384 1.64864 34.9103 1.45935 36.1681C1.38264 36.6746 1.4464 37.2047 1.4464 37.7502ZM3.77956 30.4208C3.14496 30.428 2.59106 31.0072 2.59804 31.656C2.60501 32.3089 3.16788 32.8779 3.80048 32.8708C4.43706 32.8636 4.98997 32.2854 4.982 31.6355C4.97502 30.9816 4.41315 30.4147 3.77956 30.4218V30.4208Z"/>
<path d="M31.8551 33.3262C30.7911 31.9518 31.2494 30.5211 32.0245 29.816C32.928 28.9932 34.2789 28.983 35.1905 29.7965C36.1897 30.6879 36.2684 31.9548 35.4126 33.2955C35.7234 33.5851 36.0602 33.8491 36.3361 34.1674C36.9089 34.8295 37.1949 35.6185 37.1958 36.5099C37.1958 37.1096 37.1998 37.7093 37.1958 38.309C37.1919 38.7705 36.9807 38.9967 36.5383 38.9967C34.5877 39.0008 32.6381 38.9967 30.6875 38.9987C30.3408 38.9987 30.0679 38.837 30.0579 38.4881C30.033 37.6479 30.0031 36.7985 30.0948 35.9665C30.2133 34.8837 30.8041 34.0548 31.6847 33.45C31.7346 33.4162 31.7824 33.3784 31.8561 33.3251L31.8551 33.3262ZM31.2105 37.7471H36.0024C36.0024 37.2989 36.0203 36.8783 35.9994 36.4597C35.9336 35.1754 34.9763 34.1848 33.74 34.1019C32.5674 34.0231 31.4895 34.896 31.2922 36.1415C31.2095 36.6613 31.2355 37.1996 31.2115 37.7471H31.2105ZM34.8109 31.6355C34.8039 30.9816 34.243 30.4136 33.6085 30.4208C32.9739 30.428 32.42 31.0062 32.4259 31.655C32.4319 32.3079 32.9948 32.8769 33.6274 32.8708C34.264 32.8636 34.8169 32.2864 34.8099 31.6355H34.8109Z"/>
<path d="M29.8118 5.90384C29.5668 6.22211 29.3376 6.52093 29.0766 6.85967C26.0242 4.40562 22.5584 3.15404 18.697 3.15813C14.8496 3.16222 11.3917 4.40255 8.33628 6.86274C8.07826 6.5281 7.84315 6.22211 7.60704 5.91612C13.5664 0.846327 23.1013 0.353062 29.8109 5.90384H29.8118Z"/>
<path d="M8.22171 35.1836C8.44487 34.8674 8.66802 34.5511 8.87424 34.2585C15.4374 38.5576 21.9576 38.5556 28.5307 34.2636C28.6243 34.3935 28.7409 34.5532 28.8555 34.7159C28.9641 34.8694 29.0697 35.025 29.1763 35.1795C23.3583 39.7601 14.4043 39.9627 8.22171 35.1836Z"/>
<path d="M34.5728 11.732C37.1719 17.2203 37.2915 22.678 34.8816 28.2461C34.6634 28.1407 34.4891 28.0558 34.3148 27.9698C34.1474 27.888 33.982 27.804 33.7937 27.7099C36.0462 22.5367 35.9326 17.4117 33.5058 12.3091C33.8535 12.1208 34.1892 11.9387 34.5728 11.7309V11.732Z"/>
<path d="M2.86104 11.7401C3.24259 11.9499 3.56736 12.127 3.90209 12.3112C1.47729 17.4076 1.36272 22.5214 3.61518 27.713C3.27646 27.8818 2.93576 28.0517 2.5552 28.241C1.48824 25.9753 0.917409 23.6113 0.818783 21.1296C0.686285 17.8292 1.35575 14.7069 2.86104 11.7401Z"/>
<path d="M18.703 27.3548C16.578 27.3548 14.4531 27.3548 12.3281 27.3548C11.7314 27.3548 11.5471 27.1675 11.5471 26.5617C11.5471 23.8047 11.5501 21.0467 11.5391 18.2897C11.5391 18.0912 11.4584 17.8722 11.3578 17.6982C10.9962 17.0791 10.8328 16.462 11.0928 15.7395C11.4664 14.7018 11.7922 13.6457 12.1209 12.5916C12.2465 12.1884 12.4796 12.0308 12.889 12.0318C16.7663 12.04 20.6436 12.04 24.5199 12.0318C24.9294 12.0318 25.1625 12.1894 25.288 12.5926C25.6168 13.6467 25.9425 14.7038 26.3171 15.7415C26.5771 16.464 26.4107 17.0811 26.0501 17.7003C25.9485 17.8742 25.8708 18.0932 25.8698 18.2918C25.8578 21.0365 25.8618 23.7812 25.8618 26.5248C25.8618 27.1798 25.6885 27.3538 25.0409 27.3538C22.9279 27.3538 20.816 27.3538 18.703 27.3538V27.3548ZM15.1186 17.9612C14.4551 18.6459 13.68 18.9181 12.7585 18.7093V26.1063H13.9331C13.9331 25.0993 13.9301 24.1178 13.9341 23.1375C13.936 22.7097 14.1413 22.463 14.5238 22.46C15.518 22.4497 16.5123 22.4508 17.5065 22.46C17.8811 22.463 18.0973 22.6984 18.1042 23.0914C18.1132 23.6143 18.1062 24.1383 18.1062 24.6613C18.1062 25.1422 18.1062 25.6222 18.1062 26.1063H24.6414V23.6788C23.2697 23.6788 21.9277 23.6809 20.5858 23.6778C20.1126 23.6768 19.9024 23.4619 19.8994 22.9809C19.8954 22.24 19.8964 21.5001 19.8994 20.7591C19.9004 20.2045 20.0957 20.0059 20.6426 20.0049C21.848 20.0039 23.0535 20.0049 24.2589 20.0049C24.3894 20.0049 24.5209 20.0049 24.6414 20.0049V18.7073C23.697 18.9273 22.9329 18.6131 22.2774 17.9653C21.7604 18.4801 21.1935 18.7779 20.4912 18.7789C19.7779 18.781 19.209 18.4545 18.7109 17.9776C17.4268 19.1831 16.059 18.9068 15.1186 17.9623V17.9612ZM15.7203 13.2752C15.7203 14.2976 15.7133 15.2779 15.7223 16.2583C15.7292 16.9972 16.2562 17.5549 16.9207 17.5498C17.5882 17.5447 18.0993 16.9911 18.1072 16.245C18.1162 15.4171 18.1092 14.5882 18.1092 13.7603C18.1092 13.6006 18.1092 13.44 18.1092 13.2742H15.7203V13.2752ZM19.2997 13.267C19.2997 14.2658 19.2967 15.2309 19.3007 16.1959C19.3037 16.9747 19.7958 17.5365 20.4772 17.5498C21.1656 17.5631 21.6837 16.988 21.6877 16.1928C21.6926 15.3138 21.6896 14.4347 21.6877 13.5556C21.6877 13.4594 21.6697 13.3642 21.6598 13.267H19.2997ZM14.5278 13.2598C14.1443 13.2598 13.7996 13.2711 13.4549 13.2558C13.2487 13.2465 13.152 13.3131 13.0863 13.5259C12.8083 14.4224 12.4965 15.3086 12.2275 16.2082C12.1717 16.3934 12.1996 16.639 12.2704 16.8243C12.4596 17.3237 13.0225 17.6256 13.5057 17.5345C14.0905 17.424 14.5119 16.9604 14.5228 16.3412C14.5417 15.3342 14.5278 14.3272 14.5278 13.2598ZM22.8861 13.2701C22.8861 14.3436 22.8622 15.3874 22.8951 16.4292C22.913 17.0074 23.3573 17.4393 23.9132 17.5375C24.7211 17.6808 25.4036 16.8785 25.1475 16.0874C24.9682 15.5328 24.7949 14.975 24.6046 14.4234C24.4701 14.0345 24.4123 13.4983 24.1384 13.3141C23.8524 13.1217 23.3474 13.2711 22.8861 13.2711V13.2701ZM21.1128 21.234V22.4283H24.6414V21.234H21.1128ZM15.1484 23.6972V26.1032H16.8978V23.6972H15.1484Z"/>
</mask>
<path d="M18.7129 7.13496C25.6307 7.13701 31.2335 12.8996 31.2315 20.01C31.2295 27.1153 25.6187 32.8718 18.697 32.8697C11.7663 32.8677 6.1665 27.0918 6.17846 19.9558C6.18942 12.8781 11.8061 7.13291 18.7129 7.13496ZM18.7179 8.35789C12.4955 8.34459 7.3819 13.5843 7.36895 19.9885C7.35599 26.3805 12.4567 31.6325 18.69 31.6478C24.9124 31.6622 30.026 26.4215 30.039 20.0172C30.0519 13.6231 24.9533 8.37324 18.7169 8.35891L18.7179 8.35789Z" fill="#FF671F"/>
<path d="M2.02322 5.14654C1.13857 3.77113 1.21727 2.49805 2.21748 1.60567C3.12902 0.792089 4.48189 0.800276 5.38347 1.62409C6.15256 2.32613 6.62178 3.74964 5.55981 5.12812C5.64648 5.19362 5.73315 5.26014 5.81982 5.32461C6.81604 6.0727 7.35699 7.06844 7.36795 8.34766C7.37293 8.93507 7.37193 9.52147 7.36795 10.1089C7.36396 10.5899 7.15376 10.8058 6.68255 10.8068C4.75685 10.8099 2.83215 10.8089 0.90645 10.8068C0.432248 10.8068 0.215072 10.5919 0.215072 10.116C0.215072 9.36387 0.163268 8.6035 0.246951 7.85951C0.380445 6.67649 1.01703 5.78513 2.02421 5.14654H2.02322ZM6.17448 9.56752C6.17448 9.11519 6.18842 8.70686 6.17149 8.30058C6.12865 7.21683 5.43528 6.30193 4.45101 6.00925C3.47172 5.71759 2.41772 6.10544 1.83094 6.97224C1.28601 7.77661 1.39659 8.67718 1.4195 9.56649H6.17448V9.56752ZM2.59804 3.44877C2.59305 4.09963 3.14795 4.67579 3.78354 4.68091C4.41714 4.68603 4.97801 4.11601 4.982 3.46309C4.98698 2.81121 4.43308 2.23607 3.79649 2.23198C3.16389 2.22686 2.60302 2.7979 2.59804 3.44979V3.44877Z" fill="#FF671F"/>
<path d="M35.4206 5.10561C35.7394 5.40853 36.0841 5.68279 36.366 6.01334C36.9159 6.65909 37.1899 7.42764 37.1958 8.29035C37.1998 8.90233 37.2008 9.51533 37.1958 10.1283C37.1919 10.5848 36.9767 10.8058 36.5294 10.8068C34.5917 10.8099 32.6541 10.8099 30.7154 10.8068C30.2631 10.8068 30.047 10.5888 30.043 10.1355C30.037 9.48462 30.0201 8.83274 30.047 8.18289C30.0958 6.99885 30.6198 6.06656 31.5393 5.3635C31.6369 5.28879 31.7375 5.2192 31.8352 5.14859C30.9864 3.63297 31.076 2.42437 32.0882 1.56781C33.0008 0.795159 34.3108 0.812556 35.1984 1.61079C36.1837 2.49703 36.2574 3.70154 35.4206 5.10459V5.10561ZM36.0014 9.56956C36.0014 9.11212 36.0223 8.68025 35.9974 8.25146C35.9267 7.00908 35.048 6.0727 33.8326 5.91919C32.7726 5.78513 31.6469 6.52093 31.3679 7.63743C31.2145 8.25044 31.2384 8.90949 31.1807 9.56956H36.0014ZM34.8109 3.45286C34.8089 2.7979 34.252 2.22891 33.6154 2.23095C32.9808 2.233 32.4249 2.80609 32.4259 3.45798C32.4279 4.11089 32.9868 4.68193 33.6204 4.68091C34.256 4.67886 34.8119 4.10475 34.8099 3.45286H34.8109Z" fill="#FF671F"/>
<path d="M5.59667 33.2995C5.91645 33.6035 6.26115 33.8788 6.54308 34.2104C7.092 34.8571 7.36396 35.6267 7.36795 36.4894C7.37094 37.0891 7.37193 37.6888 7.36795 38.2885C7.36496 38.7746 7.15675 38.9967 6.69251 38.9977C4.75486 39.0008 2.8172 39.0008 0.878556 38.9977C0.431252 38.9977 0.21806 38.7756 0.213079 38.3182C0.208098 37.7185 0.206106 37.1188 0.213079 36.5191C0.227026 35.2706 0.750043 34.2912 1.71738 33.5503C1.80604 33.4817 1.89769 33.4172 1.98735 33.3487C1.99532 33.3425 1.99432 33.3251 1.99831 33.3129C1.15252 31.8914 1.22424 30.692 2.20951 29.8047C3.09714 29.0055 4.40718 28.986 5.31872 29.7577C6.33088 30.6152 6.42154 31.8269 5.59567 33.2995H5.59667ZM1.4464 37.7502H6.16949C6.16949 37.2815 6.19838 36.8353 6.16451 36.3942C6.06688 35.1212 5.10154 34.1633 3.88416 34.0998C2.70762 34.0384 1.64864 34.9103 1.45935 36.1681C1.38264 36.6746 1.4464 37.2047 1.4464 37.7502ZM3.77956 30.4208C3.14496 30.428 2.59106 31.0072 2.59804 31.656C2.60501 32.3089 3.16788 32.8779 3.80048 32.8708C4.43706 32.8636 4.98997 32.2854 4.982 31.6355C4.97502 30.9816 4.41315 30.4147 3.77956 30.4218V30.4208Z" fill="#FF671F"/>
<path d="M31.8551 33.3262C30.7911 31.9518 31.2494 30.5211 32.0245 29.816C32.928 28.9932 34.2789 28.983 35.1905 29.7965C36.1897 30.6879 36.2684 31.9548 35.4126 33.2955C35.7234 33.5851 36.0602 33.8491 36.3361 34.1674C36.9089 34.8295 37.1949 35.6185 37.1958 36.5099C37.1958 37.1096 37.1998 37.7093 37.1958 38.309C37.1919 38.7705 36.9807 38.9967 36.5383 38.9967C34.5877 39.0008 32.6381 38.9967 30.6875 38.9987C30.3408 38.9987 30.0679 38.837 30.0579 38.4881C30.033 37.6479 30.0031 36.7985 30.0948 35.9665C30.2133 34.8837 30.8041 34.0548 31.6847 33.45C31.7346 33.4162 31.7824 33.3784 31.8561 33.3251L31.8551 33.3262ZM31.2105 37.7471H36.0024C36.0024 37.2989 36.0203 36.8783 35.9994 36.4597C35.9336 35.1754 34.9763 34.1848 33.74 34.1019C32.5674 34.0231 31.4895 34.896 31.2922 36.1415C31.2095 36.6613 31.2355 37.1996 31.2115 37.7471H31.2105ZM34.8109 31.6355C34.8039 30.9816 34.243 30.4136 33.6085 30.4208C32.9739 30.428 32.42 31.0062 32.4259 31.655C32.4319 32.3079 32.9948 32.8769 33.6274 32.8708C34.264 32.8636 34.8169 32.2864 34.8099 31.6355H34.8109Z" fill="#FF671F"/>
<path d="M29.8118 5.90384C29.5668 6.22211 29.3376 6.52093 29.0766 6.85967C26.0242 4.40562 22.5584 3.15404 18.697 3.15813C14.8496 3.16222 11.3917 4.40255 8.33628 6.86274C8.07826 6.5281 7.84315 6.22211 7.60704 5.91612C13.5664 0.846327 23.1013 0.353062 29.8109 5.90384H29.8118Z" fill="#FF671F"/>
<path d="M8.22171 35.1836C8.44487 34.8674 8.66802 34.5511 8.87424 34.2585C15.4374 38.5576 21.9576 38.5556 28.5307 34.2636C28.6243 34.3935 28.7409 34.5532 28.8555 34.7159C28.9641 34.8694 29.0697 35.025 29.1763 35.1795C23.3583 39.7601 14.4043 39.9627 8.22171 35.1836Z" fill="#FF671F"/>
<path d="M34.5728 11.732C37.1719 17.2203 37.2915 22.678 34.8816 28.2461C34.6634 28.1407 34.4891 28.0558 34.3148 27.9698C34.1474 27.888 33.982 27.804 33.7937 27.7099C36.0462 22.5367 35.9326 17.4117 33.5058 12.3091C33.8535 12.1208 34.1892 11.9387 34.5728 11.7309V11.732Z" fill="#FF671F"/>
<path d="M2.86104 11.7401C3.24259 11.9499 3.56736 12.127 3.90209 12.3112C1.47729 17.4076 1.36272 22.5214 3.61518 27.713C3.27646 27.8818 2.93576 28.0517 2.5552 28.241C1.48824 25.9753 0.917409 23.6113 0.818783 21.1296C0.686285 17.8292 1.35575 14.7069 2.86104 11.7401Z" fill="#FF671F"/>
<path d="M18.703 27.3548C16.578 27.3548 14.4531 27.3548 12.3281 27.3548C11.7314 27.3548 11.5471 27.1675 11.5471 26.5617C11.5471 23.8047 11.5501 21.0467 11.5391 18.2897C11.5391 18.0912 11.4584 17.8722 11.3578 17.6982C10.9962 17.0791 10.8328 16.462 11.0928 15.7395C11.4664 14.7018 11.7922 13.6457 12.1209 12.5916C12.2465 12.1884 12.4796 12.0308 12.889 12.0318C16.7663 12.04 20.6436 12.04 24.5199 12.0318C24.9294 12.0318 25.1625 12.1894 25.288 12.5926C25.6168 13.6467 25.9425 14.7038 26.3171 15.7415C26.5771 16.464 26.4107 17.0811 26.0501 17.7003C25.9485 17.8742 25.8708 18.0932 25.8698 18.2918C25.8578 21.0365 25.8618 23.7812 25.8618 26.5248C25.8618 27.1798 25.6885 27.3538 25.0409 27.3538C22.9279 27.3538 20.816 27.3538 18.703 27.3538V27.3548ZM15.1186 17.9612C14.4551 18.6459 13.68 18.9181 12.7585 18.7093V26.1063H13.9331C13.9331 25.0993 13.9301 24.1178 13.9341 23.1375C13.936 22.7097 14.1413 22.463 14.5238 22.46C15.518 22.4497 16.5123 22.4508 17.5065 22.46C17.8811 22.463 18.0973 22.6984 18.1042 23.0914C18.1132 23.6143 18.1062 24.1383 18.1062 24.6613C18.1062 25.1422 18.1062 25.6222 18.1062 26.1063H24.6414V23.6788C23.2697 23.6788 21.9277 23.6809 20.5858 23.6778C20.1126 23.6768 19.9024 23.4619 19.8994 22.9809C19.8954 22.24 19.8964 21.5001 19.8994 20.7591C19.9004 20.2045 20.0957 20.0059 20.6426 20.0049C21.848 20.0039 23.0535 20.0049 24.2589 20.0049C24.3894 20.0049 24.5209 20.0049 24.6414 20.0049V18.7073C23.697 18.9273 22.9329 18.6131 22.2774 17.9653C21.7604 18.4801 21.1935 18.7779 20.4912 18.7789C19.7779 18.781 19.209 18.4545 18.7109 17.9776C17.4268 19.1831 16.059 18.9068 15.1186 17.9623V17.9612ZM15.7203 13.2752C15.7203 14.2976 15.7133 15.2779 15.7223 16.2583C15.7292 16.9972 16.2562 17.5549 16.9207 17.5498C17.5882 17.5447 18.0993 16.9911 18.1072 16.245C18.1162 15.4171 18.1092 14.5882 18.1092 13.7603C18.1092 13.6006 18.1092 13.44 18.1092 13.2742H15.7203V13.2752ZM19.2997 13.267C19.2997 14.2658 19.2967 15.2309 19.3007 16.1959C19.3037 16.9747 19.7958 17.5365 20.4772 17.5498C21.1656 17.5631 21.6837 16.988 21.6877 16.1928C21.6926 15.3138 21.6896 14.4347 21.6877 13.5556C21.6877 13.4594 21.6697 13.3642 21.6598 13.267H19.2997ZM14.5278 13.2598C14.1443 13.2598 13.7996 13.2711 13.4549 13.2558C13.2487 13.2465 13.152 13.3131 13.0863 13.5259C12.8083 14.4224 12.4965 15.3086 12.2275 16.2082C12.1717 16.3934 12.1996 16.639 12.2704 16.8243C12.4596 17.3237 13.0225 17.6256 13.5057 17.5345C14.0905 17.424 14.5119 16.9604 14.5228 16.3412C14.5417 15.3342 14.5278 14.3272 14.5278 13.2598ZM22.8861 13.2701C22.8861 14.3436 22.8622 15.3874 22.8951 16.4292C22.913 17.0074 23.3573 17.4393 23.9132 17.5375C24.7211 17.6808 25.4036 16.8785 25.1475 16.0874C24.9682 15.5328 24.7949 14.975 24.6046 14.4234C24.4701 14.0345 24.4123 13.4983 24.1384 13.3141C23.8524 13.1217 23.3474 13.2711 22.8861 13.2711V13.2701ZM21.1128 21.234V22.4283H24.6414V21.234H21.1128ZM15.1484 23.6972V26.1032H16.8978V23.6972H15.1484Z" fill="#FF671F"/>
<path d="M18.7129 7.13496C25.6307 7.13701 31.2335 12.8996 31.2315 20.01C31.2295 27.1153 25.6187 32.8718 18.697 32.8697C11.7663 32.8677 6.1665 27.0918 6.17846 19.9558C6.18942 12.8781 11.8061 7.13291 18.7129 7.13496ZM18.7179 8.35789C12.4955 8.34459 7.3819 13.5843 7.36895 19.9885C7.35599 26.3805 12.4567 31.6325 18.69 31.6478C24.9124 31.6622 30.026 26.4215 30.039 20.0172C30.0519 13.6231 24.9533 8.37324 18.7169 8.35891L18.7179 8.35789Z" stroke="#FF671F" stroke-width="0.4" mask="url(#path-1-outside-1_5116_1153)"/>
<path d="M2.02322 5.14654C1.13857 3.77113 1.21727 2.49805 2.21748 1.60567C3.12902 0.792089 4.48189 0.800276 5.38347 1.62409C6.15256 2.32613 6.62178 3.74964 5.55981 5.12812C5.64648 5.19362 5.73315 5.26014 5.81982 5.32461C6.81604 6.0727 7.35699 7.06844 7.36795 8.34766C7.37293 8.93507 7.37193 9.52147 7.36795 10.1089C7.36396 10.5899 7.15376 10.8058 6.68255 10.8068C4.75685 10.8099 2.83215 10.8089 0.90645 10.8068C0.432248 10.8068 0.215072 10.5919 0.215072 10.116C0.215072 9.36387 0.163268 8.6035 0.246951 7.85951C0.380445 6.67649 1.01703 5.78513 2.02421 5.14654H2.02322ZM6.17448 9.56752C6.17448 9.11519 6.18842 8.70686 6.17149 8.30058C6.12865 7.21683 5.43528 6.30193 4.45101 6.00925C3.47172 5.71759 2.41772 6.10544 1.83094 6.97224C1.28601 7.77661 1.39659 8.67718 1.4195 9.56649H6.17448V9.56752ZM2.59804 3.44877C2.59305 4.09963 3.14795 4.67579 3.78354 4.68091C4.41714 4.68603 4.97801 4.11601 4.982 3.46309C4.98698 2.81121 4.43308 2.23607 3.79649 2.23198C3.16389 2.22686 2.60302 2.7979 2.59804 3.44979V3.44877Z" stroke="#FF671F" stroke-width="0.4" mask="url(#path-1-outside-1_5116_1153)"/>
<path d="M35.4206 5.10561C35.7394 5.40853 36.0841 5.68279 36.366 6.01334C36.9159 6.65909 37.1899 7.42764 37.1958 8.29035C37.1998 8.90233 37.2008 9.51533 37.1958 10.1283C37.1919 10.5848 36.9767 10.8058 36.5294 10.8068C34.5917 10.8099 32.6541 10.8099 30.7154 10.8068C30.2631 10.8068 30.047 10.5888 30.043 10.1355C30.037 9.48462 30.0201 8.83274 30.047 8.18289C30.0958 6.99885 30.6198 6.06656 31.5393 5.3635C31.6369 5.28879 31.7375 5.2192 31.8352 5.14859C30.9864 3.63297 31.076 2.42437 32.0882 1.56781C33.0008 0.795159 34.3108 0.812556 35.1984 1.61079C36.1837 2.49703 36.2574 3.70154 35.4206 5.10459V5.10561ZM36.0014 9.56956C36.0014 9.11212 36.0223 8.68025 35.9974 8.25146C35.9267 7.00908 35.048 6.0727 33.8326 5.91919C32.7726 5.78513 31.6469 6.52093 31.3679 7.63743C31.2145 8.25044 31.2384 8.90949 31.1807 9.56956H36.0014ZM34.8109 3.45286C34.8089 2.7979 34.252 2.22891 33.6154 2.23095C32.9808 2.233 32.4249 2.80609 32.4259 3.45798C32.4279 4.11089 32.9868 4.68193 33.6204 4.68091C34.256 4.67886 34.8119 4.10475 34.8099 3.45286H34.8109Z" stroke="#FF671F" stroke-width="0.4" mask="url(#path-1-outside-1_5116_1153)"/>
<path d="M5.59667 33.2995C5.91645 33.6035 6.26115 33.8788 6.54308 34.2104C7.092 34.8571 7.36396 35.6267 7.36795 36.4894C7.37094 37.0891 7.37193 37.6888 7.36795 38.2885C7.36496 38.7746 7.15675 38.9967 6.69251 38.9977C4.75486 39.0008 2.8172 39.0008 0.878556 38.9977C0.431252 38.9977 0.21806 38.7756 0.213079 38.3182C0.208098 37.7185 0.206106 37.1188 0.213079 36.5191C0.227026 35.2706 0.750043 34.2912 1.71738 33.5503C1.80604 33.4817 1.89769 33.4172 1.98735 33.3487C1.99532 33.3425 1.99432 33.3251 1.99831 33.3129C1.15252 31.8914 1.22424 30.692 2.20951 29.8047C3.09714 29.0055 4.40718 28.986 5.31872 29.7577C6.33088 30.6152 6.42154 31.8269 5.59567 33.2995H5.59667ZM1.4464 37.7502H6.16949C6.16949 37.2815 6.19838 36.8353 6.16451 36.3942C6.06688 35.1212 5.10154 34.1633 3.88416 34.0998C2.70762 34.0384 1.64864 34.9103 1.45935 36.1681C1.38264 36.6746 1.4464 37.2047 1.4464 37.7502ZM3.77956 30.4208C3.14496 30.428 2.59106 31.0072 2.59804 31.656C2.60501 32.3089 3.16788 32.8779 3.80048 32.8708C4.43706 32.8636 4.98997 32.2854 4.982 31.6355C4.97502 30.9816 4.41315 30.4147 3.77956 30.4218V30.4208Z" stroke="#FF671F" stroke-width="0.4" mask="url(#path-1-outside-1_5116_1153)"/>
<path d="M31.8551 33.3262C30.7911 31.9518 31.2494 30.5211 32.0245 29.816C32.928 28.9932 34.2789 28.983 35.1905 29.7965C36.1897 30.6879 36.2684 31.9548 35.4126 33.2955C35.7234 33.5851 36.0602 33.8491 36.3361 34.1674C36.9089 34.8295 37.1949 35.6185 37.1958 36.5099C37.1958 37.1096 37.1998 37.7093 37.1958 38.309C37.1919 38.7705 36.9807 38.9967 36.5383 38.9967C34.5877 39.0008 32.6381 38.9967 30.6875 38.9987C30.3408 38.9987 30.0679 38.837 30.0579 38.4881C30.033 37.6479 30.0031 36.7985 30.0948 35.9665C30.2133 34.8837 30.8041 34.0548 31.6847 33.45C31.7346 33.4162 31.7824 33.3784 31.8561 33.3251L31.8551 33.3262ZM31.2105 37.7471H36.0024C36.0024 37.2989 36.0203 36.8783 35.9994 36.4597C35.9336 35.1754 34.9763 34.1848 33.74 34.1019C32.5674 34.0231 31.4895 34.896 31.2922 36.1415C31.2095 36.6613 31.2355 37.1996 31.2115 37.7471H31.2105ZM34.8109 31.6355C34.8039 30.9816 34.243 30.4136 33.6085 30.4208C32.9739 30.428 32.42 31.0062 32.4259 31.655C32.4319 32.3079 32.9948 32.8769 33.6274 32.8708C34.264 32.8636 34.8169 32.2864 34.8099 31.6355H34.8109Z" stroke="#FF671F" stroke-width="0.4" mask="url(#path-1-outside-1_5116_1153)"/>
<path d="M29.8118 5.90384C29.5668 6.22211 29.3376 6.52093 29.0766 6.85967C26.0242 4.40562 22.5584 3.15404 18.697 3.15813C14.8496 3.16222 11.3917 4.40255 8.33628 6.86274C8.07826 6.5281 7.84315 6.22211 7.60704 5.91612C13.5664 0.846327 23.1013 0.353062 29.8109 5.90384H29.8118Z" stroke="#FF671F" stroke-width="0.4" mask="url(#path-1-outside-1_5116_1153)"/>
<path d="M8.22171 35.1836C8.44487 34.8674 8.66802 34.5511 8.87424 34.2585C15.4374 38.5576 21.9576 38.5556 28.5307 34.2636C28.6243 34.3935 28.7409 34.5532 28.8555 34.7159C28.9641 34.8694 29.0697 35.025 29.1763 35.1795C23.3583 39.7601 14.4043 39.9627 8.22171 35.1836Z" stroke="#FF671F" stroke-width="0.4" mask="url(#path-1-outside-1_5116_1153)"/>
<path d="M34.5728 11.732C37.1719 17.2203 37.2915 22.678 34.8816 28.2461C34.6634 28.1407 34.4891 28.0558 34.3148 27.9698C34.1474 27.888 33.982 27.804 33.7937 27.7099C36.0462 22.5367 35.9326 17.4117 33.5058 12.3091C33.8535 12.1208 34.1892 11.9387 34.5728 11.7309V11.732Z" stroke="#FF671F" stroke-width="0.4" mask="url(#path-1-outside-1_5116_1153)"/>
<path d="M2.86104 11.7401C3.24259 11.9499 3.56736 12.127 3.90209 12.3112C1.47729 17.4076 1.36272 22.5214 3.61518 27.713C3.27646 27.8818 2.93576 28.0517 2.5552 28.241C1.48824 25.9753 0.917409 23.6113 0.818783 21.1296C0.686285 17.8292 1.35575 14.7069 2.86104 11.7401Z" stroke="#FF671F" stroke-width="0.4" mask="url(#path-1-outside-1_5116_1153)"/>
<path d="M18.703 27.3548C16.578 27.3548 14.4531 27.3548 12.3281 27.3548C11.7314 27.3548 11.5471 27.1675 11.5471 26.5617C11.5471 23.8047 11.5501 21.0467 11.5391 18.2897C11.5391 18.0912 11.4584 17.8722 11.3578 17.6982C10.9962 17.0791 10.8328 16.462 11.0928 15.7395C11.4664 14.7018 11.7922 13.6457 12.1209 12.5916C12.2465 12.1884 12.4796 12.0308 12.889 12.0318C16.7663 12.04 20.6436 12.04 24.5199 12.0318C24.9294 12.0318 25.1625 12.1894 25.288 12.5926C25.6168 13.6467 25.9425 14.7038 26.3171 15.7415C26.5771 16.464 26.4107 17.0811 26.0501 17.7003C25.9485 17.8742 25.8708 18.0932 25.8698 18.2918C25.8578 21.0365 25.8618 23.7812 25.8618 26.5248C25.8618 27.1798 25.6885 27.3538 25.0409 27.3538C22.9279 27.3538 20.816 27.3538 18.703 27.3538V27.3548ZM15.1186 17.9612C14.4551 18.6459 13.68 18.9181 12.7585 18.7093V26.1063H13.9331C13.9331 25.0993 13.9301 24.1178 13.9341 23.1375C13.936 22.7097 14.1413 22.463 14.5238 22.46C15.518 22.4497 16.5123 22.4508 17.5065 22.46C17.8811 22.463 18.0973 22.6984 18.1042 23.0914C18.1132 23.6143 18.1062 24.1383 18.1062 24.6613C18.1062 25.1422 18.1062 25.6222 18.1062 26.1063H24.6414V23.6788C23.2697 23.6788 21.9277 23.6809 20.5858 23.6778C20.1126 23.6768 19.9024 23.4619 19.8994 22.9809C19.8954 22.24 19.8964 21.5001 19.8994 20.7591C19.9004 20.2045 20.0957 20.0059 20.6426 20.0049C21.848 20.0039 23.0535 20.0049 24.2589 20.0049C24.3894 20.0049 24.5209 20.0049 24.6414 20.0049V18.7073C23.697 18.9273 22.9329 18.6131 22.2774 17.9653C21.7604 18.4801 21.1935 18.7779 20.4912 18.7789C19.7779 18.781 19.209 18.4545 18.7109 17.9776C17.4268 19.1831 16.059 18.9068 15.1186 17.9623V17.9612ZM15.7203 13.2752C15.7203 14.2976 15.7133 15.2779 15.7223 16.2583C15.7292 16.9972 16.2562 17.5549 16.9207 17.5498C17.5882 17.5447 18.0993 16.9911 18.1072 16.245C18.1162 15.4171 18.1092 14.5882 18.1092 13.7603C18.1092 13.6006 18.1092 13.44 18.1092 13.2742H15.7203V13.2752ZM19.2997 13.267C19.2997 14.2658 19.2967 15.2309 19.3007 16.1959C19.3037 16.9747 19.7958 17.5365 20.4772 17.5498C21.1656 17.5631 21.6837 16.988 21.6877 16.1928C21.6926 15.3138 21.6896 14.4347 21.6877 13.5556C21.6877 13.4594 21.6697 13.3642 21.6598 13.267H19.2997ZM14.5278 13.2598C14.1443 13.2598 13.7996 13.2711 13.4549 13.2558C13.2487 13.2465 13.152 13.3131 13.0863 13.5259C12.8083 14.4224 12.4965 15.3086 12.2275 16.2082C12.1717 16.3934 12.1996 16.639 12.2704 16.8243C12.4596 17.3237 13.0225 17.6256 13.5057 17.5345C14.0905 17.424 14.5119 16.9604 14.5228 16.3412C14.5417 15.3342 14.5278 14.3272 14.5278 13.2598ZM22.8861 13.2701C22.8861 14.3436 22.8622 15.3874 22.8951 16.4292C22.913 17.0074 23.3573 17.4393 23.9132 17.5375C24.7211 17.6808 25.4036 16.8785 25.1475 16.0874C24.9682 15.5328 24.7949 14.975 24.6046 14.4234C24.4701 14.0345 24.4123 13.4983 24.1384 13.3141C23.8524 13.1217 23.3474 13.2711 22.8861 13.2711V13.2701ZM21.1128 21.234V22.4283H24.6414V21.234H21.1128ZM15.1484 23.6972V26.1032H16.8978V23.6972H15.1484Z" stroke="#FF671F" stroke-width="0.4" mask="url(#path-1-outside-1_5116_1153)"/>
</svg>
