<svg width="40" height="40" viewBox="0 0 40 40" fill="none" xmlns="http://www.w3.org/2000/svg">
<mask id="path-1-outside-1_5116_1140" maskUnits="userSpaceOnUse" x="-0.599609" y="0" width="41" height="40" fill="black">
<rect fill="white" x="-0.599609" width="41" height="40"/>
<path d="M9.9241 38.9991C6.19032 36.6006 3.70621 33.2487 2.0864 29.2407C1.24501 27.16 0.768029 24.9976 0.546711 22.7747C0.201379 19.2946 0.450362 15.8637 1.47491 12.5071C2.70647 8.47123 4.88435 5.00686 8.18122 2.24782C8.61336 1.88633 9.08271 1.5648 9.5511 1.24792C10.0491 0.910588 10.2694 0.923598 10.7617 1.24978C12.4664 2.38164 13.924 3.7672 15.167 5.36464C17.2591 8.05305 18.6337 11.0658 19.3177 14.3694C19.5304 15.3962 19.6545 16.4398 19.8014 17.4788C19.8643 17.9248 19.5514 18.3077 19.125 18.3625C18.7396 18.4118 18.3723 18.1497 18.297 17.7148C18.1119 16.6452 18.0089 15.5589 17.7704 14.5013C16.7678 10.0491 14.6013 6.25117 10.9983 3.28397C10.1397 2.57679 10.1464 2.58794 9.28209 3.30535C5.48057 6.45561 3.29887 10.5073 2.39262 15.229C1.5579 19.5808 1.79639 23.8889 3.2941 28.0902C4.47701 31.4087 6.37634 34.2755 9.13422 36.5727C9.19814 36.6257 9.26587 36.674 9.39179 36.7707C9.39179 35.9194 9.346 35.1305 9.4061 34.3499C9.45666 33.6873 9.22676 33.231 8.73642 32.7785C7.47434 31.6141 6.26568 30.3948 5.03794 29.1951C4.91297 29.0734 4.78895 28.9452 4.69547 28.8011C4.51326 28.5214 4.57336 28.1478 4.81376 27.9155C5.04461 27.6925 5.44623 27.6377 5.72479 27.8077C5.85166 27.8858 5.96518 27.9889 6.07298 28.093C7.07177 29.0613 8.06675 30.0324 9.06458 31.0026C9.15044 31.0862 9.24298 31.1652 9.3937 31.3018C9.3937 31.1253 9.3937 31.0203 9.3937 30.9152C9.3937 29.3197 9.40133 27.725 9.38321 26.1304C9.3813 25.9473 9.28686 25.7206 9.15426 25.5905C7.03743 23.5089 4.90724 21.4394 2.77992 19.3661C2.2686 18.868 2.20087 18.4359 2.57482 18.0865C2.9421 17.7445 3.36184 17.8133 3.86075 18.2993C5.58455 19.9776 7.3074 21.6568 9.0312 23.3351C9.12755 23.429 9.22771 23.5191 9.39179 23.6715C9.39179 23.2849 9.39179 22.9708 9.39179 22.6576C9.39179 21.8538 9.38988 21.05 9.39179 20.2462C9.39465 19.4526 9.92887 19.1338 10.6596 19.4981C12.5656 20.4478 14.4678 21.405 16.3719 22.3593C16.4949 22.4207 16.6209 22.4764 16.7935 22.5573C16.8059 22.4225 16.8241 22.3194 16.8241 22.2172C16.8269 21.5741 16.8212 20.931 16.8269 20.288C16.8346 19.4358 17.3545 19.1264 18.13 19.5139C20.0122 20.4543 21.8924 21.3994 23.7736 22.3417C23.9072 22.4086 24.0427 22.4699 24.2153 22.5526C24.2296 22.4328 24.2497 22.3426 24.2506 22.2534C24.2535 21.5732 24.2449 20.8929 24.2544 20.2127C24.264 19.4749 24.8182 19.1468 25.4955 19.4841C27.4139 20.4376 29.3276 21.4003 31.2431 22.3584C31.3757 22.4244 31.5121 22.4839 31.7067 22.5749C31.7067 22.3984 31.7067 22.2692 31.7067 22.141C31.7067 17.9982 31.7125 13.8564 31.6981 9.71368C31.6962 9.23417 31.866 8.93494 32.2858 8.69239C33.7797 7.83002 35.2593 6.94442 36.7417 6.0616C37.047 5.87946 37.3513 5.74378 37.7014 5.93429C38.0629 6.13129 38.1068 6.45933 38.1068 6.82547C38.1011 12.0564 38.103 17.2864 38.103 22.5173C38.103 22.6632 38.103 22.8082 38.103 22.9838C38.6601 22.9643 39.1676 22.9987 39.4004 23.5665V39H9.9241V38.9991ZM25.796 21.3223C25.796 21.5797 25.796 21.7646 25.796 21.9486C25.7941 22.5415 25.8122 23.1362 25.7836 23.7282C25.7569 24.2867 25.321 24.5887 24.7572 24.4632C24.5883 24.4261 24.4261 24.3443 24.2697 24.2662C22.4333 23.3481 20.5979 22.4272 18.7625 21.5072C18.6461 21.4487 18.525 21.3975 18.3704 21.326C18.3704 22.127 18.3781 22.8686 18.3676 23.6102C18.3599 24.1705 18.0385 24.5106 17.5166 24.4865C17.3106 24.4772 17.0959 24.3945 16.909 24.3015C15.0478 23.3769 13.1904 22.443 11.3321 21.5128C11.2119 21.4524 11.087 21.4013 10.9467 21.3371V37.4964H37.8464V24.4995C37.6651 24.4995 37.5144 24.4995 37.3627 24.4995C35.8145 24.4995 34.2662 24.5144 32.7189 24.4883C32.3678 24.4818 31.9882 24.3898 31.6733 24.2365C29.8494 23.349 28.0416 22.4309 26.2272 21.5239C26.107 21.4635 25.983 21.4096 25.796 21.3223ZM36.5652 7.92016C35.5178 8.53906 34.5381 9.12823 33.545 9.69602C33.3075 9.8317 33.2226 9.97852 33.2235 10.2489C33.2331 14.3657 33.2302 18.4824 33.2312 22.6C33.2312 22.7199 33.2417 22.8389 33.2474 22.955H36.5662V7.92016H36.5652Z"/>
<path d="M24.2831 2.56931C25.2314 2.56931 26.191 2.47917 27.1269 2.58697C29.3191 2.83973 31.1278 4.87951 31.1707 7.03172C31.1764 7.30308 31.184 7.57535 31.1707 7.8467C31.1497 8.27603 30.8616 8.56969 30.418 8.57155C28.7829 8.57991 27.144 8.63195 25.5118 8.55482C23.1327 8.4433 21.2057 6.43234 21.0664 4.02457C21.0521 3.77831 21.0435 3.52926 21.0616 3.28393C21.0988 2.7719 21.3965 2.50147 21.9249 2.49683C22.711 2.49032 23.4971 2.49497 24.2831 2.49497C24.2831 2.51913 24.2831 2.54422 24.2831 2.56838V2.56931ZM27.5542 7.15997C27.5619 7.11443 27.5695 7.06983 27.5771 7.02429C25.9955 6.28272 24.4138 5.54116 22.7406 4.75684C23.1718 5.90451 23.8872 6.67116 25.0005 6.92393C25.8257 7.11164 26.7004 7.08841 27.5542 7.15997ZM29.4421 6.23533C29.4135 6.11824 29.4087 6.07085 29.3906 6.02903C28.5263 4.10356 26.7605 3.79039 24.7706 4.04594C26.3208 4.77171 27.8481 5.48726 29.4421 6.2344V6.23533Z"/>
<path d="M9.39282 13.6343C9.39282 12.8462 9.39282 12.0582 9.39282 11.2702C9.39282 10.1327 9.38996 8.9953 9.39473 7.85879C9.39664 7.38578 9.6399 7.0754 10.032 7.02429C10.5204 6.96017 10.8972 7.26776 10.9115 7.76586C10.9249 8.24444 10.9144 8.72302 10.9144 9.31125C11.3923 8.84661 11.7958 8.44888 12.2051 8.05672C12.3491 7.91919 12.4951 7.77608 12.663 7.66921C12.9721 7.4722 13.3479 7.53168 13.5969 7.78909C13.8383 8.03814 13.8783 8.37733 13.6847 8.67377C13.6045 8.79736 13.4996 8.90887 13.3937 9.01295C12.6429 9.74988 11.8807 10.4766 11.1414 11.2237C11.0193 11.3473 10.9268 11.5573 10.9258 11.7292C10.9096 13.4224 10.9163 15.1165 10.9163 16.8096C10.9163 16.9211 10.9201 17.0327 10.9134 17.1432C10.8886 17.5735 10.5834 17.8774 10.1712 17.8876C9.75151 17.8978 9.41572 17.58 9.39855 17.1349C9.38519 16.7892 9.41476 16.4416 9.38519 16.0978C9.37279 15.9473 9.29933 15.7688 9.19154 15.6629C7.74629 14.2392 6.28769 12.8277 4.83768 11.4086C4.49807 11.0769 4.43416 10.7581 4.61827 10.4413C4.7938 10.1392 5.07331 9.98777 5.41387 10.077C5.61993 10.1309 5.82312 10.2693 5.97861 10.418C7.00125 11.3966 8.01245 12.3881 9.02364 13.3778C9.12094 13.4735 9.19631 13.5906 9.28216 13.6975C9.31937 13.6761 9.35752 13.6547 9.39473 13.6333L9.39282 13.6343Z"/>
<path d="M16.8642 16.4351C16.7154 16.6963 16.6467 16.9072 16.5055 17.0485C15.7376 17.8198 14.9572 18.5799 14.1683 19.3317C13.8154 19.6681 13.3536 19.67 13.0474 19.3717C12.7364 19.0687 12.7403 18.6338 13.0942 18.2807C13.8659 17.5122 14.651 16.7567 15.4333 15.9993C15.6813 15.7586 16.0056 15.662 16.2995 15.8302C16.5246 15.9593 16.6706 16.2195 16.8633 16.4342L16.8642 16.4351Z"/>
<path d="M9.39568 5.42128C9.39759 5.02726 9.74388 4.689 10.1484 4.68436C10.57 4.67971 10.923 5.03191 10.9115 5.44544C10.9001 5.84317 10.5509 6.16842 10.1436 6.16099C9.73529 6.15355 9.39473 5.8153 9.39664 5.42128H9.39568Z"/>
<path d="M19.3693 30.9812C19.3693 31.7469 19.3722 32.5126 19.3683 33.2784C19.3655 33.8387 19.0926 34.1472 18.5212 34.1537C16.9119 34.1705 15.3016 34.1695 13.6913 34.1537C13.1047 34.1482 12.8223 33.8369 12.8213 33.2579C12.8185 31.7144 12.8175 30.1708 12.8213 28.6273C12.8232 28.0697 13.098 27.7621 13.6732 27.7556C15.2825 27.738 16.8928 27.7389 18.5021 27.7547C19.0993 27.7603 19.3645 28.0604 19.3674 28.6468C19.3712 29.4246 19.3674 30.2024 19.3674 30.9803L19.3693 30.9812ZM14.3667 29.2815V32.6195H17.821V29.2815H14.3667Z"/>
<path d="M27.6735 30.9784C27.6735 31.7441 27.6773 32.5099 27.6725 33.2756C27.6687 33.8527 27.3892 34.151 26.7911 34.1556C25.1942 34.1686 23.5963 34.1695 21.9994 34.1556C21.4117 34.15 21.1265 33.8397 21.1255 33.2626C21.1217 31.719 21.1217 30.1755 21.1255 28.632C21.1274 28.0735 21.4022 27.764 21.9755 27.7575C23.5982 27.7398 25.2209 27.7389 26.8426 27.7594C27.4169 27.7668 27.6697 28.0707 27.6725 28.6459C27.6763 29.4237 27.6735 30.2015 27.6735 30.9793V30.9784ZM26.1319 29.2834H22.6767V32.6242H26.1319V29.2834Z"/>
<path d="M29.4211 30.9301C29.4211 30.1643 29.4173 29.3986 29.4221 28.6329C29.4259 28.0651 29.6863 27.7631 30.2635 27.7566C31.8862 27.738 33.5088 27.738 35.1306 27.7566C35.701 27.7631 35.9672 28.0762 35.9691 28.6413C35.9729 30.1848 35.9729 31.7283 35.9691 33.2719C35.9672 33.8424 35.6753 34.1491 35.0829 34.1538C33.4859 34.1668 31.8881 34.1677 30.2911 34.1538C29.6987 34.1482 29.4249 33.8462 29.4211 33.2626C29.4164 32.4848 29.4202 31.707 29.4202 30.9291L29.4211 30.9301ZM30.9637 32.6232H34.4189V29.2834H30.9637V32.6232Z"/>
</mask>
<path d="M9.9241 38.9991C6.19032 36.6006 3.70621 33.2487 2.0864 29.2407C1.24501 27.16 0.768029 24.9976 0.546711 22.7747C0.201379 19.2946 0.450362 15.8637 1.47491 12.5071C2.70647 8.47123 4.88435 5.00686 8.18122 2.24782C8.61336 1.88633 9.08271 1.5648 9.5511 1.24792C10.0491 0.910588 10.2694 0.923598 10.7617 1.24978C12.4664 2.38164 13.924 3.7672 15.167 5.36464C17.2591 8.05305 18.6337 11.0658 19.3177 14.3694C19.5304 15.3962 19.6545 16.4398 19.8014 17.4788C19.8643 17.9248 19.5514 18.3077 19.125 18.3625C18.7396 18.4118 18.3723 18.1497 18.297 17.7148C18.1119 16.6452 18.0089 15.5589 17.7704 14.5013C16.7678 10.0491 14.6013 6.25117 10.9983 3.28397C10.1397 2.57679 10.1464 2.58794 9.28209 3.30535C5.48057 6.45561 3.29887 10.5073 2.39262 15.229C1.5579 19.5808 1.79639 23.8889 3.2941 28.0902C4.47701 31.4087 6.37634 34.2755 9.13422 36.5727C9.19814 36.6257 9.26587 36.674 9.39179 36.7707C9.39179 35.9194 9.346 35.1305 9.4061 34.3499C9.45666 33.6873 9.22676 33.231 8.73642 32.7785C7.47434 31.6141 6.26568 30.3948 5.03794 29.1951C4.91297 29.0734 4.78895 28.9452 4.69547 28.8011C4.51326 28.5214 4.57336 28.1478 4.81376 27.9155C5.04461 27.6925 5.44623 27.6377 5.72479 27.8077C5.85166 27.8858 5.96518 27.9889 6.07298 28.093C7.07177 29.0613 8.06675 30.0324 9.06458 31.0026C9.15044 31.0862 9.24298 31.1652 9.3937 31.3018C9.3937 31.1253 9.3937 31.0203 9.3937 30.9152C9.3937 29.3197 9.40133 27.725 9.38321 26.1304C9.3813 25.9473 9.28686 25.7206 9.15426 25.5905C7.03743 23.5089 4.90724 21.4394 2.77992 19.3661C2.2686 18.868 2.20087 18.4359 2.57482 18.0865C2.9421 17.7445 3.36184 17.8133 3.86075 18.2993C5.58455 19.9776 7.3074 21.6568 9.0312 23.3351C9.12755 23.429 9.22771 23.5191 9.39179 23.6715C9.39179 23.2849 9.39179 22.9708 9.39179 22.6576C9.39179 21.8538 9.38988 21.05 9.39179 20.2462C9.39465 19.4526 9.92887 19.1338 10.6596 19.4981C12.5656 20.4478 14.4678 21.405 16.3719 22.3593C16.4949 22.4207 16.6209 22.4764 16.7935 22.5573C16.8059 22.4225 16.8241 22.3194 16.8241 22.2172C16.8269 21.5741 16.8212 20.931 16.8269 20.288C16.8346 19.4358 17.3545 19.1264 18.13 19.5139C20.0122 20.4543 21.8924 21.3994 23.7736 22.3417C23.9072 22.4086 24.0427 22.4699 24.2153 22.5526C24.2296 22.4328 24.2497 22.3426 24.2506 22.2534C24.2535 21.5732 24.2449 20.8929 24.2544 20.2127C24.264 19.4749 24.8182 19.1468 25.4955 19.4841C27.4139 20.4376 29.3276 21.4003 31.2431 22.3584C31.3757 22.4244 31.5121 22.4839 31.7067 22.5749C31.7067 22.3984 31.7067 22.2692 31.7067 22.141C31.7067 17.9982 31.7125 13.8564 31.6981 9.71368C31.6962 9.23417 31.866 8.93494 32.2858 8.69239C33.7797 7.83002 35.2593 6.94442 36.7417 6.0616C37.047 5.87946 37.3513 5.74378 37.7014 5.93429C38.0629 6.13129 38.1068 6.45933 38.1068 6.82547C38.1011 12.0564 38.103 17.2864 38.103 22.5173C38.103 22.6632 38.103 22.8082 38.103 22.9838C38.6601 22.9643 39.1676 22.9987 39.4004 23.5665V39H9.9241V38.9991ZM25.796 21.3223C25.796 21.5797 25.796 21.7646 25.796 21.9486C25.7941 22.5415 25.8122 23.1362 25.7836 23.7282C25.7569 24.2867 25.321 24.5887 24.7572 24.4632C24.5883 24.4261 24.4261 24.3443 24.2697 24.2662C22.4333 23.3481 20.5979 22.4272 18.7625 21.5072C18.6461 21.4487 18.525 21.3975 18.3704 21.326C18.3704 22.127 18.3781 22.8686 18.3676 23.6102C18.3599 24.1705 18.0385 24.5106 17.5166 24.4865C17.3106 24.4772 17.0959 24.3945 16.909 24.3015C15.0478 23.3769 13.1904 22.443 11.3321 21.5128C11.2119 21.4524 11.087 21.4013 10.9467 21.3371V37.4964H37.8464V24.4995C37.6651 24.4995 37.5144 24.4995 37.3627 24.4995C35.8145 24.4995 34.2662 24.5144 32.7189 24.4883C32.3678 24.4818 31.9882 24.3898 31.6733 24.2365C29.8494 23.349 28.0416 22.4309 26.2272 21.5239C26.107 21.4635 25.983 21.4096 25.796 21.3223ZM36.5652 7.92016C35.5178 8.53906 34.5381 9.12823 33.545 9.69602C33.3075 9.8317 33.2226 9.97852 33.2235 10.2489C33.2331 14.3657 33.2302 18.4824 33.2312 22.6C33.2312 22.7199 33.2417 22.8389 33.2474 22.955H36.5662V7.92016H36.5652Z" fill="#FF671F"/>
<path d="M24.2831 2.56931C25.2314 2.56931 26.191 2.47917 27.1269 2.58697C29.3191 2.83973 31.1278 4.87951 31.1707 7.03172C31.1764 7.30308 31.184 7.57535 31.1707 7.8467C31.1497 8.27603 30.8616 8.56969 30.418 8.57155C28.7829 8.57991 27.144 8.63195 25.5118 8.55482C23.1327 8.4433 21.2057 6.43234 21.0664 4.02457C21.0521 3.77831 21.0435 3.52926 21.0616 3.28393C21.0988 2.7719 21.3965 2.50147 21.9249 2.49683C22.711 2.49032 23.4971 2.49497 24.2831 2.49497C24.2831 2.51913 24.2831 2.54422 24.2831 2.56838V2.56931ZM27.5542 7.15997C27.5619 7.11443 27.5695 7.06983 27.5771 7.02429C25.9955 6.28272 24.4138 5.54116 22.7406 4.75684C23.1718 5.90451 23.8872 6.67116 25.0005 6.92393C25.8257 7.11164 26.7004 7.08841 27.5542 7.15997ZM29.4421 6.23533C29.4135 6.11824 29.4087 6.07085 29.3906 6.02903C28.5263 4.10356 26.7605 3.79039 24.7706 4.04594C26.3208 4.77171 27.8481 5.48726 29.4421 6.2344V6.23533Z" fill="#FF671F"/>
<path d="M9.39282 13.6343C9.39282 12.8462 9.39282 12.0582 9.39282 11.2702C9.39282 10.1327 9.38996 8.9953 9.39473 7.85879C9.39664 7.38578 9.6399 7.0754 10.032 7.02429C10.5204 6.96017 10.8972 7.26776 10.9115 7.76586C10.9249 8.24444 10.9144 8.72302 10.9144 9.31125C11.3923 8.84661 11.7958 8.44888 12.2051 8.05672C12.3491 7.91919 12.4951 7.77608 12.663 7.66921C12.9721 7.4722 13.3479 7.53168 13.5969 7.78909C13.8383 8.03814 13.8783 8.37733 13.6847 8.67377C13.6045 8.79736 13.4996 8.90887 13.3937 9.01295C12.6429 9.74988 11.8807 10.4766 11.1414 11.2237C11.0193 11.3473 10.9268 11.5573 10.9258 11.7292C10.9096 13.4224 10.9163 15.1165 10.9163 16.8096C10.9163 16.9211 10.9201 17.0327 10.9134 17.1432C10.8886 17.5735 10.5834 17.8774 10.1712 17.8876C9.75151 17.8978 9.41572 17.58 9.39855 17.1349C9.38519 16.7892 9.41476 16.4416 9.38519 16.0978C9.37279 15.9473 9.29933 15.7688 9.19154 15.6629C7.74629 14.2392 6.28769 12.8277 4.83768 11.4086C4.49807 11.0769 4.43416 10.7581 4.61827 10.4413C4.7938 10.1392 5.07331 9.98777 5.41387 10.077C5.61993 10.1309 5.82312 10.2693 5.97861 10.418C7.00125 11.3966 8.01245 12.3881 9.02364 13.3778C9.12094 13.4735 9.19631 13.5906 9.28216 13.6975C9.31937 13.6761 9.35752 13.6547 9.39473 13.6333L9.39282 13.6343Z" fill="#FF671F"/>
<path d="M16.8642 16.4351C16.7154 16.6963 16.6467 16.9072 16.5055 17.0485C15.7376 17.8198 14.9572 18.5799 14.1683 19.3317C13.8154 19.6681 13.3536 19.67 13.0474 19.3717C12.7364 19.0687 12.7403 18.6338 13.0942 18.2807C13.8659 17.5122 14.651 16.7567 15.4333 15.9993C15.6813 15.7586 16.0056 15.662 16.2995 15.8302C16.5246 15.9593 16.6706 16.2195 16.8633 16.4342L16.8642 16.4351Z" fill="#FF671F"/>
<path d="M9.39568 5.42128C9.39759 5.02726 9.74388 4.689 10.1484 4.68436C10.57 4.67971 10.923 5.03191 10.9115 5.44544C10.9001 5.84317 10.5509 6.16842 10.1436 6.16099C9.73529 6.15355 9.39473 5.8153 9.39664 5.42128H9.39568Z" fill="#FF671F"/>
<path d="M19.3693 30.9812C19.3693 31.7469 19.3722 32.5126 19.3683 33.2784C19.3655 33.8387 19.0926 34.1472 18.5212 34.1537C16.9119 34.1705 15.3016 34.1695 13.6913 34.1537C13.1047 34.1482 12.8223 33.8369 12.8213 33.2579C12.8185 31.7144 12.8175 30.1708 12.8213 28.6273C12.8232 28.0697 13.098 27.7621 13.6732 27.7556C15.2825 27.738 16.8928 27.7389 18.5021 27.7547C19.0993 27.7603 19.3645 28.0604 19.3674 28.6468C19.3712 29.4246 19.3674 30.2024 19.3674 30.9803L19.3693 30.9812ZM14.3667 29.2815V32.6195H17.821V29.2815H14.3667Z" fill="#FF671F"/>
<path d="M27.6735 30.9784C27.6735 31.7441 27.6773 32.5099 27.6725 33.2756C27.6687 33.8527 27.3892 34.151 26.7911 34.1556C25.1942 34.1686 23.5963 34.1695 21.9994 34.1556C21.4117 34.15 21.1265 33.8397 21.1255 33.2626C21.1217 31.719 21.1217 30.1755 21.1255 28.632C21.1274 28.0735 21.4022 27.764 21.9755 27.7575C23.5982 27.7398 25.2209 27.7389 26.8426 27.7594C27.4169 27.7668 27.6697 28.0707 27.6725 28.6459C27.6763 29.4237 27.6735 30.2015 27.6735 30.9793V30.9784ZM26.1319 29.2834H22.6767V32.6242H26.1319V29.2834Z" fill="#FF671F"/>
<path d="M29.4211 30.9301C29.4211 30.1643 29.4173 29.3986 29.4221 28.6329C29.4259 28.0651 29.6863 27.7631 30.2635 27.7566C31.8862 27.738 33.5088 27.738 35.1306 27.7566C35.701 27.7631 35.9672 28.0762 35.9691 28.6413C35.9729 30.1848 35.9729 31.7283 35.9691 33.2719C35.9672 33.8424 35.6753 34.1491 35.0829 34.1538C33.4859 34.1668 31.8881 34.1677 30.2911 34.1538C29.6987 34.1482 29.4249 33.8462 29.4211 33.2626C29.4164 32.4848 29.4202 31.707 29.4202 30.9291L29.4211 30.9301ZM30.9637 32.6232H34.4189V29.2834H30.9637V32.6232Z" fill="#FF671F"/>
<path d="M9.9241 38.9991C6.19032 36.6006 3.70621 33.2487 2.0864 29.2407C1.24501 27.16 0.768029 24.9976 0.546711 22.7747C0.201379 19.2946 0.450362 15.8637 1.47491 12.5071C2.70647 8.47123 4.88435 5.00686 8.18122 2.24782C8.61336 1.88633 9.08271 1.5648 9.5511 1.24792C10.0491 0.910588 10.2694 0.923598 10.7617 1.24978C12.4664 2.38164 13.924 3.7672 15.167 5.36464C17.2591 8.05305 18.6337 11.0658 19.3177 14.3694C19.5304 15.3962 19.6545 16.4398 19.8014 17.4788C19.8643 17.9248 19.5514 18.3077 19.125 18.3625C18.7396 18.4118 18.3723 18.1497 18.297 17.7148C18.1119 16.6452 18.0089 15.5589 17.7704 14.5013C16.7678 10.0491 14.6013 6.25117 10.9983 3.28397C10.1397 2.57679 10.1464 2.58794 9.28209 3.30535C5.48057 6.45561 3.29887 10.5073 2.39262 15.229C1.5579 19.5808 1.79639 23.8889 3.2941 28.0902C4.47701 31.4087 6.37634 34.2755 9.13422 36.5727C9.19814 36.6257 9.26587 36.674 9.39179 36.7707C9.39179 35.9194 9.346 35.1305 9.4061 34.3499C9.45666 33.6873 9.22676 33.231 8.73642 32.7785C7.47434 31.6141 6.26568 30.3948 5.03794 29.1951C4.91297 29.0734 4.78895 28.9452 4.69547 28.8011C4.51326 28.5214 4.57336 28.1478 4.81376 27.9155C5.04461 27.6925 5.44623 27.6377 5.72479 27.8077C5.85166 27.8858 5.96518 27.9889 6.07298 28.093C7.07177 29.0613 8.06675 30.0324 9.06458 31.0026C9.15044 31.0862 9.24298 31.1652 9.3937 31.3018C9.3937 31.1253 9.3937 31.0203 9.3937 30.9152C9.3937 29.3197 9.40133 27.725 9.38321 26.1304C9.3813 25.9473 9.28686 25.7206 9.15426 25.5905C7.03743 23.5089 4.90724 21.4394 2.77992 19.3661C2.2686 18.868 2.20087 18.4359 2.57482 18.0865C2.9421 17.7445 3.36184 17.8133 3.86075 18.2993C5.58455 19.9776 7.3074 21.6568 9.0312 23.3351C9.12755 23.429 9.22771 23.5191 9.39179 23.6715C9.39179 23.2849 9.39179 22.9708 9.39179 22.6576C9.39179 21.8538 9.38988 21.05 9.39179 20.2462C9.39465 19.4526 9.92887 19.1338 10.6596 19.4981C12.5656 20.4478 14.4678 21.405 16.3719 22.3593C16.4949 22.4207 16.6209 22.4764 16.7935 22.5573C16.8059 22.4225 16.8241 22.3194 16.8241 22.2172C16.8269 21.5741 16.8212 20.931 16.8269 20.288C16.8346 19.4358 17.3545 19.1264 18.13 19.5139C20.0122 20.4543 21.8924 21.3994 23.7736 22.3417C23.9072 22.4086 24.0427 22.4699 24.2153 22.5526C24.2296 22.4328 24.2497 22.3426 24.2506 22.2534C24.2535 21.5732 24.2449 20.8929 24.2544 20.2127C24.264 19.4749 24.8182 19.1468 25.4955 19.4841C27.4139 20.4376 29.3276 21.4003 31.2431 22.3584C31.3757 22.4244 31.5121 22.4839 31.7067 22.5749C31.7067 22.3984 31.7067 22.2692 31.7067 22.141C31.7067 17.9982 31.7125 13.8564 31.6981 9.71368C31.6962 9.23417 31.866 8.93494 32.2858 8.69239C33.7797 7.83002 35.2593 6.94442 36.7417 6.0616C37.047 5.87946 37.3513 5.74378 37.7014 5.93429C38.0629 6.13129 38.1068 6.45933 38.1068 6.82547C38.1011 12.0564 38.103 17.2864 38.103 22.5173C38.103 22.6632 38.103 22.8082 38.103 22.9838C38.6601 22.9643 39.1676 22.9987 39.4004 23.5665V39H9.9241V38.9991ZM25.796 21.3223C25.796 21.5797 25.796 21.7646 25.796 21.9486C25.7941 22.5415 25.8122 23.1362 25.7836 23.7282C25.7569 24.2867 25.321 24.5887 24.7572 24.4632C24.5883 24.4261 24.4261 24.3443 24.2697 24.2662C22.4333 23.3481 20.5979 22.4272 18.7625 21.5072C18.6461 21.4487 18.525 21.3975 18.3704 21.326C18.3704 22.127 18.3781 22.8686 18.3676 23.6102C18.3599 24.1705 18.0385 24.5106 17.5166 24.4865C17.3106 24.4772 17.0959 24.3945 16.909 24.3015C15.0478 23.3769 13.1904 22.443 11.3321 21.5128C11.2119 21.4524 11.087 21.4013 10.9467 21.3371V37.4964H37.8464V24.4995C37.6651 24.4995 37.5144 24.4995 37.3627 24.4995C35.8145 24.4995 34.2662 24.5144 32.7189 24.4883C32.3678 24.4818 31.9882 24.3898 31.6733 24.2365C29.8494 23.349 28.0416 22.4309 26.2272 21.5239C26.107 21.4635 25.983 21.4096 25.796 21.3223ZM36.5652 7.92016C35.5178 8.53906 34.5381 9.12823 33.545 9.69602C33.3075 9.8317 33.2226 9.97852 33.2235 10.2489C33.2331 14.3657 33.2302 18.4824 33.2312 22.6C33.2312 22.7199 33.2417 22.8389 33.2474 22.955H36.5662V7.92016H36.5652Z" stroke="#FF671F" stroke-width="0.2" mask="url(#path-1-outside-1_5116_1140)"/>
<path d="M24.2831 2.56931C25.2314 2.56931 26.191 2.47917 27.1269 2.58697C29.3191 2.83973 31.1278 4.87951 31.1707 7.03172C31.1764 7.30308 31.184 7.57535 31.1707 7.8467C31.1497 8.27603 30.8616 8.56969 30.418 8.57155C28.7829 8.57991 27.144 8.63195 25.5118 8.55482C23.1327 8.4433 21.2057 6.43234 21.0664 4.02457C21.0521 3.77831 21.0435 3.52926 21.0616 3.28393C21.0988 2.7719 21.3965 2.50147 21.9249 2.49683C22.711 2.49032 23.4971 2.49497 24.2831 2.49497C24.2831 2.51913 24.2831 2.54422 24.2831 2.56838V2.56931ZM27.5542 7.15997C27.5619 7.11443 27.5695 7.06983 27.5771 7.02429C25.9955 6.28272 24.4138 5.54116 22.7406 4.75684C23.1718 5.90451 23.8872 6.67116 25.0005 6.92393C25.8257 7.11164 26.7004 7.08841 27.5542 7.15997ZM29.4421 6.23533C29.4135 6.11824 29.4087 6.07085 29.3906 6.02903C28.5263 4.10356 26.7605 3.79039 24.7706 4.04594C26.3208 4.77171 27.8481 5.48726 29.4421 6.2344V6.23533Z" stroke="#FF671F" stroke-width="0.2" mask="url(#path-1-outside-1_5116_1140)"/>
<path d="M9.39282 13.6343C9.39282 12.8462 9.39282 12.0582 9.39282 11.2702C9.39282 10.1327 9.38996 8.9953 9.39473 7.85879C9.39664 7.38578 9.6399 7.0754 10.032 7.02429C10.5204 6.96017 10.8972 7.26776 10.9115 7.76586C10.9249 8.24444 10.9144 8.72302 10.9144 9.31125C11.3923 8.84661 11.7958 8.44888 12.2051 8.05672C12.3491 7.91919 12.4951 7.77608 12.663 7.66921C12.9721 7.4722 13.3479 7.53168 13.5969 7.78909C13.8383 8.03814 13.8783 8.37733 13.6847 8.67377C13.6045 8.79736 13.4996 8.90887 13.3937 9.01295C12.6429 9.74988 11.8807 10.4766 11.1414 11.2237C11.0193 11.3473 10.9268 11.5573 10.9258 11.7292C10.9096 13.4224 10.9163 15.1165 10.9163 16.8096C10.9163 16.9211 10.9201 17.0327 10.9134 17.1432C10.8886 17.5735 10.5834 17.8774 10.1712 17.8876C9.75151 17.8978 9.41572 17.58 9.39855 17.1349C9.38519 16.7892 9.41476 16.4416 9.38519 16.0978C9.37279 15.9473 9.29933 15.7688 9.19154 15.6629C7.74629 14.2392 6.28769 12.8277 4.83768 11.4086C4.49807 11.0769 4.43416 10.7581 4.61827 10.4413C4.7938 10.1392 5.07331 9.98777 5.41387 10.077C5.61993 10.1309 5.82312 10.2693 5.97861 10.418C7.00125 11.3966 8.01245 12.3881 9.02364 13.3778C9.12094 13.4735 9.19631 13.5906 9.28216 13.6975C9.31937 13.6761 9.35752 13.6547 9.39473 13.6333L9.39282 13.6343Z" stroke="#FF671F" stroke-width="0.2" mask="url(#path-1-outside-1_5116_1140)"/>
<path d="M16.8642 16.4351C16.7154 16.6963 16.6467 16.9072 16.5055 17.0485C15.7376 17.8198 14.9572 18.5799 14.1683 19.3317C13.8154 19.6681 13.3536 19.67 13.0474 19.3717C12.7364 19.0687 12.7403 18.6338 13.0942 18.2807C13.8659 17.5122 14.651 16.7567 15.4333 15.9993C15.6813 15.7586 16.0056 15.662 16.2995 15.8302C16.5246 15.9593 16.6706 16.2195 16.8633 16.4342L16.8642 16.4351Z" stroke="#FF671F" stroke-width="0.2" mask="url(#path-1-outside-1_5116_1140)"/>
<path d="M9.39568 5.42128C9.39759 5.02726 9.74388 4.689 10.1484 4.68436C10.57 4.67971 10.923 5.03191 10.9115 5.44544C10.9001 5.84317 10.5509 6.16842 10.1436 6.16099C9.73529 6.15355 9.39473 5.8153 9.39664 5.42128H9.39568Z" stroke="#FF671F" stroke-width="0.2" mask="url(#path-1-outside-1_5116_1140)"/>
<path d="M19.3693 30.9812C19.3693 31.7469 19.3722 32.5126 19.3683 33.2784C19.3655 33.8387 19.0926 34.1472 18.5212 34.1537C16.9119 34.1705 15.3016 34.1695 13.6913 34.1537C13.1047 34.1482 12.8223 33.8369 12.8213 33.2579C12.8185 31.7144 12.8175 30.1708 12.8213 28.6273C12.8232 28.0697 13.098 27.7621 13.6732 27.7556C15.2825 27.738 16.8928 27.7389 18.5021 27.7547C19.0993 27.7603 19.3645 28.0604 19.3674 28.6468C19.3712 29.4246 19.3674 30.2024 19.3674 30.9803L19.3693 30.9812ZM14.3667 29.2815V32.6195H17.821V29.2815H14.3667Z" stroke="#FF671F" stroke-width="0.2" mask="url(#path-1-outside-1_5116_1140)"/>
<path d="M27.6735 30.9784C27.6735 31.7441 27.6773 32.5099 27.6725 33.2756C27.6687 33.8527 27.3892 34.151 26.7911 34.1556C25.1942 34.1686 23.5963 34.1695 21.9994 34.1556C21.4117 34.15 21.1265 33.8397 21.1255 33.2626C21.1217 31.719 21.1217 30.1755 21.1255 28.632C21.1274 28.0735 21.4022 27.764 21.9755 27.7575C23.5982 27.7398 25.2209 27.7389 26.8426 27.7594C27.4169 27.7668 27.6697 28.0707 27.6725 28.6459C27.6763 29.4237 27.6735 30.2015 27.6735 30.9793V30.9784ZM26.1319 29.2834H22.6767V32.6242H26.1319V29.2834Z" stroke="#FF671F" stroke-width="0.2" mask="url(#path-1-outside-1_5116_1140)"/>
<path d="M29.4211 30.9301C29.4211 30.1643 29.4173 29.3986 29.4221 28.6329C29.4259 28.0651 29.6863 27.7631 30.2635 27.7566C31.8862 27.738 33.5088 27.738 35.1306 27.7566C35.701 27.7631 35.9672 28.0762 35.9691 28.6413C35.9729 30.1848 35.9729 31.7283 35.9691 33.2719C35.9672 33.8424 35.6753 34.1491 35.0829 34.1538C33.4859 34.1668 31.8881 34.1677 30.2911 34.1538C29.6987 34.1482 29.4249 33.8462 29.4211 33.2626C29.4164 32.4848 29.4202 31.707 29.4202 30.9291L29.4211 30.9301ZM30.9637 32.6232H34.4189V29.2834H30.9637V32.6232Z" stroke="#FF671F" stroke-width="0.2" mask="url(#path-1-outside-1_5116_1140)"/>
</svg>
