<svg width="26" height="42" viewBox="0 0 26 42" fill="none" xmlns="http://www.w3.org/2000/svg">
<mask id="path-1-outside-1_5116_1161" maskUnits="userSpaceOnUse" x="-0.400391" y="0" width="27" height="42" fill="black">
<rect fill="white" x="-0.400391" width="27" height="42"/>
<path d="M10.1574 1C12.3264 1.69392 12.6427 4.78578 11.5886 6.25397C10.7795 7.38094 9.42469 7.50512 8.46054 6.51589C7.32588 5.35135 7.1688 3.10368 8.19082 1.84314C8.47604 1.49044 8.92969 1.27757 9.30688 1C9.59003 1 9.87421 1 10.1574 1ZM11.0326 4.48943C10.9717 3.61499 10.8508 3.00768 10.4116 2.52037C9.98375 2.04453 9.49599 2.06645 9.10124 2.56315C8.4657 3.36351 8.59281 5.03518 9.34305 5.7364C9.74917 6.11623 10.2359 6.12354 10.5356 5.65397C10.797 5.24492 10.9262 4.74822 11.0326 4.48943Z"/>
<path d="M18.4813 30.4963C18.937 29.0626 19.3959 27.6205 19.8712 26.1272C20.1833 26.1951 20.5398 26.2712 20.9408 26.3589C20.423 28.7986 19.5488 31.0671 18.41 33.2783C18.3583 33.1812 18.3191 33.128 18.2994 33.0685C17.5843 30.943 16.1252 29.4059 14.3932 28.1078C12.6148 26.7742 10.7908 25.5032 9.001 24.1843C7.7382 23.2545 6.556 22.2277 5.56498 20.9974C3.46307 18.3887 3.19645 15.5379 4.57809 12.5347C5.06275 11.4808 5.73342 10.5135 6.32865 9.51279C6.38756 9.41366 6.5064 9.31662 6.61697 9.28531C8.53907 8.73748 10.4984 8.42339 12.4939 8.60183C16.6553 8.97331 19.3762 11.245 20.7362 15.1915C21.4998 17.4058 21.6931 19.7056 21.5484 22.0378C21.5329 22.2809 21.5164 22.5241 21.4978 22.8089C21.1133 22.7787 20.7579 22.7516 20.4055 22.7234C20.4055 22.1975 20.4003 21.6955 20.4055 21.1936C20.4323 18.8979 20.1833 16.6492 19.2129 14.5393C17.9109 11.7062 15.7118 10.1347 12.6323 9.80393C11.1938 9.64949 9.77914 9.80497 8.3696 10.0721C8.3355 10.0784 8.30656 10.1065 8.23526 10.1472C8.55767 10.4311 8.86459 10.6982 9.16841 10.9695C10.9035 12.5212 12.4256 14.2659 13.7639 16.1734C13.921 16.3967 14.0863 16.5084 14.356 16.5188C15.19 16.5522 16.0239 16.6033 16.8682 16.6482V17.8273C16.181 17.795 15.531 17.7647 14.8097 17.7313C16.3153 20.2086 17.4769 22.7933 18.2126 25.6138C17.8427 25.7161 17.4903 25.8132 17.1327 25.9112C16.6842 24.6184 16.242 23.3411 15.7997 22.0639C15.7604 22.0639 15.7211 22.0629 15.6808 22.0618C15.4896 22.4698 15.2985 22.8778 15.0949 23.3109C14.7322 23.1397 14.3994 22.9832 14.0377 22.8131C14.3467 22.1401 14.6536 21.4983 14.9326 20.8451C14.9895 20.7115 15.005 20.506 14.9419 20.3828C13.83 18.1978 12.4577 16.1901 10.8466 14.3494C10.8229 14.3222 10.7867 14.3076 10.7216 14.2628C10.3981 15.3678 10.0809 16.453 9.7595 17.5539C9.37818 17.4402 9.03717 17.3379 8.64758 17.2211C8.80259 16.668 8.95036 16.1358 9.10227 15.6047C9.30585 14.8941 9.51976 14.1866 9.7099 13.4728C9.74297 13.3476 9.72954 13.14 9.64893 13.0638C8.78605 12.2467 7.90561 11.4485 6.99312 10.6105C6.14471 11.8513 5.48644 13.0836 5.12372 14.4662C4.50989 16.8068 5.20433 18.7915 6.73581 20.5529C8.11848 22.1432 9.83494 23.3234 11.5132 24.5557C13.147 25.7558 14.7828 26.9589 16.3505 28.2445C17.1203 28.8758 17.7383 29.6981 18.4813 30.4932V30.4963Z"/>
<path d="M12.3605 30.0049C12.6261 29.6929 12.8597 29.4174 13.1253 29.1043C15.1879 30.991 17.0656 32.9663 17.4531 35.9047C17.6887 37.6922 17.0935 39.2585 16.0859 40.6933C16.0404 40.758 15.9505 40.8196 15.8741 40.8311C14.4098 41.0554 12.9485 41.1128 11.5152 40.6464C9.86388 40.11 8.86252 38.9204 8.30966 37.3062C7.825 35.8912 7.7134 34.4126 7.60592 32.9339C7.45505 30.8616 7.45505 28.7704 6.90839 26.7471C6.72961 26.0855 6.4754 25.4438 6.25632 24.7926C6.21188 24.6622 6.16951 24.5307 6.08994 24.2907C8.19392 25.6598 10.2979 26.8306 12.19 28.3551C12.1239 28.4501 12.0764 28.5252 12.0226 28.5951C11.8511 28.8195 11.6775 29.0428 11.507 29.2629C10.4271 28.5158 9.36888 27.7833 8.21252 26.9829C8.28176 27.4368 8.34893 27.7687 8.3789 28.1036C8.5122 29.6052 8.61451 31.111 8.76642 32.6104C8.88629 33.7979 8.97723 34.998 9.22834 36.1604C9.76054 38.6283 11.0512 39.6717 13.5458 39.8053C13.797 39.8189 14.0501 39.8074 14.3674 39.8074C14.0057 39.317 13.6182 38.9183 13.3836 38.4436C12.995 37.6578 12.4763 37.2936 11.602 37.5441C11.4233 37.5952 11.2228 37.5691 10.9789 37.5816C10.9551 37.1924 10.9324 36.8241 10.9086 36.4286C11.3075 36.3889 11.6754 36.3524 12.0175 36.318C11.5287 35.0126 11.045 33.7218 10.5407 32.3746C10.9965 32.2651 11.352 32.1795 11.7415 32.0856C11.9214 32.6647 12.0981 33.2365 12.2934 33.8647C12.6251 33.6039 12.9051 33.3837 13.2131 33.1405C13.458 33.4442 13.6905 33.7322 13.9437 34.0463C13.5469 34.376 13.1728 34.687 12.7811 35.0126C13.4921 36.5747 14.3653 38.0178 15.5485 39.3117C15.9495 38.6919 16.1696 38.0376 16.2709 37.3437C16.5189 35.6366 15.9361 34.1548 14.9512 32.8317C14.3426 32.0146 13.612 31.2904 12.9279 30.5308C12.7646 30.3492 12.5703 30.1958 12.3616 30.0038L12.3605 30.0049Z"/>
<path d="M3.25019 2.32628C4.59773 2.33045 5.86983 3.41151 6.27389 4.90474C6.494 5.71866 6.47126 6.52319 6.12921 7.30268C5.48851 8.76774 3.93636 9.32183 2.52372 8.59452C0.899232 7.75869 0.141758 5.58823 0.887864 3.90925C1.33015 2.9148 2.2137 2.3221 3.25019 2.32628ZM5.2374 5.95658C5.21156 5.05083 4.88604 4.31413 4.15337 3.8049C3.24709 3.17359 2.2106 3.54507 1.87475 4.60213C1.573 5.55483 1.96052 6.76215 2.76036 7.36007C3.75758 8.10512 4.92841 7.66477 5.18986 6.44076C5.225 6.27693 5.22293 6.10475 5.23636 5.95658H5.2374Z"/>
<path d="M17.8179 4.46334C17.8199 5.26788 17.6019 6.00145 17.1048 6.63589C16.1892 7.80669 14.6598 7.77225 13.7908 6.56702C12.9196 5.35761 13.0498 3.34994 14.0687 2.26888C14.9978 1.28383 16.3505 1.35166 17.1823 2.42332C17.5998 2.96176 17.8158 3.65673 17.8158 4.46334H17.8179ZM14.3932 4.6063C14.3591 4.61987 14.325 4.63448 14.2909 4.64804C14.4532 5.07379 14.5575 5.53397 14.79 5.91588C15.1042 6.43032 15.6343 6.4418 16.0683 6.02545C16.7659 5.35657 16.8517 3.86751 16.2368 3.12037C15.8741 2.67898 15.3687 2.64454 14.9657 3.04837C14.5389 3.4762 14.3953 4.01673 14.3932 4.60735V4.6063Z"/>
<path d="M19.9642 10.1305C18.9701 10.1368 18.2209 9.46584 18.0204 8.42652C17.7652 7.10024 18.7965 5.55797 20.1027 5.31275C21.3304 5.08318 22.3524 5.95032 22.4299 7.28703C22.5053 8.60183 21.4378 9.9281 20.1523 10.117C20.0758 10.1285 19.9983 10.1274 19.9642 10.1295V10.1305ZM21.2322 7.3872C21.2415 7.04285 21.1588 6.73502 20.8405 6.5545C20.5057 6.36458 20.1823 6.46476 19.9001 6.66824C19.3659 7.0512 19.1106 7.58025 19.1954 8.24913C19.2615 8.774 19.6563 9.03174 20.1668 8.89713C20.7548 8.7427 21.2301 8.0686 21.2322 7.3872Z"/>
<path d="M23.2008 13.7494C22.1002 13.7494 21.2983 12.7873 21.4998 11.6864C21.7013 10.5876 22.3369 9.86549 23.4126 9.58479C24.5618 9.28531 25.5786 10.0867 25.5993 11.2805C25.622 12.5473 24.4543 13.7483 23.2008 13.7494ZM22.6655 11.9671C22.6645 12.3949 22.9104 12.6161 23.3269 12.5598C23.9159 12.4805 24.4409 11.8304 24.4016 11.2314C24.3778 10.8735 24.136 10.67 23.7805 10.7118C23.2008 10.7785 22.6676 11.3796 22.6655 11.9671Z"/>
<path d="M12.8318 11.3379H13.954V12.4794H12.8318V11.3379Z"/>
<path d="M15.1414 13.6586V12.5264H16.2709V13.6586H15.1414Z"/>
<path d="M21.1898 25.1975C20.7951 25.1307 20.4437 25.0702 20.0448 25.0024C20.1068 24.6152 20.1657 24.2511 20.2308 23.843C20.6173 23.9057 20.979 23.9641 21.3851 24.0288C21.319 24.4222 21.258 24.7874 21.1898 25.1965V25.1975Z"/>
<path d="M20.4044 22.7244L19.8712 26.1272L20.9408 26.3589C20.9408 26.3589 21.5515 23.7877 21.4967 22.81"/>
<path d="M12.1911 28.3572L13.1263 29.1054L12.3605 30.0049L11.507 29.265L12.1911 28.3572Z"/>
</mask>
<path d="M10.1574 1C12.3264 1.69392 12.6427 4.78578 11.5886 6.25397C10.7795 7.38094 9.42469 7.50512 8.46054 6.51589C7.32588 5.35135 7.1688 3.10368 8.19082 1.84314C8.47604 1.49044 8.92969 1.27757 9.30688 1C9.59003 1 9.87421 1 10.1574 1ZM11.0326 4.48943C10.9717 3.61499 10.8508 3.00768 10.4116 2.52037C9.98375 2.04453 9.49599 2.06645 9.10124 2.56315C8.4657 3.36351 8.59281 5.03518 9.34305 5.7364C9.74917 6.11623 10.2359 6.12354 10.5356 5.65397C10.797 5.24492 10.9262 4.74822 11.0326 4.48943Z" fill="#FF671F"/>
<path d="M18.4813 30.4963C18.937 29.0626 19.3959 27.6205 19.8712 26.1272C20.1833 26.1951 20.5398 26.2712 20.9408 26.3589C20.423 28.7986 19.5488 31.0671 18.41 33.2783C18.3583 33.1812 18.3191 33.128 18.2994 33.0685C17.5843 30.943 16.1252 29.4059 14.3932 28.1078C12.6148 26.7742 10.7908 25.5032 9.001 24.1843C7.7382 23.2545 6.556 22.2277 5.56498 20.9974C3.46307 18.3887 3.19645 15.5379 4.57809 12.5347C5.06275 11.4808 5.73342 10.5135 6.32865 9.51279C6.38756 9.41366 6.5064 9.31662 6.61697 9.28531C8.53907 8.73748 10.4984 8.42339 12.4939 8.60183C16.6553 8.97331 19.3762 11.245 20.7362 15.1915C21.4998 17.4058 21.6931 19.7056 21.5484 22.0378C21.5329 22.2809 21.5164 22.5241 21.4978 22.8089C21.1133 22.7787 20.7579 22.7516 20.4055 22.7234C20.4055 22.1975 20.4003 21.6955 20.4055 21.1936C20.4323 18.8979 20.1833 16.6492 19.2129 14.5393C17.9109 11.7062 15.7118 10.1347 12.6323 9.80393C11.1938 9.64949 9.77914 9.80497 8.3696 10.0721C8.3355 10.0784 8.30656 10.1065 8.23526 10.1472C8.55767 10.4311 8.86459 10.6982 9.16841 10.9695C10.9035 12.5212 12.4256 14.2659 13.7639 16.1734C13.921 16.3967 14.0863 16.5084 14.356 16.5188C15.19 16.5522 16.0239 16.6033 16.8682 16.6482V17.8273C16.181 17.795 15.531 17.7647 14.8097 17.7313C16.3153 20.2086 17.4769 22.7933 18.2126 25.6138C17.8427 25.7161 17.4903 25.8132 17.1327 25.9112C16.6842 24.6184 16.242 23.3411 15.7997 22.0639C15.7604 22.0639 15.7211 22.0629 15.6808 22.0618C15.4896 22.4698 15.2985 22.8778 15.0949 23.3109C14.7322 23.1397 14.3994 22.9832 14.0377 22.8131C14.3467 22.1401 14.6536 21.4983 14.9326 20.8451C14.9895 20.7115 15.005 20.506 14.9419 20.3828C13.83 18.1978 12.4577 16.1901 10.8466 14.3494C10.8229 14.3222 10.7867 14.3076 10.7216 14.2628C10.3981 15.3678 10.0809 16.453 9.7595 17.5539C9.37818 17.4402 9.03717 17.3379 8.64758 17.2211C8.80259 16.668 8.95036 16.1358 9.10227 15.6047C9.30585 14.8941 9.51976 14.1866 9.7099 13.4728C9.74297 13.3476 9.72954 13.14 9.64893 13.0638C8.78605 12.2467 7.90561 11.4485 6.99312 10.6105C6.14471 11.8513 5.48644 13.0836 5.12372 14.4662C4.50989 16.8068 5.20433 18.7915 6.73581 20.5529C8.11848 22.1432 9.83494 23.3234 11.5132 24.5557C13.147 25.7558 14.7828 26.9589 16.3505 28.2445C17.1203 28.8758 17.7383 29.6981 18.4813 30.4932V30.4963Z" fill="#FF671F"/>
<path d="M12.3605 30.0049C12.6261 29.6929 12.8597 29.4174 13.1253 29.1043C15.1879 30.991 17.0656 32.9663 17.4531 35.9047C17.6887 37.6922 17.0935 39.2585 16.0859 40.6933C16.0404 40.758 15.9505 40.8196 15.8741 40.8311C14.4098 41.0554 12.9485 41.1128 11.5152 40.6464C9.86388 40.11 8.86252 38.9204 8.30966 37.3062C7.825 35.8912 7.7134 34.4126 7.60592 32.9339C7.45505 30.8616 7.45505 28.7704 6.90839 26.7471C6.72961 26.0855 6.4754 25.4438 6.25632 24.7926C6.21188 24.6622 6.16951 24.5307 6.08994 24.2907C8.19392 25.6598 10.2979 26.8306 12.19 28.3551C12.1239 28.4501 12.0764 28.5252 12.0226 28.5951C11.8511 28.8195 11.6775 29.0428 11.507 29.2629C10.4271 28.5158 9.36888 27.7833 8.21252 26.9829C8.28176 27.4368 8.34893 27.7687 8.3789 28.1036C8.5122 29.6052 8.61451 31.111 8.76642 32.6104C8.88629 33.7979 8.97723 34.998 9.22834 36.1604C9.76054 38.6283 11.0512 39.6717 13.5458 39.8053C13.797 39.8189 14.0501 39.8074 14.3674 39.8074C14.0057 39.317 13.6182 38.9183 13.3836 38.4436C12.995 37.6578 12.4763 37.2936 11.602 37.5441C11.4233 37.5952 11.2228 37.5691 10.9789 37.5816C10.9551 37.1924 10.9324 36.8241 10.9086 36.4286C11.3075 36.3889 11.6754 36.3524 12.0175 36.318C11.5287 35.0126 11.045 33.7218 10.5407 32.3746C10.9965 32.2651 11.352 32.1795 11.7415 32.0856C11.9214 32.6647 12.0981 33.2365 12.2934 33.8647C12.6251 33.6039 12.9051 33.3837 13.2131 33.1405C13.458 33.4442 13.6905 33.7322 13.9437 34.0463C13.5469 34.376 13.1728 34.687 12.7811 35.0126C13.4921 36.5747 14.3653 38.0178 15.5485 39.3117C15.9495 38.6919 16.1696 38.0376 16.2709 37.3437C16.5189 35.6366 15.9361 34.1548 14.9512 32.8317C14.3426 32.0146 13.612 31.2904 12.9279 30.5308C12.7646 30.3492 12.5703 30.1958 12.3616 30.0038L12.3605 30.0049Z" fill="#FF671F"/>
<path d="M3.25019 2.32628C4.59773 2.33045 5.86983 3.41151 6.27389 4.90474C6.494 5.71866 6.47126 6.52319 6.12921 7.30268C5.48851 8.76774 3.93636 9.32183 2.52372 8.59452C0.899232 7.75869 0.141758 5.58823 0.887864 3.90925C1.33015 2.9148 2.2137 2.3221 3.25019 2.32628ZM5.2374 5.95658C5.21156 5.05083 4.88604 4.31413 4.15337 3.8049C3.24709 3.17359 2.2106 3.54507 1.87475 4.60213C1.573 5.55483 1.96052 6.76215 2.76036 7.36007C3.75758 8.10512 4.92841 7.66477 5.18986 6.44076C5.225 6.27693 5.22293 6.10475 5.23636 5.95658H5.2374Z" fill="#FF671F"/>
<path d="M17.8179 4.46334C17.8199 5.26788 17.6019 6.00145 17.1048 6.63589C16.1892 7.80669 14.6598 7.77225 13.7908 6.56702C12.9196 5.35761 13.0498 3.34994 14.0687 2.26888C14.9978 1.28383 16.3505 1.35166 17.1823 2.42332C17.5998 2.96176 17.8158 3.65673 17.8158 4.46334H17.8179ZM14.3932 4.6063C14.3591 4.61987 14.325 4.63448 14.2909 4.64804C14.4532 5.07379 14.5575 5.53397 14.79 5.91588C15.1042 6.43032 15.6343 6.4418 16.0683 6.02545C16.7659 5.35657 16.8517 3.86751 16.2368 3.12037C15.8741 2.67898 15.3687 2.64454 14.9657 3.04837C14.5389 3.4762 14.3953 4.01673 14.3932 4.60735V4.6063Z" fill="#FF671F"/>
<path d="M19.9642 10.1305C18.9701 10.1368 18.2209 9.46584 18.0204 8.42652C17.7652 7.10024 18.7965 5.55797 20.1027 5.31275C21.3304 5.08318 22.3524 5.95032 22.4299 7.28703C22.5053 8.60183 21.4378 9.9281 20.1523 10.117C20.0758 10.1285 19.9983 10.1274 19.9642 10.1295V10.1305ZM21.2322 7.3872C21.2415 7.04285 21.1588 6.73502 20.8405 6.5545C20.5057 6.36458 20.1823 6.46476 19.9001 6.66824C19.3659 7.0512 19.1106 7.58025 19.1954 8.24913C19.2615 8.774 19.6563 9.03174 20.1668 8.89713C20.7548 8.7427 21.2301 8.0686 21.2322 7.3872Z" fill="#FF671F"/>
<path d="M23.2008 13.7494C22.1002 13.7494 21.2983 12.7873 21.4998 11.6864C21.7013 10.5876 22.3369 9.86549 23.4126 9.58479C24.5618 9.28531 25.5786 10.0867 25.5993 11.2805C25.622 12.5473 24.4543 13.7483 23.2008 13.7494ZM22.6655 11.9671C22.6645 12.3949 22.9104 12.6161 23.3269 12.5598C23.9159 12.4805 24.4409 11.8304 24.4016 11.2314C24.3778 10.8735 24.136 10.67 23.7805 10.7118C23.2008 10.7785 22.6676 11.3796 22.6655 11.9671Z" fill="#FF671F"/>
<path d="M12.8318 11.3379H13.954V12.4794H12.8318V11.3379Z" fill="#FF671F"/>
<path d="M15.1414 13.6586V12.5264H16.2709V13.6586H15.1414Z" fill="#FF671F"/>
<path d="M21.1898 25.1975C20.7951 25.1307 20.4437 25.0702 20.0448 25.0024C20.1068 24.6152 20.1657 24.2511 20.2308 23.843C20.6173 23.9057 20.979 23.9641 21.3851 24.0288C21.319 24.4222 21.258 24.7874 21.1898 25.1965V25.1975Z" fill="#FF671F"/>
<path d="M20.4044 22.7244L19.8712 26.1272L20.9408 26.3589C20.9408 26.3589 21.5515 23.7877 21.4967 22.81" fill="#FF671F"/>
<path d="M12.1911 28.3572L13.1263 29.1054L12.3605 30.0049L11.507 29.265L12.1911 28.3572Z" fill="#FF671F"/>
<path d="M10.1574 1L10.2183 0.80951L10.1886 0.8H10.1574V1ZM11.5886 6.25397L11.7511 6.37062L11.7511 6.37061L11.5886 6.25397ZM8.46054 6.51589L8.31729 6.65546L8.31731 6.65548L8.46054 6.51589ZM8.19082 1.84314L8.34617 1.9691L8.34634 1.9689L8.19082 1.84314ZM9.30688 1V0.8H9.24122L9.18834 0.838916L9.30688 1ZM11.0326 4.48943L11.2176 4.56551L11.2354 4.52222L11.2322 4.47552L11.0326 4.48943ZM10.4116 2.52037L10.2628 2.65408L10.263 2.65426L10.4116 2.52037ZM9.10124 2.56315L8.94466 2.43871L8.94461 2.43878L9.10124 2.56315ZM9.34305 5.7364L9.47966 5.59033L9.47962 5.59029L9.34305 5.7364ZM10.5356 5.65397L10.3671 5.54626L10.367 5.54637L10.5356 5.65397ZM18.4813 30.4963H18.2813L18.6719 30.5569L18.4813 30.4963ZM18.41 33.2783L18.2335 33.3723L18.4129 33.7094L18.5878 33.3699L18.41 33.2783ZM18.2994 33.0685L18.4894 33.0058L18.489 33.0048L18.2994 33.0685ZM14.3932 28.1078L14.2732 28.2678L14.2733 28.2678L14.3932 28.1078ZM9.001 24.1843L9.11965 24.0233L9.11958 24.0232L9.001 24.1843ZM5.56498 20.9974L5.72073 20.872L5.72072 20.872L5.56498 20.9974ZM4.57809 12.5347L4.75979 12.6183L4.7598 12.6183L4.57809 12.5347ZM6.32865 9.51279L6.50055 9.61504L6.50059 9.61496L6.32865 9.51279ZM6.61697 9.28531L6.67145 9.47775L6.67179 9.47765L6.61697 9.28531ZM12.4939 8.60183L12.476 8.80103L12.4761 8.80103L12.4939 8.60183ZM20.7362 15.1915L20.5471 15.2566L20.5471 15.2567L20.7362 15.1915ZM21.5484 22.0378L21.748 22.0505L21.748 22.0502L21.5484 22.0378ZM21.4978 22.8089L21.4821 23.0083L21.6841 23.0242L21.6973 22.822L21.4978 22.8089ZM20.4055 22.7234H20.2055V22.908L20.3895 22.9227L20.4055 22.7234ZM20.4055 21.1936L20.2055 21.1913L20.2055 21.1916L20.4055 21.1936ZM19.2129 14.5393L19.0312 14.6228L19.0312 14.6229L19.2129 14.5393ZM12.6323 9.80393L12.6537 9.60507L12.6537 9.60507L12.6323 9.80393ZM8.3696 10.0721L8.40571 10.2688L8.40684 10.2686L8.3696 10.0721ZM8.23526 10.1472L8.13612 9.97354L7.89293 10.1123L8.1031 10.2974L8.23526 10.1472ZM9.16841 10.9695L9.30173 10.8204L9.30162 10.8203L9.16841 10.9695ZM13.7639 16.1734L13.6002 16.2883L13.6003 16.2885L13.7639 16.1734ZM14.356 16.5188L14.364 16.3189L14.3637 16.3189L14.356 16.5188ZM16.8682 16.6482H17.0682V16.4585L16.8788 16.4485L16.8682 16.6482ZM16.8682 17.8273L16.8588 18.0271L17.0682 18.037V17.8273H16.8682ZM14.8097 17.7313L14.8189 17.5315L14.4436 17.5142L14.6388 17.8352L14.8097 17.7313ZM18.2126 25.6138L18.2659 25.8066L18.4559 25.7541L18.4061 25.5634L18.2126 25.6138ZM17.1327 25.9112L16.9438 25.9768L17.0051 26.1536L17.1856 26.1041L17.1327 25.9112ZM15.7997 22.0639L15.9887 21.9984L15.9421 21.8639H15.7997V22.0639ZM15.6808 22.0618L15.686 21.8619L15.5552 21.8585L15.4997 21.9769L15.6808 22.0618ZM15.0949 23.3109L15.0096 23.4917L15.1907 23.5772L15.2759 23.396L15.0949 23.3109ZM14.0377 22.8131L13.856 22.7297L13.7733 22.9098L13.9526 22.9941L14.0377 22.8131ZM14.9326 20.8451L15.1166 20.9237L15.1167 20.9234L14.9326 20.8451ZM14.9419 20.3828L14.7637 20.4735L14.7639 20.474L14.9419 20.3828ZM10.8466 14.3494L10.9971 14.2177L10.9971 14.2176L10.8466 14.3494ZM10.7216 14.2628L10.8351 14.0981L10.6073 13.9411L10.5296 14.2066L10.7216 14.2628ZM9.7595 17.5539L9.70234 17.7456L9.89512 17.8031L9.95149 17.61L9.7595 17.5539ZM8.64758 17.2211L8.455 17.1671L8.402 17.3562L8.59011 17.4126L8.64758 17.2211ZM9.10227 15.6047L8.91 15.5496L8.90998 15.5497L9.10227 15.6047ZM9.7099 13.4728L9.90316 13.5243L9.90327 13.5239L9.7099 13.4728ZM9.64893 13.0638L9.51142 13.209L9.51156 13.2091L9.64893 13.0638ZM6.99312 10.6105L7.1284 10.4632L6.95835 10.3071L6.82803 10.4977L6.99312 10.6105ZM5.12372 14.4662L4.93027 14.4155L4.93027 14.4155L5.12372 14.4662ZM6.73581 20.5529L6.88674 20.4217H6.88674L6.73581 20.5529ZM11.5132 24.5557L11.6316 24.3946L11.6315 24.3945L11.5132 24.5557ZM16.3505 28.2445L16.2236 28.3991L16.2236 28.3991L16.3505 28.2445ZM18.4813 30.4932H18.6813V30.4143L18.6274 30.3567L18.4813 30.4932ZM12.3605 30.0049L12.2296 30.156L12.3708 30.2784L12.5025 30.1457L12.3605 30.0049ZM13.1253 29.1043L13.2602 28.9567L13.107 28.8166L12.9727 28.9749L13.1253 29.1043ZM17.4531 35.9047L17.6514 35.8786L17.6514 35.8786L17.4531 35.9047ZM16.0859 40.6933L16.2495 40.8083L16.2496 40.8083L16.0859 40.6933ZM15.8741 40.8311L15.8444 40.6333L15.8438 40.6334L15.8741 40.8311ZM11.5152 40.6464L11.5771 40.4562L11.577 40.4562L11.5152 40.6464ZM8.30966 37.3062L8.49887 37.2414L8.49887 37.2413L8.30966 37.3062ZM7.60592 32.9339L7.8054 32.9194L7.8054 32.9194L7.60592 32.9339ZM6.90839 26.7471L7.10146 26.6949L7.10146 26.6949L6.90839 26.7471ZM6.25632 24.7926L6.44588 24.7288L6.44563 24.7281L6.25632 24.7926ZM6.08994 24.2907L6.19902 24.1231L5.7204 23.8116L5.9001 24.3536L6.08994 24.2907ZM12.19 28.3551L12.3542 28.4694L12.4607 28.3164L12.3155 28.1994L12.19 28.3551ZM12.0226 28.5951L11.8641 28.4732L11.8637 28.4736L12.0226 28.5951ZM11.507 29.2629L11.3932 29.4274L11.549 29.5352L11.6651 29.3854L11.507 29.2629ZM8.21252 26.9829L8.32634 26.8185L7.94485 26.5544L8.01481 27.0131L8.21252 26.9829ZM8.3789 28.1036L8.57811 28.0859L8.5781 28.0858L8.3789 28.1036ZM8.76642 32.6104L8.96541 32.5904L8.9654 32.5903L8.76642 32.6104ZM9.22834 36.1604L9.42385 36.1182L9.42383 36.1182L9.22834 36.1604ZM13.5458 39.8053L13.5566 39.6056L13.5565 39.6056L13.5458 39.8053ZM14.3674 39.8074V40.0074H14.7634L14.5283 39.6887L14.3674 39.8074ZM13.3836 38.4436L13.5629 38.355L13.5629 38.3549L13.3836 38.4436ZM11.602 37.5441L11.657 37.7364L11.6571 37.7363L11.602 37.5441ZM10.9789 37.5816L10.7793 37.5938L10.7913 37.7915L10.9892 37.7814L10.9789 37.5816ZM10.9086 36.4286L10.8888 36.2296L10.6975 36.2486L10.709 36.4406L10.9086 36.4286ZM12.0175 36.318L12.0375 36.517L12.2958 36.491L12.2048 36.2478L12.0175 36.318ZM10.5407 32.3746L10.494 32.1802L10.2742 32.233L10.3534 32.4447L10.5407 32.3746ZM11.7415 32.0856L11.9325 32.0263L11.877 31.8472L11.6947 31.8911L11.7415 32.0856ZM12.2934 33.8647L12.1024 33.9241L12.1886 34.2015L12.417 34.0219L12.2934 33.8647ZM13.2131 33.1405L13.3688 33.015L13.2445 32.8609L13.0892 32.9836L13.2131 33.1405ZM13.9437 34.0463L14.0715 34.2001L14.2231 34.0742L14.0994 33.9208L13.9437 34.0463ZM12.7811 35.0126L12.6533 34.8588L12.5358 34.9564L12.5991 35.0954L12.7811 35.0126ZM15.5485 39.3117L15.401 39.4467L15.5758 39.6379L15.7165 39.4204L15.5485 39.3117ZM16.2709 37.3437L16.4688 37.3726L16.4688 37.3725L16.2709 37.3437ZM14.9512 32.8317L15.1117 32.7123L15.1116 32.7122L14.9512 32.8317ZM12.9279 30.5308L12.7792 30.6645L12.7793 30.6646L12.9279 30.5308ZM12.3616 30.0038L12.497 29.8566L12.3553 29.7263L12.2196 29.8629L12.3616 30.0038ZM3.25019 2.32628L3.24938 2.52627L3.24957 2.52628L3.25019 2.32628ZM6.27389 4.90474L6.46695 4.85253L6.46694 4.8525L6.27389 4.90474ZM6.12921 7.30268L5.94607 7.22232L5.94597 7.22255L6.12921 7.30268ZM2.52372 8.59452L2.61527 8.41671L2.61522 8.41668L2.52372 8.59452ZM0.887864 3.90925L0.705123 3.82797L0.705098 3.82803L0.887864 3.90925ZM5.2374 5.95658V6.15658H5.44318L5.43732 5.95088L5.2374 5.95658ZM4.15337 3.8049L4.03905 3.96901L4.03923 3.96913L4.15337 3.8049ZM1.87475 4.60213L1.68414 4.54157L1.68409 4.54174L1.87475 4.60213ZM2.76036 7.36007L2.64062 7.52026L2.64066 7.52029L2.76036 7.36007ZM5.18986 6.44076L4.99431 6.39882L4.99427 6.39898L5.18986 6.44076ZM5.23636 5.95658V5.75658H5.05368L5.03718 5.93852L5.23636 5.95658ZM17.8179 4.46334L18.0179 4.46283L18.0174 4.26334H17.8179V4.46334ZM17.1048 6.63589L16.9474 6.51255L16.9473 6.51269L17.1048 6.63589ZM13.7908 6.56702L13.6285 6.68391L13.6285 6.684L13.7908 6.56702ZM14.0687 2.26888L13.9232 2.13166L13.9232 2.13171L14.0687 2.26888ZM17.1823 2.42332L17.3404 2.30077L17.3403 2.30068L17.1823 2.42332ZM17.8158 4.46334H17.6158V4.66334H17.8158V4.46334ZM14.3932 4.6063H14.5932V4.3115L14.3193 4.42047L14.3932 4.6063ZM14.2909 4.64804L14.217 4.46221L14.0338 4.53506L14.104 4.71926L14.2909 4.64804ZM14.79 5.91588L14.6192 6.01989L14.6194 6.02012L14.79 5.91588ZM16.0683 6.02545L15.9299 5.88109L15.9299 5.88112L16.0683 6.02545ZM16.2368 3.12037L16.0823 3.24735L16.0824 3.24746L16.2368 3.12037ZM14.9657 3.04837L14.8242 2.90709L14.8241 2.90712L14.9657 3.04837ZM14.3932 4.60735H14.1932L14.5932 4.60805L14.3932 4.60735ZM19.9642 10.1305L19.9655 10.3305L20.1642 10.3293V10.1305H19.9642ZM18.0204 8.42652L17.824 8.46432L17.824 8.4644L18.0204 8.42652ZM20.1027 5.31275L20.0659 5.11615L20.0658 5.11618L20.1027 5.31275ZM22.4299 7.28703L22.6296 7.27557L22.6295 7.27545L22.4299 7.28703ZM20.1523 10.117L20.1232 9.9191L20.1226 9.91919L20.1523 10.117ZM19.9642 10.1295L19.952 9.92987L19.7642 9.94136V10.1295H19.9642ZM21.2322 7.3872L21.0322 7.3818L21.0322 7.3866L21.2322 7.3872ZM20.8405 6.5545L20.7419 6.72846L20.7419 6.72846L20.8405 6.5545ZM19.9001 6.66824L20.0167 6.83079L20.0171 6.83045L19.9001 6.66824ZM19.1954 8.24913L19.3938 8.22412L19.3938 8.22399L19.1954 8.24913ZM20.1668 8.89713L20.116 8.70369L20.1158 8.70374L20.1668 8.89713ZM23.2008 13.7494V13.9494H23.201L23.2008 13.7494ZM21.4998 11.6864L21.3031 11.6503L21.3031 11.6504L21.4998 11.6864ZM23.4126 9.58479L23.3622 9.39126L23.3621 9.39127L23.4126 9.58479ZM25.5993 11.2805L25.3993 11.2839L25.3993 11.2841L25.5993 11.2805ZM22.6655 11.9671L22.4655 11.9664V11.9666L22.6655 11.9671ZM23.3269 12.5598L23.3002 12.3616L23.3 12.3616L23.3269 12.5598ZM24.4016 11.2314L24.6012 11.2183L24.6011 11.2182L24.4016 11.2314ZM23.7805 10.7118L23.8034 10.9104L23.8038 10.9104L23.7805 10.7118ZM12.8318 11.3379V11.1379H12.6318V11.3379H12.8318ZM13.954 11.3379H14.154V11.1379H13.954V11.3379ZM13.954 12.4794V12.6794H14.154V12.4794H13.954ZM12.8318 12.4794H12.6318V12.6794H12.8318V12.4794ZM15.1414 13.6586H14.9414V13.8586H15.1414V13.6586ZM15.1414 12.5264V12.3264H14.9414V12.5264H15.1414ZM16.2709 12.5264H16.4709V12.3264H16.2709V12.5264ZM16.2709 13.6586V13.8586H16.4709V13.6586H16.2709ZM21.1898 25.1975L21.1565 25.3947L21.3898 25.4342V25.1975H21.1898ZM20.0448 25.0024L19.8473 24.9707L19.816 25.1663L20.0113 25.1995L20.0448 25.0024ZM20.2308 23.843L20.2628 23.6456L20.0649 23.6136L20.0333 23.8115L20.2308 23.843ZM21.3851 24.0288L21.5824 24.0619L21.6158 23.863L21.4166 23.8313L21.3851 24.0288ZM21.1898 25.1965L20.9925 25.1636L20.9898 25.1799V25.1965H21.1898ZM12.1911 28.3572L12.316 28.201L12.1552 28.0724L12.0313 28.2368L12.1911 28.3572ZM13.1263 29.1054L13.2786 29.235L13.4122 29.078L13.2512 28.9492L13.1263 29.1054ZM11.507 29.265L11.3472 29.1447L11.2348 29.2938L11.376 29.4162L11.507 29.265ZM10.0964 1.19049C11.092 1.50898 11.6772 2.38103 11.8859 3.37762C12.0955 4.37872 11.9136 5.4584 11.4261 6.13733L11.7511 6.37061C12.3177 5.58136 12.5047 4.38101 12.2774 3.29565C12.0492 2.20578 11.3918 1.18494 10.2183 0.80951L10.0964 1.19049ZM11.4261 6.13733C11.0509 6.65994 10.5601 6.93665 10.0655 6.97924C9.57165 7.02178 9.049 6.83311 8.60376 6.3763L8.31731 6.65548C8.83623 7.1879 9.47304 7.43175 10.0999 7.37777C10.726 7.32384 11.3171 6.97498 11.7511 6.37062L11.4261 6.13733ZM8.60378 6.37632C8.07651 5.83516 7.76759 5.03088 7.71654 4.2032C7.66549 3.37537 7.87395 2.55153 8.34617 1.9691L8.03547 1.71718C7.48567 2.39529 7.26166 3.32555 7.3173 4.22783C7.37296 5.13025 7.7099 6.03208 8.31729 6.65546L8.60378 6.37632ZM8.34634 1.9689C8.4698 1.81622 8.63447 1.68819 8.826 1.55934C9.00694 1.43761 9.23422 1.30179 9.42542 1.16108L9.18834 0.838916C9.00235 0.975783 8.81421 1.08518 8.60273 1.22745C8.40182 1.36261 8.19706 1.51736 8.03531 1.71738L8.34634 1.9689ZM9.30688 1.2C9.30743 1.2 9.30799 1.2 9.30854 1.2C9.30909 1.2 9.30965 1.2 9.3102 1.2C9.31075 1.2 9.31131 1.2 9.31186 1.2C9.31241 1.2 9.31296 1.2 9.31352 1.2C9.31407 1.2 9.31462 1.2 9.31518 1.2C9.31573 1.2 9.31628 1.2 9.31684 1.2C9.31739 1.2 9.31794 1.2 9.3185 1.2C9.31905 1.2 9.3196 1.2 9.32016 1.2C9.32071 1.2 9.32126 1.2 9.32181 1.2C9.32237 1.2 9.32292 1.2 9.32347 1.2C9.32403 1.2 9.32458 1.2 9.32513 1.2C9.32569 1.2 9.32624 1.2 9.32679 1.2C9.32734 1.2 9.3279 1.2 9.32845 1.2C9.329 1.2 9.32956 1.2 9.33011 1.2C9.33066 1.2 9.33122 1.2 9.33177 1.2C9.33232 1.2 9.33288 1.2 9.33343 1.2C9.33398 1.2 9.33454 1.2 9.33509 1.2C9.33564 1.2 9.33619 1.2 9.33675 1.2C9.3373 1.2 9.33785 1.2 9.33841 1.2C9.33896 1.2 9.33951 1.2 9.34007 1.2C9.34062 1.2 9.34117 1.2 9.34173 1.2C9.34228 1.2 9.34283 1.2 9.34339 1.2C9.34394 1.2 9.34449 1.2 9.34505 1.2C9.3456 1.2 9.34615 1.2 9.34671 1.2C9.34726 1.2 9.34781 1.2 9.34837 1.2C9.34892 1.2 9.34947 1.2 9.35003 1.2C9.35058 1.2 9.35113 1.2 9.35168 1.2C9.35224 1.2 9.35279 1.2 9.35334 1.2C9.3539 1.2 9.35445 1.2 9.355 1.2C9.35556 1.2 9.35611 1.2 9.35666 1.2C9.35722 1.2 9.35777 1.2 9.35832 1.2C9.35888 1.2 9.35943 1.2 9.35998 1.2C9.36054 1.2 9.36109 1.2 9.36164 1.2C9.3622 1.2 9.36275 1.2 9.3633 1.2C9.36386 1.2 9.36441 1.2 9.36496 1.2C9.36552 1.2 9.36607 1.2 9.36662 1.2C9.36718 1.2 9.36773 1.2 9.36828 1.2C9.36884 1.2 9.36939 1.2 9.36994 1.2C9.3705 1.2 9.37105 1.2 9.3716 1.2C9.37216 1.2 9.37271 1.2 9.37326 1.2C9.37382 1.2 9.37437 1.2 9.37492 1.2C9.37548 1.2 9.37603 1.2 9.37658 1.2C9.37714 1.2 9.37769 1.2 9.37824 1.2C9.3788 1.2 9.37935 1.2 9.3799 1.2C9.38046 1.2 9.38101 1.2 9.38156 1.2C9.38212 1.2 9.38267 1.2 9.38322 1.2C9.38378 1.2 9.38433 1.2 9.38488 1.2C9.38544 1.2 9.38599 1.2 9.38654 1.2C9.3871 1.2 9.38765 1.2 9.3882 1.2C9.38876 1.2 9.38931 1.2 9.38986 1.2C9.39042 1.2 9.39097 1.2 9.39152 1.2C9.39208 1.2 9.39263 1.2 9.39318 1.2C9.39374 1.2 9.39429 1.2 9.39484 1.2C9.3954 1.2 9.39595 1.2 9.3965 1.2C9.39706 1.2 9.39761 1.2 9.39816 1.2C9.39872 1.2 9.39927 1.2 9.39982 1.2C9.40038 1.2 9.40093 1.2 9.40148 1.2C9.40204 1.2 9.40259 1.2 9.40314 1.2C9.4037 1.2 9.40425 1.2 9.4048 1.2C9.40536 1.2 9.40591 1.2 9.40646 1.2C9.40702 1.2 9.40757 1.2 9.40812 1.2C9.40868 1.2 9.40923 1.2 9.40979 1.2C9.41034 1.2 9.41089 1.2 9.41145 1.2C9.412 1.2 9.41255 1.2 9.41311 1.2C9.41366 1.2 9.41421 1.2 9.41477 1.2C9.41532 1.2 9.41587 1.2 9.41643 1.2C9.41698 1.2 9.41753 1.2 9.41809 1.2C9.41864 1.2 9.41919 1.2 9.41975 1.2C9.4203 1.2 9.42086 1.2 9.42141 1.2C9.42196 1.2 9.42252 1.2 9.42307 1.2C9.42362 1.2 9.42418 1.2 9.42473 1.2C9.42528 1.2 9.42584 1.2 9.42639 1.2C9.42694 1.2 9.4275 1.2 9.42805 1.2C9.4286 1.2 9.42916 1.2 9.42971 1.2C9.43026 1.2 9.43082 1.2 9.43137 1.2C9.43193 1.2 9.43248 1.2 9.43303 1.2C9.43359 1.2 9.43414 1.2 9.43469 1.2C9.43525 1.2 9.4358 1.2 9.43635 1.2C9.43691 1.2 9.43746 1.2 9.43801 1.2C9.43857 1.2 9.43912 1.2 9.43968 1.2C9.44023 1.2 9.44078 1.2 9.44134 1.2C9.44189 1.2 9.44244 1.2 9.443 1.2C9.44355 1.2 9.4441 1.2 9.44466 1.2C9.44521 1.2 9.44576 1.2 9.44632 1.2C9.44687 1.2 9.44742 1.2 9.44798 1.2C9.44853 1.2 9.44909 1.2 9.44964 1.2C9.45019 1.2 9.45075 1.2 9.4513 1.2C9.45185 1.2 9.45241 1.2 9.45296 1.2C9.45351 1.2 9.45407 1.2 9.45462 1.2C9.45518 1.2 9.45573 1.2 9.45628 1.2C9.45684 1.2 9.45739 1.2 9.45794 1.2C9.4585 1.2 9.45905 1.2 9.4596 1.2C9.46016 1.2 9.46071 1.2 9.46126 1.2C9.46182 1.2 9.46237 1.2 9.46293 1.2C9.46348 1.2 9.46403 1.2 9.46459 1.2C9.46514 1.2 9.46569 1.2 9.46625 1.2C9.4668 1.2 9.46735 1.2 9.46791 1.2C9.46846 1.2 9.46902 1.2 9.46957 1.2C9.47012 1.2 9.47068 1.2 9.47123 1.2C9.47178 1.2 9.47234 1.2 9.47289 1.2C9.47344 1.2 9.474 1.2 9.47455 1.2C9.47511 1.2 9.47566 1.2 9.47621 1.2C9.47677 1.2 9.47732 1.2 9.47787 1.2C9.47843 1.2 9.47898 1.2 9.47954 1.2C9.48009 1.2 9.48064 1.2 9.4812 1.2C9.48175 1.2 9.4823 1.2 9.48286 1.2C9.48341 1.2 9.48396 1.2 9.48452 1.2C9.48507 1.2 9.48563 1.2 9.48618 1.2C9.48673 1.2 9.48729 1.2 9.48784 1.2C9.48839 1.2 9.48895 1.2 9.4895 1.2C9.49006 1.2 9.49061 1.2 9.49116 1.2C9.49172 1.2 9.49227 1.2 9.49282 1.2C9.49338 1.2 9.49393 1.2 9.49448 1.2C9.49504 1.2 9.49559 1.2 9.49615 1.2C9.4967 1.2 9.49725 1.2 9.49781 1.2C9.49836 1.2 9.49891 1.2 9.49947 1.2C9.50002 1.2 9.50058 1.2 9.50113 1.2C9.50168 1.2 9.50224 1.2 9.50279 1.2C9.50335 1.2 9.5039 1.2 9.50445 1.2C9.50501 1.2 9.50556 1.2 9.50611 1.2C9.50667 1.2 9.50722 1.2 9.50778 1.2C9.50833 1.2 9.50888 1.2 9.50944 1.2C9.50999 1.2 9.51054 1.2 9.5111 1.2C9.51165 1.2 9.51221 1.2 9.51276 1.2C9.51331 1.2 9.51387 1.2 9.51442 1.2C9.51497 1.2 9.51553 1.2 9.51608 1.2C9.51663 1.2 9.51719 1.2 9.51774 1.2C9.5183 1.2 9.51885 1.2 9.5194 1.2C9.51996 1.2 9.52051 1.2 9.52107 1.2C9.52162 1.2 9.52217 1.2 9.52273 1.2C9.52328 1.2 9.52383 1.2 9.52439 1.2C9.52494 1.2 9.5255 1.2 9.52605 1.2C9.5266 1.2 9.52716 1.2 9.52771 1.2C9.52826 1.2 9.52882 1.2 9.52937 1.2C9.52993 1.2 9.53048 1.2 9.53103 1.2C9.53159 1.2 9.53214 1.2 9.53269 1.2C9.53325 1.2 9.5338 1.2 9.53436 1.2C9.53491 1.2 9.53546 1.2 9.53602 1.2C9.53657 1.2 9.53713 1.2 9.53768 1.2C9.53823 1.2 9.53879 1.2 9.53934 1.2C9.5399 1.2 9.54045 1.2 9.541 1.2C9.54156 1.2 9.54211 1.2 9.54266 1.2C9.54322 1.2 9.54377 1.2 9.54433 1.2C9.54488 1.2 9.54543 1.2 9.54599 1.2C9.54654 1.2 9.54709 1.2 9.54765 1.2C9.5482 1.2 9.54876 1.2 9.54931 1.2C9.54986 1.2 9.55042 1.2 9.55097 1.2C9.55153 1.2 9.55208 1.2 9.55263 1.2C9.55319 1.2 9.55374 1.2 9.55429 1.2C9.55485 1.2 9.5554 1.2 9.55596 1.2C9.55651 1.2 9.55706 1.2 9.55762 1.2C9.55817 1.2 9.55873 1.2 9.55928 1.2C9.55983 1.2 9.56039 1.2 9.56094 1.2C9.56149 1.2 9.56205 1.2 9.5626 1.2C9.56316 1.2 9.56371 1.2 9.56426 1.2C9.56482 1.2 9.56537 1.2 9.56593 1.2C9.56648 1.2 9.56703 1.2 9.56759 1.2C9.56814 1.2 9.5687 1.2 9.56925 1.2C9.5698 1.2 9.57036 1.2 9.57091 1.2C9.57146 1.2 9.57202 1.2 9.57257 1.2C9.57313 1.2 9.57368 1.2 9.57423 1.2C9.57479 1.2 9.57534 1.2 9.5759 1.2C9.57645 1.2 9.577 1.2 9.57756 1.2C9.57811 1.2 9.57867 1.2 9.57922 1.2C9.57977 1.2 9.58033 1.2 9.58088 1.2C9.58144 1.2 9.58199 1.2 9.58254 1.2C9.5831 1.2 9.58365 1.2 9.5842 1.2C9.58476 1.2 9.58531 1.2 9.58587 1.2C9.58642 1.2 9.58697 1.2 9.58753 1.2C9.58808 1.2 9.58864 1.2 9.58919 1.2C9.58974 1.2 9.5903 1.2 9.59085 1.2C9.59141 1.2 9.59196 1.2 9.59251 1.2C9.59307 1.2 9.59362 1.2 9.59418 1.2C9.59473 1.2 9.59528 1.2 9.59584 1.2C9.59639 1.2 9.59694 1.2 9.5975 1.2C9.59805 1.2 9.59861 1.2 9.59916 1.2C9.59971 1.2 9.60027 1.2 9.60082 1.2C9.60138 1.2 9.60193 1.2 9.60248 1.2C9.60304 1.2 9.60359 1.2 9.60415 1.2C9.6047 1.2 9.60525 1.2 9.60581 1.2C9.60636 1.2 9.60692 1.2 9.60747 1.2C9.60802 1.2 9.60858 1.2 9.60913 1.2C9.60968 1.2 9.61024 1.2 9.61079 1.2C9.61135 1.2 9.6119 1.2 9.61246 1.2C9.61301 1.2 9.61356 1.2 9.61412 1.2C9.61467 1.2 9.61522 1.2 9.61578 1.2C9.61633 1.2 9.61689 1.2 9.61744 1.2C9.61799 1.2 9.61855 1.2 9.6191 1.2C9.61966 1.2 9.62021 1.2 9.62076 1.2C9.62132 1.2 9.62187 1.2 9.62243 1.2C9.62298 1.2 9.62353 1.2 9.62409 1.2C9.62464 1.2 9.6252 1.2 9.62575 1.2C9.6263 1.2 9.62686 1.2 9.62741 1.2C9.62797 1.2 9.62852 1.2 9.62907 1.2C9.62963 1.2 9.63018 1.2 9.63074 1.2C9.63129 1.2 9.63184 1.2 9.6324 1.2C9.63295 1.2 9.63351 1.2 9.63406 1.2C9.63461 1.2 9.63517 1.2 9.63572 1.2C9.63628 1.2 9.63683 1.2 9.63738 1.2C9.63794 1.2 9.63849 1.2 9.63905 1.2C9.6396 1.2 9.64015 1.2 9.64071 1.2C9.64126 1.2 9.64182 1.2 9.64237 1.2C9.64292 1.2 9.64348 1.2 9.64403 1.2C9.64459 1.2 9.64514 1.2 9.64569 1.2C9.64625 1.2 9.6468 1.2 9.64736 1.2C9.64791 1.2 9.64846 1.2 9.64902 1.2C9.64957 1.2 9.65013 1.2 9.65068 1.2C9.65123 1.2 9.65179 1.2 9.65234 1.2C9.6529 1.2 9.65345 1.2 9.654 1.2C9.65456 1.2 9.65511 1.2 9.65567 1.2C9.65622 1.2 9.65677 1.2 9.65733 1.2C9.65788 1.2 9.65844 1.2 9.65899 1.2C9.65954 1.2 9.6601 1.2 9.66065 1.2C9.66121 1.2 9.66176 1.2 9.66231 1.2C9.66287 1.2 9.66342 1.2 9.66398 1.2C9.66453 1.2 9.66508 1.2 9.66564 1.2C9.66619 1.2 9.66675 1.2 9.6673 1.2C9.66785 1.2 9.66841 1.2 9.66896 1.2C9.66952 1.2 9.67007 1.2 9.67062 1.2C9.67118 1.2 9.67173 1.2 9.67229 1.2C9.67284 1.2 9.67339 1.2 9.67395 1.2C9.6745 1.2 9.67506 1.2 9.67561 1.2C9.67616 1.2 9.67672 1.2 9.67727 1.2C9.67783 1.2 9.67838 1.2 9.67893 1.2C9.67949 1.2 9.68004 1.2 9.6806 1.2C9.68115 1.2 9.6817 1.2 9.68226 1.2C9.68281 1.2 9.68337 1.2 9.68392 1.2C9.68447 1.2 9.68503 1.2 9.68558 1.2C9.68614 1.2 9.68669 1.2 9.68724 1.2C9.6878 1.2 9.68835 1.2 9.68891 1.2C9.68946 1.2 9.69001 1.2 9.69057 1.2C9.69112 1.2 9.69168 1.2 9.69223 1.2C9.69278 1.2 9.69334 1.2 9.69389 1.2C9.69445 1.2 9.695 1.2 9.69555 1.2C9.69611 1.2 9.69666 1.2 9.69722 1.2C9.69777 1.2 9.69832 1.2 9.69888 1.2C9.69943 1.2 9.69999 1.2 9.70054 1.2C9.70109 1.2 9.70165 1.2 9.7022 1.2C9.70276 1.2 9.70331 1.2 9.70387 1.2C9.70442 1.2 9.70497 1.2 9.70553 1.2C9.70608 1.2 9.70664 1.2 9.70719 1.2C9.70774 1.2 9.7083 1.2 9.70885 1.2C9.7094 1.2 9.70996 1.2 9.71051 1.2C9.71107 1.2 9.71162 1.2 9.71218 1.2C9.71273 1.2 9.71328 1.2 9.71384 1.2C9.71439 1.2 9.71495 1.2 9.7155 1.2C9.71605 1.2 9.71661 1.2 9.71716 1.2C9.71772 1.2 9.71827 1.2 9.71882 1.2C9.71938 1.2 9.71993 1.2 9.72049 1.2C9.72104 1.2 9.72159 1.2 9.72215 1.2C9.7227 1.2 9.72326 1.2 9.72381 1.2C9.72436 1.2 9.72492 1.2 9.72547 1.2C9.72603 1.2 9.72658 1.2 9.72713 1.2C9.72769 1.2 9.72824 1.2 9.7288 1.2C9.72935 1.2 9.7299 1.2 9.73046 1.2C9.73101 1.2 9.73157 1.2 9.73212 1.2C9.73267 1.2 9.73323 1.2 9.73378 1.2C9.73434 1.2 9.73489 1.2 9.73545 1.2C9.736 1.2 9.73655 1.2 9.73711 1.2C9.73766 1.2 9.73821 1.2 9.73877 1.2C9.73932 1.2 9.73988 1.2 9.74043 1.2C9.74098 1.2 9.74154 1.2 9.74209 1.2C9.74265 1.2 9.7432 1.2 9.74376 1.2C9.74431 1.2 9.74486 1.2 9.74542 1.2C9.74597 1.2 9.74653 1.2 9.74708 1.2C9.74763 1.2 9.74819 1.2 9.74874 1.2C9.7493 1.2 9.74985 1.2 9.7504 1.2C9.75096 1.2 9.75151 1.2 9.75207 1.2C9.75262 1.2 9.75317 1.2 9.75373 1.2C9.75428 1.2 9.75484 1.2 9.75539 1.2C9.75594 1.2 9.7565 1.2 9.75705 1.2C9.75761 1.2 9.75816 1.2 9.75871 1.2C9.75927 1.2 9.75982 1.2 9.76038 1.2C9.76093 1.2 9.76148 1.2 9.76204 1.2C9.76259 1.2 9.76315 1.2 9.7637 1.2C9.76425 1.2 9.76481 1.2 9.76536 1.2C9.76592 1.2 9.76647 1.2 9.76702 1.2C9.76758 1.2 9.76813 1.2 9.76869 1.2C9.76924 1.2 9.76979 1.2 9.77035 1.2C9.7709 1.2 9.77146 1.2 9.77201 1.2C9.77256 1.2 9.77312 1.2 9.77367 1.2C9.77423 1.2 9.77478 1.2 9.77534 1.2C9.77589 1.2 9.77644 1.2 9.777 1.2C9.77755 1.2 9.7781 1.2 9.77866 1.2C9.77921 1.2 9.77977 1.2 9.78032 1.2C9.78088 1.2 9.78143 1.2 9.78198 1.2C9.78254 1.2 9.78309 1.2 9.78365 1.2C9.7842 1.2 9.78475 1.2 9.78531 1.2C9.78586 1.2 9.78642 1.2 9.78697 1.2C9.78752 1.2 9.78808 1.2 9.78863 1.2C9.78919 1.2 9.78974 1.2 9.79029 1.2C9.79085 1.2 9.7914 1.2 9.79195 1.2C9.79251 1.2 9.79306 1.2 9.79362 1.2C9.79417 1.2 9.79473 1.2 9.79528 1.2C9.79583 1.2 9.79639 1.2 9.79694 1.2C9.7975 1.2 9.79805 1.2 9.7986 1.2C9.79916 1.2 9.79971 1.2 9.80027 1.2C9.80082 1.2 9.80137 1.2 9.80193 1.2C9.80248 1.2 9.80304 1.2 9.80359 1.2C9.80414 1.2 9.8047 1.2 9.80525 1.2C9.80581 1.2 9.80636 1.2 9.80691 1.2C9.80747 1.2 9.80802 1.2 9.80858 1.2C9.80913 1.2 9.80968 1.2 9.81024 1.2C9.81079 1.2 9.81135 1.2 9.8119 1.2C9.81245 1.2 9.81301 1.2 9.81356 1.2C9.81412 1.2 9.81467 1.2 9.81522 1.2C9.81578 1.2 9.81633 1.2 9.81689 1.2C9.81744 1.2 9.81799 1.2 9.81855 1.2C9.8191 1.2 9.81966 1.2 9.82021 1.2C9.82076 1.2 9.82132 1.2 9.82187 1.2C9.82243 1.2 9.82298 1.2 9.82353 1.2C9.82409 1.2 9.82464 1.2 9.8252 1.2C9.82575 1.2 9.8263 1.2 9.82686 1.2C9.82741 1.2 9.82797 1.2 9.82852 1.2C9.82907 1.2 9.82963 1.2 9.83018 1.2C9.83074 1.2 9.83129 1.2 9.83184 1.2C9.8324 1.2 9.83295 1.2 9.8335 1.2C9.83406 1.2 9.83461 1.2 9.83517 1.2C9.83572 1.2 9.83628 1.2 9.83683 1.2C9.83738 1.2 9.83794 1.2 9.83849 1.2C9.83904 1.2 9.8396 1.2 9.84015 1.2C9.84071 1.2 9.84126 1.2 9.84181 1.2C9.84237 1.2 9.84292 1.2 9.84348 1.2C9.84403 1.2 9.84458 1.2 9.84514 1.2C9.84569 1.2 9.84625 1.2 9.8468 1.2C9.84735 1.2 9.84791 1.2 9.84846 1.2C9.84902 1.2 9.84957 1.2 9.85012 1.2C9.85068 1.2 9.85123 1.2 9.85179 1.2C9.85234 1.2 9.85289 1.2 9.85345 1.2C9.854 1.2 9.85456 1.2 9.85511 1.2C9.85566 1.2 9.85622 1.2 9.85677 1.2C9.85733 1.2 9.85788 1.2 9.85843 1.2C9.85899 1.2 9.85954 1.2 9.8601 1.2C9.86065 1.2 9.8612 1.2 9.86176 1.2C9.86231 1.2 9.86286 1.2 9.86342 1.2C9.86397 1.2 9.86453 1.2 9.86508 1.2C9.86563 1.2 9.86619 1.2 9.86674 1.2C9.8673 1.2 9.86785 1.2 9.8684 1.2C9.86896 1.2 9.86951 1.2 9.87007 1.2C9.87062 1.2 9.87117 1.2 9.87173 1.2C9.87228 1.2 9.87284 1.2 9.87339 1.2C9.87394 1.2 9.8745 1.2 9.87505 1.2C9.87561 1.2 9.87616 1.2 9.87671 1.2C9.87727 1.2 9.87782 1.2 9.87838 1.2C9.87893 1.2 9.87948 1.2 9.88004 1.2C9.88059 1.2 9.88114 1.2 9.8817 1.2C9.88225 1.2 9.88281 1.2 9.88336 1.2C9.88391 1.2 9.88447 1.2 9.88502 1.2C9.88558 1.2 9.88613 1.2 9.88668 1.2C9.88724 1.2 9.88779 1.2 9.88834 1.2C9.8889 1.2 9.88945 1.2 9.89001 1.2C9.89056 1.2 9.89111 1.2 9.89167 1.2C9.89222 1.2 9.89278 1.2 9.89333 1.2C9.89388 1.2 9.89444 1.2 9.89499 1.2C9.89555 1.2 9.8961 1.2 9.89665 1.2C9.89721 1.2 9.89776 1.2 9.89832 1.2C9.89887 1.2 9.89942 1.2 9.89998 1.2C9.90053 1.2 9.90108 1.2 9.90164 1.2C9.90219 1.2 9.90275 1.2 9.9033 1.2C9.90385 1.2 9.90441 1.2 9.90496 1.2C9.90552 1.2 9.90607 1.2 9.90662 1.2C9.90718 1.2 9.90773 1.2 9.90829 1.2C9.90884 1.2 9.90939 1.2 9.90995 1.2C9.9105 1.2 9.91105 1.2 9.91161 1.2C9.91216 1.2 9.91272 1.2 9.91327 1.2C9.91382 1.2 9.91438 1.2 9.91493 1.2C9.91548 1.2 9.91604 1.2 9.91659 1.2C9.91715 1.2 9.9177 1.2 9.91825 1.2C9.91881 1.2 9.91936 1.2 9.91992 1.2C9.92047 1.2 9.92102 1.2 9.92158 1.2C9.92213 1.2 9.92268 1.2 9.92324 1.2C9.92379 1.2 9.92435 1.2 9.9249 1.2C9.92545 1.2 9.92601 1.2 9.92656 1.2C9.92712 1.2 9.92767 1.2 9.92822 1.2C9.92878 1.2 9.92933 1.2 9.92988 1.2C9.93044 1.2 9.93099 1.2 9.93155 1.2C9.9321 1.2 9.93265 1.2 9.93321 1.2C9.93376 1.2 9.93431 1.2 9.93487 1.2C9.93542 1.2 9.93598 1.2 9.93653 1.2C9.93708 1.2 9.93764 1.2 9.93819 1.2C9.93875 1.2 9.9393 1.2 9.93985 1.2C9.94041 1.2 9.94096 1.2 9.94151 1.2C9.94207 1.2 9.94262 1.2 9.94318 1.2C9.94373 1.2 9.94428 1.2 9.94484 1.2C9.94539 1.2 9.94594 1.2 9.9465 1.2C9.94705 1.2 9.94761 1.2 9.94816 1.2C9.94871 1.2 9.94927 1.2 9.94982 1.2C9.95037 1.2 9.95093 1.2 9.95148 1.2C9.95204 1.2 9.95259 1.2 9.95314 1.2C9.9537 1.2 9.95425 1.2 9.9548 1.2C9.95536 1.2 9.95591 1.2 9.95647 1.2C9.95702 1.2 9.95757 1.2 9.95813 1.2C9.95868 1.2 9.95924 1.2 9.95979 1.2C9.96034 1.2 9.9609 1.2 9.96145 1.2C9.962 1.2 9.96256 1.2 9.96311 1.2C9.96367 1.2 9.96422 1.2 9.96477 1.2C9.96533 1.2 9.96588 1.2 9.96643 1.2C9.96699 1.2 9.96754 1.2 9.96809 1.2C9.96865 1.2 9.9692 1.2 9.96976 1.2C9.97031 1.2 9.97086 1.2 9.97142 1.2C9.97197 1.2 9.97252 1.2 9.97308 1.2C9.97363 1.2 9.97418 1.2 9.97474 1.2C9.97529 1.2 9.97585 1.2 9.9764 1.2C9.97695 1.2 9.97751 1.2 9.97806 1.2C9.97861 1.2 9.97917 1.2 9.97972 1.2C9.98028 1.2 9.98083 1.2 9.98138 1.2C9.98194 1.2 9.98249 1.2 9.98304 1.2C9.9836 1.2 9.98415 1.2 9.98471 1.2C9.98526 1.2 9.98581 1.2 9.98637 1.2C9.98692 1.2 9.98747 1.2 9.98803 1.2C9.98858 1.2 9.98913 1.2 9.98969 1.2C9.99024 1.2 9.9908 1.2 9.99135 1.2C9.9919 1.2 9.99246 1.2 9.99301 1.2C9.99356 1.2 9.99412 1.2 9.99467 1.2C9.99522 1.2 9.99578 1.2 9.99633 1.2C9.99689 1.2 9.99744 1.2 9.99799 1.2C9.99855 1.2 9.9991 1.2 9.99965 1.2C10.0002 1.2 10.0008 1.2 10.0013 1.2C10.0019 1.2 10.0024 1.2 10.003 1.2C10.0035 1.2 10.0041 1.2 10.0046 1.2C10.0052 1.2 10.0057 1.2 10.0063 1.2C10.0069 1.2 10.0074 1.2 10.008 1.2C10.0085 1.2 10.0091 1.2 10.0096 1.2C10.0102 1.2 10.0107 1.2 10.0113 1.2C10.0118 1.2 10.0124 1.2 10.0129 1.2C10.0135 1.2 10.014 1.2 10.0146 1.2C10.0152 1.2 10.0157 1.2 10.0163 1.2C10.0168 1.2 10.0174 1.2 10.0179 1.2C10.0185 1.2 10.019 1.2 10.0196 1.2C10.0201 1.2 10.0207 1.2 10.0212 1.2C10.0218 1.2 10.0224 1.2 10.0229 1.2C10.0235 1.2 10.024 1.2 10.0246 1.2C10.0251 1.2 10.0257 1.2 10.0262 1.2C10.0268 1.2 10.0273 1.2 10.0279 1.2C10.0284 1.2 10.029 1.2 10.0295 1.2C10.0301 1.2 10.0307 1.2 10.0312 1.2C10.0318 1.2 10.0323 1.2 10.0329 1.2C10.0334 1.2 10.034 1.2 10.0345 1.2C10.0351 1.2 10.0356 1.2 10.0362 1.2C10.0367 1.2 10.0373 1.2 10.0379 1.2C10.0384 1.2 10.039 1.2 10.0395 1.2C10.0401 1.2 10.0406 1.2 10.0412 1.2C10.0417 1.2 10.0423 1.2 10.0428 1.2C10.0434 1.2 10.0439 1.2 10.0445 1.2C10.045 1.2 10.0456 1.2 10.0462 1.2C10.0467 1.2 10.0473 1.2 10.0478 1.2C10.0484 1.2 10.0489 1.2 10.0495 1.2C10.05 1.2 10.0506 1.2 10.0511 1.2C10.0517 1.2 10.0522 1.2 10.0528 1.2C10.0533 1.2 10.0539 1.2 10.0545 1.2C10.055 1.2 10.0556 1.2 10.0561 1.2C10.0567 1.2 10.0572 1.2 10.0578 1.2C10.0583 1.2 10.0589 1.2 10.0594 1.2C10.06 1.2 10.0605 1.2 10.0611 1.2C10.0617 1.2 10.0622 1.2 10.0628 1.2C10.0633 1.2 10.0639 1.2 10.0644 1.2C10.065 1.2 10.0655 1.2 10.0661 1.2C10.0666 1.2 10.0672 1.2 10.0677 1.2C10.0683 1.2 10.0688 1.2 10.0694 1.2C10.07 1.2 10.0705 1.2 10.0711 1.2C10.0716 1.2 10.0722 1.2 10.0727 1.2C10.0733 1.2 10.0738 1.2 10.0744 1.2C10.0749 1.2 10.0755 1.2 10.076 1.2C10.0766 1.2 10.0771 1.2 10.0777 1.2C10.0783 1.2 10.0788 1.2 10.0794 1.2C10.0799 1.2 10.0805 1.2 10.081 1.2C10.0816 1.2 10.0821 1.2 10.0827 1.2C10.0832 1.2 10.0838 1.2 10.0843 1.2C10.0849 1.2 10.0854 1.2 10.086 1.2C10.0866 1.2 10.0871 1.2 10.0877 1.2C10.0882 1.2 10.0888 1.2 10.0893 1.2C10.0899 1.2 10.0904 1.2 10.091 1.2C10.0915 1.2 10.0921 1.2 10.0926 1.2C10.0932 1.2 10.0937 1.2 10.0943 1.2C10.0949 1.2 10.0954 1.2 10.096 1.2C10.0965 1.2 10.0971 1.2 10.0976 1.2C10.0982 1.2 10.0987 1.2 10.0993 1.2C10.0998 1.2 10.1004 1.2 10.1009 1.2C10.1015 1.2 10.102 1.2 10.1026 1.2C10.1032 1.2 10.1037 1.2 10.1043 1.2C10.1048 1.2 10.1054 1.2 10.1059 1.2C10.1065 1.2 10.107 1.2 10.1076 1.2C10.1081 1.2 10.1087 1.2 10.1092 1.2C10.1098 1.2 10.1103 1.2 10.1109 1.2C10.1115 1.2 10.112 1.2 10.1126 1.2C10.1131 1.2 10.1137 1.2 10.1142 1.2C10.1148 1.2 10.1153 1.2 10.1159 1.2C10.1164 1.2 10.117 1.2 10.1175 1.2C10.1181 1.2 10.1186 1.2 10.1192 1.2C10.1197 1.2 10.1203 1.2 10.1209 1.2C10.1214 1.2 10.122 1.2 10.1225 1.2C10.1231 1.2 10.1236 1.2 10.1242 1.2C10.1247 1.2 10.1253 1.2 10.1258 1.2C10.1264 1.2 10.1269 1.2 10.1275 1.2C10.128 1.2 10.1286 1.2 10.1292 1.2C10.1297 1.2 10.1303 1.2 10.1308 1.2C10.1314 1.2 10.1319 1.2 10.1325 1.2C10.133 1.2 10.1336 1.2 10.1341 1.2C10.1347 1.2 10.1352 1.2 10.1358 1.2C10.1363 1.2 10.1369 1.2 10.1374 1.2C10.138 1.2 10.1386 1.2 10.1391 1.2C10.1397 1.2 10.1402 1.2 10.1408 1.2C10.1413 1.2 10.1419 1.2 10.1424 1.2C10.143 1.2 10.1435 1.2 10.1441 1.2C10.1446 1.2 10.1452 1.2 10.1457 1.2C10.1463 1.2 10.1469 1.2 10.1474 1.2C10.148 1.2 10.1485 1.2 10.1491 1.2C10.1496 1.2 10.1502 1.2 10.1507 1.2C10.1513 1.2 10.1518 1.2 10.1524 1.2C10.1529 1.2 10.1535 1.2 10.154 1.2C10.1546 1.2 10.1551 1.2 10.1557 1.2C10.1563 1.2 10.1568 1.2 10.1574 1.2V0.8C10.1568 0.8 10.1563 0.8 10.1557 0.8C10.1551 0.8 10.1546 0.8 10.154 0.8C10.1535 0.8 10.1529 0.8 10.1524 0.8C10.1518 0.8 10.1513 0.8 10.1507 0.8C10.1502 0.8 10.1496 0.8 10.1491 0.8C10.1485 0.8 10.148 0.8 10.1474 0.8C10.1469 0.8 10.1463 0.8 10.1457 0.8C10.1452 0.8 10.1446 0.8 10.1441 0.8C10.1435 0.8 10.143 0.8 10.1424 0.8C10.1419 0.8 10.1413 0.8 10.1408 0.8C10.1402 0.8 10.1397 0.8 10.1391 0.8C10.1386 0.8 10.138 0.8 10.1374 0.8C10.1369 0.8 10.1363 0.8 10.1358 0.8C10.1352 0.8 10.1347 0.8 10.1341 0.8C10.1336 0.8 10.133 0.8 10.1325 0.8C10.1319 0.8 10.1314 0.8 10.1308 0.8C10.1303 0.8 10.1297 0.8 10.1292 0.8C10.1286 0.8 10.128 0.8 10.1275 0.8C10.1269 0.8 10.1264 0.8 10.1258 0.8C10.1253 0.8 10.1247 0.8 10.1242 0.8C10.1236 0.8 10.1231 0.8 10.1225 0.8C10.122 0.8 10.1214 0.8 10.1209 0.8C10.1203 0.8 10.1197 0.8 10.1192 0.8C10.1186 0.8 10.1181 0.8 10.1175 0.8C10.117 0.8 10.1164 0.8 10.1159 0.8C10.1153 0.8 10.1148 0.8 10.1142 0.8C10.1137 0.8 10.1131 0.8 10.1126 0.8C10.112 0.8 10.1115 0.8 10.1109 0.8C10.1103 0.8 10.1098 0.8 10.1092 0.8C10.1087 0.8 10.1081 0.8 10.1076 0.8C10.107 0.8 10.1065 0.8 10.1059 0.8C10.1054 0.8 10.1048 0.8 10.1043 0.8C10.1037 0.8 10.1032 0.8 10.1026 0.8C10.102 0.8 10.1015 0.8 10.1009 0.8C10.1004 0.8 10.0998 0.8 10.0993 0.8C10.0987 0.8 10.0982 0.8 10.0976 0.8C10.0971 0.8 10.0965 0.8 10.096 0.8C10.0954 0.8 10.0949 0.8 10.0943 0.8C10.0937 0.8 10.0932 0.8 10.0926 0.8C10.0921 0.8 10.0915 0.8 10.091 0.8C10.0904 0.8 10.0899 0.8 10.0893 0.8C10.0888 0.8 10.0882 0.8 10.0877 0.8C10.0871 0.8 10.0866 0.8 10.086 0.8C10.0854 0.8 10.0849 0.8 10.0843 0.8C10.0838 0.8 10.0832 0.8 10.0827 0.8C10.0821 0.8 10.0816 0.8 10.081 0.8C10.0805 0.8 10.0799 0.8 10.0794 0.8C10.0788 0.8 10.0783 0.8 10.0777 0.8C10.0771 0.8 10.0766 0.8 10.076 0.8C10.0755 0.8 10.0749 0.8 10.0744 0.8C10.0738 0.8 10.0733 0.8 10.0727 0.8C10.0722 0.8 10.0716 0.8 10.0711 0.8C10.0705 0.8 10.07 0.8 10.0694 0.8C10.0688 0.8 10.0683 0.8 10.0677 0.8C10.0672 0.8 10.0666 0.8 10.0661 0.8C10.0655 0.8 10.065 0.8 10.0644 0.8C10.0639 0.8 10.0633 0.8 10.0628 0.8C10.0622 0.8 10.0617 0.8 10.0611 0.8C10.0605 0.8 10.06 0.8 10.0594 0.8C10.0589 0.8 10.0583 0.8 10.0578 0.8C10.0572 0.8 10.0567 0.8 10.0561 0.8C10.0556 0.8 10.055 0.8 10.0545 0.8C10.0539 0.8 10.0533 0.8 10.0528 0.8C10.0522 0.8 10.0517 0.8 10.0511 0.8C10.0506 0.8 10.05 0.8 10.0495 0.8C10.0489 0.8 10.0484 0.8 10.0478 0.8C10.0473 0.8 10.0467 0.8 10.0462 0.8C10.0456 0.8 10.045 0.8 10.0445 0.8C10.0439 0.8 10.0434 0.8 10.0428 0.8C10.0423 0.8 10.0417 0.8 10.0412 0.8C10.0406 0.8 10.0401 0.8 10.0395 0.8C10.039 0.8 10.0384 0.8 10.0379 0.8C10.0373 0.8 10.0367 0.8 10.0362 0.8C10.0356 0.8 10.0351 0.8 10.0345 0.8C10.034 0.8 10.0334 0.8 10.0329 0.8C10.0323 0.8 10.0318 0.8 10.0312 0.8C10.0307 0.8 10.0301 0.8 10.0295 0.8C10.029 0.8 10.0284 0.8 10.0279 0.8C10.0273 0.8 10.0268 0.8 10.0262 0.8C10.0257 0.8 10.0251 0.8 10.0246 0.8C10.024 0.8 10.0235 0.8 10.0229 0.8C10.0224 0.8 10.0218 0.8 10.0212 0.8C10.0207 0.8 10.0201 0.8 10.0196 0.8C10.019 0.8 10.0185 0.8 10.0179 0.8C10.0174 0.8 10.0168 0.8 10.0163 0.8C10.0157 0.8 10.0152 0.8 10.0146 0.8C10.014 0.8 10.0135 0.8 10.0129 0.8C10.0124 0.8 10.0118 0.8 10.0113 0.8C10.0107 0.8 10.0102 0.8 10.0096 0.8C10.0091 0.8 10.0085 0.8 10.008 0.8C10.0074 0.8 10.0069 0.8 10.0063 0.8C10.0057 0.8 10.0052 0.8 10.0046 0.8C10.0041 0.8 10.0035 0.8 10.003 0.8C10.0024 0.8 10.0019 0.8 10.0013 0.8C10.0008 0.8 10.0002 0.8 9.99965 0.8C9.9991 0.8 9.99855 0.8 9.99799 0.8C9.99744 0.8 9.99689 0.8 9.99633 0.8C9.99578 0.8 9.99522 0.8 9.99467 0.8C9.99412 0.8 9.99356 0.8 9.99301 0.8C9.99246 0.8 9.9919 0.8 9.99135 0.8C9.9908 0.8 9.99024 0.8 9.98969 0.8C9.98913 0.8 9.98858 0.8 9.98803 0.8C9.98747 0.8 9.98692 0.8 9.98637 0.8C9.98581 0.8 9.98526 0.8 9.98471 0.8C9.98415 0.8 9.9836 0.8 9.98304 0.8C9.98249 0.8 9.98194 0.8 9.98138 0.8C9.98083 0.8 9.98028 0.8 9.97972 0.8C9.97917 0.8 9.97861 0.8 9.97806 0.8C9.97751 0.8 9.97695 0.8 9.9764 0.8C9.97585 0.8 9.97529 0.8 9.97474 0.8C9.97418 0.8 9.97363 0.8 9.97308 0.8C9.97252 0.8 9.97197 0.8 9.97142 0.8C9.97086 0.8 9.97031 0.8 9.96976 0.8C9.9692 0.8 9.96865 0.8 9.96809 0.8C9.96754 0.8 9.96699 0.8 9.96643 0.8C9.96588 0.8 9.96533 0.8 9.96477 0.8C9.96422 0.8 9.96367 0.8 9.96311 0.8C9.96256 0.8 9.962 0.8 9.96145 0.8C9.9609 0.8 9.96034 0.8 9.95979 0.8C9.95924 0.8 9.95868 0.8 9.95813 0.8C9.95757 0.8 9.95702 0.8 9.95647 0.8C9.95591 0.8 9.95536 0.8 9.9548 0.8C9.95425 0.8 9.9537 0.8 9.95314 0.8C9.95259 0.8 9.95204 0.8 9.95148 0.8C9.95093 0.8 9.95037 0.8 9.94982 0.8C9.94927 0.8 9.94871 0.8 9.94816 0.8C9.94761 0.8 9.94705 0.8 9.9465 0.8C9.94594 0.8 9.94539 0.8 9.94484 0.8C9.94428 0.8 9.94373 0.8 9.94318 0.8C9.94262 0.8 9.94207 0.8 9.94151 0.8C9.94096 0.8 9.94041 0.8 9.93985 0.8C9.9393 0.8 9.93875 0.8 9.93819 0.8C9.93764 0.8 9.93708 0.8 9.93653 0.8C9.93598 0.8 9.93542 0.8 9.93487 0.8C9.93431 0.8 9.93376 0.8 9.93321 0.8C9.93265 0.8 9.9321 0.8 9.93155 0.8C9.93099 0.8 9.93044 0.8 9.92988 0.8C9.92933 0.8 9.92878 0.8 9.92822 0.8C9.92767 0.8 9.92712 0.8 9.92656 0.8C9.92601 0.8 9.92545 0.8 9.9249 0.8C9.92435 0.8 9.92379 0.8 9.92324 0.8C9.92268 0.8 9.92213 0.8 9.92158 0.8C9.92102 0.8 9.92047 0.8 9.91992 0.8C9.91936 0.8 9.91881 0.8 9.91825 0.8C9.9177 0.8 9.91715 0.8 9.91659 0.8C9.91604 0.8 9.91548 0.8 9.91493 0.8C9.91438 0.8 9.91382 0.8 9.91327 0.8C9.91272 0.8 9.91216 0.8 9.91161 0.8C9.91105 0.8 9.9105 0.8 9.90995 0.8C9.90939 0.8 9.90884 0.8 9.90829 0.8C9.90773 0.8 9.90718 0.8 9.90662 0.8C9.90607 0.8 9.90552 0.8 9.90496 0.8C9.90441 0.8 9.90385 0.8 9.9033 0.8C9.90275 0.8 9.90219 0.8 9.90164 0.8C9.90108 0.8 9.90053 0.8 9.89998 0.8C9.89942 0.8 9.89887 0.8 9.89832 0.8C9.89776 0.8 9.89721 0.8 9.89665 0.8C9.8961 0.8 9.89555 0.8 9.89499 0.8C9.89444 0.8 9.89388 0.8 9.89333 0.8C9.89278 0.8 9.89222 0.8 9.89167 0.8C9.89111 0.8 9.89056 0.8 9.89001 0.8C9.88945 0.8 9.8889 0.8 9.88834 0.8C9.88779 0.8 9.88724 0.8 9.88668 0.8C9.88613 0.8 9.88558 0.8 9.88502 0.8C9.88447 0.8 9.88391 0.8 9.88336 0.8C9.88281 0.8 9.88225 0.8 9.8817 0.8C9.88114 0.8 9.88059 0.8 9.88004 0.8C9.87948 0.8 9.87893 0.8 9.87838 0.8C9.87782 0.8 9.87727 0.8 9.87671 0.8C9.87616 0.8 9.87561 0.8 9.87505 0.8C9.8745 0.8 9.87394 0.8 9.87339 0.8C9.87284 0.8 9.87228 0.8 9.87173 0.8C9.87117 0.8 9.87062 0.8 9.87007 0.8C9.86951 0.8 9.86896 0.8 9.8684 0.8C9.86785 0.8 9.8673 0.8 9.86674 0.8C9.86619 0.8 9.86563 0.8 9.86508 0.8C9.86453 0.8 9.86397 0.8 9.86342 0.8C9.86286 0.8 9.86231 0.8 9.86176 0.8C9.8612 0.8 9.86065 0.8 9.8601 0.8C9.85954 0.8 9.85899 0.8 9.85843 0.8C9.85788 0.8 9.85733 0.8 9.85677 0.8C9.85622 0.8 9.85566 0.8 9.85511 0.8C9.85456 0.8 9.854 0.8 9.85345 0.8C9.85289 0.8 9.85234 0.8 9.85179 0.8C9.85123 0.8 9.85068 0.8 9.85012 0.8C9.84957 0.8 9.84902 0.8 9.84846 0.8C9.84791 0.8 9.84735 0.8 9.8468 0.8C9.84625 0.8 9.84569 0.8 9.84514 0.8C9.84458 0.8 9.84403 0.8 9.84348 0.8C9.84292 0.8 9.84237 0.8 9.84181 0.8C9.84126 0.8 9.84071 0.8 9.84015 0.8C9.8396 0.8 9.83904 0.8 9.83849 0.8C9.83794 0.8 9.83738 0.8 9.83683 0.8C9.83628 0.8 9.83572 0.8 9.83517 0.8C9.83461 0.8 9.83406 0.8 9.8335 0.8C9.83295 0.8 9.8324 0.8 9.83184 0.8C9.83129 0.8 9.83074 0.8 9.83018 0.8C9.82963 0.8 9.82907 0.8 9.82852 0.8C9.82797 0.8 9.82741 0.8 9.82686 0.8C9.8263 0.8 9.82575 0.8 9.8252 0.8C9.82464 0.8 9.82409 0.8 9.82353 0.8C9.82298 0.8 9.82243 0.8 9.82187 0.8C9.82132 0.8 9.82076 0.8 9.82021 0.8C9.81966 0.8 9.8191 0.8 9.81855 0.8C9.81799 0.8 9.81744 0.8 9.81689 0.8C9.81633 0.8 9.81578 0.8 9.81522 0.8C9.81467 0.8 9.81412 0.8 9.81356 0.8C9.81301 0.8 9.81245 0.8 9.8119 0.8C9.81135 0.8 9.81079 0.8 9.81024 0.8C9.80968 0.8 9.80913 0.8 9.80858 0.8C9.80802 0.8 9.80747 0.8 9.80691 0.8C9.80636 0.8 9.80581 0.8 9.80525 0.8C9.8047 0.8 9.80414 0.8 9.80359 0.8C9.80304 0.8 9.80248 0.8 9.80193 0.8C9.80137 0.8 9.80082 0.8 9.80027 0.8C9.79971 0.8 9.79916 0.8 9.7986 0.8C9.79805 0.8 9.7975 0.8 9.79694 0.8C9.79639 0.8 9.79583 0.8 9.79528 0.8C9.79473 0.8 9.79417 0.8 9.79362 0.8C9.79306 0.8 9.79251 0.8 9.79195 0.8C9.7914 0.8 9.79085 0.8 9.79029 0.8C9.78974 0.8 9.78919 0.8 9.78863 0.8C9.78808 0.8 9.78752 0.8 9.78697 0.8C9.78642 0.8 9.78586 0.8 9.78531 0.8C9.78475 0.8 9.7842 0.8 9.78365 0.8C9.78309 0.8 9.78254 0.8 9.78198 0.8C9.78143 0.8 9.78088 0.8 9.78032 0.8C9.77977 0.8 9.77921 0.8 9.77866 0.8C9.7781 0.8 9.77755 0.8 9.777 0.8C9.77644 0.8 9.77589 0.8 9.77534 0.8C9.77478 0.8 9.77423 0.8 9.77367 0.8C9.77312 0.8 9.77256 0.8 9.77201 0.8C9.77146 0.8 9.7709 0.8 9.77035 0.8C9.76979 0.8 9.76924 0.8 9.76869 0.8C9.76813 0.8 9.76758 0.8 9.76702 0.8C9.76647 0.8 9.76592 0.8 9.76536 0.8C9.76481 0.8 9.76425 0.8 9.7637 0.8C9.76315 0.8 9.76259 0.8 9.76204 0.8C9.76148 0.8 9.76093 0.8 9.76038 0.8C9.75982 0.8 9.75927 0.8 9.75871 0.8C9.75816 0.8 9.75761 0.8 9.75705 0.8C9.7565 0.8 9.75594 0.8 9.75539 0.8C9.75484 0.8 9.75428 0.8 9.75373 0.8C9.75317 0.8 9.75262 0.8 9.75207 0.8C9.75151 0.8 9.75096 0.8 9.7504 0.8C9.74985 0.8 9.7493 0.8 9.74874 0.8C9.74819 0.8 9.74763 0.8 9.74708 0.8C9.74653 0.8 9.74597 0.8 9.74542 0.8C9.74486 0.8 9.74431 0.8 9.74376 0.8C9.7432 0.8 9.74265 0.8 9.74209 0.8C9.74154 0.8 9.74098 0.8 9.74043 0.8C9.73988 0.8 9.73932 0.8 9.73877 0.8C9.73821 0.8 9.73766 0.8 9.73711 0.8C9.73655 0.8 9.736 0.8 9.73545 0.8C9.73489 0.8 9.73434 0.8 9.73378 0.8C9.73323 0.8 9.73267 0.8 9.73212 0.8C9.73157 0.8 9.73101 0.8 9.73046 0.8C9.7299 0.8 9.72935 0.8 9.7288 0.8C9.72824 0.8 9.72769 0.8 9.72713 0.8C9.72658 0.8 9.72603 0.8 9.72547 0.8C9.72492 0.8 9.72436 0.8 9.72381 0.8C9.72326 0.8 9.7227 0.8 9.72215 0.8C9.72159 0.8 9.72104 0.8 9.72049 0.8C9.71993 0.8 9.71938 0.8 9.71882 0.8C9.71827 0.8 9.71772 0.8 9.71716 0.8C9.71661 0.8 9.71605 0.8 9.7155 0.8C9.71495 0.8 9.71439 0.8 9.71384 0.8C9.71328 0.8 9.71273 0.8 9.71218 0.8C9.71162 0.8 9.71107 0.8 9.71051 0.8C9.70996 0.8 9.7094 0.8 9.70885 0.8C9.7083 0.8 9.70774 0.8 9.70719 0.8C9.70664 0.8 9.70608 0.8 9.70553 0.8C9.70497 0.8 9.70442 0.8 9.70387 0.8C9.70331 0.8 9.70276 0.8 9.7022 0.8C9.70165 0.8 9.70109 0.8 9.70054 0.8C9.69999 0.8 9.69943 0.8 9.69888 0.8C9.69832 0.8 9.69777 0.8 9.69722 0.8C9.69666 0.8 9.69611 0.8 9.69555 0.8C9.695 0.8 9.69445 0.8 9.69389 0.8C9.69334 0.8 9.69278 0.8 9.69223 0.8C9.69168 0.8 9.69112 0.8 9.69057 0.8C9.69001 0.8 9.68946 0.8 9.68891 0.8C9.68835 0.8 9.6878 0.8 9.68724 0.8C9.68669 0.8 9.68614 0.8 9.68558 0.8C9.68503 0.8 9.68447 0.8 9.68392 0.8C9.68337 0.8 9.68281 0.8 9.68226 0.8C9.6817 0.8 9.68115 0.8 9.6806 0.8C9.68004 0.8 9.67949 0.8 9.67893 0.8C9.67838 0.8 9.67783 0.8 9.67727 0.8C9.67672 0.8 9.67616 0.8 9.67561 0.8C9.67506 0.8 9.6745 0.8 9.67395 0.8C9.67339 0.8 9.67284 0.8 9.67229 0.8C9.67173 0.8 9.67118 0.8 9.67062 0.8C9.67007 0.8 9.66952 0.8 9.66896 0.8C9.66841 0.8 9.66785 0.8 9.6673 0.8C9.66675 0.8 9.66619 0.8 9.66564 0.8C9.66508 0.8 9.66453 0.8 9.66398 0.8C9.66342 0.8 9.66287 0.8 9.66231 0.8C9.66176 0.8 9.66121 0.8 9.66065 0.8C9.6601 0.8 9.65954 0.8 9.65899 0.8C9.65844 0.8 9.65788 0.8 9.65733 0.8C9.65677 0.8 9.65622 0.8 9.65567 0.8C9.65511 0.8 9.65456 0.8 9.654 0.8C9.65345 0.8 9.6529 0.8 9.65234 0.8C9.65179 0.8 9.65123 0.8 9.65068 0.8C9.65013 0.8 9.64957 0.8 9.64902 0.8C9.64846 0.8 9.64791 0.8 9.64736 0.8C9.6468 0.8 9.64625 0.8 9.64569 0.8C9.64514 0.8 9.64459 0.8 9.64403 0.8C9.64348 0.8 9.64292 0.8 9.64237 0.8C9.64182 0.8 9.64126 0.8 9.64071 0.8C9.64015 0.8 9.6396 0.8 9.63905 0.8C9.63849 0.8 9.63794 0.8 9.63738 0.8C9.63683 0.8 9.63628 0.8 9.63572 0.8C9.63517 0.8 9.63461 0.8 9.63406 0.8C9.63351 0.8 9.63295 0.8 9.6324 0.8C9.63184 0.8 9.63129 0.8 9.63074 0.8C9.63018 0.8 9.62963 0.8 9.62907 0.8C9.62852 0.8 9.62797 0.8 9.62741 0.8C9.62686 0.8 9.6263 0.8 9.62575 0.8C9.6252 0.8 9.62464 0.8 9.62409 0.8C9.62353 0.8 9.62298 0.8 9.62243 0.8C9.62187 0.8 9.62132 0.8 9.62076 0.8C9.62021 0.8 9.61966 0.8 9.6191 0.8C9.61855 0.8 9.61799 0.8 9.61744 0.8C9.61689 0.8 9.61633 0.8 9.61578 0.8C9.61522 0.8 9.61467 0.8 9.61412 0.8C9.61356 0.8 9.61301 0.8 9.61246 0.8C9.6119 0.8 9.61135 0.8 9.61079 0.8C9.61024 0.8 9.60968 0.8 9.60913 0.8C9.60858 0.8 9.60802 0.8 9.60747 0.8C9.60692 0.8 9.60636 0.8 9.60581 0.8C9.60525 0.8 9.6047 0.8 9.60415 0.8C9.60359 0.8 9.60304 0.8 9.60248 0.8C9.60193 0.8 9.60138 0.8 9.60082 0.8C9.60027 0.8 9.59971 0.8 9.59916 0.8C9.59861 0.8 9.59805 0.8 9.5975 0.8C9.59694 0.8 9.59639 0.8 9.59584 0.8C9.59528 0.8 9.59473 0.8 9.59418 0.8C9.59362 0.8 9.59307 0.8 9.59251 0.8C9.59196 0.8 9.59141 0.8 9.59085 0.8C9.5903 0.8 9.58974 0.8 9.58919 0.8C9.58864 0.8 9.58808 0.8 9.58753 0.8C9.58697 0.8 9.58642 0.8 9.58587 0.8C9.58531 0.8 9.58476 0.8 9.5842 0.8C9.58365 0.8 9.5831 0.8 9.58254 0.8C9.58199 0.8 9.58144 0.8 9.58088 0.8C9.58033 0.8 9.57977 0.8 9.57922 0.8C9.57867 0.8 9.57811 0.8 9.57756 0.8C9.577 0.8 9.57645 0.8 9.5759 0.8C9.57534 0.8 9.57479 0.8 9.57423 0.8C9.57368 0.8 9.57313 0.8 9.57257 0.8C9.57202 0.8 9.57146 0.8 9.57091 0.8C9.57036 0.8 9.5698 0.8 9.56925 0.8C9.5687 0.8 9.56814 0.8 9.56759 0.8C9.56703 0.8 9.56648 0.8 9.56593 0.8C9.56537 0.8 9.56482 0.8 9.56426 0.8C9.56371 0.8 9.56316 0.8 9.5626 0.8C9.56205 0.8 9.56149 0.8 9.56094 0.8C9.56039 0.8 9.55983 0.8 9.55928 0.8C9.55873 0.8 9.55817 0.8 9.55762 0.8C9.55706 0.8 9.55651 0.8 9.55596 0.8C9.5554 0.8 9.55485 0.8 9.55429 0.8C9.55374 0.8 9.55319 0.8 9.55263 0.8C9.55208 0.8 9.55153 0.8 9.55097 0.8C9.55042 0.8 9.54986 0.8 9.54931 0.8C9.54876 0.8 9.5482 0.8 9.54765 0.8C9.54709 0.8 9.54654 0.8 9.54599 0.8C9.54543 0.8 9.54488 0.8 9.54433 0.8C9.54377 0.8 9.54322 0.8 9.54266 0.8C9.54211 0.8 9.54156 0.8 9.541 0.8C9.54045 0.8 9.5399 0.8 9.53934 0.8C9.53879 0.8 9.53823 0.8 9.53768 0.8C9.53713 0.8 9.53657 0.8 9.53602 0.8C9.53546 0.8 9.53491 0.8 9.53436 0.8C9.5338 0.8 9.53325 0.8 9.53269 0.8C9.53214 0.8 9.53159 0.8 9.53103 0.8C9.53048 0.8 9.52993 0.8 9.52937 0.8C9.52882 0.8 9.52826 0.8 9.52771 0.8C9.52716 0.8 9.5266 0.8 9.52605 0.8C9.5255 0.8 9.52494 0.8 9.52439 0.8C9.52383 0.8 9.52328 0.8 9.52273 0.8C9.52217 0.8 9.52162 0.8 9.52107 0.8C9.52051 0.8 9.51996 0.8 9.5194 0.8C9.51885 0.8 9.5183 0.8 9.51774 0.8C9.51719 0.8 9.51663 0.8 9.51608 0.8C9.51553 0.8 9.51497 0.8 9.51442 0.8C9.51387 0.8 9.51331 0.8 9.51276 0.8C9.51221 0.8 9.51165 0.8 9.5111 0.8C9.51054 0.8 9.50999 0.8 9.50944 0.8C9.50888 0.8 9.50833 0.8 9.50778 0.8C9.50722 0.8 9.50667 0.8 9.50611 0.8C9.50556 0.8 9.50501 0.8 9.50445 0.8C9.5039 0.8 9.50335 0.8 9.50279 0.8C9.50224 0.8 9.50168 0.8 9.50113 0.8C9.50058 0.8 9.50002 0.8 9.49947 0.8C9.49891 0.8 9.49836 0.8 9.49781 0.8C9.49725 0.8 9.4967 0.8 9.49615 0.8C9.49559 0.8 9.49504 0.8 9.49448 0.8C9.49393 0.8 9.49338 0.8 9.49282 0.8C9.49227 0.8 9.49172 0.8 9.49116 0.8C9.49061 0.8 9.49006 0.8 9.4895 0.8C9.48895 0.8 9.48839 0.8 9.48784 0.8C9.48729 0.8 9.48673 0.8 9.48618 0.8C9.48563 0.8 9.48507 0.8 9.48452 0.8C9.48396 0.8 9.48341 0.8 9.48286 0.8C9.4823 0.8 9.48175 0.8 9.4812 0.8C9.48064 0.8 9.48009 0.8 9.47954 0.8C9.47898 0.8 9.47843 0.8 9.47787 0.8C9.47732 0.8 9.47677 0.8 9.47621 0.8C9.47566 0.8 9.47511 0.8 9.47455 0.8C9.474 0.8 9.47344 0.8 9.47289 0.8C9.47234 0.8 9.47178 0.8 9.47123 0.8C9.47068 0.8 9.47012 0.8 9.46957 0.8C9.46902 0.8 9.46846 0.8 9.46791 0.8C9.46735 0.8 9.4668 0.8 9.46625 0.8C9.46569 0.8 9.46514 0.8 9.46459 0.8C9.46403 0.8 9.46348 0.8 9.46293 0.8C9.46237 0.8 9.46182 0.8 9.46126 0.8C9.46071 0.8 9.46016 0.8 9.4596 0.8C9.45905 0.8 9.4585 0.8 9.45794 0.8C9.45739 0.8 9.45684 0.8 9.45628 0.8C9.45573 0.8 9.45518 0.8 9.45462 0.8C9.45407 0.8 9.45351 0.8 9.45296 0.8C9.45241 0.8 9.45185 0.8 9.4513 0.8C9.45075 0.8 9.45019 0.8 9.44964 0.8C9.44909 0.8 9.44853 0.8 9.44798 0.8C9.44742 0.8 9.44687 0.8 9.44632 0.8C9.44576 0.8 9.44521 0.8 9.44466 0.8C9.4441 0.8 9.44355 0.8 9.443 0.8C9.44244 0.8 9.44189 0.8 9.44134 0.8C9.44078 0.8 9.44023 0.8 9.43968 0.8C9.43912 0.8 9.43857 0.8 9.43801 0.8C9.43746 0.8 9.43691 0.8 9.43635 0.8C9.4358 0.8 9.43525 0.8 9.43469 0.8C9.43414 0.8 9.43359 0.8 9.43303 0.8C9.43248 0.8 9.43193 0.8 9.43137 0.8C9.43082 0.8 9.43026 0.8 9.42971 0.8C9.42916 0.8 9.4286 0.8 9.42805 0.8C9.4275 0.8 9.42694 0.8 9.42639 0.8C9.42584 0.8 9.42528 0.8 9.42473 0.8C9.42418 0.8 9.42362 0.8 9.42307 0.8C9.42252 0.8 9.42196 0.8 9.42141 0.8C9.42086 0.8 9.4203 0.8 9.41975 0.8C9.41919 0.8 9.41864 0.8 9.41809 0.8C9.41753 0.8 9.41698 0.8 9.41643 0.8C9.41587 0.8 9.41532 0.8 9.41477 0.8C9.41421 0.8 9.41366 0.8 9.41311 0.8C9.41255 0.8 9.412 0.8 9.41145 0.8C9.41089 0.8 9.41034 0.8 9.40979 0.8C9.40923 0.8 9.40868 0.8 9.40812 0.8C9.40757 0.8 9.40702 0.8 9.40646 0.8C9.40591 0.8 9.40536 0.8 9.4048 0.8C9.40425 0.8 9.4037 0.8 9.40314 0.8C9.40259 0.8 9.40204 0.8 9.40148 0.8C9.40093 0.8 9.40038 0.8 9.39982 0.8C9.39927 0.8 9.39872 0.8 9.39816 0.8C9.39761 0.8 9.39706 0.8 9.3965 0.8C9.39595 0.8 9.3954 0.8 9.39484 0.8C9.39429 0.8 9.39374 0.8 9.39318 0.8C9.39263 0.8 9.39208 0.8 9.39152 0.8C9.39097 0.8 9.39042 0.8 9.38986 0.8C9.38931 0.8 9.38876 0.8 9.3882 0.8C9.38765 0.8 9.3871 0.8 9.38654 0.8C9.38599 0.8 9.38544 0.8 9.38488 0.8C9.38433 0.8 9.38378 0.8 9.38322 0.8C9.38267 0.8 9.38212 0.8 9.38156 0.8C9.38101 0.8 9.38046 0.8 9.3799 0.8C9.37935 0.8 9.3788 0.8 9.37824 0.8C9.37769 0.8 9.37714 0.8 9.37658 0.8C9.37603 0.8 9.37548 0.8 9.37492 0.8C9.37437 0.8 9.37382 0.8 9.37326 0.8C9.37271 0.8 9.37216 0.8 9.3716 0.8C9.37105 0.8 9.3705 0.8 9.36994 0.8C9.36939 0.8 9.36884 0.8 9.36828 0.8C9.36773 0.8 9.36718 0.8 9.36662 0.8C9.36607 0.8 9.36552 0.8 9.36496 0.8C9.36441 0.8 9.36386 0.8 9.3633 0.8C9.36275 0.8 9.3622 0.8 9.36164 0.8C9.36109 0.8 9.36054 0.8 9.35998 0.8C9.35943 0.8 9.35888 0.8 9.35832 0.8C9.35777 0.8 9.35722 0.8 9.35666 0.8C9.35611 0.8 9.35556 0.8 9.355 0.8C9.35445 0.8 9.3539 0.8 9.35334 0.8C9.35279 0.8 9.35224 0.8 9.35168 0.8C9.35113 0.8 9.35058 0.8 9.35003 0.8C9.34947 0.8 9.34892 0.8 9.34837 0.8C9.34781 0.8 9.34726 0.8 9.34671 0.8C9.34615 0.8 9.3456 0.8 9.34505 0.8C9.34449 0.8 9.34394 0.8 9.34339 0.8C9.34283 0.8 9.34228 0.8 9.34173 0.8C9.34117 0.8 9.34062 0.8 9.34007 0.8C9.33951 0.8 9.33896 0.8 9.33841 0.8C9.33785 0.8 9.3373 0.8 9.33675 0.8C9.33619 0.8 9.33564 0.8 9.33509 0.8C9.33454 0.8 9.33398 0.8 9.33343 0.8C9.33288 0.8 9.33232 0.8 9.33177 0.8C9.33122 0.8 9.33066 0.8 9.33011 0.8C9.32956 0.8 9.329 0.8 9.32845 0.8C9.3279 0.8 9.32734 0.8 9.32679 0.8C9.32624 0.8 9.32569 0.8 9.32513 0.8C9.32458 0.8 9.32403 0.8 9.32347 0.8C9.32292 0.8 9.32237 0.8 9.32181 0.8C9.32126 0.8 9.32071 0.8 9.32016 0.8C9.3196 0.8 9.31905 0.8 9.3185 0.8C9.31794 0.8 9.31739 0.8 9.31684 0.8C9.31628 0.8 9.31573 0.8 9.31518 0.8C9.31462 0.8 9.31407 0.8 9.31352 0.8C9.31296 0.8 9.31241 0.8 9.31186 0.8C9.31131 0.8 9.31075 0.8 9.3102 0.8C9.30965 0.8 9.30909 0.8 9.30854 0.8C9.30799 0.8 9.30743 0.8 9.30688 0.8V1.2ZM11.2322 4.47552C11.1709 3.5965 11.048 2.92783 10.5601 2.38647L10.263 2.65426C10.6535 3.08752 10.7725 3.63347 10.8331 4.50334L11.2322 4.47552ZM10.5603 2.38665C10.3216 2.12113 10.0398 1.96628 9.73681 1.97719C9.43445 1.98807 9.16449 2.16211 8.94466 2.43871L9.25781 2.68759C9.43274 2.46748 9.60403 2.38222 9.7512 2.37693C9.89772 2.37166 10.0738 2.44377 10.2628 2.65408L10.5603 2.38665ZM8.94461 2.43878C8.58458 2.89218 8.4547 3.56708 8.50306 4.20213C8.55142 4.83734 8.78214 5.48589 9.20648 5.88252L9.47962 5.59029C9.15372 5.28569 8.94576 4.74779 8.9019 4.17176C8.85803 3.59559 8.98236 3.03447 9.25786 2.68752L8.94461 2.43878ZM9.20644 5.88247C9.43597 6.09715 9.70916 6.22599 9.98817 6.21351C10.2745 6.2007 10.5259 6.0409 10.7042 5.76156L10.367 5.54637C10.2456 5.73661 10.1038 5.80794 9.97029 5.81391C9.82949 5.82021 9.65625 5.75549 9.47966 5.59033L9.20644 5.88247ZM10.7041 5.76168C10.8457 5.54007 10.9491 5.29878 11.0294 5.0859C11.0696 4.97925 11.1048 4.87754 11.1357 4.78891C11.1672 4.69847 11.1935 4.62424 11.2176 4.56551L10.8477 4.41335C10.8186 4.48402 10.7888 4.56892 10.758 4.65718C10.7266 4.74725 10.6932 4.84379 10.6551 4.9448C10.5788 5.14723 10.4869 5.35881 10.3671 5.54626L10.7041 5.76168ZM18.6719 30.5569C19.1276 29.1232 19.5864 27.6811 20.0618 26.1879L19.6806 26.0666C19.2053 27.5598 18.7464 29.002 18.2907 30.4358L18.6719 30.5569ZM19.8287 26.3227C20.1421 26.3908 20.4968 26.4666 20.8981 26.5543L20.9835 26.1635C20.5828 26.0759 20.2245 25.9993 19.9137 25.9318L19.8287 26.3227ZM20.7451 26.3174C20.2318 28.7365 19.3645 30.9882 18.2322 33.1867L18.5878 33.3699C19.7331 31.146 20.6143 28.8607 21.1364 26.4004L20.7451 26.3174ZM18.5865 33.1843C18.559 33.1325 18.5322 33.0878 18.5165 33.0603C18.4988 33.0293 18.4926 33.0156 18.4893 33.0058L18.1095 33.1312C18.1259 33.181 18.1491 33.2236 18.1689 33.2583C18.1907 33.2965 18.2094 33.327 18.2335 33.3723L18.5865 33.1843ZM18.489 33.0048C17.7558 30.8256 16.2617 29.2583 14.5132 27.9478L14.2733 28.2678C15.9886 29.5535 17.4128 31.0603 18.1099 33.1323L18.489 33.0048ZM14.5132 27.9478C12.737 26.6159 10.9006 25.3357 9.11965 24.0233L8.88235 24.3453C10.6811 25.6708 12.4925 26.9325 14.2732 28.2678L14.5132 27.9478ZM9.11958 24.0232C7.86496 23.0995 6.69727 22.0843 5.72073 20.872L5.40923 21.1229C6.41474 22.3712 7.61144 23.4095 8.88242 24.3453L9.11958 24.0232ZM5.72072 20.872C4.69018 19.5929 4.11591 18.2631 3.96399 16.892C3.81201 15.5203 4.08122 14.0933 4.75979 12.6183L4.3964 12.4512C3.69333 13.9794 3.40503 15.4794 3.56642 16.936C3.72788 18.3933 4.33787 19.7932 5.40924 21.1229L5.72072 20.872ZM4.7598 12.6183C5.23866 11.577 5.89558 10.6321 6.50055 9.61504L6.15676 9.41055C5.57127 10.3949 4.88685 11.3846 4.39639 12.4512L4.7598 12.6183ZM6.50059 9.61496C6.53599 9.55539 6.61491 9.49376 6.67145 9.47775L6.56249 9.09288C6.39788 9.13948 6.23913 9.27194 6.15672 9.41063L6.50059 9.61496ZM6.67179 9.47765C8.57949 8.93393 10.513 8.62549 12.476 8.80103L12.5117 8.40262C10.4838 8.22129 8.49865 8.54104 6.56215 9.09297L6.67179 9.47765ZM12.4761 8.80103C14.5235 8.98381 16.2049 9.63252 17.5399 10.7116C18.8754 11.7911 19.8767 13.3113 20.5471 15.2566L20.9252 15.1263C20.2357 13.1251 19.1965 11.5363 17.7913 10.4005C16.3855 9.2642 14.6256 8.59133 12.5116 8.40262L12.4761 8.80103ZM20.5471 15.2567C21.3 17.4399 21.4923 19.7121 21.3488 22.0254L21.748 22.0502C21.8939 19.6991 21.6996 17.3716 20.9252 15.1263L20.5471 15.2567ZM21.3488 22.0251C21.3333 22.2682 21.3168 22.5102 21.2982 22.7959L21.6973 22.822C21.7159 22.538 21.7325 22.2937 21.748 22.0505L21.3488 22.0251ZM21.5135 22.6096C21.1282 22.5792 20.7738 22.5522 20.4214 22.524L20.3895 22.9227C20.7419 22.9509 21.0984 22.9781 21.4821 23.0083L21.5135 22.6096ZM20.6055 22.7234C20.6055 22.1946 20.6003 21.6964 20.6055 21.1957L20.2055 21.1916C20.2003 21.6947 20.2055 22.2004 20.2055 22.7234H20.6055ZM20.6055 21.196C20.6325 18.8855 20.3824 16.6035 19.3946 14.4557L19.0312 14.6229C19.9842 16.695 20.2322 18.9103 20.2055 21.1913L20.6055 21.196ZM19.3947 14.4558C18.0631 11.5585 15.803 9.94336 12.6537 9.60507L12.611 10.0028C15.6206 10.3261 17.7586 11.8539 19.0312 14.6228L19.3947 14.4558ZM12.6537 9.60507C11.1875 9.44766 9.75107 9.60673 8.33236 9.8756L8.40684 10.2686C9.80721 10.0032 11.2002 9.85132 12.611 10.0028L12.6537 9.60507ZM8.33348 9.87539C8.27489 9.88615 8.23047 9.91444 8.20944 9.92774C8.18229 9.94493 8.16656 9.95616 8.13612 9.97354L8.33439 10.3209C8.37525 10.2976 8.40965 10.2744 8.42331 10.2658C8.4318 10.2604 8.43307 10.26 8.43111 10.2609C8.42808 10.2624 8.41903 10.2664 8.40571 10.2688L8.33348 9.87539ZM8.1031 10.2974C8.42667 10.5822 8.73205 10.848 9.03519 11.1187L9.30162 10.8203C8.99713 10.5484 8.68868 10.2799 8.36741 9.99712L8.1031 10.2974ZM9.03508 11.1186C10.7578 12.6593 12.27 14.3923 13.6002 16.2883L13.9276 16.0585C12.5813 14.1395 11.0491 12.3831 9.30173 10.8204L9.03508 11.1186ZM13.6003 16.2885C13.6884 16.4136 13.7879 16.5208 13.9144 16.5972C14.0429 16.6747 14.1858 16.7124 14.3483 16.7186L14.3637 16.3189C14.2565 16.3148 14.1819 16.2914 14.121 16.2547C14.0581 16.2167 13.9965 16.1565 13.9275 16.0583L13.6003 16.2885ZM14.348 16.7186C15.1802 16.7519 16.0111 16.8029 16.8576 16.8479L16.8788 16.4485C16.0367 16.4037 15.1997 16.3524 14.364 16.3189L14.348 16.7186ZM16.6682 16.6482V17.8273H17.0682V16.6482H16.6682ZM16.8776 17.6275C16.1903 17.5952 15.5403 17.5649 14.8189 17.5315L14.8004 17.9311C15.5217 17.9645 16.1716 17.9948 16.8588 18.0271L16.8776 17.6275ZM14.6388 17.8352C16.1359 20.2984 17.2889 22.8652 18.0191 25.6643L18.4061 25.5634C17.6648 22.7214 16.4948 20.1188 14.9806 17.6274L14.6388 17.8352ZM18.1593 25.4211C17.7895 25.5233 17.4372 25.6203 17.0798 25.7184L17.1856 26.1041C17.5433 26.006 17.8958 25.9089 18.2659 25.8066L18.1593 25.4211ZM17.3217 25.8457C16.8732 24.5529 16.4309 23.2757 15.9887 21.9984L15.6107 22.1293C16.053 23.4066 16.4953 24.6838 16.9438 25.9768L17.3217 25.8457ZM15.7997 21.8639C15.7635 21.8639 15.7269 21.8629 15.686 21.8619L15.6756 22.2617C15.7154 22.2628 15.7573 22.2639 15.7997 22.2639V21.8639ZM15.4997 21.9769C15.3085 22.385 15.1174 22.7929 14.9139 23.2258L15.2759 23.396C15.4795 22.9628 15.6708 22.5547 15.8619 22.1467L15.4997 21.9769ZM15.1802 23.13C14.8174 22.9588 14.4845 22.8022 14.1228 22.6321L13.9526 22.9941C14.3143 23.1642 14.647 23.3207 15.0096 23.4917L15.1802 23.13ZM14.2195 22.8966C14.5267 22.2273 14.8362 21.5801 15.1166 20.9237L14.7487 20.7665C14.4711 21.4165 14.1667 22.0528 13.856 22.7297L14.2195 22.8966ZM15.1167 20.9234C15.1558 20.8315 15.1782 20.7222 15.1821 20.6175C15.1859 20.5152 15.1728 20.395 15.12 20.2917L14.7639 20.474C14.7741 20.4938 14.7848 20.5379 14.7824 20.6026C14.7801 20.6648 14.7663 20.7252 14.7486 20.7668L15.1167 20.9234ZM15.1202 20.2921C14.0005 18.0917 12.6187 16.0704 10.9971 14.2177L10.6961 14.4811C12.2967 16.3098 13.6596 18.3038 14.7637 20.4735L15.1202 20.2921ZM10.9971 14.2176C10.9643 14.1802 10.9272 14.1567 10.906 14.1433C10.8808 14.1275 10.8629 14.1173 10.8351 14.0981L10.6081 14.4274C10.6453 14.4531 10.6781 14.4726 10.6933 14.4821C10.7123 14.4941 10.7052 14.4914 10.6962 14.4812L10.9971 14.2176ZM10.5296 14.2066C10.2062 15.3117 9.88892 16.397 9.56752 17.4979L9.95149 17.61C10.2729 16.5091 10.5901 15.424 10.9135 14.3189L10.5296 14.2066ZM9.81667 17.3623C9.43552 17.2486 9.09463 17.1464 8.70505 17.0295L8.59011 17.4126C8.9797 17.5295 9.32085 17.6318 9.70234 17.7456L9.81667 17.3623ZM8.84016 17.275C8.99534 16.7214 9.14285 16.1901 9.29456 15.6597L8.90998 15.5497C8.75788 16.0815 8.60983 16.6147 8.455 17.1671L8.84016 17.275ZM9.29454 15.6598C9.49701 14.953 9.7124 14.2404 9.90316 13.5243L9.51664 13.4214C9.32711 14.1328 9.11468 14.8351 8.91 15.5496L9.29454 15.6598ZM9.90327 13.5239C9.92716 13.4334 9.93248 13.3244 9.9206 13.226C9.90989 13.1372 9.87935 13.0064 9.7863 12.9184L9.51156 13.2091C9.50215 13.2003 9.5042 13.1974 9.5099 13.2126C9.51505 13.2263 9.52025 13.247 9.52348 13.2739C9.53021 13.3296 9.52571 13.387 9.51653 13.4218L9.90327 13.5239ZM9.78644 12.9186C8.92209 12.1001 8.03963 11.3 7.1284 10.4632L6.85785 10.7579C7.77158 11.5969 8.65002 12.3934 9.51142 13.209L9.78644 12.9186ZM6.82803 10.4977C5.97218 11.7493 5.30085 13.0029 4.93027 14.4155L5.31718 14.517C5.67203 13.1643 6.31725 11.9533 7.15822 10.7234L6.82803 10.4977ZM4.93027 14.4155C4.2961 16.8336 5.0201 18.8844 6.58488 20.6841L6.88674 20.4217C5.38855 18.6986 4.72368 16.78 5.31718 14.517L4.93027 14.4155ZM6.58488 20.6841C7.98574 22.2953 9.72475 23.4906 11.3948 24.717L11.6315 24.3945C9.94513 23.1562 8.25122 21.9911 6.88674 20.4217L6.58488 20.6841ZM11.3948 24.7169C13.0292 25.9174 14.6608 27.1175 16.2236 28.3991L16.4773 28.0898C14.9048 26.8003 13.2647 25.5941 11.6316 24.3946L11.3948 24.7169ZM16.2236 28.3991C16.5966 28.705 16.9355 29.0593 17.2769 29.4408C17.6144 29.8178 17.9625 30.231 18.3352 30.6298L18.6274 30.3567C18.2571 29.9603 17.9248 29.5648 17.575 29.174C17.2292 28.7878 16.8742 28.4153 16.4773 28.0898L16.2236 28.3991ZM18.2813 30.4932V30.4963H18.6813V30.4932H18.2813ZM12.5128 30.1345C12.7786 29.8223 13.0122 29.5467 13.2778 29.2337L12.9727 28.9749C12.7071 29.288 12.4737 29.5634 12.2082 29.8752L12.5128 30.1345ZM12.9903 29.2519C15.0516 31.1373 16.8775 33.0699 17.2548 35.9309L17.6514 35.8786C17.2536 32.8626 15.3242 30.8446 13.2602 28.9567L12.9903 29.2519ZM17.2548 35.9309C17.4818 37.6532 16.9114 39.1698 15.9222 40.5784L16.2496 40.8083C17.2755 39.3473 17.8956 37.7313 17.6514 35.8786L17.2548 35.9309ZM15.9223 40.5783C15.9164 40.5866 15.9022 40.6015 15.8814 40.6153C15.8717 40.6216 15.8627 40.6264 15.8553 40.6295C15.8475 40.6328 15.8438 40.6334 15.8444 40.6333L15.9038 41.0289C15.979 41.0176 16.0479 40.9846 16.1018 40.949C16.1565 40.9129 16.2099 40.8647 16.2495 40.8083L15.9223 40.5783ZM15.8438 40.6334C14.3923 40.8558 12.9672 40.9085 11.5771 40.4562L11.4533 40.8366C12.9299 41.3171 14.4273 41.2551 15.9044 41.0288L15.8438 40.6334ZM11.577 40.4562C9.99765 39.9432 9.03588 38.8093 8.49887 37.2414L8.12045 37.371C8.68917 39.0315 9.7301 40.2769 11.4534 40.8366L11.577 40.4562ZM8.49887 37.2413C8.02392 35.8547 7.91314 34.4018 7.8054 32.9194L7.40645 32.9484C7.51365 34.4233 7.62608 35.9276 8.12045 37.371L8.49887 37.2413ZM7.8054 32.9194C7.65595 30.8667 7.65475 28.7428 7.10146 26.6949L6.71531 26.7992C7.25535 28.7981 7.25415 30.8565 7.40645 32.9485L7.8054 32.9194ZM7.10146 26.6949C6.92072 26.0261 6.66028 25.3661 6.44588 24.7288L6.06676 24.8564C6.29052 25.5214 6.5385 26.1449 6.71531 26.7993L7.10146 26.6949ZM6.44563 24.7281C6.40152 24.5986 6.36003 24.4698 6.27978 24.2278L5.9001 24.3536C5.979 24.5916 6.02225 24.7257 6.067 24.8571L6.44563 24.7281ZM5.98086 24.4583C8.10033 25.8375 10.1828 26.9946 12.0646 28.5108L12.3155 28.1994C10.413 26.6665 8.28752 25.4821 6.19902 24.1231L5.98086 24.4583ZM12.0259 28.2408C11.9529 28.3456 11.9143 28.4078 11.8641 28.4732L12.1812 28.717C12.2384 28.6425 12.2949 28.5545 12.3542 28.4694L12.0259 28.2408ZM11.8637 28.4736C11.6927 28.6973 11.5197 28.9199 11.3488 29.1405L11.6651 29.3854C11.8353 29.1656 12.0095 28.9416 12.1815 28.7166L11.8637 28.4736ZM11.6208 29.0985C10.5409 28.3513 9.48272 27.6188 8.32634 26.8185L8.0987 27.1474C9.25504 27.9477 10.3133 28.6803 11.3932 29.4274L11.6208 29.0985ZM8.01481 27.0131C8.08598 27.4797 8.15044 27.7945 8.17969 28.1214L8.5781 28.0858C8.54742 27.7429 8.47753 27.394 8.41023 26.9527L8.01481 27.0131ZM8.17968 28.1213C8.3124 29.6163 8.41548 31.1306 8.56744 32.6306L8.9654 32.5903C8.81354 31.0913 8.71201 29.5941 8.57811 28.0859L8.17968 28.1213ZM8.56743 32.6305C8.68656 33.8107 8.7787 35.0261 9.03285 36.2026L9.42383 36.1182C9.17576 34.9698 9.08602 33.7852 8.96541 32.5904L8.56743 32.6305ZM9.03284 36.2026C9.30447 37.4622 9.77592 38.3872 10.5229 39.0117C11.2693 39.6356 12.2638 39.937 13.5351 40.005L13.5565 39.6056C12.3333 39.5401 11.4352 39.2529 10.7795 38.7048C10.1244 38.1572 9.68441 37.3265 9.42385 36.1182L9.03284 36.2026ZM13.5351 40.005C13.793 40.019 14.0624 40.0074 14.3674 40.0074V39.6074C14.0379 39.6074 13.8009 39.6188 13.5566 39.6056L13.5351 40.005ZM14.5283 39.6887C14.3465 39.4421 14.1498 39.2077 13.9857 38.9968C13.8167 38.7797 13.6711 38.574 13.5629 38.355L13.2043 38.5322C13.3306 38.7879 13.4961 39.0189 13.67 39.2424C13.8487 39.4721 14.0266 39.6823 14.2064 39.9261L14.5283 39.6887ZM13.5629 38.3549C13.3602 37.945 13.11 37.616 12.7712 37.43C12.4259 37.2402 12.0205 37.2162 11.547 37.3518L11.6571 37.7363C12.0578 37.6216 12.3489 37.6543 12.5787 37.7805C12.815 37.9104 13.0185 38.1564 13.2043 38.5322L13.5629 38.3549ZM11.547 37.3518C11.484 37.3698 11.4109 37.376 11.3121 37.3774C11.2215 37.3786 11.0946 37.3754 10.9686 37.3819L10.9892 37.7814C11.1071 37.7753 11.2024 37.7789 11.3177 37.7773C11.4248 37.7758 11.5413 37.7695 11.657 37.7364L11.547 37.3518ZM11.1785 37.5694C11.1548 37.1801 11.132 36.8119 11.1083 36.4166L10.709 36.4406C10.7328 36.8362 10.7555 37.2048 10.7793 37.5938L11.1785 37.5694ZM10.9284 36.6276C11.3272 36.588 11.6953 36.5514 12.0375 36.517L11.9974 36.119C11.6555 36.1534 11.2878 36.1899 10.8888 36.2296L10.9284 36.6276ZM12.2048 36.2478C11.7159 34.9424 11.2323 33.6517 10.7281 32.3045L10.3534 32.4447C10.8577 33.7919 11.3414 35.0828 11.8302 36.3881L12.2048 36.2478ZM10.5875 32.5691C11.0433 32.4595 11.3988 32.3739 11.7884 32.28L11.6947 31.8911C11.3051 31.985 10.9497 32.0706 10.494 32.1802L10.5875 32.5691ZM11.5505 32.1449C11.7302 32.7235 11.9071 33.2961 12.1024 33.9241L12.4844 33.8053C12.289 33.177 12.1125 32.6059 11.9325 32.0263L11.5505 32.1449ZM12.417 34.0219C12.7487 33.7611 13.0289 33.5408 13.337 33.2975L13.0892 32.9836C12.7814 33.2266 12.5015 33.4466 12.1697 33.7075L12.417 34.0219ZM13.0574 33.2661C13.3024 33.5699 13.5348 33.8577 13.788 34.1718L14.0994 33.9208C13.8462 33.6067 13.6136 33.3185 13.3688 33.015L13.0574 33.2661ZM13.8159 33.8925C13.419 34.2222 13.0449 34.5332 12.6533 34.8588L12.909 35.1664C13.3006 34.8408 13.6747 34.5298 14.0715 34.2001L13.8159 33.8925ZM12.5991 35.0954C13.3165 36.6717 14.2003 38.1338 15.401 39.4467L15.6961 39.1768C14.5303 37.9018 13.6677 36.4777 12.9632 34.9297L12.5991 35.0954ZM15.7165 39.4204C16.1351 38.7732 16.364 38.0909 16.4688 37.3726L16.073 37.3148C15.9753 37.9844 15.7639 38.6106 15.3806 39.2031L15.7165 39.4204ZM16.4688 37.3725C16.7267 35.5971 16.1171 34.0631 15.1117 32.7123L14.7908 32.9511C15.755 34.2465 16.3111 35.676 16.073 37.315L16.4688 37.3725ZM15.1116 32.7122C14.4956 31.8853 13.7503 31.1452 13.0765 30.3969L12.7793 30.6646C13.4736 31.4357 14.1895 32.144 14.7909 32.9512L15.1116 32.7122ZM13.0766 30.397C12.9052 30.2065 12.6906 30.0347 12.497 29.8566L12.2262 30.151C12.4501 30.3569 12.624 30.4919 12.7792 30.6645L13.0766 30.397ZM12.2196 29.8629L12.2186 29.864L12.5025 30.1457L12.5035 30.1447L12.2196 29.8629ZM3.24957 2.52628C4.49055 2.53012 5.69572 3.53375 6.08083 4.95698L6.46694 4.8525C6.04395 3.28926 4.70491 2.13078 3.25081 2.12628L3.24957 2.52628ZM6.08082 4.95695C6.29074 5.73317 6.26732 6.49023 5.94607 7.22232L6.31235 7.38305C6.67521 6.55616 6.69726 5.70415 6.46695 4.85253L6.08082 4.95695ZM5.94597 7.22255C5.35118 8.58262 3.92454 9.0908 2.61527 8.41671L2.43217 8.77234C3.94818 9.55287 5.62584 8.95286 6.31245 7.38282L5.94597 7.22255ZM2.61522 8.41668C1.08594 7.62983 0.367158 5.57351 1.07063 3.99047L0.705098 3.82803C-0.0836421 5.60295 0.712522 7.88754 2.43222 8.77236L2.61522 8.41668ZM1.07061 3.99053C1.48281 3.06373 2.29735 2.52244 3.24938 2.52627L3.251 2.12628C2.13005 2.12176 1.1775 2.76588 0.705123 3.82797L1.07061 3.99053ZM5.43732 5.95088C5.41004 4.99471 5.06218 4.19298 4.26752 3.64067L4.03923 3.96913C4.70991 4.43527 5.01308 5.10695 5.03748 5.96228L5.43732 5.95088ZM4.26769 3.64079C3.76847 3.29304 3.21609 3.21168 2.73365 3.38176C2.25202 3.55155 1.86831 3.96191 1.68414 4.54157L2.06536 4.66269C2.21704 4.18529 2.5195 3.88138 2.86665 3.759C3.21299 3.6369 3.632 3.68546 4.03905 3.96901L4.26769 3.64079ZM1.68409 4.54174C1.35668 5.57545 1.77251 6.87131 2.64062 7.52026L2.88011 7.19988C2.14853 6.65299 1.78932 5.53422 2.06542 4.66252L1.68409 4.54174ZM2.64066 7.52029C3.1858 7.92759 3.79877 8.0234 4.32169 7.82592C4.84453 7.62846 5.24268 7.15091 5.38545 6.48254L4.99427 6.39898C4.87559 6.95462 4.5576 7.30925 4.18037 7.45171C3.8032 7.59415 3.33215 7.53761 2.88007 7.19985L2.64066 7.52029ZM5.38541 6.4827C5.42369 6.30422 5.42477 6.09349 5.43555 5.97464L5.03718 5.93852C5.02109 6.11602 5.0263 6.24964 4.99431 6.39882L5.38541 6.4827ZM5.23636 6.15658H5.2374V5.75658H5.23636V6.15658ZM17.6179 4.46386C17.6198 5.22959 17.4132 5.91796 16.9474 6.51255L17.2623 6.75924C17.7905 6.08494 18.02 5.30616 18.0179 4.46283L17.6179 4.46386ZM16.9473 6.51269C16.5246 7.05322 15.9712 7.30396 15.4346 7.29251C14.8979 7.28106 14.3544 7.00679 13.953 6.45004L13.6285 6.684C14.0961 7.33248 14.7519 7.67804 15.4261 7.69242C16.1004 7.7068 16.7695 7.38936 17.2624 6.75909L16.9473 6.51269ZM13.953 6.45013C13.5498 5.89037 13.3719 5.13455 13.4206 4.38274C13.4692 3.63089 13.743 2.90604 14.2143 2.40606L13.9232 2.13171C13.3755 2.71278 13.0748 3.5323 13.0214 4.3569C12.968 5.18155 13.1605 6.03427 13.6285 6.68391L13.953 6.45013ZM14.2142 2.40611C14.6429 1.9516 15.1582 1.75001 15.652 1.77459C16.1459 1.79917 16.6402 2.0511 17.0243 2.54596L17.3403 2.30068C16.8926 1.72388 16.2946 1.40607 15.6719 1.37508C15.0492 1.34409 14.4236 1.60111 13.9232 2.13166L14.2142 2.40611ZM17.0243 2.54587C17.4098 3.04314 17.6158 3.69269 17.6158 4.46334H18.0158C18.0158 3.62076 17.7898 2.88039 17.3404 2.30077L17.0243 2.54587ZM17.8158 4.66334H17.8179V4.26334H17.8158V4.66334ZM14.3193 4.42047C14.3008 4.42782 14.2826 4.43537 14.2657 4.44232C14.2484 4.44945 14.2326 4.45599 14.217 4.46221L14.3648 4.83388C14.3833 4.82653 14.4016 4.81898 14.4184 4.81202C14.4357 4.80489 14.4515 4.79835 14.4671 4.79214L14.3193 4.42047ZM14.104 4.71926C14.1846 4.93064 14.2453 5.13522 14.3253 5.36434C14.4022 5.58457 14.4919 5.81082 14.6192 6.01989L14.9609 5.81188C14.8556 5.63903 14.7769 5.44423 14.7029 5.23245C14.6321 5.02957 14.5595 4.79119 14.4778 4.57682L14.104 4.71926ZM14.6194 6.02012C14.8034 6.32158 15.068 6.49899 15.3709 6.51927C15.6681 6.53916 15.9615 6.40509 16.2068 6.16978L15.9299 5.88112C15.7412 6.06216 15.5525 6.13053 15.3976 6.12016C15.2484 6.11017 15.0908 6.02462 14.9607 5.81165L14.6194 6.02012ZM16.2068 6.16981C16.6029 5.7899 16.8107 5.19593 16.8444 4.61381C16.8781 4.03164 16.7402 3.41734 16.3912 2.99328L16.0824 3.24746C16.3482 3.57054 16.4749 4.07434 16.445 4.59071C16.4152 5.10712 16.2313 5.59212 15.9299 5.88109L16.2068 6.16981ZM16.3913 2.99339C16.1827 2.73953 15.9175 2.5851 15.6283 2.56777C15.3383 2.55039 15.0577 2.67303 14.8242 2.90709L15.1073 3.18965C15.2767 3.01989 15.4504 2.95782 15.6044 2.96705C15.7593 2.97634 15.9282 3.05982 16.0823 3.24735L16.3913 2.99339ZM14.8241 2.90712C14.3479 3.38451 14.1954 3.98356 14.1932 4.60665L14.5932 4.60805C14.5952 4.0499 14.73 3.5679 15.1073 3.18962L14.8241 2.90712ZM14.5932 4.60735V4.6063H14.1932V4.60735H14.5932ZM19.963 9.93054C19.0773 9.93612 18.4014 9.34581 18.2168 8.38864L17.824 8.4644C18.0404 9.58587 18.8629 10.3375 19.9655 10.3305L19.963 9.93054ZM18.2168 8.38872C18.1011 7.78759 18.2759 7.12324 18.6423 6.57541C19.0087 6.02738 19.5508 5.61985 20.1396 5.50931L20.0658 5.11618C19.3484 5.25086 18.7217 5.73708 18.3098 6.35306C17.8977 6.96924 17.6845 7.73918 17.824 8.46432L18.2168 8.38872ZM20.1395 5.50934C20.6958 5.40531 21.1968 5.54991 21.5682 5.86504C21.9408 6.18115 22.1943 6.67892 22.2302 7.29861L22.6295 7.27545C22.588 6.55843 22.2917 5.95427 21.827 5.56002C21.3611 5.1648 20.7373 4.99061 20.0659 5.11615L20.1395 5.50934ZM22.2302 7.29848C22.2647 7.89889 22.0378 8.51161 21.6456 8.99883C21.2534 9.48614 20.7078 9.83321 20.1232 9.9191L20.1814 10.3148C20.8823 10.2119 21.5132 9.80136 21.9573 9.24962C22.4014 8.69778 22.6705 7.98996 22.6296 7.27557L22.2302 7.29848ZM20.1226 9.91919C20.0943 9.92344 20.0637 9.92565 20.0337 9.92694C20.0189 9.92759 20.005 9.92797 19.9916 9.92835C19.9795 9.92869 19.9645 9.9291 19.952 9.92987L19.9764 10.3291C19.9883 10.3284 20.0949 10.3278 20.182 10.3148L20.1226 9.91919ZM19.7642 10.1295V10.1305H20.1642V10.1295H19.7642ZM21.4321 7.3926C21.4423 7.01522 21.3509 6.61404 20.9392 6.38053L20.7419 6.72846C20.9667 6.856 21.0407 7.07048 21.0323 7.3818L21.4321 7.3926ZM20.9392 6.38054C20.508 6.13594 20.0971 6.2796 19.7832 6.50603L20.0171 6.83045C20.2674 6.64992 20.5034 6.59322 20.7419 6.72846L20.9392 6.38054ZM19.7836 6.50569C19.1937 6.92858 18.9024 7.5278 18.997 8.27426L19.3938 8.22399C19.3189 7.6327 19.5381 7.17382 20.0167 6.83079L19.7836 6.50569ZM18.9969 8.27413C19.0358 8.58216 19.1752 8.83551 19.4039 8.98713C19.632 9.13836 19.9198 9.1691 20.2178 9.09052L20.1158 8.70374C19.9032 8.75978 19.7384 8.72895 19.625 8.65375C19.5121 8.57892 19.4211 8.44097 19.3938 8.22412L18.9969 8.27413ZM20.2176 9.09057C20.5669 8.99883 20.8693 8.75747 21.0826 8.45507C21.2965 8.15185 21.431 7.7735 21.4322 7.38781L21.0322 7.3866C21.0313 7.6823 20.9271 7.9817 20.7558 8.22449C20.5839 8.4681 20.3547 8.641 20.116 8.70369L20.2176 9.09057ZM23.2008 13.5494C22.2266 13.5494 21.5173 12.7019 21.6966 11.7224L21.3031 11.6504C21.0794 12.8726 21.9738 13.9494 23.2008 13.9494V13.5494ZM21.6966 11.7225C21.7919 11.2025 21.9876 10.7833 22.2769 10.4628C22.5657 10.1427 22.9576 9.91023 23.4631 9.77831L23.3621 9.39127C22.7919 9.54006 22.3281 9.80895 21.9799 10.1948C21.6321 10.5802 21.4093 11.0715 21.3031 11.6503L21.6966 11.7225ZM23.4631 9.77833C24.4815 9.5129 25.3808 10.2141 25.3993 11.2839L25.7993 11.277C25.7764 9.95932 24.642 9.05773 23.3622 9.39126L23.4631 9.77833ZM25.3993 11.2841C25.4096 11.8553 25.1505 12.4228 24.7352 12.8502C24.3198 13.2777 23.7638 13.5489 23.2006 13.5494L23.201 13.9494C23.8913 13.9488 24.5459 13.619 25.0221 13.129C25.4983 12.6389 25.8117 11.9724 25.7993 11.2769L25.3993 11.2841ZM22.4655 11.9666C22.4649 12.2167 22.5369 12.4421 22.7061 12.5939C22.8761 12.7464 23.1072 12.7913 23.3537 12.758L23.3 12.3616C23.1301 12.3846 23.03 12.3471 22.9732 12.2961C22.9155 12.2444 22.8651 12.1453 22.8655 11.9676L22.4655 11.9666ZM23.3535 12.758C23.7101 12.71 24.0314 12.4933 24.2554 12.2162C24.4795 11.939 24.6248 11.5787 24.6012 11.2183L24.202 11.2445C24.2177 11.4831 24.1201 11.7473 23.9443 11.9647C23.7684 12.1823 23.5326 12.3303 23.3002 12.3616L23.3535 12.758ZM24.6011 11.2182C24.5864 10.9967 24.5019 10.8009 24.3439 10.6684C24.1857 10.5358 23.9781 10.4872 23.7572 10.5131L23.8038 10.9104C23.9385 10.8946 24.0295 10.9268 24.087 10.975C24.1447 11.0234 24.193 11.1082 24.202 11.2447L24.6011 11.2182ZM23.7576 10.5131C23.4086 10.5533 23.088 10.751 22.8568 11.0114C22.6256 11.2718 22.4667 11.6141 22.4655 11.9664L22.8655 11.9678C22.8663 11.7325 22.9751 11.4806 23.1559 11.2769C23.3369 11.0732 23.5727 10.937 23.8034 10.9104L23.7576 10.5131ZM12.8318 11.5379H13.954V11.1379H12.8318V11.5379ZM13.754 11.3379V12.4794H14.154V11.3379H13.754ZM13.954 12.2794H12.8318V12.6794H13.954V12.2794ZM13.0318 12.4794V11.3379H12.6318V12.4794H13.0318ZM15.3414 13.6586V12.5264H14.9414V13.6586H15.3414ZM15.1414 12.7264H16.2709V12.3264H15.1414V12.7264ZM16.0709 12.5264V13.6586H16.4709V12.5264H16.0709ZM16.2709 13.4586H15.1414V13.8586H16.2709V13.4586ZM21.2232 25.0003C20.8283 24.9335 20.478 24.8731 20.0783 24.8052L20.0113 25.1995C20.4095 25.2672 20.7618 25.3279 21.1565 25.3947L21.2232 25.0003ZM20.2423 25.034C20.3042 24.6474 20.3632 24.2825 20.4283 23.8746L20.0333 23.8115C19.9682 24.2196 19.9094 24.5831 19.8473 24.9707L20.2423 25.034ZM20.1988 24.0405C20.5854 24.1031 20.9473 24.1616 21.3537 24.2263L21.4166 23.8313C21.0107 23.7666 20.6493 23.7082 20.2628 23.6456L20.1988 24.0405ZM21.1879 23.9956C21.1217 24.3892 21.0607 24.7545 20.9925 25.1636L21.3871 25.2293C21.4553 24.8203 21.5162 24.4552 21.5824 24.0619L21.1879 23.9956ZM20.9898 25.1965V25.1975H21.3898V25.1965H20.9898ZM20.2069 22.6935L19.6736 26.0963L20.0688 26.1582L20.602 22.7554L20.2069 22.6935ZM19.8289 26.3227L20.8984 26.5544L20.9831 26.1634L19.9135 25.9318L19.8289 26.3227ZM20.9408 26.3589C21.1354 26.4051 21.1354 26.4051 21.1354 26.4051C21.1354 26.405 21.1354 26.405 21.1354 26.405C21.1354 26.4049 21.1354 26.4047 21.1355 26.4046C21.1356 26.4042 21.1357 26.4037 21.1358 26.4031C21.1361 26.4018 21.1366 26.3999 21.1372 26.3974C21.1384 26.3924 21.1401 26.385 21.1424 26.3753C21.1469 26.356 21.1535 26.3277 21.1618 26.2913C21.1785 26.2186 21.2023 26.1137 21.2307 25.9849C21.2873 25.7273 21.3624 25.3734 21.4358 24.9886C21.5806 24.2288 21.7254 23.3166 21.6964 22.7988L21.297 22.8212C21.3228 23.2811 21.1897 24.1434 21.0428 24.9136C20.9704 25.2938 20.8961 25.6438 20.84 25.8989C20.812 26.0264 20.7885 26.13 20.772 26.2017C20.7637 26.2376 20.7573 26.2654 20.7529 26.2842C20.7507 26.2937 20.749 26.3008 20.7479 26.3056C20.7473 26.308 20.7469 26.3098 20.7466 26.311C20.7464 26.3116 20.7463 26.312 20.7463 26.3123C20.7462 26.3124 20.7462 26.3125 20.7462 26.3126C20.7462 26.3126 20.7462 26.3127 20.7462 26.3127C20.7462 26.3127 20.7462 26.3127 20.9408 26.3589ZM12.0661 28.5134L13.0013 29.2615L13.2512 28.9492L12.316 28.201L12.0661 28.5134ZM12.974 28.9757L12.2083 29.8752L12.5128 30.1345L13.2786 29.235L12.974 28.9757ZM12.4915 29.8537L11.638 29.1139L11.376 29.4162L12.2296 30.156L12.4915 29.8537ZM11.6667 29.3854L12.3508 28.4775L12.0313 28.2368L11.3472 29.1447L11.6667 29.3854Z" fill="#FF671F" mask="url(#path-1-outside-1_5116_1161)"/>
</svg>
