<svg width="38" height="40" viewBox="0 0 38 40" fill="none" xmlns="http://www.w3.org/2000/svg">
<mask id="path-1-outside-1_5116_1133" maskUnits="userSpaceOnUse" x="0" y="0" width="38" height="40" fill="black">
<rect fill="white" width="38" height="40"/>
<path d="M21.8655 17.4576C22.6912 16.9077 23.5139 16.7287 24.3923 16.9455C25.644 17.2538 26.3703 18.0702 26.6604 19.2883C26.6878 19.4036 26.7517 19.5518 26.845 19.6045C27.7305 20.1007 28.0673 20.8962 28.1018 21.8369C28.116 22.2187 28.1687 22.4972 28.4923 22.7935C29.5148 23.7292 29.5087 25.6971 28.5451 26.6974C27.9801 27.2841 27.3309 27.4084 26.3754 27.0614C26.354 27.1002 26.3277 27.1917 26.2678 27.2513C25.4614 28.0687 24.3213 28.024 23.592 27.1419C22.6162 25.9626 22.8282 23.8356 24.0839 23.048C24.1641 22.9973 24.2016 22.8353 24.2056 22.7229C24.2239 22.2088 24.16 21.6828 24.2452 21.1806C24.3679 20.4507 24.7879 19.8819 25.4918 19.5538C25.4168 18.635 24.6165 17.9697 23.6204 17.9926C22.7044 18.0135 21.8878 18.7682 21.8848 19.6363C21.8736 22.341 21.8787 25.0468 21.8757 27.7515C21.8736 29.5752 21.8686 31.3999 21.8645 33.2236C21.8645 33.3708 21.8645 33.5189 21.8645 33.5975C22.8515 33.9644 23.8141 34.2637 24.724 34.6744C26.3175 35.3934 27.6342 36.4583 28.5684 37.94C28.7155 38.1737 28.8707 38.4063 28.7094 38.6987C28.54 39.006 28.2519 39 27.9537 39C21.9802 38.998 16.0066 38.998 10.0341 39C9.74805 39 9.47316 39.003 9.30275 38.7196C9.12118 38.4173 9.28348 38.1717 9.43969 37.928C10.591 36.1282 12.2748 34.9946 14.2589 34.2488C14.8574 34.0241 15.4822 33.865 16.1375 33.6621C16.1375 32.9561 16.1375 32.2262 16.1375 31.4964C16.1375 29.8337 16.1395 28.1711 16.1375 26.5085C16.1344 24.3119 16.0969 22.1153 16.1375 19.9197C16.1567 18.8637 15.4082 18.1109 14.5581 18.0015C13.558 17.8723 12.7526 18.4599 12.4777 19.5299C13.1766 19.87 13.6411 20.4328 13.771 21.1905C13.8531 21.6698 13.8258 22.173 13.7963 22.6622C13.7852 22.8531 13.771 22.9595 13.9526 23.0878C15.2895 24.0265 15.396 26.3136 14.1656 27.3925C13.4565 28.014 12.4706 27.9832 11.7828 27.2911C11.6135 27.1201 11.4907 27.1012 11.2706 27.1797C10.5585 27.4323 9.79674 27.1648 9.30174 26.5175C8.42939 25.3769 8.59473 23.4021 9.72979 22.5668C9.83123 22.4922 9.88803 22.2963 9.88499 22.1591C9.87079 21.5774 9.94585 21.0145 10.2562 20.5134C10.4175 20.2528 10.6052 19.9555 10.8608 19.8173C11.2392 19.6115 11.3345 19.3211 11.439 18.9561C11.9553 17.1692 14.0895 16.324 15.751 17.2249C15.8585 17.2836 15.966 17.3433 16.1344 17.4367C16.1344 16.8699 16.1476 16.3558 16.1202 15.8437C16.1162 15.7642 15.9397 15.6637 15.824 15.624C14.4942 15.1616 13.1167 14.9975 11.7169 15.1049C9.49852 15.2749 7.50937 16.0287 5.84177 17.5004C4.33749 18.8289 3.41138 20.4935 2.99042 22.4285C2.91536 22.7736 2.76625 23.0262 2.39297 23.0361C2.03186 23.0451 1.88173 22.7806 1.78131 22.4753C0.0863264 17.3721 3.31907 11.9567 8.67892 10.9245C8.83818 10.8937 8.9954 10.8549 9.1506 10.8042C8.02872 10.8002 6.93728 10.9712 5.88032 11.3521C4.50384 11.8473 3.3069 12.61 2.29356 13.6481C2.24994 13.6929 2.20328 13.7356 2.16068 13.7814C1.94665 14.0131 1.68596 14.0747 1.40904 13.9255C1.14125 13.7814 1.08749 13.5377 1.15241 13.2523C1.45672 11.9109 2.03287 10.6938 2.91739 9.63079C4.58397 7.62909 6.73846 6.51538 9.37071 6.2996C9.54315 6.28568 9.71559 6.2638 9.99555 6.23397C9.12828 5.80837 8.31477 5.58165 7.45865 5.48619C5.47559 5.26544 3.80292 6.02614 2.22154 7.07621C2.13837 7.1319 2.05823 7.19355 1.9781 7.25421C1.73161 7.44215 1.47193 7.48888 1.2153 7.28702C0.9607 7.08616 0.956642 6.82961 1.07532 6.54819C1.57844 5.34896 2.30269 4.29492 3.27546 3.41886C5.23113 1.65581 7.55603 0.794675 10.1903 1.05421C14.2001 1.44898 17.0575 3.47952 18.6135 7.17466C18.7413 7.47894 18.8499 7.79217 19.001 8.18993C19.075 7.99304 19.1217 7.87471 19.1643 7.75438C20.5022 4.03439 23.1538 1.80497 27.1077 1.12481C31.1875 0.422775 35.3595 2.74467 36.9186 6.52135C37.0393 6.8137 37.0514 7.08317 36.7765 7.292C36.4986 7.50281 36.243 7.41132 35.9833 7.22438C34.8513 6.40997 33.627 5.78749 32.2333 5.52298C31.0292 5.29527 29.1527 5.59657 28.0602 6.229C28.544 6.28468 28.9711 6.32446 29.3961 6.38313C32.9788 6.88131 36.0949 9.73321 36.8405 13.1877C36.9064 13.492 36.8922 13.7714 36.5828 13.9295C36.2846 14.0827 36.031 13.9812 35.8058 13.7456C34.2782 12.1536 32.4087 11.1979 30.2035 10.8817C29.8789 10.835 29.5493 10.8161 29.2216 10.7902C29.0969 10.7803 28.9701 10.7883 28.8392 10.8062C30.3516 11.0647 31.7372 11.6076 32.9778 12.4996C36.1304 14.7658 37.4602 18.8975 36.2014 22.519C36.0969 22.8193 35.9316 23.0451 35.5948 23.0331C35.2631 23.0212 35.0897 22.8064 35.0227 22.4862C34.2386 18.7364 31.3792 15.8497 27.0621 15.1874C25.4006 14.9319 23.7614 15.085 22.1607 15.616C21.9325 15.6916 21.8463 15.801 21.8584 16.0406C21.8797 16.4841 21.8645 16.9296 21.8645 17.4576H21.8655ZM27.1138 37.8644C26.9606 37.6934 26.8501 37.5641 26.7334 37.4418C25.8256 36.4931 24.7321 35.816 23.5027 35.3516C21.2295 34.4944 18.8884 34.3214 16.5057 34.7818C14.5196 35.1656 12.7333 35.9522 11.3061 37.409C11.1742 37.5442 11.0556 37.6914 10.9024 37.8644H27.1138ZM34.6819 5.07849C34.7225 5.04568 34.7631 5.01187 34.8046 4.97905C34.4263 4.6519 34.054 4.31878 33.6686 3.99958C30.3709 1.26303 25.3407 1.59018 22.2703 4.76327C20.8319 6.24988 20.0955 8.07756 19.7577 10.0753C19.7181 10.307 19.6979 10.5416 19.6705 10.7763C19.6451 10.9961 19.6238 11.2158 19.6015 11.4356C19.7212 11.359 19.7689 11.2745 19.8145 11.188C20.9202 9.07095 22.6263 7.62213 24.8883 6.78486C25.0851 6.71227 25.2727 6.60487 25.4503 6.49251C26.0548 6.10967 26.6259 5.66916 27.2578 5.33902C28.9559 4.45203 30.7624 4.06422 32.6745 4.46197C33.3572 4.60417 34.0145 4.86967 34.6829 5.07849H34.6819ZM18.3914 11.539C18.3914 11.371 18.3964 11.3014 18.3914 11.2327C18.2463 9.5224 17.8213 7.8936 16.953 6.3871C14.5632 2.24449 9.00453 0.881187 5.04145 3.47654C4.36995 3.91605 3.77756 4.4391 3.28459 5.07949C3.32922 5.10335 3.34342 5.11628 3.35153 5.1133C3.45703 5.07352 3.56252 5.03374 3.66497 4.989C4.80307 4.49081 5.98987 4.23028 7.23955 4.32375C9.21856 4.47092 10.9399 5.24654 12.4888 6.43483C12.6735 6.57703 12.8875 6.69735 13.1066 6.7779C15.3666 7.61716 17.0778 9.06001 18.1844 11.1771C18.2331 11.2705 18.2899 11.361 18.3934 11.538L18.3914 11.539ZM16.7329 14.724C13.6006 11.4923 9.48432 11.0945 6.20187 13.0833C3.23488 14.8812 2.22661 18.276 2.56845 20.0052C4.81626 15.0959 10.9064 12.601 16.7319 14.724H16.7329ZM21.2813 14.731C24.0271 13.7336 26.7497 13.6799 29.4681 14.6435C32.212 15.616 34.192 17.4268 35.4548 20.0649C35.7419 17.7649 34.4374 14.2149 30.9562 12.6319C27.4607 11.0428 23.8689 12.0173 21.2813 14.73V14.731ZM17.8994 13.6382C16.8364 9.63477 13.77 7.64003 10.7015 7.43718C7.41301 7.2194 3.89218 9.13857 3.11823 11.4426C8.13219 8.13722 14.6271 9.75509 17.8994 13.6392V13.6382ZM20.1452 13.49C24.5242 9.29966 29.4204 8.41863 34.8929 11.3839C33.5783 8.78855 30.1832 7.04937 27.1087 7.43419C23.7238 7.8578 21.0591 10.0385 20.1452 13.49ZM17.3354 16.2395V20.2548C17.9116 20.1434 18.4401 20.1942 18.931 20.4746C18.9746 20.4994 19.0568 20.4974 19.1024 20.4736C19.5873 20.222 20.0985 20.1375 20.6574 20.2409V16.2445C20.2172 16.5477 19.8318 16.8023 19.4585 17.0728C19.1176 17.3204 18.8833 17.3204 18.5415 17.0718C18.1692 16.8003 17.7828 16.5468 17.3344 16.2385L17.3354 16.2395ZM20.694 33.4533C20.694 32.8686 20.694 32.2998 20.694 31.731C20.694 31.3114 20.4414 31.0946 20.0265 31.204C19.8165 31.2597 19.6177 31.387 19.4382 31.5143C19.0994 31.7569 18.8894 31.7539 18.5547 31.5063C18.3782 31.376 18.1763 31.2378 17.9684 31.202C17.7209 31.1593 17.3547 31.1692 17.3293 31.4894C17.2766 32.1487 17.3131 32.8139 17.3131 33.4533H20.694ZM20.6798 23.3901C20.6798 22.9566 20.6798 22.4385 20.6798 21.9204C20.6798 21.4093 20.4262 21.2134 19.918 21.3636C19.7435 21.4153 19.5822 21.5306 19.4331 21.642C19.1237 21.8737 18.8468 21.8836 18.5567 21.6201C18.2707 21.3606 17.9522 21.2631 17.5829 21.3815C17.4876 21.4123 17.3425 21.5077 17.3405 21.5764C17.3222 22.2267 17.3293 22.877 17.3293 23.5403C17.8984 23.4567 18.4086 23.4707 18.8843 23.7391C18.9462 23.7739 19.0477 23.768 19.1237 23.7511C19.6187 23.6407 20.1117 23.5224 20.6787 23.3901H20.6798ZM20.694 26.6686C20.694 26.2341 20.694 25.715 20.694 25.1949C20.694 24.7246 20.4566 24.5227 19.9859 24.6351C19.7983 24.6798 19.6157 24.7922 19.4585 24.9085C19.0832 25.187 18.8945 25.1959 18.5313 24.8857C18.2281 24.6271 17.8974 24.5257 17.5211 24.6977C17.4348 24.7375 17.3243 24.8459 17.3222 24.9254C17.306 25.5549 17.3131 26.1843 17.3131 26.8317C17.8903 26.7402 18.4096 26.7581 18.8945 27.0326C18.9503 27.0644 19.0385 27.0693 19.1034 27.0534C19.6086 26.9361 20.1117 26.8108 20.695 26.6676L20.694 26.6686ZM20.694 29.97C20.694 29.5285 20.694 28.9855 20.694 28.4426C20.694 28.0269 20.482 27.8291 20.06 27.9136C19.848 27.9553 19.639 28.0747 19.4605 28.2029C19.074 28.4814 18.9198 28.4665 18.5222 28.191C18.3092 28.0438 18.0313 27.9494 17.7726 27.9225C17.6316 27.9076 17.3435 28.0747 17.3375 28.1731C17.2979 28.8195 17.3172 29.4698 17.3172 30.135C17.8872 30.0088 18.3751 30.0605 18.8468 30.2961C18.9391 30.3419 19.0801 30.319 19.1917 30.2961C19.6644 30.2007 20.134 30.0933 20.6929 29.971L20.694 29.97ZM13.8552 25.2983C13.8886 25.2844 13.9211 25.2705 13.9546 25.2566C13.7933 24.8916 13.6766 24.4989 13.4596 24.1697C13.2496 23.8515 12.8814 23.8674 12.6126 24.1299C12.0425 24.6858 12.0293 25.9238 12.5872 26.4866C12.8723 26.774 13.1532 26.782 13.4393 26.4946C13.769 26.1635 13.8623 25.7468 13.8552 25.2983ZM24.0352 25.3083C24.2006 25.71 24.2969 26.1008 24.5079 26.418C24.7737 26.8178 25.1683 26.7889 25.4766 26.418C25.9645 25.8293 25.9422 24.7355 25.431 24.1727C25.148 23.8615 24.7635 23.8336 24.5343 24.1816C24.3172 24.5108 24.2077 24.9076 24.0363 25.3083H24.0352ZM12.3073 22.9615C12.3418 22.9357 12.4787 22.879 12.5487 22.7766C12.8804 22.2903 12.7262 21.1627 12.288 20.7659C12.0314 20.5332 11.726 20.5243 11.4836 20.7659C11.1144 21.1329 11.013 21.5982 11.0383 22.0934C11.0424 22.168 11.1296 22.2585 11.2037 22.3042C11.5364 22.5131 11.8782 22.708 12.3083 22.9605L12.3073 22.9615ZM25.712 23.058C25.9666 22.8323 26.1035 22.6821 26.2688 22.5727C26.4332 22.4633 26.635 22.4077 26.8014 22.3013C26.8805 22.2506 26.9769 22.1223 26.9616 22.0507C26.8785 21.6708 26.8298 21.2601 26.6421 20.93C26.3662 20.4447 25.8661 20.4786 25.5578 20.9549C25.2403 21.4461 25.2078 21.985 25.3681 22.528C25.4229 22.7139 25.5852 22.8691 25.712 23.059V23.058ZM10.7847 26.238C10.8983 26.0819 11.0606 25.9616 11.0505 25.8572C10.9917 25.2158 11.0322 24.5973 11.3031 23.9997C11.3396 23.9191 11.3122 23.7769 11.2605 23.6974C10.9998 23.2897 10.5758 23.2718 10.2593 23.6417C9.7795 24.2015 9.77138 25.3113 10.2603 25.8622C10.377 25.9934 10.5504 26.075 10.7837 26.24L10.7847 26.238ZM27.0519 25.4495L26.9748 25.4684C26.9708 25.5549 26.9545 25.6424 26.9637 25.7269C26.9758 25.8463 26.9769 26.0451 27.0357 26.066C27.1747 26.1147 27.3806 26.1356 27.4952 26.066C27.9882 25.7677 28.1089 25.2635 28.1038 24.7475C28.0977 24.2353 27.9851 23.7372 27.483 23.4349C27.4516 23.416 27.407 23.3861 27.3796 23.3961C27.1899 23.4597 26.9677 23.4935 26.8267 23.6148C26.7324 23.6964 26.705 23.9152 26.7314 24.0583C26.8176 24.5257 26.9424 24.9861 27.0519 25.4495Z"/>
</mask>
<path d="M21.8655 17.4576C22.6912 16.9077 23.5139 16.7287 24.3923 16.9455C25.644 17.2538 26.3703 18.0702 26.6604 19.2883C26.6878 19.4036 26.7517 19.5518 26.845 19.6045C27.7305 20.1007 28.0673 20.8962 28.1018 21.8369C28.116 22.2187 28.1687 22.4972 28.4923 22.7935C29.5148 23.7292 29.5087 25.6971 28.5451 26.6974C27.9801 27.2841 27.3309 27.4084 26.3754 27.0614C26.354 27.1002 26.3277 27.1917 26.2678 27.2513C25.4614 28.0687 24.3213 28.024 23.592 27.1419C22.6162 25.9626 22.8282 23.8356 24.0839 23.048C24.1641 22.9973 24.2016 22.8353 24.2056 22.7229C24.2239 22.2088 24.16 21.6828 24.2452 21.1806C24.3679 20.4507 24.7879 19.8819 25.4918 19.5538C25.4168 18.635 24.6165 17.9697 23.6204 17.9926C22.7044 18.0135 21.8878 18.7682 21.8848 19.6363C21.8736 22.341 21.8787 25.0468 21.8757 27.7515C21.8736 29.5752 21.8686 31.3999 21.8645 33.2236C21.8645 33.3708 21.8645 33.5189 21.8645 33.5975C22.8515 33.9644 23.8141 34.2637 24.724 34.6744C26.3175 35.3934 27.6342 36.4583 28.5684 37.94C28.7155 38.1737 28.8707 38.4063 28.7094 38.6987C28.54 39.006 28.2519 39 27.9537 39C21.9802 38.998 16.0066 38.998 10.0341 39C9.74805 39 9.47316 39.003 9.30275 38.7196C9.12118 38.4173 9.28348 38.1717 9.43969 37.928C10.591 36.1282 12.2748 34.9946 14.2589 34.2488C14.8574 34.0241 15.4822 33.865 16.1375 33.6621C16.1375 32.9561 16.1375 32.2262 16.1375 31.4964C16.1375 29.8337 16.1395 28.1711 16.1375 26.5085C16.1344 24.3119 16.0969 22.1153 16.1375 19.9197C16.1567 18.8637 15.4082 18.1109 14.5581 18.0015C13.558 17.8723 12.7526 18.4599 12.4777 19.5299C13.1766 19.87 13.6411 20.4328 13.771 21.1905C13.8531 21.6698 13.8258 22.173 13.7963 22.6622C13.7852 22.8531 13.771 22.9595 13.9526 23.0878C15.2895 24.0265 15.396 26.3136 14.1656 27.3925C13.4565 28.014 12.4706 27.9832 11.7828 27.2911C11.6135 27.1201 11.4907 27.1012 11.2706 27.1797C10.5585 27.4323 9.79674 27.1648 9.30174 26.5175C8.42939 25.3769 8.59473 23.4021 9.72979 22.5668C9.83123 22.4922 9.88803 22.2963 9.88499 22.1591C9.87079 21.5774 9.94585 21.0145 10.2562 20.5134C10.4175 20.2528 10.6052 19.9555 10.8608 19.8173C11.2392 19.6115 11.3345 19.3211 11.439 18.9561C11.9553 17.1692 14.0895 16.324 15.751 17.2249C15.8585 17.2836 15.966 17.3433 16.1344 17.4367C16.1344 16.8699 16.1476 16.3558 16.1202 15.8437C16.1162 15.7642 15.9397 15.6637 15.824 15.624C14.4942 15.1616 13.1167 14.9975 11.7169 15.1049C9.49852 15.2749 7.50937 16.0287 5.84177 17.5004C4.33749 18.8289 3.41138 20.4935 2.99042 22.4285C2.91536 22.7736 2.76625 23.0262 2.39297 23.0361C2.03186 23.0451 1.88173 22.7806 1.78131 22.4753C0.0863264 17.3721 3.31907 11.9567 8.67892 10.9245C8.83818 10.8937 8.9954 10.8549 9.1506 10.8042C8.02872 10.8002 6.93728 10.9712 5.88032 11.3521C4.50384 11.8473 3.3069 12.61 2.29356 13.6481C2.24994 13.6929 2.20328 13.7356 2.16068 13.7814C1.94665 14.0131 1.68596 14.0747 1.40904 13.9255C1.14125 13.7814 1.08749 13.5377 1.15241 13.2523C1.45672 11.9109 2.03287 10.6938 2.91739 9.63079C4.58397 7.62909 6.73846 6.51538 9.37071 6.2996C9.54315 6.28568 9.71559 6.2638 9.99555 6.23397C9.12828 5.80837 8.31477 5.58165 7.45865 5.48619C5.47559 5.26544 3.80292 6.02614 2.22154 7.07621C2.13837 7.1319 2.05823 7.19355 1.9781 7.25421C1.73161 7.44215 1.47193 7.48888 1.2153 7.28702C0.9607 7.08616 0.956642 6.82961 1.07532 6.54819C1.57844 5.34896 2.30269 4.29492 3.27546 3.41886C5.23113 1.65581 7.55603 0.794675 10.1903 1.05421C14.2001 1.44898 17.0575 3.47952 18.6135 7.17466C18.7413 7.47894 18.8499 7.79217 19.001 8.18993C19.075 7.99304 19.1217 7.87471 19.1643 7.75438C20.5022 4.03439 23.1538 1.80497 27.1077 1.12481C31.1875 0.422775 35.3595 2.74467 36.9186 6.52135C37.0393 6.8137 37.0514 7.08317 36.7765 7.292C36.4986 7.50281 36.243 7.41132 35.9833 7.22438C34.8513 6.40997 33.627 5.78749 32.2333 5.52298C31.0292 5.29527 29.1527 5.59657 28.0602 6.229C28.544 6.28468 28.9711 6.32446 29.3961 6.38313C32.9788 6.88131 36.0949 9.73321 36.8405 13.1877C36.9064 13.492 36.8922 13.7714 36.5828 13.9295C36.2846 14.0827 36.031 13.9812 35.8058 13.7456C34.2782 12.1536 32.4087 11.1979 30.2035 10.8817C29.8789 10.835 29.5493 10.8161 29.2216 10.7902C29.0969 10.7803 28.9701 10.7883 28.8392 10.8062C30.3516 11.0647 31.7372 11.6076 32.9778 12.4996C36.1304 14.7658 37.4602 18.8975 36.2014 22.519C36.0969 22.8193 35.9316 23.0451 35.5948 23.0331C35.2631 23.0212 35.0897 22.8064 35.0227 22.4862C34.2386 18.7364 31.3792 15.8497 27.0621 15.1874C25.4006 14.9319 23.7614 15.085 22.1607 15.616C21.9325 15.6916 21.8463 15.801 21.8584 16.0406C21.8797 16.4841 21.8645 16.9296 21.8645 17.4576H21.8655ZM27.1138 37.8644C26.9606 37.6934 26.8501 37.5641 26.7334 37.4418C25.8256 36.4931 24.7321 35.816 23.5027 35.3516C21.2295 34.4944 18.8884 34.3214 16.5057 34.7818C14.5196 35.1656 12.7333 35.9522 11.3061 37.409C11.1742 37.5442 11.0556 37.6914 10.9024 37.8644H27.1138ZM34.6819 5.07849C34.7225 5.04568 34.7631 5.01187 34.8046 4.97905C34.4263 4.6519 34.054 4.31878 33.6686 3.99958C30.3709 1.26303 25.3407 1.59018 22.2703 4.76327C20.8319 6.24988 20.0955 8.07756 19.7577 10.0753C19.7181 10.307 19.6979 10.5416 19.6705 10.7763C19.6451 10.9961 19.6238 11.2158 19.6015 11.4356C19.7212 11.359 19.7689 11.2745 19.8145 11.188C20.9202 9.07095 22.6263 7.62213 24.8883 6.78486C25.0851 6.71227 25.2727 6.60487 25.4503 6.49251C26.0548 6.10967 26.6259 5.66916 27.2578 5.33902C28.9559 4.45203 30.7624 4.06422 32.6745 4.46197C33.3572 4.60417 34.0145 4.86967 34.6829 5.07849H34.6819ZM18.3914 11.539C18.3914 11.371 18.3964 11.3014 18.3914 11.2327C18.2463 9.5224 17.8213 7.8936 16.953 6.3871C14.5632 2.24449 9.00453 0.881187 5.04145 3.47654C4.36995 3.91605 3.77756 4.4391 3.28459 5.07949C3.32922 5.10335 3.34342 5.11628 3.35153 5.1133C3.45703 5.07352 3.56252 5.03374 3.66497 4.989C4.80307 4.49081 5.98987 4.23028 7.23955 4.32375C9.21856 4.47092 10.9399 5.24654 12.4888 6.43483C12.6735 6.57703 12.8875 6.69735 13.1066 6.7779C15.3666 7.61716 17.0778 9.06001 18.1844 11.1771C18.2331 11.2705 18.2899 11.361 18.3934 11.538L18.3914 11.539ZM16.7329 14.724C13.6006 11.4923 9.48432 11.0945 6.20187 13.0833C3.23488 14.8812 2.22661 18.276 2.56845 20.0052C4.81626 15.0959 10.9064 12.601 16.7319 14.724H16.7329ZM21.2813 14.731C24.0271 13.7336 26.7497 13.6799 29.4681 14.6435C32.212 15.616 34.192 17.4268 35.4548 20.0649C35.7419 17.7649 34.4374 14.2149 30.9562 12.6319C27.4607 11.0428 23.8689 12.0173 21.2813 14.73V14.731ZM17.8994 13.6382C16.8364 9.63477 13.77 7.64003 10.7015 7.43718C7.41301 7.2194 3.89218 9.13857 3.11823 11.4426C8.13219 8.13722 14.6271 9.75509 17.8994 13.6392V13.6382ZM20.1452 13.49C24.5242 9.29966 29.4204 8.41863 34.8929 11.3839C33.5783 8.78855 30.1832 7.04937 27.1087 7.43419C23.7238 7.8578 21.0591 10.0385 20.1452 13.49ZM17.3354 16.2395V20.2548C17.9116 20.1434 18.4401 20.1942 18.931 20.4746C18.9746 20.4994 19.0568 20.4974 19.1024 20.4736C19.5873 20.222 20.0985 20.1375 20.6574 20.2409V16.2445C20.2172 16.5477 19.8318 16.8023 19.4585 17.0728C19.1176 17.3204 18.8833 17.3204 18.5415 17.0718C18.1692 16.8003 17.7828 16.5468 17.3344 16.2385L17.3354 16.2395ZM20.694 33.4533C20.694 32.8686 20.694 32.2998 20.694 31.731C20.694 31.3114 20.4414 31.0946 20.0265 31.204C19.8165 31.2597 19.6177 31.387 19.4382 31.5143C19.0994 31.7569 18.8894 31.7539 18.5547 31.5063C18.3782 31.376 18.1763 31.2378 17.9684 31.202C17.7209 31.1593 17.3547 31.1692 17.3293 31.4894C17.2766 32.1487 17.3131 32.8139 17.3131 33.4533H20.694ZM20.6798 23.3901C20.6798 22.9566 20.6798 22.4385 20.6798 21.9204C20.6798 21.4093 20.4262 21.2134 19.918 21.3636C19.7435 21.4153 19.5822 21.5306 19.4331 21.642C19.1237 21.8737 18.8468 21.8836 18.5567 21.6201C18.2707 21.3606 17.9522 21.2631 17.5829 21.3815C17.4876 21.4123 17.3425 21.5077 17.3405 21.5764C17.3222 22.2267 17.3293 22.877 17.3293 23.5403C17.8984 23.4567 18.4086 23.4707 18.8843 23.7391C18.9462 23.7739 19.0477 23.768 19.1237 23.7511C19.6187 23.6407 20.1117 23.5224 20.6787 23.3901H20.6798ZM20.694 26.6686C20.694 26.2341 20.694 25.715 20.694 25.1949C20.694 24.7246 20.4566 24.5227 19.9859 24.6351C19.7983 24.6798 19.6157 24.7922 19.4585 24.9085C19.0832 25.187 18.8945 25.1959 18.5313 24.8857C18.2281 24.6271 17.8974 24.5257 17.5211 24.6977C17.4348 24.7375 17.3243 24.8459 17.3222 24.9254C17.306 25.5549 17.3131 26.1843 17.3131 26.8317C17.8903 26.7402 18.4096 26.7581 18.8945 27.0326C18.9503 27.0644 19.0385 27.0693 19.1034 27.0534C19.6086 26.9361 20.1117 26.8108 20.695 26.6676L20.694 26.6686ZM20.694 29.97C20.694 29.5285 20.694 28.9855 20.694 28.4426C20.694 28.0269 20.482 27.8291 20.06 27.9136C19.848 27.9553 19.639 28.0747 19.4605 28.2029C19.074 28.4814 18.9198 28.4665 18.5222 28.191C18.3092 28.0438 18.0313 27.9494 17.7726 27.9225C17.6316 27.9076 17.3435 28.0747 17.3375 28.1731C17.2979 28.8195 17.3172 29.4698 17.3172 30.135C17.8872 30.0088 18.3751 30.0605 18.8468 30.2961C18.9391 30.3419 19.0801 30.319 19.1917 30.2961C19.6644 30.2007 20.134 30.0933 20.6929 29.971L20.694 29.97ZM13.8552 25.2983C13.8886 25.2844 13.9211 25.2705 13.9546 25.2566C13.7933 24.8916 13.6766 24.4989 13.4596 24.1697C13.2496 23.8515 12.8814 23.8674 12.6126 24.1299C12.0425 24.6858 12.0293 25.9238 12.5872 26.4866C12.8723 26.774 13.1532 26.782 13.4393 26.4946C13.769 26.1635 13.8623 25.7468 13.8552 25.2983ZM24.0352 25.3083C24.2006 25.71 24.2969 26.1008 24.5079 26.418C24.7737 26.8178 25.1683 26.7889 25.4766 26.418C25.9645 25.8293 25.9422 24.7355 25.431 24.1727C25.148 23.8615 24.7635 23.8336 24.5343 24.1816C24.3172 24.5108 24.2077 24.9076 24.0363 25.3083H24.0352ZM12.3073 22.9615C12.3418 22.9357 12.4787 22.879 12.5487 22.7766C12.8804 22.2903 12.7262 21.1627 12.288 20.7659C12.0314 20.5332 11.726 20.5243 11.4836 20.7659C11.1144 21.1329 11.013 21.5982 11.0383 22.0934C11.0424 22.168 11.1296 22.2585 11.2037 22.3042C11.5364 22.5131 11.8782 22.708 12.3083 22.9605L12.3073 22.9615ZM25.712 23.058C25.9666 22.8323 26.1035 22.6821 26.2688 22.5727C26.4332 22.4633 26.635 22.4077 26.8014 22.3013C26.8805 22.2506 26.9769 22.1223 26.9616 22.0507C26.8785 21.6708 26.8298 21.2601 26.6421 20.93C26.3662 20.4447 25.8661 20.4786 25.5578 20.9549C25.2403 21.4461 25.2078 21.985 25.3681 22.528C25.4229 22.7139 25.5852 22.8691 25.712 23.059V23.058ZM10.7847 26.238C10.8983 26.0819 11.0606 25.9616 11.0505 25.8572C10.9917 25.2158 11.0322 24.5973 11.3031 23.9997C11.3396 23.9191 11.3122 23.7769 11.2605 23.6974C10.9998 23.2897 10.5758 23.2718 10.2593 23.6417C9.7795 24.2015 9.77138 25.3113 10.2603 25.8622C10.377 25.9934 10.5504 26.075 10.7837 26.24L10.7847 26.238ZM27.0519 25.4495L26.9748 25.4684C26.9708 25.5549 26.9545 25.6424 26.9637 25.7269C26.9758 25.8463 26.9769 26.0451 27.0357 26.066C27.1747 26.1147 27.3806 26.1356 27.4952 26.066C27.9882 25.7677 28.1089 25.2635 28.1038 24.7475C28.0977 24.2353 27.9851 23.7372 27.483 23.4349C27.4516 23.416 27.407 23.3861 27.3796 23.3961C27.1899 23.4597 26.9677 23.4935 26.8267 23.6148C26.7324 23.6964 26.705 23.9152 26.7314 24.0583C26.8176 24.5257 26.9424 24.9861 27.0519 25.4495Z" fill="#FF671F"/>
<path d="M21.8655 17.4576C22.6912 16.9077 23.5139 16.7287 24.3923 16.9455C25.644 17.2538 26.3703 18.0702 26.6604 19.2883C26.6878 19.4036 26.7517 19.5518 26.845 19.6045C27.7305 20.1007 28.0673 20.8962 28.1018 21.8369C28.116 22.2187 28.1687 22.4972 28.4923 22.7935C29.5148 23.7292 29.5087 25.6971 28.5451 26.6974C27.9801 27.2841 27.3309 27.4084 26.3754 27.0614C26.354 27.1002 26.3277 27.1917 26.2678 27.2513C25.4614 28.0687 24.3213 28.024 23.592 27.1419C22.6162 25.9626 22.8282 23.8356 24.0839 23.048C24.1641 22.9973 24.2016 22.8353 24.2056 22.7229C24.2239 22.2088 24.16 21.6828 24.2452 21.1806C24.3679 20.4507 24.7879 19.8819 25.4918 19.5538C25.4168 18.635 24.6165 17.9697 23.6204 17.9926C22.7044 18.0135 21.8878 18.7682 21.8848 19.6363C21.8736 22.341 21.8787 25.0468 21.8757 27.7515C21.8736 29.5752 21.8686 31.3999 21.8645 33.2236C21.8645 33.3708 21.8645 33.5189 21.8645 33.5975C22.8515 33.9644 23.8141 34.2637 24.724 34.6744C26.3175 35.3934 27.6342 36.4583 28.5684 37.94C28.7155 38.1737 28.8707 38.4063 28.7094 38.6987C28.54 39.006 28.2519 39 27.9537 39C21.9802 38.998 16.0066 38.998 10.0341 39C9.74805 39 9.47316 39.003 9.30275 38.7196C9.12118 38.4173 9.28348 38.1717 9.43969 37.928C10.591 36.1282 12.2748 34.9946 14.2589 34.2488C14.8574 34.0241 15.4822 33.865 16.1375 33.6621C16.1375 32.9561 16.1375 32.2262 16.1375 31.4964C16.1375 29.8337 16.1395 28.1711 16.1375 26.5085C16.1344 24.3119 16.0969 22.1153 16.1375 19.9197C16.1567 18.8637 15.4082 18.1109 14.5581 18.0015C13.558 17.8723 12.7526 18.4599 12.4777 19.5299C13.1766 19.87 13.6411 20.4328 13.771 21.1905C13.8531 21.6698 13.8258 22.173 13.7963 22.6622C13.7852 22.8531 13.771 22.9595 13.9526 23.0878C15.2895 24.0265 15.396 26.3136 14.1656 27.3925C13.4565 28.014 12.4706 27.9832 11.7828 27.2911C11.6135 27.1201 11.4907 27.1012 11.2706 27.1797C10.5585 27.4323 9.79674 27.1648 9.30174 26.5175C8.42939 25.3769 8.59473 23.4021 9.72979 22.5668C9.83123 22.4922 9.88803 22.2963 9.88499 22.1591C9.87079 21.5774 9.94585 21.0145 10.2562 20.5134C10.4175 20.2528 10.6052 19.9555 10.8608 19.8173C11.2392 19.6115 11.3345 19.3211 11.439 18.9561C11.9553 17.1692 14.0895 16.324 15.751 17.2249C15.8585 17.2836 15.966 17.3433 16.1344 17.4367C16.1344 16.8699 16.1476 16.3558 16.1202 15.8437C16.1162 15.7642 15.9397 15.6637 15.824 15.624C14.4942 15.1616 13.1167 14.9975 11.7169 15.1049C9.49852 15.2749 7.50937 16.0287 5.84177 17.5004C4.33749 18.8289 3.41138 20.4935 2.99042 22.4285C2.91536 22.7736 2.76625 23.0262 2.39297 23.0361C2.03186 23.0451 1.88173 22.7806 1.78131 22.4753C0.0863264 17.3721 3.31907 11.9567 8.67892 10.9245C8.83818 10.8937 8.9954 10.8549 9.1506 10.8042C8.02872 10.8002 6.93728 10.9712 5.88032 11.3521C4.50384 11.8473 3.3069 12.61 2.29356 13.6481C2.24994 13.6929 2.20328 13.7356 2.16068 13.7814C1.94665 14.0131 1.68596 14.0747 1.40904 13.9255C1.14125 13.7814 1.08749 13.5377 1.15241 13.2523C1.45672 11.9109 2.03287 10.6938 2.91739 9.63079C4.58397 7.62909 6.73846 6.51538 9.37071 6.2996C9.54315 6.28568 9.71559 6.2638 9.99555 6.23397C9.12828 5.80837 8.31477 5.58165 7.45865 5.48619C5.47559 5.26544 3.80292 6.02614 2.22154 7.07621C2.13837 7.1319 2.05823 7.19355 1.9781 7.25421C1.73161 7.44215 1.47193 7.48888 1.2153 7.28702C0.9607 7.08616 0.956642 6.82961 1.07532 6.54819C1.57844 5.34896 2.30269 4.29492 3.27546 3.41886C5.23113 1.65581 7.55603 0.794675 10.1903 1.05421C14.2001 1.44898 17.0575 3.47952 18.6135 7.17466C18.7413 7.47894 18.8499 7.79217 19.001 8.18993C19.075 7.99304 19.1217 7.87471 19.1643 7.75438C20.5022 4.03439 23.1538 1.80497 27.1077 1.12481C31.1875 0.422775 35.3595 2.74467 36.9186 6.52135C37.0393 6.8137 37.0514 7.08317 36.7765 7.292C36.4986 7.50281 36.243 7.41132 35.9833 7.22438C34.8513 6.40997 33.627 5.78749 32.2333 5.52298C31.0292 5.29527 29.1527 5.59657 28.0602 6.229C28.544 6.28468 28.9711 6.32446 29.3961 6.38313C32.9788 6.88131 36.0949 9.73321 36.8405 13.1877C36.9064 13.492 36.8922 13.7714 36.5828 13.9295C36.2846 14.0827 36.031 13.9812 35.8058 13.7456C34.2782 12.1536 32.4087 11.1979 30.2035 10.8817C29.8789 10.835 29.5493 10.8161 29.2216 10.7902C29.0969 10.7803 28.9701 10.7883 28.8392 10.8062C30.3516 11.0647 31.7372 11.6076 32.9778 12.4996C36.1304 14.7658 37.4602 18.8975 36.2014 22.519C36.0969 22.8193 35.9316 23.0451 35.5948 23.0331C35.2631 23.0212 35.0897 22.8064 35.0227 22.4862C34.2386 18.7364 31.3792 15.8497 27.0621 15.1874C25.4006 14.9319 23.7614 15.085 22.1607 15.616C21.9325 15.6916 21.8463 15.801 21.8584 16.0406C21.8797 16.4841 21.8645 16.9296 21.8645 17.4576H21.8655ZM27.1138 37.8644C26.9606 37.6934 26.8501 37.5641 26.7334 37.4418C25.8256 36.4931 24.7321 35.816 23.5027 35.3516C21.2295 34.4944 18.8884 34.3214 16.5057 34.7818C14.5196 35.1656 12.7333 35.9522 11.3061 37.409C11.1742 37.5442 11.0556 37.6914 10.9024 37.8644H27.1138ZM34.6819 5.07849C34.7225 5.04568 34.7631 5.01187 34.8046 4.97905C34.4263 4.6519 34.054 4.31878 33.6686 3.99958C30.3709 1.26303 25.3407 1.59018 22.2703 4.76327C20.8319 6.24988 20.0955 8.07756 19.7577 10.0753C19.7181 10.307 19.6979 10.5416 19.6705 10.7763C19.6451 10.9961 19.6238 11.2158 19.6015 11.4356C19.7212 11.359 19.7689 11.2745 19.8145 11.188C20.9202 9.07095 22.6263 7.62213 24.8883 6.78486C25.0851 6.71227 25.2727 6.60487 25.4503 6.49251C26.0548 6.10967 26.6259 5.66916 27.2578 5.33902C28.9559 4.45203 30.7624 4.06422 32.6745 4.46197C33.3572 4.60417 34.0145 4.86967 34.6829 5.07849H34.6819ZM18.3914 11.539C18.3914 11.371 18.3964 11.3014 18.3914 11.2327C18.2463 9.5224 17.8213 7.8936 16.953 6.3871C14.5632 2.24449 9.00453 0.881187 5.04145 3.47654C4.36995 3.91605 3.77756 4.4391 3.28459 5.07949C3.32922 5.10335 3.34342 5.11628 3.35153 5.1133C3.45703 5.07352 3.56252 5.03374 3.66497 4.989C4.80307 4.49081 5.98987 4.23028 7.23955 4.32375C9.21856 4.47092 10.9399 5.24654 12.4888 6.43483C12.6735 6.57703 12.8875 6.69735 13.1066 6.7779C15.3666 7.61716 17.0778 9.06001 18.1844 11.1771C18.2331 11.2705 18.2899 11.361 18.3934 11.538L18.3914 11.539ZM16.7329 14.724C13.6006 11.4923 9.48432 11.0945 6.20187 13.0833C3.23488 14.8812 2.22661 18.276 2.56845 20.0052C4.81626 15.0959 10.9064 12.601 16.7319 14.724H16.7329ZM21.2813 14.731C24.0271 13.7336 26.7497 13.6799 29.4681 14.6435C32.212 15.616 34.192 17.4268 35.4548 20.0649C35.7419 17.7649 34.4374 14.2149 30.9562 12.6319C27.4607 11.0428 23.8689 12.0173 21.2813 14.73V14.731ZM17.8994 13.6382C16.8364 9.63477 13.77 7.64003 10.7015 7.43718C7.41301 7.2194 3.89218 9.13857 3.11823 11.4426C8.13219 8.13722 14.6271 9.75509 17.8994 13.6392V13.6382ZM20.1452 13.49C24.5242 9.29966 29.4204 8.41863 34.8929 11.3839C33.5783 8.78855 30.1832 7.04937 27.1087 7.43419C23.7238 7.8578 21.0591 10.0385 20.1452 13.49ZM17.3354 16.2395V20.2548C17.9116 20.1434 18.4401 20.1942 18.931 20.4746C18.9746 20.4994 19.0568 20.4974 19.1024 20.4736C19.5873 20.222 20.0985 20.1375 20.6574 20.2409V16.2445C20.2172 16.5477 19.8318 16.8023 19.4585 17.0728C19.1176 17.3204 18.8833 17.3204 18.5415 17.0718C18.1692 16.8003 17.7828 16.5468 17.3344 16.2385L17.3354 16.2395ZM20.694 33.4533C20.694 32.8686 20.694 32.2998 20.694 31.731C20.694 31.3114 20.4414 31.0946 20.0265 31.204C19.8165 31.2597 19.6177 31.387 19.4382 31.5143C19.0994 31.7569 18.8894 31.7539 18.5547 31.5063C18.3782 31.376 18.1763 31.2378 17.9684 31.202C17.7209 31.1593 17.3547 31.1692 17.3293 31.4894C17.2766 32.1487 17.3131 32.8139 17.3131 33.4533H20.694ZM20.6798 23.3901C20.6798 22.9566 20.6798 22.4385 20.6798 21.9204C20.6798 21.4093 20.4262 21.2134 19.918 21.3636C19.7435 21.4153 19.5822 21.5306 19.4331 21.642C19.1237 21.8737 18.8468 21.8836 18.5567 21.6201C18.2707 21.3606 17.9522 21.2631 17.5829 21.3815C17.4876 21.4123 17.3425 21.5077 17.3405 21.5764C17.3222 22.2267 17.3293 22.877 17.3293 23.5403C17.8984 23.4567 18.4086 23.4707 18.8843 23.7391C18.9462 23.7739 19.0477 23.768 19.1237 23.7511C19.6187 23.6407 20.1117 23.5224 20.6787 23.3901H20.6798ZM20.694 26.6686C20.694 26.2341 20.694 25.715 20.694 25.1949C20.694 24.7246 20.4566 24.5227 19.9859 24.6351C19.7983 24.6798 19.6157 24.7922 19.4585 24.9085C19.0832 25.187 18.8945 25.1959 18.5313 24.8857C18.2281 24.6271 17.8974 24.5257 17.5211 24.6977C17.4348 24.7375 17.3243 24.8459 17.3222 24.9254C17.306 25.5549 17.3131 26.1843 17.3131 26.8317C17.8903 26.7402 18.4096 26.7581 18.8945 27.0326C18.9503 27.0644 19.0385 27.0693 19.1034 27.0534C19.6086 26.9361 20.1117 26.8108 20.695 26.6676L20.694 26.6686ZM20.694 29.97C20.694 29.5285 20.694 28.9855 20.694 28.4426C20.694 28.0269 20.482 27.8291 20.06 27.9136C19.848 27.9553 19.639 28.0747 19.4605 28.2029C19.074 28.4814 18.9198 28.4665 18.5222 28.191C18.3092 28.0438 18.0313 27.9494 17.7726 27.9225C17.6316 27.9076 17.3435 28.0747 17.3375 28.1731C17.2979 28.8195 17.3172 29.4698 17.3172 30.135C17.8872 30.0088 18.3751 30.0605 18.8468 30.2961C18.9391 30.3419 19.0801 30.319 19.1917 30.2961C19.6644 30.2007 20.134 30.0933 20.6929 29.971L20.694 29.97ZM13.8552 25.2983C13.8886 25.2844 13.9211 25.2705 13.9546 25.2566C13.7933 24.8916 13.6766 24.4989 13.4596 24.1697C13.2496 23.8515 12.8814 23.8674 12.6126 24.1299C12.0425 24.6858 12.0293 25.9238 12.5872 26.4866C12.8723 26.774 13.1532 26.782 13.4393 26.4946C13.769 26.1635 13.8623 25.7468 13.8552 25.2983ZM24.0352 25.3083C24.2006 25.71 24.2969 26.1008 24.5079 26.418C24.7737 26.8178 25.1683 26.7889 25.4766 26.418C25.9645 25.8293 25.9422 24.7355 25.431 24.1727C25.148 23.8615 24.7635 23.8336 24.5343 24.1816C24.3172 24.5108 24.2077 24.9076 24.0363 25.3083H24.0352ZM12.3073 22.9615C12.3418 22.9357 12.4787 22.879 12.5487 22.7766C12.8804 22.2903 12.7262 21.1627 12.288 20.7659C12.0314 20.5332 11.726 20.5243 11.4836 20.7659C11.1144 21.1329 11.013 21.5982 11.0383 22.0934C11.0424 22.168 11.1296 22.2585 11.2037 22.3042C11.5364 22.5131 11.8782 22.708 12.3083 22.9605L12.3073 22.9615ZM25.712 23.058C25.9666 22.8323 26.1035 22.6821 26.2688 22.5727C26.4332 22.4633 26.635 22.4077 26.8014 22.3013C26.8805 22.2506 26.9769 22.1223 26.9616 22.0507C26.8785 21.6708 26.8298 21.2601 26.6421 20.93C26.3662 20.4447 25.8661 20.4786 25.5578 20.9549C25.2403 21.4461 25.2078 21.985 25.3681 22.528C25.4229 22.7139 25.5852 22.8691 25.712 23.059V23.058ZM10.7847 26.238C10.8983 26.0819 11.0606 25.9616 11.0505 25.8572C10.9917 25.2158 11.0322 24.5973 11.3031 23.9997C11.3396 23.9191 11.3122 23.7769 11.2605 23.6974C10.9998 23.2897 10.5758 23.2718 10.2593 23.6417C9.7795 24.2015 9.77138 25.3113 10.2603 25.8622C10.377 25.9934 10.5504 26.075 10.7837 26.24L10.7847 26.238ZM27.0519 25.4495L26.9748 25.4684C26.9708 25.5549 26.9545 25.6424 26.9637 25.7269C26.9758 25.8463 26.9769 26.0451 27.0357 26.066C27.1747 26.1147 27.3806 26.1356 27.4952 26.066C27.9882 25.7677 28.1089 25.2635 28.1038 24.7475C28.0977 24.2353 27.9851 23.7372 27.483 23.4349C27.4516 23.416 27.407 23.3861 27.3796 23.3961C27.1899 23.4597 26.9677 23.4935 26.8267 23.6148C26.7324 23.6964 26.705 23.9152 26.7314 24.0583C26.8176 24.5257 26.9424 24.9861 27.0519 25.4495Z" stroke="#FF671F" strokeWidth="0.2" mask="url(#path-1-outside-1_5116_1133)"/>
</svg>
