<svg id="eT1XD6mAiGo1" xmlns="http://www.w3.org/2000/svg" xmlns:xlink="http://www.w3.org/1999/xlink" viewBox="0 0 22 22" shape-rendering="geometricPrecision" text-rendering="geometricPrecision" project-id="4684bf2187a245bba1c6e6b05c6d2c75" export-id="1e75461c9ddf4136a77357d6441bf1ac" cached="false">
<style><![CDATA[
#eT1XD6mAiGo2_ts {animation: eT1XD6mAiGo2_ts__ts 2000ms linear infinite normal forwards}@keyframes eT1XD6mAiGo2_ts__ts { 0% {transform: translate(11px,11px) scale(1,1)} 25% {transform: translate(11px,11px) scale(0.95,0.95)} 50% {transform: translate(11px,11px) scale(1,1)} 100% {transform: translate(11px,11px) scale(1,1)}}
]]></style>
<g id="eT1XD6mAiGo2_ts" transform="translate(11,11) scale(1,1)"><g transform="translate(-11,-11)"><line x1="11" y1="7.7" x2="11" y2="7.7" fill="none" stroke="#ff671f" strokeWidth="2" strokeLinecap="round" stroke-dasharray="0.01"/><polyline points="9.9,11 11,11 11,15.4 12.1,15.4" fill="none" stroke="#ff671f" strokeWidth="2" strokeLinecap="round" stroke-dasharray="6.6"/><path d="M1,11c0,1.3.3,2.6.8,3.8s1.2,2.3,2.2,3.2c.9.9,2,1.7,3.2,2.2s2.5.8,3.8.8s2.6-.3,3.8-.8s2.3-1.2,3.2-2.2s1.7-2,2.2-3.2.8-2.5.8-3.8c0-2.7-1.1-5.2-2.9-7.1C16.2,2,13.7,1,11,1s-5.2,1.1-7.1,2.9C2,5.8,1,8.3,1,11Z" fill="none" stroke="#ff671f" strokeWidth="2" strokeLinecap="round"/></g></g></svg>
