<svg width="12" height="13" viewBox="0 0 12 13" fill="none" xmlns="http://www.w3.org/2000/svg">
<path d="M6 0.220703C7.5913 0.220703 9.11742 0.852844 10.2426 1.97806C11.3679 3.10328 12 4.6294 12 6.2207C12 7.812 11.3679 9.33813 10.2426 10.4633C9.11742 11.5886 7.5913 12.2207 6 12.2207C4.4087 12.2207 2.88258 11.5886 1.75736 10.4633C0.632141 9.33813 0 7.812 0 6.2207C0 4.6294 0.632141 3.10328 1.75736 1.97806C2.88258 0.852844 4.4087 0.220703 6 0.220703ZM5.4375 3.0332V6.2207C5.4375 6.4082 5.53125 6.58398 5.68828 6.68945L7.93828 8.18945C8.19609 8.36289 8.54531 8.29258 8.71875 8.03242C8.89219 7.77227 8.82187 7.42539 8.56172 7.25195L6.5625 5.9207V3.0332C6.5625 2.72148 6.31172 2.4707 6 2.4707C5.68828 2.4707 5.4375 2.72148 5.4375 3.0332Z" fill="#FF671F"/>
</svg>
