<svg width="34" height="34" viewBox="0 0 34 34" fill="none" xmlns="http://www.w3.org/2000/svg">
<path d="M2.75443 15.9212L12.4092 12.4069L15.9212 2.75443C16.0017 2.53331 16.1483 2.34231 16.3411 2.20735C16.5339 2.07239 16.7635 2 16.9988 2C17.2342 2 17.4638 2.07239 17.6566 2.20735C17.8494 2.34231 17.9959 2.53331 18.0765 2.75443L21.5908 12.4092L31.2456 15.9212C31.4667 16.0017 31.6577 16.1483 31.7926 16.3411C31.9276 16.5339 32 16.7635 32 16.9988C32 17.2342 31.9276 17.4638 31.7926 17.6566C31.6577 17.8494 31.4667 17.9959 31.2456 18.0765L21.5885 21.5908L18.0765 31.2456C17.9959 31.4667 17.8494 31.6577 17.6566 31.7926C17.4638 31.9276 17.2342 32 16.9988 32C16.7635 32 16.5339 31.9276 16.3411 31.7926C16.1483 31.6577 16.0017 31.4667 15.9212 31.2456L12.4069 21.5885L2.75443 18.0765C2.53331 17.9959 2.34231 17.8494 2.20735 17.6566C2.07239 17.4638 2 17.2342 2 16.9988C2 16.7635 2.07239 16.5339 2.20735 16.3411C2.34231 16.1483 2.53331 16.0017 2.75443 15.9212Z" stroke="#FF671F" strokeWidth="2.5" strokeLinecap="round" stroke-linejoin="round"/>
</svg>
