<svg width="34" height="34" viewBox="0 0 34 34" fill="none" xmlns="http://www.w3.org/2000/svg">
<path d="M5.33333 15.1746C6.21739 15.1746 7.06523 15.5258 7.69036 16.151C8.31548 16.7761 8.66667 17.6239 8.66667 18.508V21.8413H25.3333V18.508C25.3333 17.6239 25.6845 16.7761 26.3096 16.151C26.9348 15.5258 27.7826 15.1746 28.6667 15.1746M5.33333 15.1746C4.44928 15.1746 3.60143 15.5258 2.97631 16.151C2.35119 16.7761 2 17.6239 2 18.508V25.1746C2 26.0587 2.35119 26.9065 2.97631 27.5317C3.60143 28.1568 4.44928 28.508 5.33333 28.508H28.6667C29.5507 28.508 30.3986 28.1568 31.0237 27.5317C31.6488 26.9065 32 26.0587 32 25.1746V18.508C32 17.6239 31.6488 16.7761 31.0237 16.151C30.3986 15.5258 29.5507 15.1746 28.6667 15.1746M5.33333 15.1746V6.84131C5.33333 5.51523 5.86012 4.24346 6.7978 3.30577C7.73548 2.36809 9.00725 1.84131 10.3333 1.84131H23.6667C24.9927 1.84131 26.2645 2.36809 27.2022 3.30577C28.1399 4.24346 28.6667 5.51523 28.6667 6.84131V15.1746M7 28.508V31.8413M27 28.508V31.8413" stroke="#FF671F" stroke-width="2.5" stroke-linecap="round" stroke-linejoin="round"/>
</svg>
