<svg width="24" height="20" viewBox="0 0 24 20" fill="none" xmlns="http://www.w3.org/2000/svg">
<path d="M8.60456 0C9.55906 0.00021237 10.4744 0.395402 11.1492 1.09864L17.9998 8.23546C18.7668 9.03473 19.1977 10.1187 19.1977 11.2489C19.1977 12.3792 18.7668 13.4631 17.9998 14.2624L13.6903 18.752C12.9231 19.5511 11.8826 20 10.7977 20C9.7128 20 8.67232 19.5511 7.90511 18.752L1.05457 11.6151C0.379541 10.9121 0.000203851 9.95853 0 8.96414V3.74964C0 2.75517 0.379204 1.80144 1.05419 1.09824C1.72918 0.39505 2.64466 0 3.59923 0H8.60456ZM5.99872 4.99952H5.98672C5.66853 5.00118 5.364 5.13445 5.14013 5.37002C4.91626 5.60559 4.79138 5.92416 4.79297 6.25565C4.79457 6.58714 4.92249 6.90439 5.14861 7.13762C5.37473 7.37084 5.68053 7.50094 5.99872 7.49928C6.31691 7.49928 6.62207 7.3676 6.84706 7.1332C7.07206 6.8988 7.19846 6.58089 7.19846 6.2494C7.19846 5.91791 7.07206 5.6 6.84706 5.3656C6.62207 5.13121 6.31691 4.99952 5.99872 4.99952Z" fill="#FF671F"/>
<path d="M14.7484 0.366215C14.9734 0.131899 15.2785 0.000267003 15.5967 0.000267003C15.9148 0.000267003 16.2199 0.131899 16.4449 0.366215L21.9553 6.10567C23.2645 7.46983 24 9.31988 24 11.2489C24 13.178 23.2645 15.028 21.9553 16.3922L20.0453 18.382C19.819 18.6097 19.516 18.7356 19.2014 18.7328C18.8868 18.73 18.5859 18.5985 18.3635 18.3668C18.141 18.135 18.0149 17.8215 18.0121 17.4938C18.0094 17.1661 18.1303 16.8504 18.3489 16.6147L20.2589 14.6249C21.1182 13.7295 21.601 12.5151 21.601 11.2489C21.601 9.98273 21.1182 8.76838 20.2589 7.873L14.7496 2.13355C14.5247 1.89916 14.3984 1.5813 14.3984 1.24988C14.3984 0.918457 14.5235 0.600602 14.7484 0.366215Z" fill="#FF671F"/>
</svg>
