<svg width="11" height="14" viewBox="0 0 11 14" fill="none" xmlns="http://www.w3.org/2000/svg">
<path fill-rule="evenodd" clip-rule="evenodd" d="M4.62208 13.5394C4.62208 13.5394 0 9.64671 0 5.81641C0 4.46598 0.536456 3.17086 1.49135 2.21596C2.44625 1.26107 3.74137 0.724609 5.0918 0.724609C6.44223 0.724609 7.73734 1.26107 8.69224 2.21596C9.64714 3.17086 10.1836 4.46598 10.1836 5.81641C10.1836 9.64671 5.56152 13.5394 5.56152 13.5394C5.30438 13.7762 4.88112 13.7736 4.62208 13.5394ZM5.0918 8.04407C5.38434 8.04407 5.67401 7.98645 5.94429 7.8745C6.21456 7.76255 6.46013 7.59846 6.66699 7.3916C6.87385 7.18474 7.03794 6.93917 7.14989 6.6689C7.26184 6.39862 7.31946 6.10895 7.31946 5.81641C7.31946 5.52387 7.26184 5.23419 7.14989 4.96392C7.03794 4.69365 6.87385 4.44807 6.66699 4.24121C6.46013 4.03435 6.21456 3.87027 5.94429 3.75832C5.67401 3.64637 5.38434 3.58875 5.0918 3.58875C4.50098 3.58875 3.93437 3.82344 3.5166 4.24121C3.09884 4.65898 2.86414 5.22559 2.86414 5.81641C2.86414 6.40722 3.09884 6.97383 3.5166 7.3916C3.93437 7.80937 4.50098 8.04407 5.0918 8.04407Z" fill="#FF671F"/>
</svg>
