<svg width="21" height="20" viewBox="0 0 21 20" fill="none" xmlns="http://www.w3.org/2000/svg">
<path d="M0.5 10C0.5 10.9283 0.868749 11.8185 1.52513 12.4749C2.1815 13.1313 3.07174 13.5 4 13.5C4.92826 13.5 5.8185 13.1313 6.47487 12.4749C6.63258 12.3172 6.77369 12.146 6.89706 11.964L12.6657 14.9357C12.5569 15.2767 12.5 15.6354 12.5 16C12.5 16.9283 12.8687 17.8185 13.5251 18.4749C14.1815 19.1313 15.0717 19.5 16 19.5C16.9283 19.5 17.8185 19.1313 18.4749 18.4749C19.1313 17.8185 19.5 16.9283 19.5 16C19.5 15.0717 19.1313 14.1815 18.4749 13.5251C17.8185 12.8687 16.9283 12.5 16 12.5C15.0717 12.5 14.1815 12.8687 13.5251 13.5251C13.3674 13.6828 13.2263 13.854 13.1029 14.036L7.33426 11.0643C7.44312 10.7233 7.5 10.3646 7.5 10C7.5 9.63541 7.44312 9.27669 7.33426 8.9357L13.1029 5.96396C13.2263 6.14596 13.3674 6.31717 13.5251 6.47487C14.1815 7.13125 15.0717 7.5 16 7.5C16.9283 7.5 17.8185 7.13125 18.4749 6.47487C19.1313 5.8185 19.5 4.92826 19.5 4C19.5 3.07174 19.1313 2.1815 18.4749 1.52513C17.8185 0.868749 16.9283 0.5 16 0.5C15.0717 0.5 14.1815 0.868749 13.5251 1.52513C12.8687 2.1815 12.5 3.07174 12.5 4C12.5 4.36459 12.5569 4.72331 12.6657 5.0643L6.89706 8.03604C6.77369 7.85404 6.63258 7.68283 6.47487 7.52513C5.8185 6.86875 4.92826 6.5 4 6.5C3.07174 6.5 2.1815 6.86875 1.52513 7.52513C0.868749 8.1815 0.5 9.07174 0.5 10Z" fill="#FF671F" stroke="#FF671F"/>
</svg>
