<svg width="24" height="25" viewBox="0 0 24 25" fill="none" xmlns="http://www.w3.org/2000/svg">
<path d="M23.998 15.3398V23.3398C23.998 23.6051 23.8927 23.8594 23.7052 24.047C23.5176 24.2345 23.2633 24.3398 22.998 24.3398H0.998047C0.73283 24.3398 0.478477 24.2345 0.29094 24.047C0.103404 23.8594 -0.00195312 23.6051 -0.00195312 23.3398V15.3398C-0.00195312 15.0746 0.103404 14.8203 0.29094 14.6327C0.478477 14.4452 0.73283 14.3398 0.998047 14.3398C1.26326 14.3398 1.51762 14.4452 1.70515 14.6327C1.89269 14.8203 1.99805 15.0746 1.99805 15.3398V22.3398H21.998V15.3398C21.998 15.0746 22.1034 14.8203 22.2909 14.6327C22.4785 14.4452 22.7328 14.3398 22.998 14.3398C23.2633 14.3398 23.5176 14.4452 23.7052 14.6327C23.8927 14.8203 23.998 15.0746 23.998 15.3398ZM11.2905 16.0473C11.3834 16.1403 11.4937 16.2141 11.6151 16.2644C11.7365 16.3147 11.8666 16.3406 11.998 16.3406C12.1295 16.3406 12.2596 16.3147 12.381 16.2644C12.5024 16.2141 12.6127 16.1403 12.7055 16.0473L17.7055 11.0473C17.7985 10.9544 17.8722 10.8441 17.9224 10.7227C17.9727 10.6013 17.9986 10.4712 17.9986 10.3398C17.9986 10.2084 17.9727 10.0783 17.9224 9.95695C17.8722 9.83555 17.7985 9.72525 17.7055 9.63234C17.6126 9.53943 17.5023 9.46573 17.3809 9.41545C17.2596 9.36517 17.1294 9.33929 16.998 9.33929C16.8667 9.33929 16.7365 9.36517 16.6152 9.41545C16.4938 9.46573 16.3835 9.53943 16.2905 9.63234L12.998 12.9261V1.33984C12.998 1.07463 12.8927 0.820273 12.7052 0.632737C12.5176 0.445201 12.2633 0.339844 11.998 0.339844C11.7328 0.339844 11.4785 0.445201 11.2909 0.632737C11.1034 0.820273 10.998 1.07463 10.998 1.33984V12.9261L7.70555 9.63234C7.51791 9.4447 7.26341 9.33929 6.99805 9.33929C6.73268 9.33929 6.47819 9.4447 6.29055 9.63234C6.10291 9.81998 5.99749 10.0745 5.99749 10.3398C5.99749 10.6052 6.10291 10.8597 6.29055 11.0473L11.2905 16.0473Z" fill="#FF671F"/>
</svg>
