<svg width="35" height="35" viewBox="0 0 35 35" fill="none" xmlns="http://www.w3.org/2000/svg">
<path d="M33.75 32.5H30V2.5H31.25C31.5815 2.5 31.8995 2.3683 32.1339 2.13388C32.3683 1.89946 32.5 1.58152 32.5 1.25C32.5 0.918479 32.3683 0.600537 32.1339 0.366116C31.8995 0.131696 31.5815 0 31.25 0L3.75 0C3.41848 0 3.10054 0.131696 2.86612 0.366116C2.6317 0.600537 2.5 0.918479 2.5 1.25C2.5 1.58152 2.6317 1.89946 2.86612 2.13388C3.10054 2.3683 3.41848 2.5 3.75 2.5H5V32.5H1.25C0.918479 32.5 0.600537 32.6317 0.366116 32.8661C0.131696 33.1005 0 33.4185 0 33.75C0 34.0815 0.131696 34.3995 0.366116 34.6339C0.600537 34.8683 0.918479 35 1.25 35H33.75C34.0815 35 34.3995 34.8683 34.6339 34.6339C34.8683 34.3995 35 34.0815 35 33.75C35 33.4185 34.8683 33.1005 34.6339 32.8661C34.3995 32.6317 34.0815 32.5 33.75 32.5ZM7.5 2.5H27.5V32.5H22.5V26.25C22.5 25.9185 22.3683 25.6005 22.1339 25.3661C21.8995 25.1317 21.5815 25 21.25 25H13.75C13.4185 25 13.1005 25.1317 12.8661 25.3661C12.6317 25.6005 12.5 25.9185 12.5 26.25V32.5H7.5V2.5ZM20 32.5H15V27.5H20V32.5ZM11.25 7.5C11.25 7.16848 11.3817 6.85054 11.6161 6.61612C11.8505 6.3817 12.1685 6.25 12.5 6.25H15C15.3315 6.25 15.6495 6.3817 15.8839 6.61612C16.1183 6.85054 16.25 7.16848 16.25 7.5C16.25 7.83152 16.1183 8.14946 15.8839 8.38388C15.6495 8.6183 15.3315 8.75 15 8.75H12.5C12.1685 8.75 11.8505 8.6183 11.6161 8.38388C11.3817 8.14946 11.25 7.83152 11.25 7.5ZM18.75 7.5C18.75 7.16848 18.8817 6.85054 19.1161 6.61612C19.3505 6.3817 19.6685 6.25 20 6.25H22.5C22.8315 6.25 23.1495 6.3817 23.3839 6.61612C23.6183 6.85054 23.75 7.16848 23.75 7.5C23.75 7.83152 23.6183 8.14946 23.3839 8.38388C23.1495 8.6183 22.8315 8.75 22.5 8.75H20C19.6685 8.75 19.3505 8.6183 19.1161 8.38388C18.8817 8.14946 18.75 7.83152 18.75 7.5ZM11.25 13.75C11.25 13.4185 11.3817 13.1005 11.6161 12.8661C11.8505 12.6317 12.1685 12.5 12.5 12.5H15C15.3315 12.5 15.6495 12.6317 15.8839 12.8661C16.1183 13.1005 16.25 13.4185 16.25 13.75C16.25 14.0815 16.1183 14.3995 15.8839 14.6339C15.6495 14.8683 15.3315 15 15 15H12.5C12.1685 15 11.8505 14.8683 11.6161 14.6339C11.3817 14.3995 11.25 14.0815 11.25 13.75ZM18.75 13.75C18.75 13.4185 18.8817 13.1005 19.1161 12.8661C19.3505 12.6317 19.6685 12.5 20 12.5H22.5C22.8315 12.5 23.1495 12.6317 23.3839 12.8661C23.6183 13.1005 23.75 13.4185 23.75 13.75C23.75 14.0815 23.6183 14.3995 23.3839 14.6339C23.1495 14.8683 22.8315 15 22.5 15H20C19.6685 15 19.3505 14.8683 19.1161 14.6339C18.8817 14.3995 18.75 14.0815 18.75 13.75ZM11.25 20C11.25 19.6685 11.3817 19.3505 11.6161 19.1161C11.8505 18.8817 12.1685 18.75 12.5 18.75H15C15.3315 18.75 15.6495 18.8817 15.8839 19.1161C16.1183 19.3505 16.25 19.6685 16.25 20C16.25 20.3315 16.1183 20.6495 15.8839 20.8839C15.6495 21.1183 15.3315 21.25 15 21.25H12.5C12.1685 21.25 11.8505 21.1183 11.6161 20.8839C11.3817 20.6495 11.25 20.3315 11.25 20ZM18.75 20C18.75 19.6685 18.8817 19.3505 19.1161 19.1161C19.3505 18.8817 19.6685 18.75 20 18.75H22.5C22.8315 18.75 23.1495 18.8817 23.3839 19.1161C23.6183 19.3505 23.75 19.6685 23.75 20C23.75 20.3315 23.6183 20.6495 23.3839 20.8839C23.1495 21.1183 22.8315 21.25 22.5 21.25H20C19.6685 21.25 19.3505 21.1183 19.1161 20.8839C18.8817 20.6495 18.75 20.3315 18.75 20Z" fill="#FF671F"/>
</svg>
