<svg id="ehJ7wb0GoT31" xmlns="http://www.w3.org/2000/svg" xmlns:xlink="http://www.w3.org/1999/xlink" viewBox="0 0 46 29.4" shape-rendering="geometricPrecision" text-rendering="geometricPrecision" project-id="cfcae29e94ac4d4684f9aafe074a14a9" export-id="e2fdb991e8064b54b3d9f16a2e6b64bc" cached="false">
<style><![CDATA[
#ehJ7wb0GoT32 {animation: ehJ7wb0GoT32_s_do 4000ms linear infinite normal forwards}@keyframes ehJ7wb0GoT32_s_do { 0% {stroke-dashoffset: 115.03} 60% {stroke-dashoffset: 0} 100% {stroke-dashoffset: 0}} #ehJ7wb0GoT33 {animation: ehJ7wb0GoT33_s_do 4000ms linear infinite normal forwards}@keyframes ehJ7wb0GoT33_s_do { 0% {stroke-dashoffset: 23.11} 5% {stroke-dashoffset: 23.11} 22.5% {stroke-dashoffset: 0} 100% {stroke-dashoffset: 0}} #ehJ7wb0GoT34 {animation: ehJ7wb0GoT34_s_do 4000ms linear infinite normal forwards}@keyframes ehJ7wb0GoT34_s_do { 0% {stroke-dashoffset: 20} 17.5% {stroke-dashoffset: 0} 100% {stroke-dashoffset: 0}} #ehJ7wb0GoT35 {animation: ehJ7wb0GoT35_s_do 4000ms linear infinite normal forwards}@keyframes ehJ7wb0GoT35_s_do { 0% {stroke-dashoffset: 11.29} 12.5% {stroke-dashoffset: 11.29} 30% {stroke-dashoffset: 0} 100% {stroke-dashoffset: 0}}
]]></style>
<path id="ehJ7wb0GoT32" d="M38.8,14.9c-.1,0-.3,0-.4,0c1.3-5.8-1.9-10.6-5.8-12.3-2.2-1-4.4-1.2-6.7-.7-3,.7-5.3,2.5-6.9,5.3-2.6-.8-5.3-.4-7.5,1.1s-3.6,3.9-3.8,6.6c-1.8.3-3.5,1.3-4.6,2.8-1.1,1.6-1.4,3.5-1,5.4.7,3.1,3.3,5.1,6.5,5.1c3.8,0,7.7,0,11.5,0c5.6,0,11.3,0,17,0c.3,0,.6,0,1,0c3.1-.4,5.6-3,5.7-6.2.2-3.4-2-6.3-5.1-7l.1-.1Z" fill="none" stroke="#ff671f" strokeWidth="2.5" strokeLinecap="round" stroke-linejoin="round" stroke-dashoffset="115.03" stroke-dasharray="115.03"/><ellipse id="ehJ7wb0GoT33" rx="3.2" ry="4.1" transform="translate(25.5 19)" fill="none" stroke="#ff671f" strokeWidth="2.5" strokeLinecap="round" stroke-linejoin="round" stroke-dashoffset="23.11" stroke-dasharray="23.11"/><path id="ehJ7wb0GoT34" d="M19.3,20.5c-.5,1.6-1.6,2.7-3,2.7s-3.2-1.9-3.2-4.1s1.4-4.1,3.2-4.1s2.5,1,3,2.5" fill="none" stroke="#ff671f" strokeWidth="2.5" stroke-dashoffset="20" stroke-dasharray="20"/><path id="ehJ7wb0GoT35" d="M31.5,21.2c0,0-.2-1.6,1.4-1.6c1.6.1,1,1.8,1,1.8-.4,1.4-2,1.2-2.4,2.5h2.8" fill="none" stroke="#ff671f" strokeWidth="1.5" strokeLinecap="round" stroke-linejoin="round" stroke-dashoffset="11.29" stroke-dasharray="11.29"/></svg>
