<svg width="35" height="35" viewBox="0 0 35 35" fill="none" xmlns="http://www.w3.org/2000/svg">
<path d="M17.5 0C14.0388 0 10.6554 1.02636 7.77753 2.94928C4.89967 4.87221 2.65665 7.60533 1.33212 10.803C0.0075824 14.0007 -0.338976 17.5194 0.336265 20.9141C1.01151 24.3087 2.67822 27.4269 5.12564 29.8744C7.57306 32.3218 10.6913 33.9885 14.0859 34.6637C17.4806 35.339 20.9993 34.9924 24.197 33.6679C27.3947 32.3433 30.1278 30.1003 32.0507 27.2225C33.9736 24.3446 35 20.9612 35 17.5C34.9951 12.8602 33.1498 8.41187 29.869 5.13104C26.5881 1.85022 22.1398 0.00489969 17.5 0ZM17.5 32.3077C14.5713 32.3077 11.7084 31.4392 9.27329 29.8121C6.83818 28.1851 4.94024 25.8724 3.81948 23.1667C2.69872 20.4609 2.40548 17.4836 2.97684 14.6112C3.5482 11.7387 4.95849 9.10027 7.02939 7.02938C9.10028 4.95849 11.7388 3.54819 14.6112 2.97683C17.4836 2.40547 20.4609 2.69872 23.1667 3.81948C25.8724 4.94023 28.1851 6.83817 29.8121 9.27328C31.4392 11.7084 32.3077 14.5713 32.3077 17.5C32.3032 21.4259 30.7417 25.1897 27.9657 27.9657C25.1897 30.7417 21.4259 32.3032 17.5 32.3077ZM24.2308 20.8654C24.2308 22.115 23.7344 23.3134 22.8508 24.1969C21.9672 25.0805 20.7688 25.5769 19.5192 25.5769H18.8462V26.9231C18.8462 27.2801 18.7043 27.6225 18.4519 27.8749C18.1994 28.1274 17.857 28.2692 17.5 28.2692C17.143 28.2692 16.8006 28.1274 16.5481 27.8749C16.2957 27.6225 16.1538 27.2801 16.1538 26.9231V25.5769H13.4615C13.1045 25.5769 12.7621 25.4351 12.5097 25.1826C12.2572 24.9302 12.1154 24.5878 12.1154 24.2308C12.1154 23.8737 12.2572 23.5313 12.5097 23.2789C12.7621 23.0264 13.1045 22.8846 13.4615 22.8846H19.5192C20.0548 22.8846 20.5684 22.6719 20.947 22.2932C21.3257 21.9145 21.5385 21.4009 21.5385 20.8654C21.5385 20.3298 21.3257 19.8163 20.947 19.4376C20.5684 19.0589 20.0548 18.8462 19.5192 18.8462H15.4808C14.2312 18.8462 13.0328 18.3498 12.1492 17.4662C11.2656 16.5826 10.7692 15.3842 10.7692 14.1346C10.7692 12.885 11.2656 11.6866 12.1492 10.8031C13.0328 9.91947 14.2312 9.42308 15.4808 9.42308H16.1538V8.07692C16.1538 7.7199 16.2957 7.3775 16.5481 7.12505C16.8006 6.87259 17.143 6.73077 17.5 6.73077C17.857 6.73077 18.1994 6.87259 18.4519 7.12505C18.7043 7.3775 18.8462 7.7199 18.8462 8.07692V9.42308H21.5385C21.8955 9.42308 22.2379 9.5649 22.4903 9.81736C22.7428 10.0698 22.8846 10.4122 22.8846 10.7692C22.8846 11.1263 22.7428 11.4686 22.4903 11.7211C22.2379 11.9736 21.8955 12.1154 21.5385 12.1154H15.4808C14.9452 12.1154 14.4316 12.3281 14.053 12.7068C13.6743 13.0855 13.4615 13.5991 13.4615 14.1346C13.4615 14.6701 13.6743 15.1837 14.053 15.5624C14.4316 15.9411 14.9452 16.1538 15.4808 16.1538H19.5192C20.7688 16.1538 21.9672 16.6502 22.8508 17.5338C23.7344 18.4174 24.2308 19.6158 24.2308 20.8654Z" fill="#FF671F"/>
</svg>
