<svg width="32" height="37" viewBox="0 0 32 37" fill="none" xmlns="http://www.w3.org/2000/svg">
<mask id="path-1-outside-1_4_4817" maskUnits="userSpaceOnUse" x="0" y="0" width="32" height="37" fill="black">
<rect fill="white" width="32" height="37"/>
<path d="M25.5204 35.3963C26.6656 34.275 27.8214 33.1259 28.9385 32.0126C29.5404 31.4142 30.1423 30.8145 30.7455 30.2174C31.0757 29.8904 31.1902 29.5846 31.117 29.2245C31.0371 28.83 30.8134 28.5798 30.4325 28.4593C30.318 28.4223 30.2062 28.4051 30.101 28.4051C29.8453 28.4051 29.611 28.5123 29.3859 28.7347C28.7441 29.3675 28.0943 30.0149 27.4658 30.6397C27.1449 30.9588 26.8227 31.2791 26.5018 31.5982C26.4445 31.6551 26.3846 31.7107 26.3101 31.7796C26.2728 31.814 26.2328 31.8524 26.1862 31.8961L25.5125 32.5315V31.6075C25.5125 31.1084 25.5125 30.6159 25.5125 30.1287C25.5138 28.8287 25.5151 27.6015 25.5071 26.3557C25.5045 25.9837 25.4911 25.4979 25.4059 25.0345C25.0038 22.8396 23.7575 21.2086 21.7015 20.1853C20.3154 19.4955 18.9293 18.8071 17.5431 18.1174C15.5005 17.102 13.3887 16.0535 11.3128 15.0183C9.55778 14.1432 8.66031 12.7187 8.643 10.7833C8.63235 9.57062 8.63501 8.33811 8.63768 7.14665C8.63768 6.68065 8.64034 6.21465 8.64034 5.74866C8.64034 5.66525 8.64833 5.58715 8.65499 5.51831C8.65765 5.49051 8.66031 5.46403 8.66165 5.43623L8.70425 4.87492L9.22223 5.10262C9.43128 5.19529 9.55379 5.32635 9.643 5.42167C9.65898 5.43888 9.67629 5.45741 9.6936 5.47462C9.91064 5.69041 10.1264 5.90752 10.3434 6.12463C11.0638 6.84481 11.8081 7.59014 12.5511 8.30899C12.7508 8.50227 13.0038 8.60818 13.2635 8.60818C13.5231 8.60818 13.7815 8.49962 13.9759 8.30237C14.37 7.90389 14.3687 7.30418 13.9759 6.90835C12.0971 5.02054 10.1996 3.13405 8.33675 1.30316C8.13435 1.10458 7.89334 1 7.63901 1C7.38469 1 7.11971 1.11385 6.91065 1.32037C5.1024 3.10492 3.1823 5.00333 1.33011 6.88452C1.18364 7.03412 1.05981 7.3108 1.01587 7.59014C0.958609 7.9542 1.19696 8.33282 1.59376 8.51154C1.73624 8.57641 1.88138 8.60818 2.02252 8.60818C2.27818 8.60818 2.52452 8.49962 2.7349 8.2931C3.39402 7.64839 4.05847 6.98646 4.70161 6.34572C5.00786 6.04123 5.31279 5.73674 5.61905 5.43226C5.68163 5.37004 5.74288 5.31443 5.82144 5.24295C5.86006 5.2072 5.904 5.16749 5.95327 5.12115L6.6257 4.49762V5.81353C6.6257 6.27687 6.6257 6.74022 6.62304 7.20357C6.62037 8.36194 6.61638 9.5587 6.63369 10.7356C6.64301 11.3525 6.70027 11.8794 6.80812 12.3454C7.2755 14.351 8.48987 15.8549 10.4166 16.8134L11.7375 17.4714C14.6789 18.9355 17.7202 20.45 20.7149 21.9288C22.5817 22.8502 23.5178 24.362 23.5005 26.4246C23.4912 27.4929 23.4938 28.5811 23.4951 29.6323C23.4951 30.1578 23.4965 30.6821 23.4965 31.2077C23.4965 31.2911 23.4912 31.3705 23.4858 31.4618C23.4832 31.5055 23.4805 31.5532 23.4778 31.6075L23.4366 32.4746L22.8041 31.8762C22.7601 31.8338 22.7202 31.7968 22.6829 31.7624C22.6083 31.6922 22.5458 31.6339 22.4845 31.573L21.9159 31.0078C21.1809 30.2783 20.4206 29.5237 19.6763 28.7797C19.4246 28.5282 19.1716 28.4064 18.9026 28.4064C18.8307 28.4064 18.7561 28.4143 18.6789 28.4315C18.2848 28.5176 18.0371 28.7453 17.9213 29.1266C17.8014 29.5224 17.9 29.8507 18.2435 30.1909C18.7175 30.6622 19.1916 31.1335 19.6656 31.6048C20.9253 32.8585 22.2275 34.1545 23.5191 35.4188C23.6829 35.579 23.8933 35.7114 24.117 35.8517C24.1929 35.8994 24.2701 35.9484 24.3487 36H24.6656C24.7455 35.947 24.8267 35.8954 24.9053 35.8464C25.1356 35.7008 25.3527 35.5631 25.5218 35.3963H25.5204Z"/>
<path d="M8.647 35.3963C9.79613 34.2724 10.9559 33.118 12.0771 32.002C12.6749 31.4076 13.2728 30.8118 13.872 30.2187C14.2022 29.8917 14.3168 29.5859 14.2448 29.2259C14.165 28.8313 13.9413 28.5798 13.5604 28.4593C13.4446 28.4223 13.3327 28.4037 13.2275 28.4037C12.9719 28.4037 12.7389 28.511 12.5138 28.7321C11.868 29.3688 11.2142 30.0188 10.5831 30.6477C10.2662 30.9627 9.94793 31.2791 9.63102 31.5942C9.57376 31.6511 9.51384 31.7067 9.43927 31.7769C9.40199 31.8113 9.36071 31.8497 9.31411 31.8947L8.63901 32.5328V31.6075C8.63901 31.0607 8.64034 30.5219 8.64167 29.9897C8.64567 28.7638 8.64833 27.6068 8.63368 26.4312C8.61371 24.8042 9.23155 23.4777 10.4686 22.4901C10.9439 22.1101 11.0278 21.5104 10.6683 21.063C10.4712 20.8181 10.1996 20.683 9.90398 20.683C9.65898 20.683 9.4153 20.7744 9.19826 20.9465C7.53648 22.2703 6.67364 23.998 6.63236 26.0817C6.60839 27.2533 6.61505 28.4474 6.62037 29.6018C6.62304 30.1261 6.6257 30.6503 6.6257 31.1746V31.769L6.42197 31.8828L5.99321 32.1211L5.78549 31.8272C5.75886 31.7888 5.73356 31.7504 5.70826 31.7107C5.67098 31.6538 5.63636 31.5995 5.60706 31.5691C4.76685 30.7284 3.77085 29.7342 2.75088 28.7307C2.52718 28.5096 2.29416 28.4024 2.0385 28.4024C1.9413 28.4024 1.83743 28.4183 1.72958 28.4501C1.34609 28.5626 1.11573 28.8088 1.02652 29.2007C0.94263 29.5674 1.05581 29.8812 1.39403 30.2161C1.99323 30.8092 2.58976 31.4036 3.18763 31.998C4.3088 33.114 5.46858 34.2684 6.61904 35.3937C6.78948 35.5592 7.00652 35.6982 7.23555 35.8438C7.31411 35.8941 7.39401 35.9444 7.4739 35.9974H7.78948C7.86937 35.9444 7.9506 35.8928 8.02916 35.8438C8.25952 35.6982 8.47656 35.5605 8.64567 35.3937L8.647 35.3963Z"/>
<path d="M26.1889 5.11586C26.2421 5.16616 26.2874 5.20853 26.3287 5.24692C26.4073 5.32105 26.4698 5.3793 26.5298 5.43888C26.8413 5.74733 27.1516 6.05711 27.4618 6.36557C28.093 6.99308 28.7441 7.64177 29.3886 8.27722C29.6136 8.4983 29.8467 8.60553 30.1023 8.60553C30.2075 8.60553 30.3194 8.587 30.4352 8.54993C30.8147 8.42946 31.0384 8.17793 31.1183 7.78342C31.1902 7.42465 31.0757 7.11884 30.7455 6.79053C29.6096 5.66525 28.4565 4.5188 27.342 3.41073C26.6869 2.7594 26.0304 2.10674 25.3753 1.45541C25.0744 1.15621 24.7814 1.0053 24.5071 1.0053C24.2328 1.0053 23.9439 1.15621 23.6456 1.45143C21.872 3.21348 20.0997 4.97553 18.3274 6.7389L18.3114 6.75479C18.2249 6.84084 18.1436 6.92159 18.0824 7.00367C17.8787 7.27638 17.8227 7.61264 17.9319 7.92507C18.0411 8.23882 18.2941 8.4705 18.6257 8.56184C18.7242 8.58832 18.8187 8.60156 18.9093 8.60156C19.1756 8.60156 19.4259 8.48109 19.6736 8.23485L23.5018 4.41554V5.82941C23.5018 6.31394 23.5018 6.7998 23.4991 7.28433C23.4965 8.37518 23.4938 9.50443 23.5045 10.6125C23.5204 12.221 22.9039 13.5356 21.6709 14.5192C21.1956 14.8978 21.1117 15.4988 21.4699 15.9463C21.6656 16.1912 21.9386 16.3262 22.2355 16.3262C22.4805 16.3262 22.7242 16.2349 22.9399 16.0628C24.5937 14.7469 25.4565 13.0298 25.5045 10.9593C25.5324 9.77979 25.5258 8.57773 25.5191 7.41539C25.5164 6.89644 25.5138 6.36028 25.5138 5.83206V4.47114L26.1889 5.11321V5.11586Z"/>
</mask>
<path d="M25.5204 35.3963C26.6656 34.275 27.8214 33.1259 28.9385 32.0126C29.5404 31.4142 30.1423 30.8145 30.7455 30.2174C31.0757 29.8904 31.1902 29.5846 31.117 29.2245C31.0371 28.83 30.8134 28.5798 30.4325 28.4593C30.318 28.4223 30.2062 28.4051 30.101 28.4051C29.8453 28.4051 29.611 28.5123 29.3859 28.7347C28.7441 29.3675 28.0943 30.0149 27.4658 30.6397C27.1449 30.9588 26.8227 31.2791 26.5018 31.5982C26.4445 31.6551 26.3846 31.7107 26.3101 31.7796C26.2728 31.814 26.2328 31.8524 26.1862 31.8961L25.5125 32.5315V31.6075C25.5125 31.1084 25.5125 30.6159 25.5125 30.1287C25.5138 28.8287 25.5151 27.6015 25.5071 26.3557C25.5045 25.9837 25.4911 25.4979 25.4059 25.0345C25.0038 22.8396 23.7575 21.2086 21.7015 20.1853C20.3154 19.4955 18.9293 18.8071 17.5431 18.1174C15.5005 17.102 13.3887 16.0535 11.3128 15.0183C9.55778 14.1432 8.66031 12.7187 8.643 10.7833C8.63235 9.57062 8.63501 8.33811 8.63768 7.14665C8.63768 6.68065 8.64034 6.21465 8.64034 5.74866C8.64034 5.66525 8.64833 5.58715 8.65499 5.51831C8.65765 5.49051 8.66031 5.46403 8.66165 5.43623L8.70425 4.87492L9.22223 5.10262C9.43128 5.19529 9.55379 5.32635 9.643 5.42167C9.65898 5.43888 9.67629 5.45741 9.6936 5.47462C9.91064 5.69041 10.1264 5.90752 10.3434 6.12463C11.0638 6.84481 11.8081 7.59014 12.5511 8.30899C12.7508 8.50227 13.0038 8.60818 13.2635 8.60818C13.5231 8.60818 13.7815 8.49962 13.9759 8.30237C14.37 7.90389 14.3687 7.30418 13.9759 6.90835C12.0971 5.02054 10.1996 3.13405 8.33675 1.30316C8.13435 1.10458 7.89334 1 7.63901 1C7.38469 1 7.11971 1.11385 6.91065 1.32037C5.1024 3.10492 3.1823 5.00333 1.33011 6.88452C1.18364 7.03412 1.05981 7.3108 1.01587 7.59014C0.958609 7.9542 1.19696 8.33282 1.59376 8.51154C1.73624 8.57641 1.88138 8.60818 2.02252 8.60818C2.27818 8.60818 2.52452 8.49962 2.7349 8.2931C3.39402 7.64839 4.05847 6.98646 4.70161 6.34572C5.00786 6.04123 5.31279 5.73674 5.61905 5.43226C5.68163 5.37004 5.74288 5.31443 5.82144 5.24295C5.86006 5.2072 5.904 5.16749 5.95327 5.12115L6.6257 4.49762V5.81353C6.6257 6.27687 6.6257 6.74022 6.62304 7.20357C6.62037 8.36194 6.61638 9.5587 6.63369 10.7356C6.64301 11.3525 6.70027 11.8794 6.80812 12.3454C7.2755 14.351 8.48987 15.8549 10.4166 16.8134L11.7375 17.4714C14.6789 18.9355 17.7202 20.45 20.7149 21.9288C22.5817 22.8502 23.5178 24.362 23.5005 26.4246C23.4912 27.4929 23.4938 28.5811 23.4951 29.6323C23.4951 30.1578 23.4965 30.6821 23.4965 31.2077C23.4965 31.2911 23.4912 31.3705 23.4858 31.4618C23.4832 31.5055 23.4805 31.5532 23.4778 31.6075L23.4366 32.4746L22.8041 31.8762C22.7601 31.8338 22.7202 31.7968 22.6829 31.7624C22.6083 31.6922 22.5458 31.6339 22.4845 31.573L21.9159 31.0078C21.1809 30.2783 20.4206 29.5237 19.6763 28.7797C19.4246 28.5282 19.1716 28.4064 18.9026 28.4064C18.8307 28.4064 18.7561 28.4143 18.6789 28.4315C18.2848 28.5176 18.0371 28.7453 17.9213 29.1266C17.8014 29.5224 17.9 29.8507 18.2435 30.1909C18.7175 30.6622 19.1916 31.1335 19.6656 31.6048C20.9253 32.8585 22.2275 34.1545 23.5191 35.4188C23.6829 35.579 23.8933 35.7114 24.117 35.8517C24.1929 35.8994 24.2701 35.9484 24.3487 36H24.6656C24.7455 35.947 24.8267 35.8954 24.9053 35.8464C25.1356 35.7008 25.3527 35.5631 25.5218 35.3963H25.5204Z" fill="#FF671F"/>
<path d="M8.647 35.3963C9.79613 34.2724 10.9559 33.118 12.0771 32.002C12.6749 31.4076 13.2728 30.8118 13.872 30.2187C14.2022 29.8917 14.3168 29.5859 14.2448 29.2259C14.165 28.8313 13.9413 28.5798 13.5604 28.4593C13.4446 28.4223 13.3327 28.4037 13.2275 28.4037C12.9719 28.4037 12.7389 28.511 12.5138 28.7321C11.868 29.3688 11.2142 30.0188 10.5831 30.6477C10.2662 30.9627 9.94793 31.2791 9.63102 31.5942C9.57376 31.6511 9.51384 31.7067 9.43927 31.7769C9.40199 31.8113 9.36071 31.8497 9.31411 31.8947L8.63901 32.5328V31.6075C8.63901 31.0607 8.64034 30.5219 8.64167 29.9897C8.64567 28.7638 8.64833 27.6068 8.63368 26.4312C8.61371 24.8042 9.23155 23.4777 10.4686 22.4901C10.9439 22.1101 11.0278 21.5104 10.6683 21.063C10.4712 20.8181 10.1996 20.683 9.90398 20.683C9.65898 20.683 9.4153 20.7744 9.19826 20.9465C7.53648 22.2703 6.67364 23.998 6.63236 26.0817C6.60839 27.2533 6.61505 28.4474 6.62037 29.6018C6.62304 30.1261 6.6257 30.6503 6.6257 31.1746V31.769L6.42197 31.8828L5.99321 32.1211L5.78549 31.8272C5.75886 31.7888 5.73356 31.7504 5.70826 31.7107C5.67098 31.6538 5.63636 31.5995 5.60706 31.5691C4.76685 30.7284 3.77085 29.7342 2.75088 28.7307C2.52718 28.5096 2.29416 28.4024 2.0385 28.4024C1.9413 28.4024 1.83743 28.4183 1.72958 28.4501C1.34609 28.5626 1.11573 28.8088 1.02652 29.2007C0.94263 29.5674 1.05581 29.8812 1.39403 30.2161C1.99323 30.8092 2.58976 31.4036 3.18763 31.998C4.3088 33.114 5.46858 34.2684 6.61904 35.3937C6.78948 35.5592 7.00652 35.6982 7.23555 35.8438C7.31411 35.8941 7.39401 35.9444 7.4739 35.9974H7.78948C7.86937 35.9444 7.9506 35.8928 8.02916 35.8438C8.25952 35.6982 8.47656 35.5605 8.64567 35.3937L8.647 35.3963Z" fill="#FF671F"/>
<path d="M26.1889 5.11586C26.2421 5.16616 26.2874 5.20853 26.3287 5.24692C26.4073 5.32105 26.4698 5.3793 26.5298 5.43888C26.8413 5.74733 27.1516 6.05711 27.4618 6.36557C28.093 6.99308 28.7441 7.64177 29.3886 8.27722C29.6136 8.4983 29.8467 8.60553 30.1023 8.60553C30.2075 8.60553 30.3194 8.587 30.4352 8.54993C30.8147 8.42946 31.0384 8.17793 31.1183 7.78342C31.1902 7.42465 31.0757 7.11884 30.7455 6.79053C29.6096 5.66525 28.4565 4.5188 27.342 3.41073C26.6869 2.7594 26.0304 2.10674 25.3753 1.45541C25.0744 1.15621 24.7814 1.0053 24.5071 1.0053C24.2328 1.0053 23.9439 1.15621 23.6456 1.45143C21.872 3.21348 20.0997 4.97553 18.3274 6.7389L18.3114 6.75479C18.2249 6.84084 18.1436 6.92159 18.0824 7.00367C17.8787 7.27638 17.8227 7.61264 17.9319 7.92507C18.0411 8.23882 18.2941 8.4705 18.6257 8.56184C18.7242 8.58832 18.8187 8.60156 18.9093 8.60156C19.1756 8.60156 19.4259 8.48109 19.6736 8.23485L23.5018 4.41554V5.82941C23.5018 6.31394 23.5018 6.7998 23.4991 7.28433C23.4965 8.37518 23.4938 9.50443 23.5045 10.6125C23.5204 12.221 22.9039 13.5356 21.6709 14.5192C21.1956 14.8978 21.1117 15.4988 21.4699 15.9463C21.6656 16.1912 21.9386 16.3262 22.2355 16.3262C22.4805 16.3262 22.7242 16.2349 22.9399 16.0628C24.5937 14.7469 25.4565 13.0298 25.5045 10.9593C25.5324 9.77979 25.5258 8.57773 25.5191 7.41539C25.5164 6.89644 25.5138 6.36028 25.5138 5.83206V4.47114L26.1889 5.11321V5.11586Z" fill="#FF671F"/>
<path d="M25.5204 35.3963C26.6656 34.275 27.8214 33.1259 28.9385 32.0126C29.5404 31.4142 30.1423 30.8145 30.7455 30.2174C31.0757 29.8904 31.1902 29.5846 31.117 29.2245C31.0371 28.83 30.8134 28.5798 30.4325 28.4593C30.318 28.4223 30.2062 28.4051 30.101 28.4051C29.8453 28.4051 29.611 28.5123 29.3859 28.7347C28.7441 29.3675 28.0943 30.0149 27.4658 30.6397C27.1449 30.9588 26.8227 31.2791 26.5018 31.5982C26.4445 31.6551 26.3846 31.7107 26.3101 31.7796C26.2728 31.814 26.2328 31.8524 26.1862 31.8961L25.5125 32.5315V31.6075C25.5125 31.1084 25.5125 30.6159 25.5125 30.1287C25.5138 28.8287 25.5151 27.6015 25.5071 26.3557C25.5045 25.9837 25.4911 25.4979 25.4059 25.0345C25.0038 22.8396 23.7575 21.2086 21.7015 20.1853C20.3154 19.4955 18.9293 18.8071 17.5431 18.1174C15.5005 17.102 13.3887 16.0535 11.3128 15.0183C9.55778 14.1432 8.66031 12.7187 8.643 10.7833C8.63235 9.57062 8.63501 8.33811 8.63768 7.14665C8.63768 6.68065 8.64034 6.21465 8.64034 5.74866C8.64034 5.66525 8.64833 5.58715 8.65499 5.51831C8.65765 5.49051 8.66031 5.46403 8.66165 5.43623L8.70425 4.87492L9.22223 5.10262C9.43128 5.19529 9.55379 5.32635 9.643 5.42167C9.65898 5.43888 9.67629 5.45741 9.6936 5.47462C9.91064 5.69041 10.1264 5.90752 10.3434 6.12463C11.0638 6.84481 11.8081 7.59014 12.5511 8.30899C12.7508 8.50227 13.0038 8.60818 13.2635 8.60818C13.5231 8.60818 13.7815 8.49962 13.9759 8.30237C14.37 7.90389 14.3687 7.30418 13.9759 6.90835C12.0971 5.02054 10.1996 3.13405 8.33675 1.30316C8.13435 1.10458 7.89334 1 7.63901 1C7.38469 1 7.11971 1.11385 6.91065 1.32037C5.1024 3.10492 3.1823 5.00333 1.33011 6.88452C1.18364 7.03412 1.05981 7.3108 1.01587 7.59014C0.958609 7.9542 1.19696 8.33282 1.59376 8.51154C1.73624 8.57641 1.88138 8.60818 2.02252 8.60818C2.27818 8.60818 2.52452 8.49962 2.7349 8.2931C3.39402 7.64839 4.05847 6.98646 4.70161 6.34572C5.00786 6.04123 5.31279 5.73674 5.61905 5.43226C5.68163 5.37004 5.74288 5.31443 5.82144 5.24295C5.86006 5.2072 5.904 5.16749 5.95327 5.12115L6.6257 4.49762V5.81353C6.6257 6.27687 6.6257 6.74022 6.62304 7.20357C6.62037 8.36194 6.61638 9.5587 6.63369 10.7356C6.64301 11.3525 6.70027 11.8794 6.80812 12.3454C7.2755 14.351 8.48987 15.8549 10.4166 16.8134L11.7375 17.4714C14.6789 18.9355 17.7202 20.45 20.7149 21.9288C22.5817 22.8502 23.5178 24.362 23.5005 26.4246C23.4912 27.4929 23.4938 28.5811 23.4951 29.6323C23.4951 30.1578 23.4965 30.6821 23.4965 31.2077C23.4965 31.2911 23.4912 31.3705 23.4858 31.4618C23.4832 31.5055 23.4805 31.5532 23.4778 31.6075L23.4366 32.4746L22.8041 31.8762C22.7601 31.8338 22.7202 31.7968 22.6829 31.7624C22.6083 31.6922 22.5458 31.6339 22.4845 31.573L21.9159 31.0078C21.1809 30.2783 20.4206 29.5237 19.6763 28.7797C19.4246 28.5282 19.1716 28.4064 18.9026 28.4064C18.8307 28.4064 18.7561 28.4143 18.6789 28.4315C18.2848 28.5176 18.0371 28.7453 17.9213 29.1266C17.8014 29.5224 17.9 29.8507 18.2435 30.1909C18.7175 30.6622 19.1916 31.1335 19.6656 31.6048C20.9253 32.8585 22.2275 34.1545 23.5191 35.4188C23.6829 35.579 23.8933 35.7114 24.117 35.8517C24.1929 35.8994 24.2701 35.9484 24.3487 36H24.6656C24.7455 35.947 24.8267 35.8954 24.9053 35.8464C25.1356 35.7008 25.3527 35.5631 25.5218 35.3963H25.5204Z" stroke="#FF671F" stroke-width="0.6" mask="url(#path-1-outside-1_4_4817)"/>
<path d="M8.647 35.3963C9.79613 34.2724 10.9559 33.118 12.0771 32.002C12.6749 31.4076 13.2728 30.8118 13.872 30.2187C14.2022 29.8917 14.3168 29.5859 14.2448 29.2259C14.165 28.8313 13.9413 28.5798 13.5604 28.4593C13.4446 28.4223 13.3327 28.4037 13.2275 28.4037C12.9719 28.4037 12.7389 28.511 12.5138 28.7321C11.868 29.3688 11.2142 30.0188 10.5831 30.6477C10.2662 30.9627 9.94793 31.2791 9.63102 31.5942C9.57376 31.6511 9.51384 31.7067 9.43927 31.7769C9.40199 31.8113 9.36071 31.8497 9.31411 31.8947L8.63901 32.5328V31.6075C8.63901 31.0607 8.64034 30.5219 8.64167 29.9897C8.64567 28.7638 8.64833 27.6068 8.63368 26.4312C8.61371 24.8042 9.23155 23.4777 10.4686 22.4901C10.9439 22.1101 11.0278 21.5104 10.6683 21.063C10.4712 20.8181 10.1996 20.683 9.90398 20.683C9.65898 20.683 9.4153 20.7744 9.19826 20.9465C7.53648 22.2703 6.67364 23.998 6.63236 26.0817C6.60839 27.2533 6.61505 28.4474 6.62037 29.6018C6.62304 30.1261 6.6257 30.6503 6.6257 31.1746V31.769L6.42197 31.8828L5.99321 32.1211L5.78549 31.8272C5.75886 31.7888 5.73356 31.7504 5.70826 31.7107C5.67098 31.6538 5.63636 31.5995 5.60706 31.5691C4.76685 30.7284 3.77085 29.7342 2.75088 28.7307C2.52718 28.5096 2.29416 28.4024 2.0385 28.4024C1.9413 28.4024 1.83743 28.4183 1.72958 28.4501C1.34609 28.5626 1.11573 28.8088 1.02652 29.2007C0.94263 29.5674 1.05581 29.8812 1.39403 30.2161C1.99323 30.8092 2.58976 31.4036 3.18763 31.998C4.3088 33.114 5.46858 34.2684 6.61904 35.3937C6.78948 35.5592 7.00652 35.6982 7.23555 35.8438C7.31411 35.8941 7.39401 35.9444 7.4739 35.9974H7.78948C7.86937 35.9444 7.9506 35.8928 8.02916 35.8438C8.25952 35.6982 8.47656 35.5605 8.64567 35.3937L8.647 35.3963Z" stroke="#FF671F" stroke-width="0.6" mask="url(#path-1-outside-1_4_4817)"/>
<path d="M26.1889 5.11586C26.2421 5.16616 26.2874 5.20853 26.3287 5.24692C26.4073 5.32105 26.4698 5.3793 26.5298 5.43888C26.8413 5.74733 27.1516 6.05711 27.4618 6.36557C28.093 6.99308 28.7441 7.64177 29.3886 8.27722C29.6136 8.4983 29.8467 8.60553 30.1023 8.60553C30.2075 8.60553 30.3194 8.587 30.4352 8.54993C30.8147 8.42946 31.0384 8.17793 31.1183 7.78342C31.1902 7.42465 31.0757 7.11884 30.7455 6.79053C29.6096 5.66525 28.4565 4.5188 27.342 3.41073C26.6869 2.7594 26.0304 2.10674 25.3753 1.45541C25.0744 1.15621 24.7814 1.0053 24.5071 1.0053C24.2328 1.0053 23.9439 1.15621 23.6456 1.45143C21.872 3.21348 20.0997 4.97553 18.3274 6.7389L18.3114 6.75479C18.2249 6.84084 18.1436 6.92159 18.0824 7.00367C17.8787 7.27638 17.8227 7.61264 17.9319 7.92507C18.0411 8.23882 18.2941 8.4705 18.6257 8.56184C18.7242 8.58832 18.8187 8.60156 18.9093 8.60156C19.1756 8.60156 19.4259 8.48109 19.6736 8.23485L23.5018 4.41554V5.82941C23.5018 6.31394 23.5018 6.7998 23.4991 7.28433C23.4965 8.37518 23.4938 9.50443 23.5045 10.6125C23.5204 12.221 22.9039 13.5356 21.6709 14.5192C21.1956 14.8978 21.1117 15.4988 21.4699 15.9463C21.6656 16.1912 21.9386 16.3262 22.2355 16.3262C22.4805 16.3262 22.7242 16.2349 22.9399 16.0628C24.5937 14.7469 25.4565 13.0298 25.5045 10.9593C25.5324 9.77979 25.5258 8.57773 25.5191 7.41539C25.5164 6.89644 25.5138 6.36028 25.5138 5.83206V4.47114L26.1889 5.11321V5.11586Z" stroke="#FF671F" stroke-width="0.6" mask="url(#path-1-outside-1_4_4817)"/>
</svg>
