<svg width="37" height="17" viewBox="0 0 37 17" fill="none" xmlns="http://www.w3.org/2000/svg">
<path d="M21.9477 14.3786L21.9478 14.3786L21.8997 14.3275L21.8965 14.3241L21.8965 14.3241L13.1563 4.45394C12.3593 3.66762 11.3477 3.13417 10.2486 2.92057C9.14789 2.70666 8.00848 2.82311 6.97377 3.25527C5.93906 3.68742 5.0553 4.41598 4.43369 5.34924C3.81209 6.28251 3.48042 7.37878 3.48042 8.50011C3.48042 9.62144 3.81209 10.7177 4.43369 11.651C5.0553 12.5842 5.93907 13.3128 6.97377 13.745C8.00848 14.1771 9.14789 14.2936 10.2486 14.0796C11.3477 13.8661 12.3593 13.3326 13.1563 12.5463L14.3955 11.1471L21.9477 14.3786ZM21.9477 14.3786L21.9509 14.3817M21.9477 14.3786L21.9509 14.3817M21.9509 14.3817C23.1141 15.5451 24.5962 16.3374 26.2097 16.6583C27.8232 16.9793 29.4957 16.8146 31.0156 16.185C32.5355 15.5554 33.8345 14.4893 34.7484 13.1214C35.6624 11.7534 36.1501 10.1452 36.15 8.5001C36.1501 6.85499 35.6624 5.24677 34.7484 3.87886C33.8345 2.51095 32.5355 1.44478 31.0156 0.8152C29.4957 0.185619 27.8232 0.0209041 26.2097 0.341886C24.5962 0.662868 23.1141 1.45513 21.9509 2.61847L21.9508 2.61842L21.9478 2.62163L21.8997 2.67268L21.8996 2.67263L21.8965 2.67611L20.6291 4.10688L20.629 4.10699M21.9509 14.3817L20.629 4.10699M16.3704 12.8932L16.3703 12.8933L15.1029 14.3241L15.0998 14.3276L15.0997 14.3275L15.0516 14.3786L15.0486 14.3818L15.0485 14.3818C13.8853 15.5449 12.4032 16.337 10.7898 16.6578C9.17642 16.9787 7.5041 16.8139 5.98433 16.1844C4.46455 15.5548 3.16559 14.4888 2.25169 13.121C1.33779 11.7532 0.85 10.1451 0.85 8.50011C0.85 6.8551 1.33779 5.24704 2.25169 3.87925C3.16559 2.51147 4.46455 1.44539 5.98433 0.815836C7.5041 0.18628 9.17642 0.0215172 10.7898 0.34238C12.4032 0.663244 13.8853 1.45532 15.0485 2.61846L15.0517 2.62159L15.0516 2.62163L15.0997 2.67268L15.103 2.67609L15.1029 2.67613L23.8432 12.5463C24.6402 13.3326 25.6517 13.8661 26.7508 14.0796C27.8515 14.2936 28.9909 14.1771 30.0256 13.745C31.0603 13.3128 31.9441 12.5842 32.5657 11.651C33.1873 10.7177 33.519 9.62144 33.519 8.50011C33.519 7.37878 33.1873 6.28251 32.5657 5.34924C31.9441 4.41598 31.0603 3.68742 30.0256 3.25527C28.9909 2.82311 27.8515 2.70666 26.7508 2.92057C25.6517 3.13417 24.6402 3.66762 23.8432 4.45394L22.6039 5.85315L16.3704 12.8932ZM16.3704 12.8932C16.4851 12.7636 16.573 12.6126 16.6293 12.4489C16.6856 12.2852 16.7092 12.112 16.6985 11.9393C16.6879 11.7665 16.6434 11.5975 16.5674 11.442C16.4915 11.2864 16.3857 11.1473 16.256 11.0327C16.1263 10.918 15.9754 10.83 15.8117 10.7737C15.648 10.7174 15.4748 10.6939 15.3021 10.7045C15.1293 10.7152 14.9603 10.7597 14.8048 10.8356C14.6492 10.9116 14.5102 11.0173 14.3956 11.147L16.3704 12.8932ZM20.629 4.10699C20.3975 4.36888 20.2794 4.71203 20.3009 5.06095C20.3223 5.40987 20.4815 5.73598 20.7434 5.96753C21.0053 6.19909 21.3484 6.31712 21.6974 6.29567C22.0462 6.27422 22.3723 6.11508 22.6039 5.85324L20.629 4.10699Z" fill="#FF671F" stroke="#FF671F" stroke-width="0.3"/>
</svg>
