<svg width="46" height="29" viewBox="0 0 46 29" fill="none" xmlns="http://www.w3.org/2000/svg">
<mask id="path-1-outside-1_4_4796" maskUnits="userSpaceOnUse" x="0" y="-0.5" width="46" height="30" fill="black">
<rect fill="white" y="-0.5" width="46" height="30"/>
<path d="M39.6312 14.5581C39.4847 14.526 39.337 14.4976 39.1906 14.4705C40.5174 8.41191 37.148 3.38897 33.0749 1.52971C30.7754 0.479259 28.4219 0.231441 26.0816 0.79119C22.9463 1.54204 20.5231 3.40746 18.8768 6.3369C16.1451 5.517 13.2824 5.95222 10.9949 7.54147C8.71338 9.12701 7.26403 11.636 6.99745 14.4496C5.05578 14.7134 3.31344 15.7984 2.21352 17.4283C1.10879 19.0656 0.735348 21.132 1.18805 23.0985C1.93133 26.3251 4.68834 28.4951 8.04934 28.4963C12.0564 28.4988 16.0802 28.5 20.1317 28.5C26.0167 28.5 31.9582 28.4988 37.9778 28.4963C38.2804 28.4963 38.6118 28.4741 38.9912 28.4273C42.2598 28.0253 44.8391 25.2352 44.9916 21.9371C45.1561 18.3863 42.901 15.283 39.6312 14.5581ZM37.2981 14.7664C37.2117 15.0525 37.1204 15.4692 37.3269 15.7762C37.5335 16.0832 37.9453 16.1436 38.2371 16.1621C40.5042 16.3051 42.0652 17.4098 42.877 19.4429C43.6815 21.4588 43.3357 23.3969 41.8767 25.0478C40.8981 26.1562 39.6096 26.7184 38.0474 26.7184C35.3841 26.7197 32.7207 26.7184 30.0574 26.7184H22.9979C21.5306 26.7184 20.062 26.7184 18.5947 26.7184C15.1052 26.7197 11.4968 26.7209 7.94728 26.7147C5.30434 26.7098 3.22698 24.9085 2.77909 22.2318C2.55214 20.8793 2.90637 19.4404 3.74812 18.2852C4.58867 17.1324 5.83149 16.3803 7.15596 16.2237C7.30245 16.2065 7.43214 16.1942 7.54741 16.1818C8.62212 16.0758 8.67495 15.8945 8.76741 14.5026C8.8911 12.6606 9.79769 10.8605 11.2566 9.56223C12.6051 8.3626 14.303 7.69682 15.9817 7.69682C16.1402 7.69682 16.3 7.70298 16.4585 7.71531C17.1885 7.77079 17.9318 7.97546 18.6511 8.17273L18.818 8.21834C19.458 8.39342 19.8051 8.35273 20.1713 7.6438C22.0673 3.98324 25.0393 2.19303 29.0079 2.31755C33.4064 2.45687 37.2249 6.14949 37.6992 10.7237C37.8397 12.0811 37.7088 13.4028 37.2969 14.7652L37.2981 14.7664Z"/>
<path d="M27.9548 15.0636C26.9389 14.2979 25.6565 14.0797 24.344 14.4496C22.5032 14.9686 21.3361 16.7625 21.3721 19.0299L21.3757 19.0965C21.3805 19.1914 21.3877 19.3455 21.3997 19.4984C21.5114 20.9631 22.2535 22.2121 23.4338 22.9247C24.0738 23.3118 24.7859 23.5066 25.51 23.5066C26.1236 23.5066 26.7456 23.3673 27.3436 23.0874C28.8902 22.3625 29.7692 20.7079 29.6947 18.6612C29.6407 17.1669 29.0055 15.8551 27.9536 15.0623L27.9548 15.0636ZM27.6618 20.4835C27.2103 21.4723 26.2437 22.0358 25.2542 21.8853C24.1099 21.7115 23.3234 20.9076 23.1504 19.7351C23.1192 19.5243 23.1084 19.3036 23.0988 19.11C23.0952 19.0323 23.0916 18.9571 23.0868 18.8881C23.1 18.7697 23.1108 18.6575 23.1204 18.5503C23.142 18.3246 23.16 18.1298 23.1961 17.9424C23.4434 16.6836 24.2948 15.9167 25.4764 15.8884C26.6303 15.8588 27.5105 16.5813 27.8203 17.8155C28.0737 18.824 28.022 19.6981 27.6618 20.4872V20.4835Z"/>
<path d="M18.3057 20.126C18.2817 20.2123 18.2601 20.2875 18.2384 20.3627C17.9587 21.3071 17.2262 21.9001 16.3268 21.9088C15.2941 21.9199 14.5088 21.3478 14.2146 20.3775C13.9156 19.3924 13.912 18.4048 14.2026 17.4406C14.492 16.4802 15.2089 15.9278 16.2223 15.8847C17.1878 15.8452 17.7701 16.2607 18.164 17.2816C18.1808 17.3247 18.2012 17.3667 18.2276 17.416C18.2372 17.4357 18.2493 17.4567 18.2601 17.4813L18.3453 17.6552L19.9664 17.2557L19.8703 16.9943C19.8403 16.9142 19.8151 16.8365 19.7899 16.7625C19.7358 16.6022 19.6842 16.4494 19.6133 16.3014C18.9889 14.992 17.8902 14.3004 16.4349 14.3004H16.4325C14.7309 14.3004 13.5037 15.0167 12.7821 16.4272C12.3162 17.3383 12.1661 18.3678 12.309 19.6673C12.5539 21.9014 13.8183 23.2551 15.8681 23.4783C16.017 23.4943 16.1635 23.5017 16.3088 23.5017C18.1772 23.5017 19.7466 22.196 19.9736 20.3738L20 20.158L18.4138 19.7413L18.3057 20.1235V20.126Z"/>
<path d="M33.6693 21.9667L33.7306 21.9014C34.0392 21.5734 34.3586 21.2331 34.5879 20.8312C34.9398 20.2135 34.8149 19.3899 34.2913 18.8733C33.7618 18.3505 32.7928 18.21 32.0855 18.5515C31.4359 18.8647 31.0816 19.5329 31.1585 20.2961L31.1789 20.5032L32.4253 20.5895L32.4505 20.354C32.4565 20.2961 32.4577 20.2443 32.4601 20.1999C32.4601 20.1851 32.4601 20.1716 32.4601 20.1592C32.4974 20.1087 32.5334 20.0544 32.5706 19.999C32.6475 19.8831 32.7651 19.7092 32.836 19.6907C32.9693 19.6562 33.2479 19.7585 33.3067 19.8461C33.3535 19.9164 33.3463 20.1716 33.2611 20.4256C33.2178 20.5526 33.0798 20.6845 32.9453 20.8127C32.9188 20.8374 32.8924 20.8632 32.8672 20.8879C32.7003 21.0507 32.5238 21.2134 32.3533 21.3687C32.1047 21.5968 31.8489 21.8311 31.6088 22.0814C31.311 22.3921 30.9267 22.8889 31.0372 23.6176L31.0684 23.826H34.7416V22.4735H33.1326C33.3271 22.3021 33.5024 22.143 33.6681 21.9667H33.6693Z"/>
</mask>
<path d="M39.6312 14.5581C39.4847 14.526 39.337 14.4976 39.1906 14.4705C40.5174 8.41191 37.148 3.38897 33.0749 1.52971C30.7754 0.479259 28.4219 0.231441 26.0816 0.79119C22.9463 1.54204 20.5231 3.40746 18.8768 6.3369C16.1451 5.517 13.2824 5.95222 10.9949 7.54147C8.71338 9.12701 7.26403 11.636 6.99745 14.4496C5.05578 14.7134 3.31344 15.7984 2.21352 17.4283C1.10879 19.0656 0.735348 21.132 1.18805 23.0985C1.93133 26.3251 4.68834 28.4951 8.04934 28.4963C12.0564 28.4988 16.0802 28.5 20.1317 28.5C26.0167 28.5 31.9582 28.4988 37.9778 28.4963C38.2804 28.4963 38.6118 28.4741 38.9912 28.4273C42.2598 28.0253 44.8391 25.2352 44.9916 21.9371C45.1561 18.3863 42.901 15.283 39.6312 14.5581ZM37.2981 14.7664C37.2117 15.0525 37.1204 15.4692 37.3269 15.7762C37.5335 16.0832 37.9453 16.1436 38.2371 16.1621C40.5042 16.3051 42.0652 17.4098 42.877 19.4429C43.6815 21.4588 43.3357 23.3969 41.8767 25.0478C40.8981 26.1562 39.6096 26.7184 38.0474 26.7184C35.3841 26.7197 32.7207 26.7184 30.0574 26.7184H22.9979C21.5306 26.7184 20.062 26.7184 18.5947 26.7184C15.1052 26.7197 11.4968 26.7209 7.94728 26.7147C5.30434 26.7098 3.22698 24.9085 2.77909 22.2318C2.55214 20.8793 2.90637 19.4404 3.74812 18.2852C4.58867 17.1324 5.83149 16.3803 7.15596 16.2237C7.30245 16.2065 7.43214 16.1942 7.54741 16.1818C8.62212 16.0758 8.67495 15.8945 8.76741 14.5026C8.8911 12.6606 9.79769 10.8605 11.2566 9.56223C12.6051 8.3626 14.303 7.69682 15.9817 7.69682C16.1402 7.69682 16.3 7.70298 16.4585 7.71531C17.1885 7.77079 17.9318 7.97546 18.6511 8.17273L18.818 8.21834C19.458 8.39342 19.8051 8.35273 20.1713 7.6438C22.0673 3.98324 25.0393 2.19303 29.0079 2.31755C33.4064 2.45687 37.2249 6.14949 37.6992 10.7237C37.8397 12.0811 37.7088 13.4028 37.2969 14.7652L37.2981 14.7664Z" fill="#FF671F"/>
<path d="M27.9548 15.0636C26.9389 14.2979 25.6565 14.0797 24.344 14.4496C22.5032 14.9686 21.3361 16.7625 21.3721 19.0299L21.3757 19.0965C21.3805 19.1914 21.3877 19.3455 21.3997 19.4984C21.5114 20.9631 22.2535 22.2121 23.4338 22.9247C24.0738 23.3118 24.7859 23.5066 25.51 23.5066C26.1236 23.5066 26.7456 23.3673 27.3436 23.0874C28.8902 22.3625 29.7692 20.7079 29.6947 18.6612C29.6407 17.1669 29.0055 15.8551 27.9536 15.0623L27.9548 15.0636ZM27.6618 20.4835C27.2103 21.4723 26.2437 22.0358 25.2542 21.8853C24.1099 21.7115 23.3234 20.9076 23.1504 19.7351C23.1192 19.5243 23.1084 19.3036 23.0988 19.11C23.0952 19.0323 23.0916 18.9571 23.0868 18.8881C23.1 18.7697 23.1108 18.6575 23.1204 18.5503C23.142 18.3246 23.16 18.1298 23.1961 17.9424C23.4434 16.6836 24.2948 15.9167 25.4764 15.8884C26.6303 15.8588 27.5105 16.5813 27.8203 17.8155C28.0737 18.824 28.022 19.6981 27.6618 20.4872V20.4835Z" fill="#FF671F"/>
<path d="M18.3057 20.126C18.2817 20.2123 18.2601 20.2875 18.2384 20.3627C17.9587 21.3071 17.2262 21.9001 16.3268 21.9088C15.2941 21.9199 14.5088 21.3478 14.2146 20.3775C13.9156 19.3924 13.912 18.4048 14.2026 17.4406C14.492 16.4802 15.2089 15.9278 16.2223 15.8847C17.1878 15.8452 17.7701 16.2607 18.164 17.2816C18.1808 17.3247 18.2012 17.3667 18.2276 17.416C18.2372 17.4357 18.2493 17.4567 18.2601 17.4813L18.3453 17.6552L19.9664 17.2557L19.8703 16.9943C19.8403 16.9142 19.8151 16.8365 19.7899 16.7625C19.7358 16.6022 19.6842 16.4494 19.6133 16.3014C18.9889 14.992 17.8902 14.3004 16.4349 14.3004H16.4325C14.7309 14.3004 13.5037 15.0167 12.7821 16.4272C12.3162 17.3383 12.1661 18.3678 12.309 19.6673C12.5539 21.9014 13.8183 23.2551 15.8681 23.4783C16.017 23.4943 16.1635 23.5017 16.3088 23.5017C18.1772 23.5017 19.7466 22.196 19.9736 20.3738L20 20.158L18.4138 19.7413L18.3057 20.1235V20.126Z" fill="#FF671F"/>
<path d="M33.6693 21.9667L33.7306 21.9014C34.0392 21.5734 34.3586 21.2331 34.5879 20.8312C34.9398 20.2135 34.8149 19.3899 34.2913 18.8733C33.7618 18.3505 32.7928 18.21 32.0855 18.5515C31.4359 18.8647 31.0816 19.5329 31.1585 20.2961L31.1789 20.5032L32.4253 20.5895L32.4505 20.354C32.4565 20.2961 32.4577 20.2443 32.4601 20.1999C32.4601 20.1851 32.4601 20.1716 32.4601 20.1592C32.4974 20.1087 32.5334 20.0544 32.5706 19.999C32.6475 19.8831 32.7651 19.7092 32.836 19.6907C32.9693 19.6562 33.2479 19.7585 33.3067 19.8461C33.3535 19.9164 33.3463 20.1716 33.2611 20.4256C33.2178 20.5526 33.0798 20.6845 32.9453 20.8127C32.9188 20.8374 32.8924 20.8632 32.8672 20.8879C32.7003 21.0507 32.5238 21.2134 32.3533 21.3687C32.1047 21.5968 31.8489 21.8311 31.6088 22.0814C31.311 22.3921 30.9267 22.8889 31.0372 23.6176L31.0684 23.826H34.7416V22.4735H33.1326C33.3271 22.3021 33.5024 22.143 33.6681 21.9667H33.6693Z" fill="#FF671F"/>
<path d="M39.6312 14.5581C39.4847 14.526 39.337 14.4976 39.1906 14.4705C40.5174 8.41191 37.148 3.38897 33.0749 1.52971C30.7754 0.479259 28.4219 0.231441 26.0816 0.79119C22.9463 1.54204 20.5231 3.40746 18.8768 6.3369C16.1451 5.517 13.2824 5.95222 10.9949 7.54147C8.71338 9.12701 7.26403 11.636 6.99745 14.4496C5.05578 14.7134 3.31344 15.7984 2.21352 17.4283C1.10879 19.0656 0.735348 21.132 1.18805 23.0985C1.93133 26.3251 4.68834 28.4951 8.04934 28.4963C12.0564 28.4988 16.0802 28.5 20.1317 28.5C26.0167 28.5 31.9582 28.4988 37.9778 28.4963C38.2804 28.4963 38.6118 28.4741 38.9912 28.4273C42.2598 28.0253 44.8391 25.2352 44.9916 21.9371C45.1561 18.3863 42.901 15.283 39.6312 14.5581ZM37.2981 14.7664C37.2117 15.0525 37.1204 15.4692 37.3269 15.7762C37.5335 16.0832 37.9453 16.1436 38.2371 16.1621C40.5042 16.3051 42.0652 17.4098 42.877 19.4429C43.6815 21.4588 43.3357 23.3969 41.8767 25.0478C40.8981 26.1562 39.6096 26.7184 38.0474 26.7184C35.3841 26.7197 32.7207 26.7184 30.0574 26.7184H22.9979C21.5306 26.7184 20.062 26.7184 18.5947 26.7184C15.1052 26.7197 11.4968 26.7209 7.94728 26.7147C5.30434 26.7098 3.22698 24.9085 2.77909 22.2318C2.55214 20.8793 2.90637 19.4404 3.74812 18.2852C4.58867 17.1324 5.83149 16.3803 7.15596 16.2237C7.30245 16.2065 7.43214 16.1942 7.54741 16.1818C8.62212 16.0758 8.67495 15.8945 8.76741 14.5026C8.8911 12.6606 9.79769 10.8605 11.2566 9.56223C12.6051 8.3626 14.303 7.69682 15.9817 7.69682C16.1402 7.69682 16.3 7.70298 16.4585 7.71531C17.1885 7.77079 17.9318 7.97546 18.6511 8.17273L18.818 8.21834C19.458 8.39342 19.8051 8.35273 20.1713 7.6438C22.0673 3.98324 25.0393 2.19303 29.0079 2.31755C33.4064 2.45687 37.2249 6.14949 37.6992 10.7237C37.8397 12.0811 37.7088 13.4028 37.2969 14.7652L37.2981 14.7664Z" stroke="#FF671F" strokeWidth="0.8" mask="url(#path-1-outside-1_4_4796)"/>
<path d="M27.9548 15.0636C26.9389 14.2979 25.6565 14.0797 24.344 14.4496C22.5032 14.9686 21.3361 16.7625 21.3721 19.0299L21.3757 19.0965C21.3805 19.1914 21.3877 19.3455 21.3997 19.4984C21.5114 20.9631 22.2535 22.2121 23.4338 22.9247C24.0738 23.3118 24.7859 23.5066 25.51 23.5066C26.1236 23.5066 26.7456 23.3673 27.3436 23.0874C28.8902 22.3625 29.7692 20.7079 29.6947 18.6612C29.6407 17.1669 29.0055 15.8551 27.9536 15.0623L27.9548 15.0636ZM27.6618 20.4835C27.2103 21.4723 26.2437 22.0358 25.2542 21.8853C24.1099 21.7115 23.3234 20.9076 23.1504 19.7351C23.1192 19.5243 23.1084 19.3036 23.0988 19.11C23.0952 19.0323 23.0916 18.9571 23.0868 18.8881C23.1 18.7697 23.1108 18.6575 23.1204 18.5503C23.142 18.3246 23.16 18.1298 23.1961 17.9424C23.4434 16.6836 24.2948 15.9167 25.4764 15.8884C26.6303 15.8588 27.5105 16.5813 27.8203 17.8155C28.0737 18.824 28.022 19.6981 27.6618 20.4872V20.4835Z" stroke="#FF671F" strokeWidth="0.8" mask="url(#path-1-outside-1_4_4796)"/>
<path d="M18.3057 20.126C18.2817 20.2123 18.2601 20.2875 18.2384 20.3627C17.9587 21.3071 17.2262 21.9001 16.3268 21.9088C15.2941 21.9199 14.5088 21.3478 14.2146 20.3775C13.9156 19.3924 13.912 18.4048 14.2026 17.4406C14.492 16.4802 15.2089 15.9278 16.2223 15.8847C17.1878 15.8452 17.7701 16.2607 18.164 17.2816C18.1808 17.3247 18.2012 17.3667 18.2276 17.416C18.2372 17.4357 18.2493 17.4567 18.2601 17.4813L18.3453 17.6552L19.9664 17.2557L19.8703 16.9943C19.8403 16.9142 19.8151 16.8365 19.7899 16.7625C19.7358 16.6022 19.6842 16.4494 19.6133 16.3014C18.9889 14.992 17.8902 14.3004 16.4349 14.3004H16.4325C14.7309 14.3004 13.5037 15.0167 12.7821 16.4272C12.3162 17.3383 12.1661 18.3678 12.309 19.6673C12.5539 21.9014 13.8183 23.2551 15.8681 23.4783C16.017 23.4943 16.1635 23.5017 16.3088 23.5017C18.1772 23.5017 19.7466 22.196 19.9736 20.3738L20 20.158L18.4138 19.7413L18.3057 20.1235V20.126Z" stroke="#FF671F" strokeWidth="0.8" mask="url(#path-1-outside-1_4_4796)"/>
<path d="M33.6693 21.9667L33.7306 21.9014C34.0392 21.5734 34.3586 21.2331 34.5879 20.8312C34.9398 20.2135 34.8149 19.3899 34.2913 18.8733C33.7618 18.3505 32.7928 18.21 32.0855 18.5515C31.4359 18.8647 31.0816 19.5329 31.1585 20.2961L31.1789 20.5032L32.4253 20.5895L32.4505 20.354C32.4565 20.2961 32.4577 20.2443 32.4601 20.1999C32.4601 20.1851 32.4601 20.1716 32.4601 20.1592C32.4974 20.1087 32.5334 20.0544 32.5706 19.999C32.6475 19.8831 32.7651 19.7092 32.836 19.6907C32.9693 19.6562 33.2479 19.7585 33.3067 19.8461C33.3535 19.9164 33.3463 20.1716 33.2611 20.4256C33.2178 20.5526 33.0798 20.6845 32.9453 20.8127C32.9188 20.8374 32.8924 20.8632 32.8672 20.8879C32.7003 21.0507 32.5238 21.2134 32.3533 21.3687C32.1047 21.5968 31.8489 21.8311 31.6088 22.0814C31.311 22.3921 30.9267 22.8889 31.0372 23.6176L31.0684 23.826H34.7416V22.4735H33.1326C33.3271 22.3021 33.5024 22.143 33.6681 21.9667H33.6693Z" stroke="#FF671F" strokeWidth="0.8" mask="url(#path-1-outside-1_4_4796)"/>
</svg>
