<svg width="464" height="511" viewBox="0 0 464 511" fill="none" xmlns="http://www.w3.org/2000/svg">
<path d="M99.1286 418.958C81.9293 447.882 68.3944 478.95 56.2515 510.916C63.062 464.569 85.0492 427.308 108.469 390.807C81.6674 421.336 53.183 449.911 30.9932 485.442C33.2263 478.529 35.9077 472.045 39.2469 466.063C58.0875 432.308 84.0751 406.735 111.919 383.287C114.341 381.248 116.082 378.168 118.143 375.575C117.573 374.906 117.005 374.232 116.435 373.563C83.9964 402.554 47.5661 425.502 17.8597 458.786C17.8071 457.499 17.9867 456.502 18.472 455.773C21.1853 451.696 23.7293 447.431 26.769 443.698C51.6715 413.13 82.512 392.057 114.843 373.341C117.138 372.011 118.807 369.34 120.764 367.292C120.32 366.712 119.875 366.128 119.435 365.546C82.5352 389.94 44.1463 411.718 12.5474 445.391C11.9604 444.589 11.3726 443.783 10.7855 442.981C19.377 433.553 27.4602 423.419 36.6609 414.839C60.3483 392.755 87.6795 377.697 116.38 365.769C122.081 363.4 123.974 358.532 126.39 353.239C85.7826 374.513 43.2208 391.103 5.1885 418.511C14.0137 409.476 23.0543 400.747 33.1403 393.981C61.2957 375.08 91.8665 362.225 123.483 352.473C129.675 350.561 131.897 345.607 134.492 340.076C90.2264 361.229 43.4442 375.187 0.268122 399.455C7.25684 393.098 14.3631 386.845 22.2817 382.393C57.4192 362.633 94.6641 349.153 132.958 339.076C138.209 337.694 141.2 334.158 143.67 328.962C119.662 336.33 95.7113 343.753 72.2304 352.655C48.719 361.568 25.6689 371.959 2.01196 381.874C6.0254 378.71 9.69031 375.5 13.626 372.776C53.2127 345.342 97.4874 333.179 143.115 325.762C150.742 324.524 154.158 318.231 158.962 313.103C106.435 326.206 53.3743 336.512 3.0012 358.162C13.483 351.109 24.0688 344.193 35.3766 339.289C74.039 322.531 114.573 314.064 155.995 310.254C163.825 309.536 169.203 305.265 174.225 298.976C159.451 300.481 144.791 302.493 130.214 305.017C115.529 307.563 100.892 310.458 86.2942 313.497C71.6887 316.539 57.067 319.563 42.6162 323.316C28.4356 327.003 14.461 331.599 0.395691 335.798C1.95494 334.711 3.49985 333.255 5.28766 332.441C22.4771 324.652 39.2699 315.418 57.0075 309.582C94.7597 297.164 133.918 294.753 173.443 296.742C179.176 297.03 184.548 293.717 188.074 286.904C125.038 292.652 63.0636 300.908 3.78338 324.454C5.56892 322.68 7.42624 321.142 9.39216 319.8C23.8632 309.928 39.6783 303.411 56.0926 299.311C77.9529 293.854 100.017 289.071 122.224 285.531C143.186 282.188 164.502 281.027 185.811 284.012C194.899 285.285 200.834 280.267 206.77 274.27L206.715 274.4C207.438 274.001 208.159 273.599 208.882 273.201C207.641 273.264 206.405 273.314 205.169 273.227C167.002 270.574 129.231 273.464 91.9746 281.078C67.4544 286.089 43.2788 292.971 19.984 298.76C20.2634 298.583 21.5269 297.484 22.9693 296.885C40.6848 289.523 58.0754 280.912 76.2384 275.211C111.385 264.174 147.665 263.16 184.211 267.773C192.724 268.85 201.166 271.008 209.634 272.786C214.323 270.188 219.011 267.586 223.705 264.987C223.478 264.19 223.25 263.388 223.023 262.591C152.36 253.293 82.5743 253.426 15.3137 281.443C16.87 279.868 18.4817 278.605 20.2393 277.709C53.068 260.942 86.9475 248.024 123.416 244.707C155.631 241.773 187.508 245.564 218.375 257.856C228.517 261.891 235.157 258.714 242.463 252.128C228.737 248.846 214.997 245.842 201.171 244.001C187.052 242.121 172.857 240.856 158.691 240.279C144.7 239.71 130.682 239.984 116.717 240.541C102.572 241.104 88.4012 241.892 74.3714 243.632C60.7193 245.326 47.2328 248.351 33.6734 250.793C67.0894 235.039 102.336 227.709 138.64 225.248C106.431 224.105 74.8486 228.087 43.6339 235.719C45.1016 234.363 46.6403 233.371 48.2598 232.6C85.3157 215.04 124.422 211.097 164.527 214.543C194.951 217.155 224.331 226.573 253.134 238.215C262.866 242.151 270.143 240.004 278.548 233.385C242.908 218.941 207.442 207.934 170.932 203.007C134.047 198.028 97.8074 201.661 62.4524 213.316C62.6727 212.64 62.9129 212.34 63.2168 212.2C92.7905 198.554 123.95 192.832 155.965 191.87C197.768 190.612 236.827 203.657 273.712 227.045C281.94 232.263 289.14 231.838 297.394 223.383C278.518 216.112 260.648 208.309 242.361 202.441C223.852 196.503 205.055 191.285 186.149 187.948C167.429 184.645 148.418 183.196 129.543 182.579C110.73 181.964 91.9226 183.39 73.1155 183.923C92.0483 179.523 111.13 175.64 130.422 173.858C159.512 171.173 188.522 173.566 217.073 183.306C244.656 192.715 271.143 205.229 296.425 221.333C297.976 222.32 300.081 223.818 301.387 223.334C306.775 221.33 311.955 218.653 317.213 216.223C317.189 215.637 317.166 215.055 317.142 214.469C244.041 184.263 169.197 163.357 92.3952 151.942C94.2052 151.763 95.9718 151.517 97.7537 151.417C128.37 149.692 158.86 153.085 189.214 158.683C234.379 167.015 276.434 186.235 316.503 212.062C318.068 213.072 320.085 214.836 321.38 214.411C326.946 212.582 332.322 210.066 338.851 207.35C336.779 206.226 336.002 205.711 335.177 205.367C296.572 189.472 257.988 173.517 219.353 157.746C196.211 148.3 172.765 140.874 148.096 142.731C136.059 143.637 124.012 144.374 111.968 145.187C113.161 143.706 114.544 142.856 116.012 142.659C131.46 140.571 146.852 137.347 162.392 136.841C191.19 135.906 219.018 144.658 245.725 156.89C276.807 171.123 307.14 187.658 337.82 203.136C339.786 204.128 342.205 205.749 343.916 205.208C349.68 203.394 355.215 200.736 361.707 198.042C359.643 196.765 358.592 195.976 357.456 195.438C322.395 178.813 287.444 161.856 252.226 145.725C225.767 133.608 198.513 125.257 170.03 125.23C157.886 125.219 145.755 125.672 132.918 125.927C133.906 125.347 134.191 125.066 134.513 125.008C185 115.946 234.129 123.199 281.981 146.457C309.198 159.69 335.062 175.966 360.433 193.429C362.379 194.769 364.962 196.401 366.868 195.978C371.665 194.92 376.246 192.756 381.921 190.668C379.855 189.362 378.957 188.685 377.989 188.2C340.86 169.541 303.85 150.538 266.552 132.375C236.15 117.57 205.106 105.09 172.139 101.579C166.659 100.993 161.175 100.429 155.693 99.8562C156.747 98.8351 157.803 98.6069 158.868 98.5697C202.907 97.0781 245.019 108.794 286.091 127.628C318.077 142.297 347.703 162.285 376.324 184.165C384.86 190.688 391.055 187.858 399.383 183.807C326.333 141.413 254.525 98.654 173.204 86.3247C173.352 85.2625 173.505 84.1992 173.654 83.1368C182.619 83.1573 191.599 82.6248 200.545 83.302C237.229 86.0832 271.732 99.0761 304.181 119.143C335.357 138.42 365.756 159.421 396.535 179.572C398.825 181.071 401.721 183.209 403.877 182.724C410.698 181.197 417.304 178.569 423.99 176.367C424.098 175.761 424.206 175.155 424.317 174.548C351.186 128.909 274.922 92.1961 195.835 63.1981C200.393 63.8503 205.048 64.2508 209.632 65.2098C288.41 81.7145 360.934 115.917 425.681 172.124C427.069 173.328 429.072 174.855 430.46 174.553C435.802 173.385 441.009 171.533 446.266 169.935C446.311 169.289 446.362 168.646 446.407 168C445.53 167.668 444.6 167.471 443.789 166.986C406.978 144.948 370.333 122.53 333.339 100.924C298.123 80.3564 262.236 61.5985 223.798 50.8403C222.664 50.5215 221.599 49.8379 220.501 49.3215C222.062 48.6805 223.463 48.8601 224.862 49.0102C270.197 53.8502 312.256 71.4523 352.439 96.3415C384.986 116.5 416.137 139.232 445.619 165.021C447.31 166.497 449.552 168.608 451.238 168.352C457.207 167.448 463.052 165.644 468.941 164.181C397.974 115.606 329.113 63.4628 247.922 41.8947C250.266 40.6774 252.372 40.1925 254.468 40.3196C282.624 42.0151 309.74 49.7691 335.799 62.7024C382.876 86.063 425.057 118.744 464.871 155.801C473.288 163.637 478.047 164.265 488.305 158.1C421.226 106.294 353.992 55.8136 277.815 24.171C282.829 24.5337 287.693 25.2643 292.377 26.8031C322.809 36.7837 352.635 48.9008 380.914 65.6924C421.355 89.6981 460.357 116.236 491.911 155.149C492.891 156.355 494.803 157.54 496.052 157.324C500.941 156.479 505.736 155.068 511.652 153.598C508.251 150.003 505.932 147.328 503.416 144.924C445.076 89.2352 381.612 43.4683 311.545 10.3374C313.137 10.4307 314.72 10.6294 316.213 11.1765C335.099 18.0926 354.14 24.4855 372.822 32.1131C427.061 54.2605 471.025 93.3626 507.463 144.137C512.37 150.975 516.417 154.062 523.713 151.455C529.381 149.429 535.364 148.436 541.653 146.873C540.65 145.677 540.196 145.013 539.642 144.494C516.148 122.49 493.008 99.9638 469.065 78.6415C436.717 49.8278 401.297 28.0193 361.14 18.1988C360.246 17.979 359.353 17.7034 358.493 17.3378C357.824 17.0494 357.214 16.5789 355.203 15.341C387.898 17.1442 417.732 25.5529 444.928 43.7805C483.336 69.5227 517.49 101.388 544.439 142.642C545.46 144.207 547.677 145.938 549.132 145.778C554.98 145.128 560.75 143.763 568.341 142.323C516.433 83.6069 463.844 29.711 394.839 0.953749C396.231 0.942371 396.753 0.872873 397.263 0.943336C420.667 4.14587 442.623 13.4137 463.24 26.3777C506.357 53.4893 542.804 89.2982 568.864 137.911C569.661 139.395 571.624 141.215 572.848 141.091C578.684 140.486 584.457 139.262 591.127 138.107C549.332 82.4724 501.46 38.6828 443.201 10.6617C445.386 9.96856 447.146 10.0505 448.852 10.4587C486.347 19.4221 519.367 38.888 545.854 71.213C561.871 90.7596 575.795 112.542 590.729 133.255C591.929 134.922 593.813 137.439 595.108 137.285C602.918 136.34 610.646 134.733 619.911 133.078C581.136 83.592 540.554 39.3551 489.361 6.58402C491.735 7.17812 492.598 7.294 493.406 7.61235C517.043 16.9045 539.638 28.8705 559.563 46.5882C584.169 68.471 602.713 96.3775 618.193 126.976C620.311 131.16 622.136 133.083 626.614 132.284C643.61 129.249 660.685 126.726 677.735 124.013C690.118 122.043 702.508 120.127 714.88 118.07C717.577 117.622 719.404 117.996 720.3 121.511C721.5 126.219 719.827 127.904 715.982 128.478C695.315 131.567 674.669 134.783 654.02 137.992C646 139.239 637.993 140.567 629.579 141.924C636.581 186.972 620.783 224.248 605.321 262.418C612.232 222.237 619.006 182.844 625.944 142.497C619.156 143.472 614.136 144.17 609.128 144.938C608.082 145.099 607.074 145.534 605.622 145.976C610.575 192.704 595.184 232.766 579.167 271.976C586.681 230.765 594.288 189.016 602.106 146.147C595.778 147.243 590.559 147.879 585.501 149.217C584.311 149.534 583.007 152.136 582.875 153.847C581.757 168.247 582.011 182.963 579.719 197.05C575.609 222.336 565.253 244.901 554.844 267.217C550.333 276.888 544.778 285.892 540.751 293.267C553.16 247.271 566.131 199.191 579.403 150.003C574.835 150.709 571.671 151.611 568.485 151.592C563.943 151.562 562.456 154.047 561.62 158.862C559.119 173.259 556.575 187.688 553.194 201.801C544.749 237.07 533.132 270.698 514.167 300.216C511.407 304.514 508.211 308.435 505.218 312.534C504.687 312.142 504.157 311.755 503.626 311.363C522.293 258.99 540.96 206.617 559.911 153.444C553.782 154.452 548.817 155.514 543.79 156.008C540.133 156.367 538.794 158.223 537.897 162.298C532.602 186.312 527.827 210.571 521.177 234.059C512.594 264.386 500.903 293.13 483.285 318.022C481.963 319.895 480.304 321.453 478.801 323.16C478.393 322.803 477.986 322.449 477.575 322.092C496.949 267.656 516.322 213.215 536.104 157.634C525.72 159.648 516.267 161.482 507.795 163.124C509.734 224.397 485.15 270.815 454.556 314.298C475.952 267.665 490.712 218.244 499.392 164.393C492.649 166.068 486.817 167.303 481.142 169.107C480.007 169.467 478.897 171.9 478.733 173.537C478.205 178.876 478.228 184.302 477.846 189.669C475.492 222.845 463.207 251.633 449.408 279.679C444.275 290.113 438.423 300.07 432.9 310.245C432.694 310.061 432.494 309.879 432.29 309.698C446.373 263.581 460.456 217.465 474.732 170.717C468.396 172.292 462.683 173.711 456.868 175.156C460.036 195.321 455.808 213.472 449.087 231.092C436.877 263.11 419.489 291.128 399.762 317.347C397.879 319.848 395.747 322.098 393.731 324.465C416.259 276.963 437.326 229.068 452.101 176.199C445.002 177.963 439.365 179.222 433.825 180.869C432.806 181.173 431.527 183.001 431.479 184.223C430.957 198.535 426.298 211.362 420.792 223.537C405.274 257.86 389.184 291.833 373.218 325.881C371.359 329.844 368.884 333.406 366.694 337.155C365.977 336.685 365.26 336.216 364.546 335.741C383.733 285.323 402.92 234.906 422.054 184.63C419.216 185.335 415.975 186.432 412.646 186.899C407.833 187.576 405.385 190.445 403.459 195.561C394.21 220.141 384.782 244.638 374.906 268.877C364.246 295.035 352.299 320.345 335.47 342.043C334.312 343.532 332.935 344.797 331.66 346.164C331.26 345.766 330.863 345.363 330.463 344.965C351.584 291.939 373.31 239.286 402.084 190.845C398.328 191.34 395.152 192.752 391.835 193.366C385.81 194.472 382.11 198.129 379.21 204.268C355.974 253.43 331.403 301.822 318.274 356.586C317.638 359.241 316.455 361.701 315.528 364.253C314.935 364.031 314.342 363.81 313.748 363.584C314.004 332.409 320.494 303.014 332.099 275.163C343.633 247.479 357.968 221.939 377.955 198.912C365.742 201.775 355.486 204.323 351.667 217.765C351.613 217.954 351.479 218.112 351.38 218.287C329.015 257.834 308.299 298.4 294.799 343.44C294.335 344.988 293.461 346.364 292.774 347.817C292.23 347.476 291.686 347.139 291.141 346.799C294.103 290.374 321.249 248.189 351.985 207.772C347.006 209.588 341.022 210.805 338.544 214.882C322.791 240.813 306.55 266.53 292.991 294.009C282.829 314.6 276.455 337.728 268.372 359.715C266.859 363.827 265.252 367.886 263.693 371.972C262.958 371.536 262.227 371.096 261.497 370.66C271.302 311.333 291.685 258.422 331.125 216.846C323.14 219.396 314.079 219.237 310.717 230.488C309.635 234.112 307.281 237.202 305.459 240.499C290.494 267.551 275.398 294.511 260.624 321.7C256.609 329.09 253.537 337.176 250.033 344.945C258.001 298.208 278.061 259.43 307.457 226.747C299.978 228 294.223 231.125 290.334 238.432C284.177 250.004 277.441 261.155 270.877 272.43C254.677 300.256 237.102 327.09 225.597 358.267C225.049 359.754 224.791 361.393 224.4 362.957C223.591 362.386 222.782 361.815 221.976 361.243C229.093 309.26 257.527 271.864 287.815 234.094C279.75 237.99 272.35 240.154 267.457 247.797C258.557 261.694 249.378 275.352 240.178 288.989C227.197 308.242 216.239 328.889 207.887 351.389C206.13 356.124 204.056 360.689 202.126 365.334C201.641 365.017 201.155 364.701 200.673 364.383C206.035 314.144 232.511 278.908 263.313 246.583C257.481 249.087 251.71 251.512 246.557 255.071C242.408 257.933 238.133 261.454 235.412 265.909C215.393 298.631 197.812 332.94 187.349 371.649C186.465 374.914 185.185 378.025 184.086 381.211C183.593 380.956 183.095 380.698 182.598 380.444C185.934 337.328 198.031 298.711 224.956 267.306C217.793 271.836 208.784 275.314 204.858 282.532C189.145 311.4 173.089 340.267 164.343 373.47C164.145 374.227 164.225 375.091 164.174 375.901C163.507 375.471 162.84 375.04 162.176 374.609C163.5 338.664 180.363 311.213 198.669 284.34C191.735 290.25 183.315 293.685 178.682 303C165.014 330.472 153.967 359.162 148.303 390.501C147.989 392.244 147.599 393.967 147.246 395.702C143.901 360.548 154.71 331.277 172.593 304.551C165.895 310.917 158.928 317.239 154.988 325.528C142.374 352.077 134.694 380.858 131.031 411.129C130.798 413.058 130.431 414.959 130.129 416.875C124.994 383.702 132.424 354.532 149.188 328.316C140.333 337.23 132.11 346.155 129.756 360.391C125.118 388.433 119.807 416.304 114.78 444.245C114.419 446.252 114.121 448.278 113.795 450.294C113.084 450.192 112.371 450.086 111.66 449.984C112.047 437.194 111.633 424.255 113.042 411.648C114.471 398.886 117.7 386.454 120.395 372.584C107.147 404.919 100.306 438.378 93.5239 471.899C91.8046 453.652 94.2462 436.13 99.1452 418.958L99.1286 418.958ZM256.548 244.754C237.672 240.109 219.783 235.709 201.892 231.304C201.841 231.698 201.788 232.097 201.737 232.492C211.322 235.88 220.926 239.187 230.479 242.695C233.78 243.908 237.245 245.076 240.133 247.199C245.888 251.423 250.684 250.021 256.548 244.754Z" fill="url(#paint0_linear_1860_2767)" fill-opacity="0.1"/>
<defs>
<linearGradient id="paint0_linear_1860_2767" x1="61.5736" y1="261.611" x2="77.606" y2="480.671" gradientUnits="userSpaceOnUse">
<stop stop-color="#00594F"/>
<stop offset="1" stop-color="#FF671F" stop-opacity="0"/>
</linearGradient>
</defs>
</svg>
