<svg width="381" height="511" viewBox="0 0 381 511" fill="none" xmlns="http://www.w3.org/2000/svg">
<path d="M281.44 418.292C298.639 447.216 312.174 478.284 324.317 510.25C317.506 463.903 295.519 426.642 272.1 390.141C298.901 420.67 327.385 449.245 349.575 484.775C347.342 477.863 344.661 471.379 341.321 465.397C322.481 431.642 296.493 406.069 268.649 382.621C266.228 380.582 264.486 377.502 262.425 374.909C262.995 374.24 263.563 373.566 264.133 372.897C296.572 401.888 333.002 424.836 362.709 458.12C362.761 456.833 362.582 455.836 362.096 455.107C359.383 451.03 356.839 446.765 353.799 443.032C328.897 412.464 298.056 391.391 265.725 372.675C263.43 371.345 261.762 368.674 259.804 366.626C260.248 366.046 260.693 365.462 261.133 364.88C298.033 389.274 336.422 411.052 368.021 444.725C368.608 443.923 369.196 443.117 369.783 442.315C361.191 432.887 353.108 422.753 343.907 414.173C320.22 392.089 292.889 377.031 264.188 365.103C258.487 362.734 256.594 357.866 254.178 352.573C294.786 373.847 337.348 390.437 375.38 417.845C366.555 408.81 357.514 400.081 347.428 393.315C319.273 374.414 288.702 361.559 257.085 351.807C250.893 349.895 248.672 344.941 246.077 339.41C290.342 360.563 337.124 374.521 380.3 398.789C373.312 392.432 366.205 386.179 358.287 381.727C323.149 361.967 285.904 348.487 247.61 338.41C242.36 337.028 239.368 333.492 236.898 328.296C260.906 335.664 284.857 343.087 308.338 351.989C331.849 360.902 354.899 371.293 378.556 381.208C374.543 378.044 370.878 374.834 366.942 372.11C327.356 344.676 283.081 332.513 237.453 325.096C229.827 323.858 226.411 317.565 221.606 312.437C274.133 325.54 327.194 335.846 377.567 357.496C367.085 350.443 356.5 343.527 345.192 338.623C306.529 321.865 265.996 313.398 224.574 309.588C216.744 308.87 211.365 304.599 206.343 298.31C221.117 299.815 235.777 301.827 250.355 304.351C265.039 306.897 279.676 309.792 294.274 312.831C308.88 315.873 323.501 318.897 337.952 322.65C352.133 326.337 366.107 330.933 380.173 335.132C378.613 334.045 377.069 332.589 375.281 331.775C358.091 323.986 341.299 314.752 323.561 308.916C285.809 296.498 246.65 294.087 207.125 296.076C201.392 296.364 196.02 293.051 192.494 286.238C255.53 291.986 317.505 300.242 376.785 323.788C374.999 322.014 373.142 320.476 371.176 319.134C356.705 309.262 340.89 302.745 324.476 298.645C302.615 293.188 280.551 288.405 258.344 284.865C237.382 281.522 216.066 280.361 194.757 283.346C185.669 284.619 179.735 279.601 173.799 273.604L173.853 273.734C173.131 273.335 172.409 272.933 171.687 272.535C172.928 272.598 174.163 272.648 175.4 272.561C213.566 269.907 251.337 272.798 288.594 280.412C313.114 285.423 337.29 292.305 360.584 298.094C360.305 297.917 359.042 296.818 357.599 296.219C339.884 288.857 322.493 280.246 304.33 274.545C269.183 263.508 232.903 262.494 196.358 267.107C187.845 268.184 179.402 270.342 170.935 272.12C166.245 269.522 161.557 266.92 156.864 264.321C157.091 263.524 157.318 262.722 157.545 261.925C228.208 252.627 297.994 252.76 365.255 280.777C363.698 279.202 362.087 277.939 360.329 277.043C327.5 260.276 293.621 247.358 257.152 244.04C224.937 241.107 193.061 244.898 162.194 257.19C152.051 261.225 145.412 258.048 138.106 251.462C151.831 248.18 165.571 245.176 179.397 243.335C193.516 241.455 207.712 240.19 221.878 239.613C235.868 239.044 249.886 239.318 263.851 239.875C277.997 240.438 292.167 241.226 306.197 242.966C319.849 244.66 333.336 247.685 346.895 250.127C313.479 234.373 278.232 227.043 241.928 224.582C274.137 223.439 305.72 227.421 336.934 235.053C335.467 233.697 333.928 232.705 332.309 231.934C295.253 214.374 256.146 210.431 216.041 213.877C185.618 216.489 156.237 225.907 127.434 237.549C117.702 241.485 110.426 239.338 102.021 232.719C137.66 218.275 173.127 207.268 209.637 202.341C246.522 197.362 282.761 200.995 318.116 212.65C317.896 211.973 317.655 211.674 317.352 211.534C287.778 197.888 256.619 192.166 224.603 191.204C182.8 189.946 143.742 202.991 106.857 226.379C98.6283 231.597 91.428 231.172 83.1743 222.716C102.051 215.446 119.92 207.643 138.207 201.775C156.716 195.837 175.514 190.619 194.419 187.282C213.139 183.979 232.15 182.53 251.025 181.913C269.839 181.298 288.646 182.724 307.453 183.257C288.52 178.857 269.438 174.974 250.147 173.192C221.056 170.507 192.046 172.9 163.496 182.64C135.913 192.049 109.426 204.563 84.1438 220.667C82.5921 221.654 80.4879 223.152 79.1814 222.668C73.7933 220.664 68.6135 217.987 63.3553 215.557C63.3794 214.971 63.4027 214.389 63.4268 213.803C136.528 183.596 211.372 162.691 288.173 151.276C286.363 151.097 284.597 150.851 282.815 150.751C252.199 149.026 221.709 152.419 191.355 158.017C146.189 166.349 104.134 185.569 64.0653 211.396C62.5005 212.406 60.4829 214.17 59.1884 213.745C53.6221 211.916 48.2462 209.4 41.717 206.684C43.7895 205.56 44.5659 205.045 45.3917 204.701C83.9961 188.806 122.581 172.851 161.216 157.079C184.358 147.634 207.804 140.208 232.473 142.065C244.509 142.971 256.557 143.708 268.601 144.521C267.408 143.04 266.024 142.19 264.556 141.993C249.108 139.905 233.717 136.681 218.177 136.175C189.378 135.24 161.55 143.992 134.844 156.224C103.761 170.457 73.4287 186.992 42.7481 202.47C40.7828 203.462 38.3629 205.083 36.6521 204.542C30.8885 202.728 25.3537 200.07 18.861 197.376C20.9253 196.099 21.976 195.31 23.1121 194.772C58.173 178.147 93.1245 161.19 128.342 145.059C154.801 132.941 182.055 124.591 210.538 124.564C222.683 124.553 234.813 125.006 247.651 125.261C246.662 124.681 246.377 124.4 246.055 124.342C195.568 115.28 146.439 122.533 98.5875 145.791C71.3705 159.024 45.5063 175.3 20.1355 192.763C18.1895 194.103 15.6063 195.735 13.7004 195.312C8.9036 194.254 4.32209 192.09 -1.35309 190.002C0.713469 188.696 1.61185 188.019 2.57969 187.534C39.7087 168.875 76.7183 149.872 114.016 131.709C144.418 116.904 175.462 104.424 208.43 100.913C213.91 100.327 219.393 99.763 224.875 99.1902C223.821 98.1691 222.765 97.9409 221.7 97.9037C177.661 96.4121 135.549 108.128 94.4777 126.962C62.4914 141.631 32.8658 161.619 4.24466 183.499C-4.29197 190.022 -10.4868 187.192 -18.8143 183.141C54.2353 140.746 126.043 97.988 207.365 85.6587C207.216 84.5964 207.063 83.5331 206.914 82.4708C197.95 82.4913 188.969 81.9588 180.023 82.6359C143.339 85.4172 108.836 98.4101 76.3871 118.477C45.2115 137.754 14.8127 158.755 -15.9668 178.906C-18.257 180.405 -21.1523 182.543 -23.3088 182.058C-30.1293 180.531 -36.7354 177.903 -43.4217 175.701C-43.5295 175.095 -43.6372 174.489 -43.7488 173.882C29.3824 128.243 105.647 91.53 184.733 62.5321C180.176 63.1843 175.52 63.5848 170.937 64.5438C92.1583 81.0485 19.634 115.251 -45.1125 171.458C-46.5007 172.662 -48.504 174.189 -49.8912 173.887C-55.2337 172.719 -60.4402 170.867 -65.6977 169.269C-65.743 168.623 -65.7931 167.98 -65.8385 167.334C-64.9617 167.002 -64.0314 166.805 -63.2203 166.32C-26.4097 144.282 10.2358 121.864 47.2292 100.258C82.4451 79.6903 118.333 60.9325 156.77 50.1743C157.904 49.8555 158.969 49.1719 160.068 48.6555C158.506 48.0145 157.105 48.1941 155.707 48.3442C110.371 53.1842 68.3126 70.7862 28.1297 95.6755C-4.4178 115.834 -35.5682 138.566 -65.0509 164.355C-66.7419 165.831 -68.9835 167.942 -70.6695 167.686C-76.6391 166.782 -82.4833 164.978 -88.3726 163.515C-17.4058 114.94 51.4557 62.7968 132.647 41.2287C130.303 40.0113 128.196 39.5265 126.101 39.6536C97.9441 41.3491 70.828 49.1031 44.7698 62.0364C-2.30766 85.397 -44.4889 118.078 -84.3027 155.135C-92.72 162.971 -97.4788 163.599 -107.737 157.434C-40.6572 105.628 26.5759 55.1476 102.754 23.505C97.7389 23.8677 92.8752 24.5983 88.1909 26.1371C57.7598 36.1177 27.9333 48.2348 -0.345729 65.0264C-40.7866 89.0321 -79.7883 115.57 -111.342 154.483C-112.323 155.689 -114.235 156.874 -115.484 156.658C-120.373 155.813 -125.167 154.402 -131.084 152.932C-127.682 149.337 -125.363 146.662 -122.848 144.258C-64.5079 88.5692 -1.04344 42.8023 69.0236 9.67136C67.4309 9.76466 65.8483 9.96343 64.3551 10.5105C45.4689 17.4266 26.4282 23.8195 7.74644 31.4471C-46.4922 53.5945 -90.4564 92.6966 -126.895 143.471C-131.802 150.309 -135.848 153.396 -143.144 150.789C-148.812 148.763 -154.795 147.77 -161.084 146.207C-160.081 145.011 -159.628 144.347 -159.073 143.828C-135.58 121.824 -112.44 99.2978 -88.4962 77.9755C-56.1482 49.1618 -20.7288 27.3533 19.4283 17.5328C20.3221 17.313 21.2157 17.0374 22.0752 16.6718C22.7445 16.3834 23.3544 15.9128 25.365 14.6749C-7.33 16.4782 -37.1637 24.8869 -64.3598 43.1145C-102.768 68.8566 -136.922 100.722 -163.871 141.976C-164.892 143.541 -167.109 145.272 -168.564 145.112C-174.411 144.462 -180.182 143.097 -187.772 141.657C-135.865 82.9409 -83.276 29.045 -14.2706 0.287733C-15.6631 0.276355 -16.1845 0.206858 -16.6951 0.27732C-40.0984 3.47985 -62.0544 12.7477 -82.6714 25.7117C-125.789 52.8233 -162.236 88.6322 -188.295 137.245C-189.092 138.729 -191.056 140.549 -192.28 140.425C-198.116 139.82 -203.888 138.596 -210.558 137.441C-168.764 81.8064 -120.892 38.0168 -62.6327 9.9957C-64.8181 9.30254 -66.5775 9.38446 -68.2841 9.79268C-105.779 18.7561 -138.799 38.222 -165.286 70.547C-181.303 90.0936 -195.227 111.876 -210.16 132.589C-211.36 134.256 -213.245 136.773 -214.54 136.619C-222.35 135.674 -230.077 134.067 -239.342 132.412C-200.567 82.926 -159.986 38.6891 -108.792 5.918C-111.166 6.5121 -112.029 6.62799 -112.837 6.94633C-136.474 16.2385 -159.07 28.2045 -178.995 45.9222C-203.601 67.805 -222.144 95.7115 -237.624 126.31C-239.743 130.494 -241.568 132.417 -246.045 131.618C-263.042 128.583 -280.117 126.06 -297.167 123.347C-309.55 121.377 -321.94 119.461 -334.312 117.403C-337.009 116.956 -338.836 117.33 -339.731 120.845C-340.932 125.553 -339.259 127.238 -335.413 127.812C-314.747 130.901 -294.1 134.117 -273.452 137.326C-265.431 138.573 -257.424 139.901 -249.011 141.258C-256.012 186.306 -240.215 223.582 -224.752 261.752C-231.664 221.571 -238.438 182.178 -245.376 141.831C-238.588 142.806 -233.568 143.504 -228.559 144.272C-227.513 144.433 -226.506 144.868 -225.054 145.31C-230.006 192.038 -214.616 232.1 -198.599 271.31C-206.113 230.099 -213.72 188.35 -221.538 145.481C-215.209 146.577 -209.991 147.213 -204.933 148.551C-203.743 148.868 -202.438 151.47 -202.307 153.181C-201.188 167.581 -201.443 182.297 -199.151 196.384C-195.041 221.67 -184.685 244.235 -174.276 266.551C-169.765 276.222 -164.21 285.225 -160.183 292.601C-172.592 246.605 -185.563 198.525 -198.834 149.337C-194.266 150.043 -191.103 150.945 -187.916 150.926C-183.374 150.896 -181.888 153.381 -181.052 158.196C-178.55 172.593 -176.006 187.022 -172.626 201.135C-164.18 236.404 -152.564 270.032 -133.599 299.55C-130.839 303.848 -127.642 307.769 -124.649 311.868C-124.118 311.476 -123.588 311.089 -123.058 310.697C-141.724 258.324 -160.391 205.951 -179.342 152.778C-173.214 153.786 -168.248 154.848 -163.221 155.342C-159.565 155.701 -158.226 157.557 -157.329 161.632C-152.034 185.646 -147.259 209.905 -140.608 233.393C-132.026 263.72 -120.334 292.464 -102.717 317.356C-101.395 319.229 -99.7357 320.787 -98.233 322.494C-97.825 322.137 -97.4181 321.783 -97.0063 321.426C-116.38 266.99 -135.753 212.549 -155.535 156.968C-145.151 158.982 -135.698 160.816 -127.227 162.458C-129.165 223.731 -104.582 270.149 -73.9879 313.632C-95.3834 266.999 -110.143 217.578 -118.823 163.727C-112.08 165.402 -106.249 166.637 -100.574 168.441C-99.4385 168.801 -98.3288 171.234 -98.1644 172.871C-97.6364 178.21 -97.6595 183.636 -97.278 189.003C-94.9234 222.179 -82.639 250.967 -68.8394 279.012C-63.7065 289.447 -57.8548 299.404 -52.3313 309.579C-52.1261 309.395 -51.9256 309.213 -51.7212 309.032C-65.8042 262.915 -79.8873 216.799 -94.1633 170.051C-87.8276 171.626 -82.1145 173.045 -76.2997 174.49C-79.4675 194.655 -75.2393 212.806 -68.5185 230.426C-56.3083 262.443 -38.9206 290.462 -19.1937 316.681C-17.3105 319.182 -15.1786 321.432 -13.1629 323.799C-35.6902 276.297 -56.758 228.402 -71.5324 175.533C-64.4332 177.297 -58.7966 178.556 -53.2567 180.203C-52.2375 180.507 -50.9589 182.335 -50.9107 183.557C-50.3885 197.869 -45.7298 210.696 -40.2239 222.871C-24.7054 257.194 -8.61529 291.167 7.35085 325.215C9.20973 329.178 11.6839 332.74 13.874 336.489C14.591 336.019 15.3079 335.55 16.0219 335.075C-3.16471 284.657 -22.3513 234.24 -41.4861 183.964C-38.6471 184.669 -35.4063 185.766 -32.078 186.233C-27.2643 186.91 -24.817 189.779 -22.891 194.895C-13.642 219.475 -4.21376 243.972 5.6625 268.21C16.3228 294.369 28.269 319.679 45.0985 341.377C46.2567 342.866 47.6329 344.131 48.9081 345.498C49.3083 345.1 49.7055 344.697 50.1056 344.299C28.9848 291.273 7.25864 238.62 -21.5155 190.179C-17.7601 190.674 -14.5835 192.086 -11.2666 192.7C-5.24199 193.806 -1.54191 197.463 1.35872 203.602C24.5943 252.764 49.1652 301.156 62.294 355.92C62.9305 358.575 64.1129 361.035 65.0402 363.587C65.6332 363.365 66.2261 363.144 66.8199 362.918C66.5645 331.743 60.0743 302.348 48.4696 274.497C36.9356 246.813 22.5999 221.273 2.61309 198.246C14.8265 201.109 25.0819 203.657 28.9011 217.099C28.9549 217.288 29.0898 217.446 29.1881 217.621C51.5536 257.168 72.2698 297.734 85.7694 342.774C86.2337 344.322 87.107 345.698 87.7941 347.151C88.3387 346.81 88.8823 346.473 89.4269 346.133C86.4651 289.708 59.3198 247.523 28.5836 207.106C33.5625 208.922 39.5467 210.139 42.0244 214.216C57.7774 240.147 74.0185 265.864 87.5778 293.343C97.7392 313.934 104.113 337.062 112.197 359.049C113.709 363.161 115.316 367.22 116.876 371.306C117.61 370.87 118.341 370.43 119.072 369.994C109.266 310.667 88.8838 257.756 49.4435 216.18C57.4284 218.73 66.4892 218.571 69.8515 229.822C70.9338 233.446 73.2876 236.536 75.1095 239.833C90.0741 266.885 105.17 293.845 119.944 321.034C123.96 328.424 127.032 336.51 130.536 344.279C122.568 297.542 102.507 258.764 73.1118 226.081C80.5903 227.334 86.3456 230.459 90.2348 237.766C96.3916 249.338 103.127 260.489 109.691 271.764C125.891 299.59 143.466 326.424 154.971 357.601C155.519 359.088 155.778 360.727 156.168 362.291C156.978 361.72 157.787 361.149 158.592 360.577C151.475 308.594 123.042 271.198 92.7538 233.428C100.818 237.324 108.218 239.488 113.112 247.131C122.011 261.028 131.19 274.686 140.39 288.323C153.372 307.576 164.33 328.223 172.681 350.723C174.438 355.458 176.513 360.023 178.442 364.668C178.928 364.351 179.414 364.035 179.895 363.717C174.533 313.478 148.057 278.242 117.255 245.917C123.087 248.421 128.858 250.846 134.012 254.405C138.161 257.267 142.435 260.788 145.157 265.243C165.175 297.965 182.756 332.274 193.22 370.983C194.103 374.248 195.384 377.359 196.483 380.545C196.976 380.29 197.473 380.032 197.97 379.778C194.634 336.662 182.537 298.045 155.613 266.64C162.776 271.17 171.785 274.648 175.71 281.866C191.423 310.733 207.479 339.601 216.225 372.804C216.424 373.561 216.343 374.425 216.394 375.235C217.062 374.805 217.729 374.374 218.392 373.943C217.068 337.998 200.205 310.547 181.9 283.674C188.833 289.584 197.253 293.019 201.886 302.334C215.555 329.806 226.602 358.496 232.265 389.835C232.58 391.578 232.969 393.301 233.322 395.036C236.668 359.882 225.858 330.611 207.975 303.885C214.673 310.251 221.641 316.573 225.58 324.862C238.195 351.411 245.875 380.192 249.537 410.463C249.77 412.392 250.137 414.293 250.439 416.209C255.575 383.036 248.144 353.866 231.38 327.65C240.236 336.564 248.458 345.489 250.813 359.725C255.451 387.767 260.762 415.637 265.789 443.579C266.149 445.586 266.448 447.612 266.773 449.628C267.485 449.526 268.197 449.42 268.908 449.318C268.522 436.528 268.935 423.589 267.526 410.982C266.098 398.22 262.868 385.788 260.174 371.918C273.421 404.253 280.262 437.712 287.044 471.233C288.764 452.986 286.322 435.464 281.423 418.292L281.44 418.292ZM124.02 244.088C142.896 239.443 160.786 235.042 178.677 230.638C178.727 231.032 178.781 231.431 178.831 231.826C169.246 235.214 159.642 238.521 150.089 242.029C146.788 243.242 143.323 244.41 140.435 246.533C134.68 250.757 129.884 249.355 124.02 244.088Z" fill="url(#paint0_linear_1860_2768)" fill-opacity="0.1"/>
<defs>
<linearGradient id="paint0_linear_1860_2768" x1="318.995" y1="260.945" x2="302.962" y2="480.005" gradientUnits="userSpaceOnUse">
<stop stop-color="#00594F"/>
<stop offset="1" stop-color="#FF671F" stop-opacity="0"/>
</linearGradient>
</defs>
</svg>
