<svg width="20" height="24" viewBox="0 0 20 24" fill="none" xmlns="http://www.w3.org/2000/svg">
<path fill-rule="evenodd" clip-rule="evenodd" d="M9.16726 23.0431C9.16726 23.0431 0.978516 16.1466 0.978516 9.36064C0.978516 6.96815 1.92893 4.67364 3.62068 2.98189C5.31243 1.29014 7.60694 0.339722 9.99944 0.339722C12.3919 0.339722 14.6864 1.29014 16.3782 2.98189C18.0699 4.67364 19.0204 6.96815 19.0204 9.36064C19.0204 16.1466 10.8316 23.0431 10.8316 23.0431C10.3761 23.4626 9.6262 23.4581 9.16726 23.0431ZM9.99944 13.3073C10.5177 13.3073 11.0309 13.2052 11.5098 13.0069C11.9886 12.8085 12.4237 12.5178 12.7901 12.1513C13.1566 11.7849 13.4473 11.3498 13.6457 10.871C13.844 10.3921 13.9461 9.87892 13.9461 9.36064C13.9461 8.84236 13.844 8.32915 13.6457 7.85032C13.4473 7.37149 13.1566 6.93642 12.7901 6.56994C12.4237 6.20346 11.9886 5.91275 11.5098 5.71441C11.0309 5.51607 10.5177 5.41399 9.99944 5.41399C8.95272 5.41399 7.94887 5.8298 7.20873 6.56994C6.46859 7.31008 6.05278 8.31393 6.05278 9.36064C6.05278 10.4074 6.46859 11.4112 7.20873 12.1513C7.94887 12.8915 8.95272 13.3073 9.99944 13.3073Z" fill="#FF671F"/>
</svg>
