<svg width="22" height="17" viewBox="0 0 22 17" fill="none" xmlns="http://www.w3.org/2000/svg">
<path d="M19.3487 -0.00964355H2.64986C1.50181 -0.00964355 0.572937 0.929667 0.572937 2.07771L0.5625 14.6018C0.5625 15.7499 1.50181 16.6892 2.64986 16.6892H19.3487C20.4967 16.6892 21.4361 15.7499 21.4361 14.6018V2.07771C21.4361 0.929667 20.4967 -0.00964355 19.3487 -0.00964355ZM18.9312 4.42599L11.5524 9.03905C11.2185 9.24778 10.7801 9.24778 10.4461 9.03905L3.06733 4.42599C2.96268 4.36724 2.87103 4.28787 2.79794 4.19268C2.72485 4.09749 2.67184 3.98846 2.64211 3.87218C2.61238 3.75591 2.60655 3.63481 2.62497 3.51622C2.6434 3.39763 2.68569 3.28401 2.7493 3.18224C2.81291 3.08047 2.8965 2.99266 2.99503 2.92413C3.09355 2.8556 3.20496 2.80778 3.3225 2.78355C3.44005 2.75932 3.56128 2.7592 3.67888 2.78318C3.79647 2.80717 3.90797 2.85477 4.00664 2.92309L10.9993 7.2961L17.9919 2.92309C18.0906 2.85477 18.2021 2.80717 18.3197 2.78318C18.4373 2.7592 18.5585 2.75932 18.6761 2.78355C18.7936 2.80778 18.905 2.8556 19.0035 2.92413C19.1021 2.99266 19.1857 3.08047 19.2493 3.18224C19.3129 3.28401 19.3552 3.39763 19.3736 3.51622C19.392 3.63481 19.3862 3.75591 19.3565 3.87218C19.3267 3.98846 19.2737 4.09749 19.2006 4.19268C19.1275 4.28787 19.0359 4.36724 18.9312 4.42599Z" fill="#FF671F"/>
</svg>
