<svg width="22" height="22" viewBox="0 0 22 22" fill="none" xmlns="http://www.w3.org/2000/svg">
<path d="M1.40389 8.50536C3.89379 13.9263 8.31712 18.223 13.8081 20.5543L14.6899 20.9472C15.6664 21.382 16.7649 21.4582 17.7921 21.1624C18.8192 20.8666 19.709 20.2178 20.3046 19.3302L21.4574 17.6134C21.6378 17.3441 21.7108 17.0171 21.6621 16.6967C21.6134 16.3763 21.4464 16.0857 21.1942 15.8823L17.2885 12.7313C17.1525 12.6216 16.9957 12.5406 16.8276 12.493C16.6594 12.4455 16.4834 12.4324 16.3101 12.4546C16.1368 12.4767 15.9698 12.5337 15.819 12.622C15.6683 12.7104 15.537 12.8282 15.4329 12.9686L14.2244 14.5986C11.1222 13.0664 8.61112 10.5549 7.07956 7.45244L8.70821 6.24391C8.84858 6.13987 8.96646 6.00853 9.0548 5.85778C9.14313 5.70704 9.20009 5.53999 9.22225 5.36669C9.24442 5.19338 9.23133 5.01738 9.18377 4.84925C9.13622 4.68113 9.05517 4.52435 8.94551 4.38833L5.79453 0.482667C5.59107 0.230398 5.30052 0.063461 4.98012 0.0147401C4.65971 -0.0339808 4.33267 0.0390465 4.06343 0.219437L2.33493 1.37869C1.44202 1.97748 0.790671 2.8738 0.496919 3.90799C0.203167 4.94218 0.286087 6.04706 0.730907 7.02582L1.40389 8.50536Z" fill="#FF671F"/>
</svg>
