<svg width="25" height="25" viewBox="0 0 25 25" fill="none" xmlns="http://www.w3.org/2000/svg">
<path d="M24.332 15.6699V23.6699C24.332 23.9351 24.2267 24.1895 24.0391 24.377C23.8516 24.5646 23.5972 24.6699 23.332 24.6699H1.33203C1.06681 24.6699 0.812461 24.5646 0.624925 24.377C0.437388 24.1895 0.332031 23.9351 0.332031 23.6699V15.6699C0.332031 15.4047 0.437388 15.1504 0.624925 14.9628C0.812461 14.7753 1.06681 14.6699 1.33203 14.6699C1.59725 14.6699 1.8516 14.7753 2.03914 14.9628C2.22667 15.1504 2.33203 15.4047 2.33203 15.6699V22.6699H22.332V15.6699C22.332 15.4047 22.4374 15.1504 22.6249 14.9628C22.8125 14.7753 23.0668 14.6699 23.332 14.6699C23.5972 14.6699 23.8516 14.7753 24.0391 14.9628C24.2267 15.1504 24.332 15.4047 24.332 15.6699ZM11.6245 16.3774C11.7174 16.4704 11.8277 16.5442 11.9491 16.5945C12.0705 16.6448 12.2006 16.6707 12.332 16.6707C12.4634 16.6707 12.5936 16.6448 12.715 16.5945C12.8364 16.5442 12.9467 16.4704 13.0395 16.3774L18.0395 11.3774C18.1324 11.2845 18.2061 11.1742 18.2564 11.0528C18.3067 10.9314 18.3326 10.8013 18.3326 10.6699C18.3326 10.5385 18.3067 10.4084 18.2564 10.287C18.2061 10.1656 18.1324 10.0553 18.0395 9.96242C17.9466 9.86951 17.8363 9.79581 17.7149 9.74553C17.5935 9.69525 17.4634 9.66937 17.332 9.66937C17.2006 9.66937 17.0705 9.69525 16.9491 9.74553C16.8277 9.79581 16.7174 9.86951 16.6245 9.96242L13.332 13.2562V1.66992C13.332 1.40471 13.2267 1.15035 13.0391 0.962815C12.8516 0.775279 12.5972 0.669922 12.332 0.669922C12.0668 0.669922 11.8125 0.775279 11.6249 0.962815C11.4374 1.15035 11.332 1.40471 11.332 1.66992V13.2562L8.03953 9.96242C7.85189 9.77478 7.5974 9.66937 7.33203 9.66937C7.06667 9.66937 6.81217 9.77478 6.62453 9.96242C6.43689 10.1501 6.33148 10.4046 6.33148 10.6699C6.33148 10.9353 6.43689 11.1898 6.62453 11.3774L11.6245 16.3774Z" fill="#151515" fill-opacity="0.5"/>
</svg>
