<svg width="518" height="242" viewBox="0 0 518 242" fill="none" xmlns="http://www.w3.org/2000/svg">
<path d="M79.1436 217.223C53.5924 230.674 29.6312 247.339 6.23509 265.286C32.542 234.419 65.3384 217.015 98.7925 200.81C65.7239 211.125 32.3746 219.255 0.238003 235.301C5.0204 231.244 9.91979 227.702 15.0505 224.822C44.0008 208.572 74.1964 201.519 104.715 196.855C107.369 196.449 110.026 194.977 112.683 194.004C112.591 193.258 112.504 192.51 112.412 191.764C76.0804 198.423 39.7374 198.867 3.34117 209.895C3.9011 208.929 4.49037 208.28 5.17125 207.964C8.97624 206.198 12.7499 204.218 16.6257 202.85C48.373 191.654 79.904 190.073 111.392 190.887C113.628 190.944 116.044 189.738 118.375 189.118C118.331 188.493 118.288 187.866 118.248 187.243C80.9022 188.534 43.7203 187.242 5.80881 197.705C5.76697 196.855 5.72638 196.001 5.68453 195.15C16.1187 192.106 26.5218 188.317 36.9923 186.167C63.9467 180.635 90.2113 181.882 115.989 186.035C121.11 186.86 124.703 184.147 128.863 181.356C90.3505 178.7 52.6321 171.737 13.0895 174.726C23.5065 172.074 33.933 169.744 44.1864 169.319C72.8152 168.123 100.343 172.436 127.169 179.49C132.423 180.871 136.288 178.242 140.685 175.358C99.648 170.971 60.1739 160.188 18.4603 158.569C26.3391 157.053 34.2527 155.666 41.9035 155.962C75.856 157.271 108.381 164.124 140.067 173.938C144.412 175.283 148.163 174.038 152.316 171.344C131.963 165.96 111.625 160.641 90.9325 156.617C70.2131 152.587 49.1337 149.845 27.8469 146.483C32.1456 145.969 36.2201 145.265 40.2599 145.038C80.9109 142.727 117.784 153.699 153.409 168.752C159.363 171.269 164.692 168.197 170.46 166.6C127.33 152.612 85.1218 136.336 39.5462 129.571C50.212 129.113 60.8875 128.803 71.1385 130.29C106.184 135.379 138.703 147.377 169.688 163.182C175.545 166.171 181.32 165.459 187.78 163.111C176.661 157.58 165.387 152.472 153.933 147.776C142.394 143.048 130.727 138.596 119.02 134.268C107.307 129.937 95.5903 125.587 83.6558 121.848C71.943 118.181 59.9534 115.272 48.0845 112.031C49.6885 111.936 51.4539 111.563 53.0922 111.77C68.8307 113.785 84.9601 114.564 100.179 118.255C132.569 126.112 161.309 141.926 188.265 161.125C192.175 163.908 197.501 163.895 203.149 160.491C156.02 136.402 108.475 114.625 55.737 105.248C57.8193 104.752 59.8431 104.46 61.8525 104.36C76.64 103.63 90.8186 105.959 104.299 110.326C122.25 116.145 140.033 122.548 157.339 129.926C173.675 136.889 189.249 145.608 202.895 157.359C208.715 162.37 215.229 161.361 222.198 159.636L222.1 159.706C222.794 159.739 223.49 159.768 224.184 159.801C223.279 159.291 222.384 158.772 221.553 158.153C195.863 139.078 167.88 124.238 138.068 113.087C118.447 105.749 98.202 99.9336 79.0854 93.7134C79.3644 93.7095 80.7655 93.4722 82.0607 93.6815C97.9721 96.2452 114.234 97.7488 129.69 101.729C159.602 109.428 185.663 124.972 209.3 144.754C214.805 149.363 219.759 154.733 224.906 159.835C229.42 160.039 233.934 160.239 238.45 160.443C238.66 159.758 238.871 159.069 239.081 158.383C193.552 119.857 144.267 88.6274 83.8254 78.9415C85.6539 78.4873 87.3766 78.2865 89.0319 78.4198C119.967 80.8835 149.858 86.6361 177.121 100.579C201.205 112.893 221.93 129.977 237.999 152.831C243.281 160.337 249.438 160.992 257.647 159.451C249.488 150.887 241.191 142.521 232.293 134.967C223.206 127.252 213.78 119.954 204.056 113.173C194.451 106.476 184.436 100.384 174.328 94.5225C164.089 88.5849 153.728 82.8007 143.025 77.7764C132.609 72.8874 121.693 69.0476 110.996 64.7486C141.875 68.217 170.137 78.6743 196.887 93.1698C174.698 77.8743 150.574 66.6117 125.015 58.1856C126.68 57.8521 128.225 57.8171 129.725 57.9795C164.01 61.7604 193.423 76.4294 220.113 96.9547C240.36 112.524 256.715 132.606 271.629 154.058C276.668 161.307 282.797 163.002 291.796 161.93C273.359 135.359 253.449 111.381 229.982 91.3858C206.276 71.1835 179.028 57.5752 148.683 50.2354C149.152 49.8389 149.461 49.7272 149.74 49.7612C176.931 53.0483 201.564 62.8476 224.593 76.515C254.663 94.3597 276.16 121.442 291.327 155.118C294.709 162.632 299.985 165.553 309.73 163.069C299.789 149.274 290.805 135.54 280.628 123.036C270.328 110.381 259.49 98.1235 247.703 87.1938C236.031 76.3732 223.294 66.7781 210.266 57.8535C197.282 48.9581 183.355 41.559 169.842 33.5068C185.237 38.7853 200.499 44.5087 214.932 51.8643C236.698 62.9577 256.05 77.7317 271.669 97.6774C286.759 116.947 299.636 137.997 309.998 161.133C310.634 162.552 311.423 164.593 312.569 164.826C317.299 165.778 322.195 166.144 327.032 166.725C327.286 166.285 327.54 165.849 327.795 165.409C290.247 110.484 247.155 61.5839 198.278 18.7525C199.638 19.4336 200.998 20.0467 202.302 20.7737C224.697 33.2541 244.629 49.4251 263.442 67.1487C291.435 93.5219 312.181 126.469 328.461 163.361C329.096 164.802 329.701 166.999 330.811 167.269C335.586 168.429 340.545 169.001 346.411 169.944C345.471 168.191 345.162 167.465 344.739 166.843C324.884 137.879 305.07 108.879 285.136 79.9915C273.195 62.6896 260.103 46.7289 241.841 37.0141C232.931 32.2741 224.091 27.4052 215.218 22.594C216.746 22.0459 218.117 22.0448 219.244 22.5592C231.109 27.9654 243.461 32.5149 254.657 39.1201C275.404 51.3632 290.972 70.262 304.135 91.2037C319.456 115.575 333.179 141.294 347.639 166.396C348.565 168.004 349.52 170.277 350.977 170.649C355.884 171.909 361.022 172.448 366.851 173.39C365.987 171.529 365.613 170.48 365.061 169.576C348.043 141.668 331.258 113.567 313.901 85.9497C300.86 65.2028 285.51 46.8562 265.432 34.0504C256.871 28.5906 248.105 23.4768 238.931 17.9009C239.897 17.9199 240.229 17.8423 240.483 17.9439C280.299 33.975 311.587 61.3374 334.549 99.8424C347.607 121.746 358.299 145.271 368.092 169.442C368.843 171.296 369.908 173.65 371.449 174.197C375.323 175.575 379.559 176.048 384.531 177.067C383.679 175.184 383.359 174.284 382.901 173.495C365.369 143.17 348.081 112.647 330.2 82.6093C315.624 58.1245 299.517 35.0542 277.893 17.6848C274.299 14.7958 270.693 11.9216 267.092 9.04164C268.309 8.76713 269.16 9.07437 269.928 9.52517C301.683 28.2024 325.952 55.6821 346.184 87.905C361.939 113.001 373.563 140.93 383.599 169.794C386.594 178.401 392.277 179.11 400.03 179.883C368.173 116.06 337.361 52.5272 285.721 6.99729C286.319 6.28654 286.92 5.57683 287.518 4.86609C293.831 8.90528 300.413 12.5468 306.409 17.0584C330.994 35.5616 349.303 60.5604 362.881 89.8152C375.927 117.92 387.625 146.938 399.986 175.505C400.906 177.63 401.957 180.495 403.703 181.108C409.222 183.052 415.101 184.094 420.839 185.484C421.196 185.088 421.553 184.693 421.914 184.299C391.504 118.064 354.744 56.9561 312.414 0.228478C315.326 2.75182 318.424 5.13492 321.212 7.89428C369.121 55.3389 404.409 112.93 424 183.137C424.421 184.641 425.125 186.659 426.244 187.06C430.554 188.603 435.086 189.585 439.536 190.775C439.867 190.323 440.201 189.875 440.533 189.422C440.068 188.786 439.504 188.223 439.157 187.504C423.417 154.849 407.969 121.99 391.9 89.5685C376.603 58.7051 359.992 28.8649 337.871 3.73559C337.219 2.99314 336.786 2.01485 336.25 1.14371C337.649 1.37529 338.554 2.13564 339.471 2.87339C369.203 26.7674 390.702 58.5316 407.498 94.7879C421.103 124.154 432.529 154.776 441.359 186.888C441.867 188.727 442.469 191.279 443.777 191.849C448.407 193.867 453.366 195.17 458.199 196.742C430.679 129.33 406.299 60.2506 359.038 8.0167C361.256 8.17783 362.967 8.76866 364.386 9.80233C383.459 23.6828 398.988 41.531 411.368 62.6953C433.736 100.928 448.326 143.784 459.216 188.782C461.518 198.296 464.583 200.892 474.679 200.983C451.4 132.951 427.397 65.8201 388.346 8.46238C391.715 10.979 394.806 13.6971 397.397 16.9263C414.231 37.8923 429.647 60.1507 441.803 85.1362C459.191 120.862 474.389 157.795 478.592 200.442C478.723 201.765 479.522 203.491 480.504 203.894C484.344 205.469 488.38 206.589 493.236 208.169C492.504 204.011 492.11 201.011 491.451 198.123C476.138 131.171 452.607 69.182 418.556 13.478C419.636 14.2613 420.66 15.1172 421.459 16.1879C431.572 29.7283 442.037 42.9551 451.675 56.9245C479.657 97.4835 492.526 145.841 494.67 199.363C494.959 206.571 496.381 210.647 502.737 212.015C507.675 213.076 512.356 215.035 517.517 216.714C517.365 215.388 517.353 214.698 517.202 214.07C510.84 187.417 504.969 160.541 497.973 134.185C488.525 98.5735 473.66 66.7105 449.891 41.4957C449.362 40.9336 448.86 40.3307 448.423 39.6773C448.085 39.1657 447.873 38.5475 447.029 36.7388C469.254 52.7356 486.396 72.2829 497.122 97.8333C512.27 133.917 521.577 172.574 521.446 214.867C521.44 216.471 522.2 218.734 523.301 219.27C527.727 221.419 532.431 223.01 538.453 225.363C529.081 159.084 516.993 96.0262 481.662 44.0002C482.649 44.617 483.049 44.8002 483.377 45.0809C498.398 57.9309 509.585 74.5707 518.113 93.3149C535.947 132.515 545.042 175.087 540.868 222.369C540.742 223.813 541.283 226.027 542.203 226.485C546.601 228.662 551.24 230.357 556.481 232.506C552.813 173.022 539.363 119.479 511.27 72.8159C513.133 73.2895 514.336 74.1393 515.35 75.2042C537.639 98.5964 551.899 127.668 555.584 163.219C557.813 184.716 557.528 206.911 558.452 228.776C558.525 230.534 558.686 233.223 559.671 233.692C565.618 236.505 571.814 238.798 579.117 241.746C574.726 188.118 566.626 137.521 545.721 90.5521C547.12 92.0528 547.675 92.525 548.097 93.1207C560.458 110.533 570.845 129.435 576.678 151.348C583.882 178.411 584.014 207.162 580.737 236.508C580.29 240.522 580.685 242.749 584.214 244.174C597.611 249.582 610.825 255.401 624.11 261.068C633.758 265.185 643.387 269.344 653.068 273.392C655.178 274.275 656.293 275.369 655.294 278.344C653.956 282.329 651.995 282.812 649.016 281.505C633.006 274.489 616.95 267.575 600.897 260.655C594.661 257.967 588.397 255.345 581.833 252.562C565.871 288.678 537.434 308.871 508.817 329.87C532.335 303.561 555.39 277.768 579.003 251.349C573.763 249.015 569.898 247.273 566.009 245.587C565.196 245.235 564.284 245.101 563.055 244.773C544.868 281.2 515.425 303.615 485.936 325.126C510.356 298.333 535.091 271.189 560.495 243.319C555.523 241.281 551.547 239.404 547.358 238.113C546.372 237.811 544.245 239.13 543.358 240.323C535.888 250.362 529.24 261.248 521.087 270.53C506.457 287.194 488.683 299.062 470.987 310.724C463.319 315.778 455.223 319.874 448.96 323.465C479.053 295.368 510.51 265.998 542.692 235.951C539.142 234.417 536.492 233.657 534.254 232.213C531.064 230.152 528.863 231.303 526.039 234.453C517.595 243.868 509.106 253.287 500.174 262.1C477.853 284.125 454.057 303.526 426.985 316.618C423.045 318.525 418.97 319.961 414.957 321.617C414.765 321.092 414.571 320.571 414.378 320.046C451.844 290.09 489.309 260.133 527.347 229.719C522.556 227.706 518.561 226.254 514.786 224.359C512.04 222.981 510.235 223.738 507.711 226.319C492.835 241.519 478.212 257.132 462.623 271.34C442.499 289.685 420.917 305.477 396.941 315.789C395.14 316.566 393.247 316.962 391.394 317.537C391.273 317.092 391.15 316.651 391.025 316.205C429.947 285.055 468.87 253.903 508.61 222.1C500.351 218.912 492.833 216.011 486.096 213.41C459.035 259.131 420.159 282.071 378.405 300.167C415.132 275.637 448.472 246.088 479.58 210.567C474.046 208.766 469.36 207.052 464.52 205.825C463.552 205.579 461.64 206.862 460.765 207.986C457.915 211.657 455.415 215.639 452.655 219.396C435.602 242.624 413.581 258.181 390.835 272.515C382.373 277.848 373.626 282.51 365.009 287.478C364.95 287.251 364.893 287.028 364.833 286.804C396.163 259.37 427.492 231.936 459.251 204.126C454.052 202.434 449.363 200.909 444.592 199.356C437.47 215.539 426.067 226.926 413.151 236.807C389.684 254.762 364.42 267.465 338.341 277.801C335.852 278.787 333.304 279.476 330.784 280.304C368.713 255.646 405.795 230.046 440.745 197.98C434.919 196.084 430.359 194.475 425.688 193.194C424.827 192.959 423.077 193.723 422.477 194.596C415.468 204.838 406.231 212.135 396.699 218.575C369.828 236.733 342.717 254.377 315.658 272.132C312.508 274.198 309.11 275.695 305.826 277.456C305.538 276.79 305.25 276.125 304.967 275.457C341.892 247.165 378.817 218.874 415.64 190.663C413.31 189.905 410.515 189.253 407.951 188.101C404.242 186.435 401.184 187.437 397.452 190.317C379.524 204.157 361.509 217.856 343.296 231.164C323.641 245.526 303.471 258.69 281.534 267.017C280.026 267.587 278.469 267.895 276.934 268.324C276.837 267.853 276.744 267.379 276.646 266.908C316.146 237.576 355.899 208.788 398.67 186.247C395.791 184.924 392.896 184.531 390.271 183.492C385.509 181.597 381.202 182.613 376.308 185.804C337.109 211.36 297.326 235.751 262.657 269.943C260.977 271.601 259.001 272.871 257.163 274.322C256.848 273.894 256.533 273.465 256.218 273.034C270.862 250.329 289.078 231.727 310.186 216.55C331.165 201.463 353.126 189.204 377.908 181.321C367.965 177.934 359.549 175.196 350.619 183.32C350.493 183.435 350.324 183.49 350.174 183.573C316.05 202.481 282.617 222.874 252.198 249.783C251.152 250.708 249.898 251.322 248.739 252.078C248.513 251.584 248.286 251.093 248.06 250.599C276.328 210.627 315.047 191.935 355.479 176.148C351.124 175.242 346.339 173.447 342.699 175.319C319.557 187.228 296.17 198.762 273.856 212.789C257.136 223.299 241.909 237.367 226.007 249.832C223.032 252.163 220.015 254.413 217.019 256.703C216.704 256.055 216.392 255.404 216.079 254.757C250.521 215.734 289.446 186.154 336.555 173.426C329.74 171.708 323.423 167.524 315.831 174.251C313.386 176.417 310.292 177.623 307.477 179.218C284.371 192.302 261.215 205.259 238.179 218.528C231.918 222.135 226 226.675 219.924 230.789C247.228 200.155 279.369 180.776 315.267 170.048C309.411 167.609 303.901 167.312 297.768 170.915C288.056 176.622 278.132 181.76 268.271 187.067C243.934 200.163 219.087 211.915 196.507 229.571C195.431 230.414 194.488 231.497 193.486 232.467C193.181 231.685 192.875 230.904 192.572 230.124C221.71 195.268 259.116 180.66 298.004 166.609C290.508 165.841 284.284 164.103 277.287 167.501C264.561 173.678 251.75 179.555 238.934 185.407C220.845 193.672 203.536 203.866 187.206 216.586C183.77 219.264 180.189 221.674 176.673 224.208C176.477 223.758 176.282 223.308 176.089 222.859C203.18 188.493 238.203 174.586 274.927 164.752C269.652 163.967 264.456 163.151 259.17 163.443C254.915 163.676 250.267 164.334 246.28 166.373C216.978 181.339 188.659 198.559 163.32 222.196C161.181 224.19 158.835 225.892 156.581 227.731C156.352 227.323 156.121 226.911 155.888 226.502C178.245 196.44 204.695 173.603 238.257 162.702C231.103 162.802 223.134 161.304 217.017 164.825C192.54 178.902 167.821 192.824 146.248 213.202C145.756 213.667 145.412 214.335 145 214.906C144.729 214.291 144.458 213.677 144.191 213.063C161.801 187.347 186.432 174.824 211.812 163.37C204.18 164.583 196.647 163.318 189.057 168.057C166.67 182.029 145.567 198.071 127.032 218.468C126.002 219.603 124.928 220.689 123.873 221.8C137.823 194.567 159.028 177.994 184.042 166.459C176.364 168.112 168.517 169.612 161.892 173.91C140.677 187.681 121.906 205.301 105.278 225.814C104.219 227.121 103.078 228.348 101.976 229.614C113.745 203.028 132.52 185.012 156.507 173.348C146.125 175.897 136.185 178.739 127.919 188.102C111.637 206.546 94.9605 224.563 78.4508 242.758C77.2653 244.066 76.1147 245.415 74.9498 246.744C74.4954 246.35 74.0422 245.953 73.5878 245.559C79.7946 236.37 85.5063 226.714 92.3489 218.118C99.2776 209.418 107.324 201.768 115.659 192.825C91.3133 210.547 70.9642 231.966 50.6277 253.459C57.8809 239.33 67.7326 227.601 79.1552 217.23L79.1436 217.223ZM271.004 160.377C259.845 148.503 249.268 137.251 238.692 125.996C238.474 126.262 238.25 126.53 238.032 126.796C243.22 133.579 248.461 140.311 253.571 147.167C255.337 149.537 257.239 151.947 258.291 154.797C260.39 160.472 264.424 161.599 271.004 160.377Z" fill="url(#paint0_linear_1_84)" fill-opacity="0.1"/>
<defs>
<linearGradient id="paint0_linear_1_84" x1="211.184" y1="2.67219" x2="261.737" y2="368.653" gradientUnits="userSpaceOnUse">
<stop stop-color="white"/>
<stop offset="1" stop-color="#FF671F" stop-opacity="0"/>
</linearGradient>
</defs>
</svg>
