<svg width="831" height="773" viewBox="0 0 831 773" fill="none" xmlns="http://www.w3.org/2000/svg">
<path d="M520.621 654.068C527.519 691.115 530.075 728.758 530.953 766.712C540.288 716.383 531.568 668.731 521.178 621.232C536.956 664.1 555.065 705.704 564.583 751.676C564.779 743.639 564.386 735.846 563.173 728.279C556.332 685.58 539.64 648.131 520.387 612.045C518.713 608.907 518.067 605.002 516.938 601.455C517.73 601.019 518.52 600.578 519.312 600.142C541.162 643.893 569.025 683.205 586.706 730.153C587.202 728.861 587.371 727.764 587.146 726.807C585.89 721.46 584.865 715.993 583.169 710.855C569.269 668.774 546.251 633.811 520.953 600.608C519.158 598.25 518.442 594.794 517.227 591.849C517.864 591.449 518.503 591.045 519.136 590.643C546.96 631.638 577.152 670.608 596.558 718.778C597.412 718.213 598.269 717.645 599.123 717.081C593.941 703.706 589.502 689.83 583.428 677.056C567.789 644.174 546.139 616.886 522.062 592.201C517.279 587.298 517.102 581.499 516.558 575.038C549.104 614.458 585.19 649.943 613.084 694.511C607.537 681.435 601.672 668.579 594.101 657.273C572.97 625.699 547.375 599.251 519.68 575.52C514.256 570.87 513.786 564.841 513.149 558.058C549.331 598.948 590.474 633.581 624.509 677.179C619.84 667.64 615.02 658.155 608.778 650.159C581.083 614.666 549.147 584.675 515.002 557.704C510.32 554.006 508.604 549.089 507.973 542.705C529.016 560.687 549.985 578.701 569.98 598.021C590.001 617.367 609.058 638.021 628.875 658.453C626.025 653.473 623.534 648.597 620.609 644.099C591.196 598.828 551.896 567.121 509.625 539.676C502.559 535.09 501.379 527.172 498.431 519.84C545.515 556.1 594.091 589.733 636.103 633.79C628.242 622.018 620.232 610.342 610.816 600.408C578.62 566.449 541.717 540.148 502.332 518.22C494.887 514.077 491.078 507.371 488.318 498.757C502.315 506.727 516.025 515.167 529.477 524.093C543.026 533.088 556.408 542.419 569.701 551.881C583.001 561.348 596.324 570.804 609.225 580.932C621.885 590.873 634.028 601.655 646.397 612.069C645.241 610.28 644.226 608.119 642.751 606.509C628.553 591.066 615.245 574.317 599.834 560.63C567.031 531.503 529.386 511.99 489.859 496.815C484.126 494.613 479.993 488.888 478.884 480.39C538.838 513.709 596.882 549.13 646.991 599.002C645.85 596.412 644.557 594.031 643.089 591.803C632.283 575.414 618.996 561.869 604.284 550.533C584.691 535.438 564.663 520.943 544.066 507.657C524.624 495.115 504.079 484.648 482.108 478.421C472.737 475.764 468.641 468.053 464.882 459.34L464.891 459.496C464.319 458.774 463.749 458.049 463.177 457.327C464.374 457.933 465.571 458.521 466.816 458.97C505.238 472.876 541.354 492.274 575.33 516.277C597.692 532.074 619.068 549.633 639.957 565.69C639.743 565.388 638.882 563.714 637.671 562.475C622.809 547.238 608.698 530.866 592.822 517.132C562.102 490.551 526.802 473.719 489.296 462.522C480.559 459.916 471.516 458.446 462.581 456.577C458.871 451.88 455.164 447.179 451.451 442.48C451.95 441.764 452.451 441.044 452.949 440.328C525.601 461.592 594.13 492.111 650.534 550.027C649.55 547.739 648.403 545.747 646.985 544.067C620.525 512.638 591.701 484.686 557.012 465.418C526.371 448.394 493.737 438.39 459.155 437.513C447.793 437.221 442.367 431.083 437.465 421.172C452.088 423.794 466.628 426.706 480.851 430.844C495.374 435.069 509.761 439.957 523.881 445.535C537.826 451.045 551.505 457.429 565.035 464.078C578.74 470.812 592.392 477.787 605.577 485.674C618.406 493.348 630.613 502.311 643.092 510.711C615.704 480.062 583.604 457.226 548.781 438.904C580.826 451.759 610.484 469.579 638.517 490.969C637.544 488.944 636.375 487.261 635.05 485.768C604.71 451.689 567.646 430.633 527.045 416.693C496.247 406.117 464.119 402.95 431.791 402.307C420.866 402.092 414.459 396.73 408.488 386.306C448.504 387.063 487.161 391.255 524.741 402.116C562.708 413.087 597.062 432.578 627.773 459.881C627.79 459.094 627.658 458.683 627.407 458.408C603.066 431.586 574.426 412.173 543.299 397.25C502.657 377.765 459.766 374.091 415.433 381.933C405.543 383.683 398.614 380.114 393.428 367.879C414.491 368.668 434.749 368.473 454.748 370.438C474.988 372.429 495.264 375.281 514.995 380.101C534.533 384.876 553.715 391.672 572.476 399.26C591.175 406.822 609.163 416.467 627.459 425.2C610.376 412.461 592.968 400.184 574.628 389.965C546.971 374.555 517.637 364.37 486.214 361.893C455.856 359.5 425.501 360.757 395.09 366.206C393.223 366.54 390.638 367.154 389.521 366.091C384.92 361.698 380.755 356.707 376.429 351.933C376.655 351.345 376.879 350.76 377.106 350.172C459.383 351.13 540.157 362.351 619.573 384.124C617.857 383.152 616.206 382.132 614.489 381.254C585.002 366.161 553.867 356.355 522.104 348.86C474.841 337.71 426.87 339.042 378.565 347.99C376.679 348.341 374.086 349.265 372.961 348.268C368.124 343.975 363.711 339.063 358.235 333.445C360.66 333.199 361.601 333.011 362.531 333.019C405.962 333.583 449.394 334.076 492.813 334.779C518.819 335.203 544.426 337.821 568.025 350.459C579.539 356.625 591.123 362.624 602.676 368.699C602.016 366.666 600.95 365.195 599.576 364.355C585.118 355.495 571.109 345.499 556.014 338.216C528.039 324.722 497.667 321.55 467.194 322.423C431.729 323.436 396.206 327.127 360.705 329.587C358.431 329.745 355.492 330.348 353.998 329.05C348.962 324.687 344.443 319.561 338.994 313.981C341.464 313.576 342.77 313.226 344.072 313.172C384.273 311.447 424.482 309.335 464.667 308.182C494.856 307.319 524.525 310.651 552.523 323.025C564.461 328.301 576.224 334.045 588.75 339.895C587.98 338.872 587.796 338.46 587.501 338.261C541.023 307.019 490.239 293.041 435.175 295.976C403.855 297.649 372.811 303.022 341.842 309.822C339.466 310.344 336.364 310.887 334.637 309.626C330.289 306.455 326.536 302.249 321.681 297.645C324.163 297.21 325.28 296.909 326.399 296.835C369.336 293.931 412.274 290.625 455.205 288.302C490.2 286.409 525.021 287.171 558.63 297.936C564.218 299.723 569.801 301.535 575.385 303.336C574.703 301.834 573.744 301.14 572.71 300.639C529.952 279.941 484.519 273.578 437.648 274.944C401.144 276.009 365.121 283.537 329.43 293.436C318.786 296.386 313.678 290.796 306.896 283.031C393.337 271.511 478.685 259.078 562.859 281.884C563.08 280.733 563.297 279.58 563.518 278.43C554.702 274.548 546.062 270.093 537.037 266.89C500.028 253.761 461.631 252.017 422.806 258.397C385.505 264.523 348.372 272.75 311.158 279.943C308.389 280.477 304.805 281.401 302.853 279.968C296.679 275.437 291.097 269.875 285.288 264.714C285.392 264.048 285.495 263.382 285.595 262.713C373.239 247.913 460.876 243.598 548.617 248.396C543.913 247.078 539.2 245.461 534.365 244.445C451.246 227.013 368.153 230.39 285.094 259.642C283.313 260.268 280.817 260.956 279.558 260.044C274.712 256.523 270.236 252.365 265.623 248.442C265.802 247.762 265.975 247.083 266.154 246.403C267.13 246.446 268.112 246.649 269.077 246.507C312.87 240.012 356.631 233.057 400.454 227.083C442.171 221.396 483.922 217.852 525.413 223.592C526.638 223.76 527.92 223.525 529.178 223.476C527.866 222.141 526.427 221.715 525.001 221.259C478.778 206.467 431.363 206.144 383.271 214.084C344.317 220.515 305.847 230.183 267.958 243.702C265.786 244.474 262.853 245.656 261.285 244.66C255.731 241.137 250.612 236.749 245.331 232.69C331.864 213.947 417.562 190.64 504.802 203.948C502.919 201.683 501.017 200.27 498.914 199.488C470.66 188.962 441.333 185.08 411.255 186.952C356.916 190.329 304.166 205.362 252.228 225.898C241.248 230.241 236.354 228.811 228.406 218.044C312.236 194.307 395.759 171.991 481.557 172.82C476.503 171.007 471.472 169.636 466.336 169.17C432.982 166.12 399.483 165.517 365.888 170.365C317.848 177.29 270.346 187.43 225.884 213.459C224.503 214.265 222.214 214.643 221.062 213.879C216.55 210.886 212.327 207.357 207.021 203.279C211.607 201.086 214.811 199.361 218.114 198C294.699 166.489 372.888 147.349 453.196 143.997C451.598 143.399 449.975 142.913 448.318 142.822C427.368 141.667 406.447 139.911 385.452 139.572C324.496 138.591 267.773 159.41 214.409 195.434C207.223 200.285 202.179 201.678 195.911 195.838C191.042 191.3 185.506 187.68 179.867 183.345C181.266 182.559 181.942 182.078 182.666 181.789C213.361 169.53 243.889 156.585 274.79 145.219C316.541 129.857 358.887 122.991 401.743 130.438C402.697 130.603 403.67 130.71 404.641 130.711C405.399 130.708 406.161 130.492 408.565 130.103C375.814 117.711 343.59 113.315 310.563 120.102C263.92 129.687 219.339 147.381 178.592 177.807C177.047 178.962 174.27 179.766 172.896 178.969C167.375 175.759 162.177 171.851 155.216 167.075C226.526 129.67 296.84 97.4875 374.592 98.1429C373.228 97.525 372.74 97.227 372.214 97.0767C348.109 90.1601 323.329 90.0721 298.587 94.3443C246.843 103.278 198.645 124.005 156.227 162.339C154.931 163.508 152.372 164.513 151.213 163.854C145.687 160.694 140.438 156.931 134.283 152.846C194.591 114.187 256.775 90.2789 323.713 87.0079C321.805 85.3481 320.048 84.6657 318.23 84.3399C278.286 77.1755 239.108 82.6923 201.902 104.195C179.404 117.197 158.189 133.395 136.352 148.061C134.597 149.241 131.874 150.994 130.655 150.272C123.308 145.906 116.27 140.899 107.738 135.175C162.953 101.484 218.127 73.9451 279.765 62.7437C277.226 62.3171 276.338 62.0598 275.434 62.0334C248.994 61.2384 222.653 63.6292 196.947 73.0609C165.201 84.7109 137.329 105.156 111.536 129.686C108.008 133.04 105.549 134.211 101.426 131.444C85.7738 120.943 69.8675 110.931 54.0519 100.735C42.5654 93.3303 31.0528 85.9777 19.6071 78.4886C17.1116 76.8576 15.1869 76.4443 13.0917 79.6456C10.284 83.9345 11.3448 86.3852 14.9253 88.6458C34.1647 100.8 53.3406 113.077 72.5211 125.346C79.9715 130.112 87.3798 134.956 95.178 140.005C72.7204 182.993 75.3533 227.965 77.3478 273.706C84.4512 229.633 91.4172 186.427 98.5521 142.174C104.885 146.125 109.576 149.024 114.232 151.99C115.205 152.61 116.044 153.493 117.318 154.577C96.2927 200.174 97.5621 247.816 99.7421 294.859C106.61 249.473 113.572 203.496 120.714 156.282C126.554 160.157 131.462 163.079 135.969 166.649C137.029 167.491 137.411 170.718 136.949 172.524C133.068 187.727 127.729 202.655 125.11 218.05C120.404 245.68 122.777 273.248 125.289 300.586C126.377 312.433 128.722 324.053 130.129 333.344C133.841 280.935 137.721 226.153 141.69 170.108C145.935 172.818 148.731 175.117 151.869 176.485C156.342 178.432 156.944 181.618 156.1 186.903C153.58 202.705 151.09 218.558 149.531 234.453C145.634 274.173 145.42 313.597 153.848 352.019C155.074 357.613 156.859 363.013 158.383 368.504C159.04 368.335 159.695 368.17 160.351 368.001C160.12 306.351 159.888 244.701 159.654 182.11C165.328 185.808 169.839 189.056 174.608 191.749C178.077 193.709 178.751 196.188 178.223 200.743C175.122 227.59 171.425 254.459 169.838 281.359C167.784 316.088 169.333 350.553 178.036 383.662C178.688 386.151 179.78 388.466 180.666 390.865C181.19 390.677 181.713 390.493 182.241 390.308C182.027 326.241 181.817 262.171 181.598 196.758C191.106 203.337 199.76 209.327 207.517 214.693C184.424 276.467 192.529 334.606 207.555 392.364C202.657 335.392 205.243 278.461 215.336 219.648C221.383 224.296 226.686 228.097 231.638 232.412C232.63 233.273 232.879 236.244 232.474 237.988C231.147 243.674 229.248 249.209 227.767 254.86C218.608 289.789 220.724 324.558 224.586 359.226C226.021 372.125 228.328 384.848 230.237 397.652C230.502 397.552 230.762 397.453 231.026 397.358C233.134 344.098 235.243 290.838 237.381 236.848C243.062 241.216 248.185 245.154 253.4 249.162C243.313 268.391 241.192 288.78 241.702 309.713C242.629 347.75 250.026 383.953 260.343 419.336C261.329 422.712 262.646 425.94 263.808 429.237C258.098 370.884 253.959 312.765 257.723 252.303C264.089 257.197 269.193 260.938 274.067 265.032C274.963 265.788 275.587 268.212 275.212 269.482C270.776 284.336 270.918 299.472 272.119 314.311C275.498 356.145 279.561 397.868 283.476 439.615C283.932 444.474 285.132 449.192 285.987 453.976C286.854 453.808 287.721 453.641 288.587 453.466C287.168 393.589 285.749 333.711 284.333 274.001C286.878 275.958 289.684 278.49 292.793 280.416C297.289 283.204 298.701 287.201 298.825 293.268C299.413 322.415 300.207 351.554 301.53 380.624C302.959 411.998 305.945 443.065 314.979 472.567C315.603 474.592 316.518 476.484 317.298 478.437C317.829 478.204 318.358 477.965 318.889 477.732C316.472 414.347 313.331 351.079 301.807 289.047C305.326 291.188 307.96 294.014 311.007 296.085C316.544 299.839 318.915 305.187 319.643 312.724C325.474 373.082 332.884 433.233 326.847 494.915C326.555 497.906 326.866 500.935 326.895 503.946C327.554 503.977 328.213 504.009 328.875 504.037C339.404 472.067 343.192 439.201 341.42 405.686C339.659 372.373 334.404 340.031 322.727 307.797C333.739 316.04 342.935 323.109 342.04 338.509C342.027 338.725 342.105 338.946 342.141 339.167C350.443 389.319 356.771 439.795 354.461 491.701C354.382 493.486 354.765 495.271 354.937 497.056C355.59 496.945 356.241 496.837 356.894 496.726C373.496 437.773 361.409 382.844 345.183 328.158C349.448 332.182 354.907 336.031 355.932 341.276C362.444 374.635 369.51 407.988 373.332 441.973C376.197 467.439 374.462 493.85 374.802 519.839C374.866 524.701 375.041 529.548 375.161 534.402C376.033 534.277 376.904 534.145 377.773 534.018C388.653 469.12 386.922 406.173 362.543 346.513C369.508 352.596 378.466 356.378 377.879 369.34C377.69 373.515 378.934 377.698 379.584 381.86C384.934 416.021 390.445 450.145 395.561 484.363C396.951 493.664 397.173 503.265 397.93 512.73C406.263 461.498 399.96 413.135 382.377 366.936C389.292 371.473 393.867 377.172 395.162 386.333C397.21 400.84 399.973 415.167 402.524 429.548C408.82 465.038 416.81 500.112 417.335 536.983C417.358 538.741 417.046 540.529 416.889 542.298C417.882 542.066 418.874 541.835 419.864 541.601C430.846 485.378 415.838 434.782 399.137 382.996C405.714 390.489 412.237 395.923 414.403 405.863C418.343 423.94 422.639 441.894 426.963 459.836C433.062 485.164 436.69 511.035 437.116 537.665C437.205 543.269 437.665 548.837 437.954 554.424C438.541 554.312 439.128 554.199 439.711 554.084C451.815 500.408 437.983 452.872 418.894 406.426C423.759 411.525 428.592 416.516 432.425 422.396C435.512 427.128 438.495 432.587 439.629 438.325C447.984 480.481 453.396 523.197 450.292 567.311C450.031 571.033 450.213 574.77 450.191 578.504C450.764 578.458 451.342 578.411 451.918 578.368C463.55 532.853 465.017 488.122 449.42 444.305C454.892 452.053 462.542 459.53 463.903 468.615C469.361 504.957 475.156 541.449 472.268 579.188C472.201 580.049 471.824 580.896 471.593 581.747C472.398 581.597 473.202 581.448 474.003 581.296C485.133 543.986 478.055 508.591 469.36 473.158C474.13 482.216 481.216 489.392 482.547 500.929C486.478 534.954 487.412 569.085 482.14 603.577C481.846 605.495 481.633 607.425 481.38 609.352C496.824 574.884 496.325 540.264 487.994 505.165C492.374 514.587 497.035 524.081 498.04 534.268C501.254 566.891 498.848 599.648 491.979 632.178C491.541 634.25 491.244 636.353 490.878 638.442C507.396 606.777 510.182 573.732 502.774 539.642C508.394 552.607 513.387 565.307 510.778 580.881C505.638 611.558 501.219 642.352 496.497 673.096C496.157 675.304 495.749 677.505 495.372 679.706C496.107 679.912 496.843 680.114 497.578 680.319C501.621 667.08 506.501 654.037 509.476 640.54C512.485 626.876 513.611 612.764 515.76 597.417C517.596 636.229 512.748 673.401 507.82 710.611C515.82 692.712 519.48 673.742 520.604 654.061L520.621 654.068ZM426.175 407.504C446.329 410.975 465.43 414.266 484.533 417.554C484.447 417.979 484.361 418.41 484.274 418.835C473.684 418.125 463.103 417.323 452.503 416.749C448.84 416.551 445.031 416.237 441.459 417.148C434.344 418.96 430.115 415.439 426.175 407.504Z" fill="url(#paint0_linear_2167_1633)" fill-opacity="0.1"/>
<path d="M720.939 349.747C736.509 374.042 749.107 400.348 760.581 427.491C752.964 387.677 733.047 356.372 711.966 325.786C735.623 351.061 760.606 374.573 780.62 404.372C778.467 398.486 775.957 392.99 772.919 387.956C755.777 359.551 733.005 338.529 708.77 319.426C706.663 317.765 705.08 315.174 703.25 313.019C703.699 312.415 704.145 311.808 704.594 311.205C732.896 334.909 764.282 353.213 790.481 380.748C790.472 379.632 790.28 378.777 789.845 378.166C787.408 374.755 785.106 371.172 782.411 368.072C760.338 342.683 733.7 325.762 705.914 310.945C703.942 309.892 702.437 307.652 700.717 305.963C701.063 305.442 701.411 304.917 701.754 304.395C733.592 323.931 766.565 341.14 794.362 368.931C794.818 368.212 795.276 367.489 795.733 366.77C788.164 358.978 780.99 350.554 772.948 343.522C752.243 325.421 728.786 313.556 704.315 304.458C699.455 302.651 697.671 298.52 695.432 294.042C730.238 310.72 766.481 323.262 799.39 345.358C791.642 337.916 783.728 330.748 775.021 325.323C750.716 310.168 724.644 300.347 697.829 293.255C692.577 291.865 690.515 287.673 688.117 282.998C725.973 299.416 765.632 309.5 802.708 328.659C796.605 323.456 790.409 318.348 783.609 314.834C753.436 299.232 721.764 289.155 689.357 282.067C684.913 281.095 682.267 278.163 679.988 273.772C700.349 279.125 720.664 284.527 740.649 291.229C760.659 297.941 780.346 305.949 800.519 313.521C797.035 310.954 793.84 308.333 790.439 306.144C756.23 284.092 718.741 275.453 680.318 270.98C673.896 270.233 670.781 264.933 666.554 260.701C710.977 269.801 755.728 276.458 798.707 293.045C789.657 287.389 780.527 281.855 770.877 278.094C737.885 265.241 703.674 259.641 668.915 258.109C662.344 257.821 657.674 254.355 653.217 249.127C665.621 249.8 677.95 250.916 690.232 252.479C702.604 254.057 714.952 255.938 727.272 257.946C739.599 259.955 751.938 261.949 764.166 264.581C776.164 267.167 788.029 270.549 799.953 273.582C798.605 272.708 797.254 271.514 795.727 270.887C781.044 264.879 766.632 257.604 751.573 253.31C719.521 244.173 686.71 243.755 653.777 247.161C649 247.654 644.375 245.016 641.147 239.271C694.041 241.559 746.153 246.063 796.651 263.911C795.085 262.452 793.47 261.201 791.772 260.123C779.273 252.197 765.792 247.232 751.91 244.384C733.422 240.593 714.792 237.394 696.095 235.277C678.446 233.278 660.592 233.182 642.916 236.673C635.378 238.161 630.212 234.072 625.004 229.136L625.055 229.245C624.435 228.932 623.815 228.614 623.195 228.3C624.235 228.303 625.269 228.293 626.298 228.165C658.069 224.243 689.74 225.134 721.178 230.135C741.869 233.427 762.35 238.352 782.049 242.368C781.808 242.227 780.707 241.33 779.477 240.873C764.373 235.258 749.488 228.548 734.079 224.388C704.261 216.336 673.913 217.004 643.578 222.553C636.512 223.847 629.549 226.074 622.55 227.974C618.525 225.926 614.5 223.874 610.472 221.825C610.628 221.125 610.785 220.422 610.941 219.723C669.581 208.667 727.88 205.808 785.23 227.185C783.864 225.889 782.465 224.865 780.96 224.164C752.84 211.055 724.002 201.32 693.401 200.003C666.369 198.837 639.9 203.476 614.627 215.427C606.323 219.351 600.645 216.885 594.268 211.497C605.597 208.073 616.949 204.888 628.421 202.705C640.137 200.477 651.942 198.778 663.751 197.675C675.414 196.586 687.135 196.226 698.824 196.113C710.663 195.998 722.533 196.076 734.325 196.984C745.799 197.868 757.19 199.911 768.618 201.446C740.05 189.238 710.303 184.397 679.875 183.815C706.732 181.453 733.279 183.553 759.671 188.827C758.389 187.716 757.062 186.924 755.677 186.325C723.993 172.71 691.162 170.964 657.805 175.654C632.5 179.211 608.35 188.612 584.775 199.913C576.809 203.733 570.642 202.185 563.345 196.816C592.515 182.8 621.683 171.764 651.975 165.946C682.579 160.066 713.002 161.665 743.019 170.244C742.807 169.668 742.594 169.418 742.334 169.31C717.063 158.763 690.797 155.139 664.014 155.671C629.043 156.363 596.959 169.315 567.121 191.124C560.465 195.99 554.433 195.929 547.186 188.964C562.652 181.869 577.254 174.355 592.285 168.498C607.499 162.572 622.984 157.257 638.637 153.563C654.137 149.908 669.957 147.844 685.698 146.506C701.388 145.172 717.157 145.604 732.889 145.264C716.891 142.264 700.79 139.717 684.602 138.997C660.19 137.913 636.057 141.219 612.613 150.864C589.964 160.181 568.359 172.138 547.911 187.149C546.656 188.069 544.96 189.455 543.849 189.092C539.265 187.588 534.827 185.492 530.333 183.613C530.329 183.105 530.324 182.601 530.32 182.093C590.126 152.841 651.775 131.562 715.454 118.413C713.935 118.335 712.449 118.197 710.956 118.187C685.31 117.998 659.983 122.234 634.86 128.371C597.479 137.505 563.149 155.928 530.753 179.983C529.488 180.923 527.876 182.535 526.777 182.223C522.051 180.877 517.456 178.93 511.889 176.858C513.574 175.797 514.201 175.318 514.876 174.985C546.462 159.587 578.029 144.137 609.645 128.844C628.583 119.685 647.859 112.26 668.543 112.816C678.635 113.087 688.729 113.211 698.824 113.402C697.766 112.171 696.574 111.495 695.34 111.387C682.349 110.238 669.358 108.104 656.356 108.328C632.261 108.746 609.38 117.505 587.58 129.227C562.209 142.867 537.559 158.467 512.575 173.167C510.975 174.109 509.021 175.615 507.569 175.22C502.679 173.896 497.945 171.832 492.41 169.777C494.081 168.585 494.926 167.856 495.852 167.343C524.448 151.464 552.938 135.302 581.685 119.843C603.283 108.231 625.701 99.8439 649.493 98.607C659.637 98.0799 669.788 97.955 680.523 97.6291C679.673 97.1691 679.423 96.938 679.152 96.9011C636.601 91.2115 595.865 99.5801 556.861 121.744C534.676 134.354 513.749 149.54 493.282 165.731C491.713 166.974 489.623 168.496 488.013 168.212C483.962 167.5 480.045 165.823 475.218 164.258C476.89 163.04 477.612 162.415 478.4 161.955C508.639 144.227 538.763 126.207 569.163 108.902C593.942 94.7957 619.355 82.6746 646.747 78.2314C651.301 77.4908 655.858 76.7694 660.413 76.0402C659.49 75.2016 658.598 75.0491 657.707 75.0623C620.859 75.648 586.169 87.5797 552.645 105.627C526.536 119.683 502.621 138.24 479.623 158.392C472.764 164.401 467.471 162.215 460.347 159.065C519.603 119.269 577.806 79.2108 645.223 65.0776C645.055 64.1647 644.883 63.2512 644.714 62.3383C637.227 62.738 629.703 62.6598 622.258 63.6269C591.731 67.5965 563.451 80.3092 537.18 99.0555C511.94 117.064 487.421 136.531 462.549 155.279C460.698 156.674 458.369 158.647 456.547 158.32C450.786 157.289 445.159 155.296 439.482 153.675C439.367 153.156 439.251 152.636 439.133 152.116C498.322 109.509 560.5 74.4918 625.356 46.0305C621.576 46.789 617.704 47.3339 613.916 48.359C548.797 65.9969 489.639 98.6817 437.893 150.077C436.783 151.177 435.174 152.584 434.002 152.382C429.491 151.598 425.065 150.218 420.607 149.059C420.542 148.502 420.473 147.948 420.409 147.391C421.127 147.067 421.896 146.856 422.553 146.402C452.385 125.764 482.063 104.805 512.066 84.5331C540.627 65.2355 569.824 47.4754 601.484 36.5287C602.418 36.2045 603.279 35.5677 604.175 35.0741C602.844 34.5859 601.682 34.801 600.52 34.9905C562.851 41.1101 528.451 58.133 495.921 81.3815C469.572 100.211 444.497 121.208 420.942 144.779C419.591 146.129 417.807 148.051 416.388 147.902C411.364 147.374 406.407 146.062 401.426 145.046C458.686 99.9914 514.038 51.9379 580.961 29.8159C578.952 28.8625 577.172 28.5327 575.427 28.732C551.978 31.3987 529.65 39.2635 508.421 51.5649C470.068 73.7844 436.193 103.86 404.477 137.622C397.772 144.761 393.823 145.507 384.998 140.609C438.876 92.9242 492.937 46.3792 555.253 15.7534C551.079 16.2809 547.047 17.1203 543.198 18.6514C518.194 28.5841 493.783 40.3397 470.86 56.0743C438.077 78.5693 406.602 103.194 381.864 138.21C381.095 139.295 379.547 140.402 378.494 140.268C374.376 139.745 370.312 138.729 365.308 137.709C368 134.453 369.826 132.039 371.827 129.852C418.243 79.1794 469.352 36.8736 526.502 5.22031C525.176 5.36891 523.862 5.60834 522.637 6.14531C507.149 12.9344 491.51 19.2774 476.222 26.6735C431.837 48.1485 396.739 83.8564 368.414 129.344C364.6 135.469 361.348 138.313 355.145 136.369C350.326 134.857 345.287 134.252 339.969 133.168C340.757 132.09 341.108 131.496 341.55 131.024C360.259 110.982 378.651 90.505 397.764 71.0348C423.587 44.7242 452.266 24.3444 485.401 14.1358C486.139 13.9076 486.874 13.631 487.576 13.278C488.124 12.9999 488.613 12.5668 490.241 11.41C463.006 14.3634 438.435 22.9105 416.476 39.8414C385.464 63.7523 358.26 92.7806 337.465 129.625C336.677 131.023 334.897 132.616 333.675 132.539C328.764 132.226 323.887 131.29 317.486 130.368C358.403 77.3495 400.089 28.4731 456.534 0.649544C455.371 0.699027 454.932 0.661105 454.509 0.743843C435.093 4.51208 417.138 13.467 400.455 25.563C365.567 50.8596 336.611 83.3977 316.866 126.573C316.262 127.89 314.697 129.549 313.67 129.494C308.769 129.219 303.897 128.406 298.277 127.69C330.874 77.7696 369.041 37.839 416.54 11.1103C414.686 10.6036 413.22 10.7495 411.811 11.1754C380.864 20.5289 354.091 38.7795 333.311 67.8787C320.745 85.4746 310.02 104.916 298.408 123.475C297.475 124.968 296.006 127.227 294.917 127.149C288.354 126.664 281.832 125.602 274.024 124.566C304.355 80.0933 336.413 40.0864 377.813 9.54857C375.854 10.1638 375.138 10.3009 374.477 10.6107C355.119 19.6582 336.742 30.9751 320.835 47.155C301.192 67.1384 286.863 92.0758 275.205 119.212C273.61 122.923 272.165 124.664 268.392 124.164C254.068 122.262 239.7 120.807 225.345 119.185C214.919 118.008 204.49 116.878 194.07 115.625C191.798 115.353 190.288 115.754 189.686 118.833C188.879 122.958 190.346 124.346 193.582 124.678C210.974 126.47 228.354 128.374 245.736 130.271C252.488 131.008 259.231 131.816 266.316 132.632C262.342 171.909 277.088 203.491 291.593 235.861C284.147 201.387 276.85 167.589 269.376 132.973C275.087 133.527 279.309 133.917 283.525 134.368C284.405 134.463 285.265 134.797 286.496 135.118C284.303 175.762 298.826 209.771 313.837 243.017C305.846 207.677 297.754 171.876 289.44 135.115C294.772 135.794 299.158 136.122 303.439 137.064C304.446 137.288 305.644 139.484 305.825 140.958C307.358 153.371 307.758 166.116 310.258 178.208C314.744 199.912 324.333 218.996 333.957 237.863C338.127 246.039 343.142 253.593 346.812 259.803C334.533 220.532 321.698 179.481 308.566 137.485C312.411 137.901 315.091 138.547 317.752 138.394C321.544 138.175 322.89 140.261 323.788 144.392C326.477 156.743 329.202 169.12 332.613 181.188C341.135 211.346 352.238 239.95 369.307 264.683C371.792 268.285 374.625 271.542 377.296 274.961C377.723 274.599 378.15 274.242 378.577 273.88C360.805 229.357 343.033 184.834 324.991 139.631C330.152 140.242 334.344 140.95 338.563 141.163C341.633 141.318 342.828 142.867 343.748 146.355C349.169 166.909 354.167 187.696 360.7 207.737C369.131 233.613 380.093 257.987 395.845 278.775C397.027 280.34 398.478 281.617 399.804 283.03C400.13 282.703 400.455 282.38 400.784 282.054C382.336 235.776 363.888 189.494 345.052 142.243C353.809 143.543 361.782 144.728 368.927 145.787C369.857 198.889 392.323 238.006 419.688 274.329C399.876 234.889 385.49 192.754 375.999 146.527C381.701 147.689 386.624 148.509 391.439 149.829C392.403 150.091 393.431 152.15 393.636 153.559C394.3 158.157 394.506 162.852 395.048 167.48C398.395 196.087 409.854 220.474 422.548 244.153C427.27 252.964 432.572 261.33 437.609 269.9C437.773 269.731 437.933 269.565 438.096 269.4C424.414 230.095 410.731 190.791 396.861 150.949C402.219 152.041 407.05 153.026 411.968 154.029C410.161 171.612 414.448 187.138 420.795 202.098C432.326 229.282 448.016 252.786 465.585 274.632C467.263 276.717 469.137 278.573 470.919 280.535C450.125 240.391 430.534 199.846 415.993 154.728C421.997 155.952 426.758 156.801 431.454 157.99C432.318 158.21 433.462 159.737 433.553 160.792C434.585 173.155 439.01 184.055 444.116 194.355C458.507 223.394 473.36 252.104 488.114 280.886C489.831 284.236 492.046 287.213 494.032 290.363C494.611 289.926 495.19 289.489 495.767 289.048C477.643 246.24 459.518 203.431 441.443 160.743C443.843 161.232 446.596 162.044 449.396 162.306C453.445 162.686 455.608 165.064 457.43 169.409C466.179 190.285 475.073 211.079 484.332 231.632C494.325 253.813 505.357 275.205 520.318 293.263C521.347 294.502 522.549 295.537 523.671 296.667C523.989 296.305 524.304 295.939 524.622 295.578C504.773 250.594 484.434 205.96 458.383 165.27C461.54 165.539 464.253 166.624 467.049 167.014C472.127 167.715 475.37 170.721 478.049 175.91C499.503 217.46 522.041 258.287 535.286 305.114C535.929 307.384 537.019 309.463 537.899 311.631C538.385 311.414 538.872 311.197 539.358 310.976C537.848 284.012 531.203 258.853 520.351 235.248C509.565 211.785 496.527 190.296 478.874 171.222C489.195 173.18 497.867 174.948 501.617 186.416C501.67 186.577 501.789 186.708 501.878 186.855C522.206 220.122 541.199 254.341 554.349 292.739C554.801 294.059 555.588 295.212 556.222 296.44C556.663 296.122 557.103 295.807 557.544 295.489C552.722 246.791 528.292 211.445 500.936 177.782C505.171 179.142 510.22 179.939 512.459 183.362C526.697 205.129 541.333 226.69 553.803 249.89C563.148 267.273 569.435 287.014 577.101 305.695C578.536 309.189 580.047 312.633 581.52 316.102C582.115 315.694 582.708 315.281 583.3 314.873C572.641 263.956 553.413 219.04 518.738 184.745C525.514 186.612 533.076 186.088 536.353 195.68C537.408 198.77 539.503 201.344 541.162 204.119C554.788 226.889 568.519 249.574 581.991 272.471C585.653 278.694 588.556 285.561 591.806 292.134C583.206 252.031 564.835 219.333 538.921 192.304C545.22 193.07 550.158 195.528 553.71 201.685C559.335 211.437 565.425 220.798 571.377 230.275C586.067 253.662 601.864 276.133 612.772 302.62C613.291 303.884 613.576 305.291 613.967 306.627C614.619 306.099 615.271 305.57 615.92 305.041C607.812 260.363 582.505 229.217 555.634 197.825C562.532 200.852 568.804 202.41 573.209 208.814C581.222 220.46 589.457 231.887 597.709 243.296C609.354 259.402 619.367 276.801 627.279 295.914C628.944 299.936 630.867 303.798 632.672 307.735C633.064 307.44 633.457 307.145 633.846 306.85C627.276 263.607 603.694 234.246 576.62 207.587C581.596 209.506 586.518 211.358 590.97 214.218C594.555 216.518 598.272 219.382 600.731 223.122C618.814 250.583 634.928 279.521 645.278 312.57C646.152 315.358 647.351 317.995 648.402 320.705C648.803 320.463 649.208 320.219 649.612 319.978C645.032 282.812 633.32 249.912 609.523 223.885C615.695 227.499 623.365 230.125 626.944 236.203C641.271 260.513 655.884 284.807 664.571 313.165C664.768 313.812 664.737 314.563 664.813 315.262C665.353 314.861 665.892 314.46 666.428 314.058C663.827 283.012 648.599 259.978 632.19 237.504C638.227 242.322 645.404 244.936 649.662 252.799C662.222 275.987 672.643 300.343 678.678 327.219C679.013 328.713 679.41 330.187 679.778 331.674C681.11 301.113 670.862 276.246 654.812 253.882C660.672 259.105 666.755 264.278 670.391 271.283C682.032 293.718 689.645 318.295 693.964 344.332C694.239 345.991 694.625 347.621 694.957 349.265C697.866 320.342 690.446 295.419 675.352 273.448C683.12 280.784 690.359 288.156 692.919 300.374C697.959 324.441 703.555 348.331 708.917 372.295C709.302 374.016 709.635 375.757 709.991 377.487C710.581 377.368 711.172 377.246 711.762 377.128C710.907 366.077 710.714 354.863 709.012 344.015C707.288 333.033 704.073 322.413 701.245 310.526C713.656 337.941 720.763 366.601 727.823 395.318C728.5 379.456 725.731 364.398 720.925 349.748L720.939 349.747ZM582.195 205.717C597.769 200.893 612.53 196.323 627.291 191.749C627.35 192.088 627.411 192.432 627.47 192.771C619.604 196.111 611.719 199.381 603.885 202.824C601.178 204.014 598.333 205.173 596.009 207.132C591.377 211.033 587.312 210.024 582.195 205.717Z" fill="url(#paint1_linear_2167_1633)" fill-opacity="0.1"/>
<defs>
<linearGradient id="paint0_linear_2167_1633" x1="625.058" y1="358.762" x2="235.775" y2="573.032" gradientUnits="userSpaceOnUse">
<stop stop-color="white"/>
<stop offset="1" stop-color="#FF671F" stop-opacity="0"/>
</linearGradient>
<linearGradient id="paint1_linear_2167_1633" x1="712.181" y1="98.0663" x2="487.563" y2="391.619" gradientUnits="userSpaceOnUse">
<stop stop-color="white"/>
<stop offset="1" stop-color="#FF671F" stop-opacity="0"/>
</linearGradient>
</defs>
</svg>
