<svg width="520" height="298" viewBox="0 0 520 298" fill="none" xmlns="http://www.w3.org/2000/svg">
<path d="M104.634 210.381C98.7788 238.627 96.4189 267.692 95.4093 297.137C88.2858 257.232 95.6936 220.888 104.446 184.8C91.3875 216.845 76.461 247.717 68.4239 282.689C68.3298 276.423 68.7084 270.395 69.746 264.609C75.5994 231.963 89.3519 204.206 105.156 177.72C106.531 175.417 107.083 172.432 108.021 169.766C107.386 169.363 106.752 168.954 106.117 168.551C88.1581 200.786 65.3882 229.077 50.764 264.14C50.374 263.095 50.2471 262.228 50.4356 261.502C51.491 257.447 52.3605 253.279 53.7685 249.422C65.3063 217.835 84.1368 192.529 104.791 168.779C106.257 167.092 106.861 164.463 107.864 162.272C107.354 161.909 106.842 161.543 106.335 161.178C83.5825 190.781 58.9382 218.615 42.9138 254.487C42.2298 253.978 41.5439 253.466 40.8599 252.957C45.1431 242.98 48.8309 232.553 53.8284 223.116C66.695 198.824 84.3617 179.376 103.965 162.15C107.858 158.729 108.047 154.233 108.537 149.253C81.9913 177.245 52.6237 201.886 29.7864 234.262C34.3618 224.547 39.1914 215.029 45.3837 206.857C62.6662 184.033 83.5058 165.56 106.017 149.373C110.425 146.201 110.852 141.55 111.42 136.328C81.9318 165.164 48.4949 188.729 20.716 219.847C24.5553 212.811 28.516 205.83 33.6105 200.122C56.2144 174.788 82.1941 154.079 109.929 135.9C113.732 133.408 115.155 129.725 115.714 124.811C98.6098 137.073 81.5661 149.365 65.2964 162.752C49.0057 176.158 33.4816 190.66 17.3461 204.927C19.6826 201.287 21.7293 197.699 24.123 194.441C48.1898 161.643 80.1176 140.203 114.407 122.321C120.138 119.333 121.152 113.271 123.587 107.811C85.3484 132.154 45.9288 154.333 11.7168 185.155C18.1462 176.644 24.6955 168.219 32.3638 161.265C58.584 137.492 88.5363 120.06 120.455 106.232C126.489 103.619 129.612 98.7158 131.906 92.2433C120.56 97.2954 109.443 102.736 98.53 108.576C87.5381 114.462 76.6778 120.623 65.8882 126.893C55.0929 133.166 44.28 139.429 33.8005 146.249C23.5178 152.944 13.6451 160.334 3.59265 167.42C4.53891 166.124 5.37376 164.526 6.57591 163.395C18.142 152.547 29.0013 140.612 41.5319 131.23C68.2025 111.264 98.6997 99.1717 130.679 90.6068C135.317 89.3633 138.694 85.2502 139.655 78.7321C91.0675 99.7348 44.0025 122.528 3.21796 157.209C4.1584 155.289 5.21959 153.543 6.42025 151.931C15.2603 140.07 26.0774 130.624 38.0251 123.013C53.9376 112.878 70.195 103.246 86.9019 94.5998C102.672 86.4379 119.314 79.98 137.073 76.9364C144.646 75.638 148.009 69.976 151.108 63.5081L151.1 63.6286C151.567 63.1143 152.032 62.5969 152.499 62.0826C151.529 62.4554 150.56 62.8152 149.552 63.0624C118.474 70.7306 89.2104 82.8591 61.6343 98.7431C43.4853 109.197 26.1166 121.102 9.15247 131.879C9.32692 131.662 10.0346 130.431 11.02 129.566C23.1201 118.934 34.6237 107.357 47.5291 97.9762C72.5009 79.8197 101.086 69.6203 131.405 63.9839C138.468 62.6725 145.768 62.2694 152.985 61.5476C156.012 58.1987 159.038 54.8468 162.068 51.4961C161.672 50.8984 161.274 50.2976 160.877 49.6999C102.151 60.2874 46.6745 78.4104 0.751707 118.832C1.5635 117.134 2.50391 115.679 3.6596 114.488C25.2368 92.2131 48.6914 72.8351 76.8038 60.691C101.636 49.9608 128.018 44.8531 155.898 47.0023C165.058 47.7055 169.48 43.3768 173.51 36.0701C161.703 36.912 149.961 37.9862 138.465 40.0395C126.725 42.1365 115.09 44.7599 103.665 47.9415C92.3822 51.0845 81.3054 54.9287 70.3474 58.9919C59.2477 63.1067 48.1887 67.4134 37.4992 72.467C27.0977 77.3847 17.1881 83.3558 7.06288 88.8662C29.3812 67.2733 55.4356 52.1427 83.6485 40.7458C57.7178 48.1189 33.6724 59.5488 10.9071 73.8876C11.7078 72.3929 12.6635 71.1797 13.743 70.1268C38.4683 46.1084 68.5097 32.7688 101.344 25.2524C126.252 19.5493 152.172 19.717 178.234 21.8644C187.04 22.5912 192.247 18.946 197.143 11.3287C164.884 8.64017 133.693 8.73526 103.317 14.1048C72.6292 19.5275 44.7851 31.8725 19.8149 50.5914C19.807 49.9775 19.9169 49.6686 20.1208 49.475C39.9533 30.6096 63.1912 17.8573 88.3984 8.80101C121.311 -3.02481 155.911 -2.36993 191.58 7.35859C199.538 9.52977 205.15 7.32146 209.428 -1.76879C192.445 -2.88016 176.118 -4.69033 159.984 -4.7997C143.654 -4.90903 127.289 -4.35131 111.348 -2.2185C95.5628 -0.104277 80.0479 3.60986 64.8662 7.97455C49.7345 12.3245 35.1597 18.3526 20.3435 23.6461C34.2135 15.1377 48.3419 7.01578 63.2053 0.569672C85.6196 -9.14959 109.343 -14.6683 134.69 -14.0214C159.178 -13.3965 183.634 -9.93407 208.102 -3.2058C209.603 -2.79376 211.682 -2.10416 212.591 -2.83924C216.335 -5.87927 219.731 -9.41973 223.256 -12.7775C223.078 -13.2536 222.902 -13.7266 222.724 -14.2027C156.401 -20.1952 91.2084 -18.0826 27.0263 -7.65282C28.4175 -8.26773 29.7563 -8.92616 31.1468 -9.46807C55.0339 -18.7912 80.206 -23.8684 105.866 -27.0959C144.049 -31.8972 182.703 -26.9333 221.565 -16.0188C223.083 -15.5917 225.165 -14.6607 226.08 -15.3444C230.013 -18.2868 233.609 -21.7449 238.068 -25.666C236.115 -26.056 235.358 -26.2794 234.608 -26.3493C199.598 -29.4669 164.588 -32.6397 129.587 -35.6477C108.623 -37.4481 87.9629 -37.5081 68.8419 -29.6121C59.5126 -25.7598 50.1282 -22.0432 40.7678 -18.265C41.3162 -19.7915 42.1868 -20.8483 43.3009 -21.3896C55.0245 -27.0959 66.3955 -33.7222 78.6202 -38.1505C101.275 -46.3538 125.78 -46.3332 150.334 -43.1594C178.911 -39.4679 207.513 -33.6885 236.107 -28.8682C237.939 -28.5593 240.302 -27.8498 241.517 -28.7366C245.611 -31.7173 249.294 -35.3337 253.73 -39.2273C251.743 -39.7447 250.693 -40.1237 249.644 -40.2725C217.256 -44.9058 184.864 -49.8406 152.485 -54.0271C128.159 -57.1707 104.219 -57.0086 81.5547 -49.6785C71.891 -46.5528 62.3643 -43.0488 52.2214 -39.5248C52.8505 -40.2574 53.0016 -40.5625 53.2416 -40.6937C90.9509 -61.184 131.994 -67.8964 176.352 -61.1052C201.583 -57.239 226.561 -50.5188 251.468 -42.6947C253.379 -42.0944 255.875 -41.4181 257.277 -42.2574C260.806 -44.3672 263.865 -47.3306 267.815 -50.5141C265.817 -51.0552 264.919 -51.3811 264.018 -51.53C229.434 -57.304 194.852 -63.391 160.269 -68.7127C132.078 -73.0509 104.007 -75.3089 76.8322 -69.6895C72.3143 -68.7572 67.7997 -67.8057 63.2843 -66.8622C63.846 -67.9745 64.6247 -68.4351 65.4618 -68.7406C100.09 -81.3359 136.759 -82.5636 174.526 -77.6636C203.94 -73.8465 232.914 -65.0424 261.602 -54.4214C270.158 -51.2558 274.32 -55.1846 279.848 -60.6686C210.268 -76.7056 141.577 -93.363 73.5516 -82.5193C73.3826 -83.4321 73.2165 -84.3467 73.0474 -85.2595C80.184 -87.5566 87.1836 -90.3131 94.4833 -92.065C124.417 -99.245 155.379 -97.4572 186.621 -89.3169C216.636 -81.4983 246.5 -72.0598 276.437 -63.4189C278.664 -62.7765 281.546 -61.7644 283.13 -62.7197C288.142 -65.7374 292.686 -69.6058 297.409 -73.144C297.331 -73.6706 297.253 -74.1971 297.177 -74.7254C226.654 -93.4118 156.054 -103.943 85.2964 -107.396C89.0984 -108.036 92.9103 -108.908 96.8156 -109.302C163.947 -116.052 230.893 -106.622 297.606 -77.0723C299.036 -76.4399 301.043 -75.7001 302.065 -76.3065C305.998 -78.6476 309.639 -81.5153 313.389 -84.1877C313.25 -84.7313 313.116 -85.2735 312.977 -85.8171C312.19 -85.8634 311.396 -85.7861 310.62 -85.9758C275.375 -94.6125 240.159 -103.604 204.885 -111.839C171.307 -119.677 137.683 -125.853 104.196 -124.785C103.208 -124.755 102.176 -125.043 101.163 -125.184C102.231 -126.115 103.394 -126.329 104.547 -126.566C141.92 -134.285 180.139 -130.654 218.838 -120.541C250.183 -112.351 281.114 -101.681 311.544 -88.0657C313.289 -87.2873 315.643 -86.1281 316.915 -86.7739C321.419 -89.059 325.58 -92.0523 329.869 -94.7769C260.273 -116.438 191.387 -141.581 120.965 -138.375C122.501 -139.982 124.045 -140.925 125.746 -141.361C148.603 -147.234 172.271 -147.851 196.499 -143.933C240.269 -136.857 282.666 -120.847 324.364 -100.623C333.18 -96.3468 337.135 -97.0584 343.627 -104.781C276.249 -130.105 209.108 -154.299 139.948 -160.679C144.036 -161.675 148.102 -162.329 152.245 -162.272C179.153 -161.912 206.158 -159.638 233.196 -153.117C271.861 -143.798 310.067 -132.023 345.697 -108.14C346.803 -107.4 348.645 -106.918 349.58 -107.419C353.24 -109.377 356.672 -111.775 360.981 -114.512C357.302 -116.593 354.734 -118.197 352.082 -119.526C290.606 -150.302 227.738 -171.589 163.037 -180.772C164.329 -181.106 165.642 -181.351 166.977 -181.286C183.872 -180.469 200.748 -180.122 217.673 -178.667C266.811 -174.438 312.364 -153.603 355.088 -121.218C360.842 -116.857 364.896 -115.361 369.995 -119.389C373.955 -122.52 378.446 -124.882 383.026 -127.791C381.904 -128.517 381.363 -128.946 380.782 -129.23C356.14 -141.277 331.637 -153.844 306.821 -165.214C273.293 -180.579 239.216 -189.386 204.615 -187.104C203.845 -187.054 203.06 -187.05 202.277 -187.129C201.666 -187.194 201.054 -187.423 199.12 -187.923C225.615 -194.879 251.623 -195.659 278.188 -187.676C315.706 -176.403 351.497 -158.992 384.097 -131.994C385.333 -130.969 387.565 -130.116 388.679 -130.623C393.154 -132.668 397.375 -135.281 403.024 -138.426C345.845 -173.354 289.429 -204.139 226.756 -209.996C227.86 -210.365 228.256 -210.557 228.681 -210.63C248.165 -214.036 268.138 -212.075 288.046 -206.727C329.68 -195.542 368.363 -175.477 402.246 -142.192C403.282 -141.176 405.336 -140.185 406.276 -140.603C410.755 -142.607 415.015 -145.105 420.009 -147.778C371.708 -182.78 321.779 -206.465 267.853 -214.489C269.404 -215.624 270.826 -216.011 272.294 -216.115C304.545 -218.416 336.079 -210.918 365.895 -191.149C383.925 -179.196 400.895 -164.861 418.379 -151.668C419.785 -150.606 421.965 -149.02 422.953 -149.482C428.91 -152.276 434.622 -155.593 441.545 -159.346C397.31 -190.068 353.059 -216.003 303.468 -229.761C305.518 -229.885 306.235 -230.012 306.964 -229.959C328.281 -228.412 349.493 -224.396 370.137 -214.956C395.631 -203.296 417.933 -185.114 438.527 -163.926C441.344 -161.029 443.316 -159.917 446.662 -161.731C459.361 -168.616 472.261 -175.099 485.089 -181.734C494.406 -186.552 503.744 -191.327 513.029 -196.214C515.053 -197.278 516.608 -197.442 518.271 -194.781C520.5 -191.215 519.625 -189.396 516.722 -187.931C501.118 -180.055 485.564 -172.077 470.007 -164.107C463.965 -161.01 457.955 -157.85 451.629 -154.561C469.388 -119.291 466.908 -84.533 464.937 -49.1245C459.562 -83.9809 454.291 -118.152 448.893 -153.151C443.757 -150.597 439.953 -148.727 436.176 -146.801C435.388 -146.399 434.704 -145.781 433.669 -145.042C450.252 -107.86 448.85 -70.9139 446.719 -34.5074C441.544 -70.3661 436.299 -106.692 430.918 -143.994C426.181 -141.458 422.201 -139.588 418.54 -137.181C417.679 -136.613 417.346 -134.134 417.704 -132.693C420.711 -120.551 424.895 -108.505 426.884 -96.3182C430.456 -74.4455 428.324 -53.2002 426.083 -32.1454C425.111 -23.0214 423.129 -14.1768 421.921 -7.06669C419.346 -48.1279 416.654 -91.0489 413.901 -134.96C410.459 -133.199 408.186 -131.64 405.647 -130.834C402.025 -129.686 401.515 -127.257 402.153 -123.078C404.059 -110.583 405.939 -98.0503 407.069 -85.5616C409.895 -54.3528 409.753 -23.6755 402.655 5.51452C401.622 9.76449 400.14 13.8175 398.868 17.9635C398.34 17.7783 397.814 17.5962 397.286 17.411C397.963 -30.5142 398.64 -78.4394 399.327 -127.096C394.725 -124.685 391.062 -122.529 387.197 -120.825C384.386 -119.585 383.823 -117.712 384.212 -114.126C386.498 -92.9942 389.264 -71.7955 390.329 -50.7459C391.708 -23.5697 390.185 3.10636 382.907 28.1419C382.362 30.0248 381.464 31.7352 380.73 33.5285C380.309 33.3394 379.89 33.1534 379.466 32.9661C380.147 -16.8399 380.827 -66.6491 381.523 -117.502C373.808 -113.164 366.785 -109.214 360.49 -105.676C378.612 -55.7447 371.617 -11.1944 359.046 32.4927C363.447 -11.4125 361.816 -55.899 354.149 -102.463C349.238 -99.3434 344.933 -96.822 340.908 -93.8717C340.102 -93.2829 339.877 -90.9934 340.19 -89.6039C341.214 -85.073 342.701 -80.6135 343.85 -76.0974C350.954 -48.1832 348.972 -21.3176 345.583 5.32743C344.323 15.2408 342.363 24.9464 340.722 34.7473C340.509 34.6481 340.3 34.5502 340.089 34.454C338.813 -7.1381 337.537 -48.7302 336.244 -90.8919C331.63 -87.9607 327.47 -85.3176 323.235 -82.6274C331.211 -66.8477 332.759 -50.817 332.181 -34.5796C331.132 -5.07535 324.882 22.4741 316.284 49.1459C315.463 51.6909 314.376 54.0931 313.413 56.5616C318.479 11.6489 322.278 -33.2099 319.725 -80.5384C314.555 -77.254 310.412 -74.7629 306.451 -71.9774C305.722 -71.4635 305.2 -69.6291 305.492 -68.6111C308.95 -56.696 308.714 -44.9365 307.629 -33.4947C304.572 -1.23817 300.965 30.8767 297.478 63.0225C297.072 66.7638 296.067 70.3342 295.34 73.9851C294.642 73.7836 293.945 73.5821 293.248 73.3757C294.868 26.9261 296.488 -19.5236 298.105 -65.8433C296.038 -64.5299 293.757 -62.7905 291.235 -61.5473C287.589 -59.7475 286.419 -56.7545 286.271 -52.0464C285.565 -29.4276 284.694 -6.8317 283.396 15.6678C281.994 39.9494 279.34 63.8656 271.824 86.0686C271.306 87.5931 270.553 88.9889 269.909 90.444C269.483 90.2195 269.058 89.9901 268.632 89.7657C271.084 40.6698 274.12 -8.27534 283.901 -55.5731C281.048 -54.1959 278.903 -52.2142 276.43 -50.8527C271.937 -48.3868 269.983 -44.4222 269.337 -38.6207C264.157 7.84137 257.706 54.0137 262.081 102.477C262.293 104.827 262.018 107.157 261.971 109.496C261.439 109.467 260.907 109.437 260.374 109.405C252.142 83.68 249.35 57.8108 251.045 31.8916C252.729 6.12885 257.222 -18.5926 266.89 -42.7048C257.95 -37.1956 250.481 -32.4511 251.08 -20.4019C251.089 -20.2322 251.024 -20.0674 250.993 -19.8984C243.903 18.4247 238.401 57.1607 239.85 97.7167C239.899 99.1108 239.577 100.468 239.423 101.842C238.898 101.702 238.374 101.565 237.849 101.425C224.937 54.2191 235.116 12.4911 248.629 -28.7089C245.16 -25.9288 240.729 -23.3827 239.861 -19.3869C234.347 6.02206 228.386 31.3814 225.036 57.4986C222.524 77.0686 223.712 97.7502 223.231 117.934C223.141 121.709 222.961 125.464 222.826 129.229C222.124 129.061 221.423 128.887 220.724 128.716C212.471 77.3557 214.367 28.5449 234.491 -15.8557C228.829 -11.6954 221.578 -9.48797 221.948 0.640787C222.068 3.90272 221.032 7.05378 220.475 10.2377C215.891 36.366 211.177 62.4526 206.782 88.6444C205.587 95.7634 205.332 103.212 204.647 110.511C198.338 69.9859 203.803 32.8915 218.342 -1.59724C212.733 1.36473 209 5.42214 207.883 12.4402C206.117 23.5546 203.777 34.4707 201.606 45.4451C196.249 72.5296 189.53 99.1523 188.814 127.783C188.78 129.149 189.018 130.564 189.13 131.953C188.332 131.691 187.534 131.43 186.739 131.167C178.334 86.5445 190.833 48.426 204.706 9.52027C199.345 14.8082 194.044 18.5002 192.22 26.0535C188.901 39.7893 185.295 53.3999 181.667 66.9991C176.55 86.1967 173.42 106.019 172.865 126.693C172.748 131.044 172.333 135.337 172.056 139.659C171.583 139.523 171.111 139.388 170.642 139.25C161.314 96.5164 172.84 60.6806 188.595 26.1237C184.634 29.6905 180.699 33.1762 177.562 37.4353C175.037 40.8625 172.589 44.8633 171.63 49.2332C164.56 81.3329 159.858 114.109 162.009 148.67C162.19 151.586 162.013 154.477 162.001 157.383C161.54 157.3 161.074 157.216 160.61 157.136C151.597 120.787 150.77 85.8802 163.69 53.0819C159.218 58.6591 152.993 63.8475 151.823 70.801C147.135 98.6174 142.174 126.522 144.202 156.107C144.249 156.782 144.546 157.472 144.725 158.152C144.078 157.97 143.431 157.788 142.786 157.604C134.113 127.678 140.099 100.731 147.389 73.8872C143.473 80.541 137.704 85.5416 136.539 94.4046C133.1 120.544 132.076 147.01 136.051 174.266C136.272 175.781 136.429 177.3 136.617 178.819C124.444 150.749 125.122 123.867 132.116 97.2534C128.51 104.222 124.678 111.224 123.787 119.063C120.937 144.171 122.616 169.842 127.893 195.703C128.229 197.35 128.452 199.01 128.73 200.664C115.669 174.686 113.687 148.76 119.928 122.855C115.296 132.478 111.17 141.946 113.149 154.271C117.048 178.548 120.365 202.859 123.926 227.154C124.183 228.899 124.493 230.644 124.78 232.387C124.186 232.487 123.591 232.583 122.998 232.683C119.844 222.056 116.014 211.513 113.724 200.773C111.407 189.9 110.612 178.834 109.002 166.723C107.214 196.756 110.825 226.061 114.501 255.402C108.196 240.827 105.397 225.775 104.647 210.377L104.634 210.381ZM182.719 26.3653C166.447 27.4145 151.025 28.4102 135.602 29.4027C135.668 29.7403 135.734 30.0829 135.8 30.4205C144.342 30.7354 152.876 30.9777 161.425 31.3991C164.379 31.5455 167.451 31.6128 170.323 32.6142C176.043 34.6056 179.48 32.2135 182.719 26.3653Z" fill="url(#paint0_linear_1_83)" fill-opacity="0.1"/>
<defs>
<linearGradient id="paint0_linear_1_83" x1="22.8071" y1="-27.825" x2="337.612" y2="166.225" gradientUnits="userSpaceOnUse">
<stop stop-color="white"/>
<stop offset="1" stop-color="#FF671F" stop-opacity="0"/>
</linearGradient>
</defs>
</svg>
