<svg width="34" height="34" viewBox="0 0 34 34" fill="none" xmlns="http://www.w3.org/2000/svg">
<path d="M28.8421 14.6316L16.2105 2L2 16.2105H5.15789V27.2632C5.15789 28.1007 5.4906 28.9039 6.08282 29.4961C6.67504 30.0883 7.47826 30.4211 8.31579 30.4211H16.2105M11.4737 30.4211V20.9474C11.4737 20.1098 11.8064 19.3066 12.3986 18.7144C12.9908 18.1222 13.7941 17.7895 14.6316 17.7895H17.7895C18.3026 17.7895 18.7858 17.9111 19.2137 18.1289M22.5263 32C22.5263 32 22.5263 28.8421 27.2632 25.6842M27.2632 30.4211C26.0069 30.4211 24.802 29.922 23.9137 29.0337C23.0254 28.1453 22.5263 26.9405 22.5263 25.6842C22.5263 24.4279 23.0254 23.2231 23.9137 22.3348C24.802 21.4464 26.0069 20.9474 27.2632 20.9474H32V25.6842C32 26.9405 31.5009 28.1453 30.6126 29.0337C29.7243 29.922 28.5194 30.4211 27.2632 30.4211Z" stroke="#FF671F" strokeWidth="2.5" strokeLinecap="round" strokeLinejoin="round"/>
</svg>
