<svg width="33" height="34" viewBox="0 0 33 34" fill="none" xmlns="http://www.w3.org/2000/svg">
<path d="M4.83333 15.1746C5.71739 15.1746 6.56523 15.5258 7.19036 16.151C7.81548 16.7761 8.16667 17.6239 8.16667 18.508V21.8413H24.8333V18.508C24.8333 17.6239 25.1845 16.7761 25.8096 16.151C26.4348 15.5258 27.2826 15.1746 28.1667 15.1746M4.83333 15.1746C3.94928 15.1746 3.10143 15.5258 2.47631 16.151C1.85119 16.7761 1.5 17.6239 1.5 18.508V25.1746C1.5 26.0587 1.85119 26.9065 2.47631 27.5317C3.10143 28.1568 3.94928 28.508 4.83333 28.508H28.1667C29.0507 28.508 29.8986 28.1568 30.5237 27.5317C31.1488 26.9065 31.5 26.0587 31.5 25.1746V18.508C31.5 17.6239 31.1488 16.7761 30.5237 16.151C29.8986 15.5258 29.0507 15.1746 28.1667 15.1746M4.83333 15.1746V6.84131C4.83333 5.51523 5.36012 4.24346 6.2978 3.30577C7.23548 2.36809 8.50725 1.84131 9.83333 1.84131H23.1667C24.4927 1.84131 25.7645 2.36809 26.7022 3.30577C27.6399 4.24346 28.1667 5.51523 28.1667 6.84131V15.1746M6.5 28.508V31.8413M26.5 28.508V31.8413" stroke="#FF671F" strokeWidth="2.5" strokeLinecap="round" strokeLinejoin="round"/>
</svg>
