<svg width="35" height="34" viewBox="0 0 35 34" fill="none" xmlns="http://www.w3.org/2000/svg">
<path d="M3.00443 15.9212L12.6592 12.4069L16.1712 2.75443C16.2517 2.53331 16.3983 2.34231 16.5911 2.20735C16.7839 2.07239 17.0135 2 17.2488 2C17.4842 2 17.7138 2.07239 17.9066 2.20735C18.0994 2.34231 18.2459 2.53331 18.3265 2.75443L21.8408 12.4092L31.4956 15.9212C31.7167 16.0017 31.9077 16.1483 32.0426 16.3411C32.1776 16.5339 32.25 16.7635 32.25 16.9988C32.25 17.2342 32.1776 17.4638 32.0426 17.6566C31.9077 17.8494 31.7167 17.9959 31.4956 18.0765L21.8385 21.5908L18.3265 31.2456C18.2459 31.4667 18.0994 31.6577 17.9066 31.7926C17.7138 31.9276 17.4842 32 17.2488 32C17.0135 32 16.7839 31.9276 16.5911 31.7926C16.3983 31.6577 16.2517 31.4667 16.1712 31.2456L12.6569 21.5885L3.00443 18.0765C2.78331 17.9959 2.59231 17.8494 2.45735 17.6566C2.32239 17.4638 2.25 17.2342 2.25 16.9988C2.25 16.7635 2.32239 16.5339 2.45735 16.3411C2.59231 16.1483 2.78331 16.0017 3.00443 15.9212Z" stroke="#FF671F" stroke-width="2.5" stroke-linecap="round" stroke-linejoin="round"/>
</svg>
