<svg width="15" height="12" viewBox="0 0 15 12" fill="none" xmlns="http://www.w3.org/2000/svg">
<path d="M5.37785 0C5.97441 0.000127422 6.54649 0.237241 6.96826 0.659187L11.2498 4.94128C11.7293 5.42084 11.9986 6.07121 11.9986 6.74935C11.9986 7.42749 11.7293 8.07787 11.2498 8.55743L8.55642 11.2512C8.07691 11.7306 7.42662 12 6.74856 12C6.0705 12 5.4202 11.7306 4.94069 11.2512L0.659109 6.96908C0.237213 6.54727 0.000127407 5.97512 0 5.37849V2.24978C0 1.6531 0.237002 1.08086 0.658869 0.658947C1.08074 0.23703 1.65291 0 2.24952 0H5.37785ZM3.7492 2.99971H3.7417C3.54283 3.00071 3.3525 3.08067 3.21258 3.22201C3.07266 3.36336 2.99462 3.5545 2.99561 3.75339C2.9966 3.95228 3.07656 4.14264 3.21788 4.28257C3.35921 4.42251 3.55033 4.50056 3.7492 4.49957C3.94807 4.49957 4.13879 4.42056 4.27941 4.27992C4.42004 4.13928 4.49904 3.94853 4.49904 3.74964C4.49904 3.55075 4.42004 3.36 4.27941 3.21936C4.13879 3.07872 3.94807 2.99971 3.7492 2.99971Z" fill="#FF671F"/>
<path d="M9.21778 0.219729C9.35839 0.0791393 9.54908 0.000160202 9.74792 0.000160202C9.94675 0.000160202 10.1374 0.0791393 10.2781 0.219729L13.7221 3.6634C14.5403 4.4819 15 5.59193 15 6.74935C15 7.90678 14.5403 9.01681 13.7221 9.83531L12.5283 11.0292C12.3869 11.1658 12.1975 11.2414 12.0009 11.2397C11.8043 11.238 11.6162 11.1591 11.4772 11.0201C11.3382 10.881 11.2593 10.6929 11.2576 10.4963C11.2559 10.2997 11.3315 10.1102 11.468 9.9688L12.6618 8.77491C13.1989 8.23768 13.5006 7.50907 13.5006 6.74935C13.5006 5.98964 13.1989 5.26103 12.6618 4.7238L9.21853 1.28013C9.07796 1.1395 8.99899 0.948782 8.99899 0.749928C8.99899 0.551074 9.07721 0.360361 9.21778 0.219729Z" fill="#FF671F"/>
</svg>
