<svg width="22" height="22" viewBox="0 0 22 22" fill="none" xmlns="http://www.w3.org/2000/svg">
<path d="M1.40338 8.50536C3.89327 13.9263 8.3166 18.223 13.8076 20.5543L14.6894 20.9472C15.6658 21.382 16.7644 21.4582 17.7916 21.1624C18.8187 20.8666 19.7085 20.2178 20.3041 19.3302L21.4569 17.6134C21.6373 17.3441 21.7103 17.0171 21.6616 16.6967C21.6128 16.3763 21.4459 16.0857 21.1936 15.8823L17.288 12.7313C17.1519 12.6216 16.9952 12.5406 16.827 12.493C16.6589 12.4455 16.4829 12.4324 16.3096 12.4546C16.1363 12.4767 15.9693 12.5337 15.8185 12.622C15.6678 12.7104 15.5364 12.8282 15.4324 12.9686L14.2239 14.5986C11.1216 13.0664 8.6106 10.5549 7.07904 7.45244L8.7077 6.24391C8.84806 6.13987 8.96595 6.00853 9.05428 5.85778C9.14261 5.70704 9.19957 5.53999 9.22174 5.36669C9.2439 5.19338 9.23081 5.01738 9.18325 4.84925C9.1357 4.68113 9.05465 4.52435 8.94499 4.38833L5.79401 0.482667C5.59055 0.230398 5.3 0.063461 4.9796 0.0147401C4.65919 -0.0339808 4.33216 0.0390465 4.06291 0.219437L2.33441 1.37869C1.4415 1.97748 0.790152 2.8738 0.4964 3.90799C0.202648 4.94218 0.285568 6.04706 0.730388 7.02582L1.40338 8.50536Z" fill="#FF671F"/>
</svg>
