<svg width="24" height="24" viewBox="0 0 24 24" fill="none" xmlns="http://www.w3.org/2000/svg">
<path d="M18.5495 4.77257C18.2767 4.77257 18.01 4.85347 17.7831 5.00504C17.5563 5.1566 17.3795 5.37203 17.2751 5.62407C17.1707 5.87612 17.1434 6.15346 17.1966 6.42103C17.2498 6.6886 17.3812 6.93438 17.5741 7.12729C17.767 7.3202 18.0128 7.45157 18.2804 7.50479C18.5479 7.55801 18.8253 7.5307 19.0773 7.4263C19.3294 7.3219 19.5448 7.1451 19.6964 6.91827C19.8479 6.69143 19.9288 6.42475 19.9288 6.15193C19.9288 5.7861 19.7835 5.43526 19.5248 5.17658C19.2661 4.9179 18.9153 4.77257 18.5495 4.77257ZM23.837 7.55428C23.8145 6.60059 23.6358 5.65703 23.3083 4.76108C23.0173 3.99386 22.5622 3.29948 21.9749 2.72652C21.4057 2.13733 20.71 1.6853 19.9403 1.40463C19.0468 1.06687 18.1022 0.884161 17.1471 0.864378C15.9287 0.79541 15.5379 0.79541 12.4113 0.79541C9.28476 0.79541 8.89394 0.79541 7.6755 0.864378C6.72047 0.884161 5.77582 1.06687 4.88229 1.40463C4.11442 1.68884 3.41944 2.14038 2.84773 2.72652C2.25855 3.29571 1.80652 3.99144 1.52584 4.76108C1.18809 5.65461 1.00538 6.59925 0.985594 7.55428C0.916626 8.77272 0.916626 9.16354 0.916626 12.2901C0.916626 15.4166 0.916626 15.8075 0.985594 17.0259C1.00538 17.9809 1.18809 18.9256 1.52584 19.8191C1.80652 20.5888 2.25855 21.2845 2.84773 21.8537C3.41944 22.4398 4.11442 22.8913 4.88229 23.1756C5.77582 23.5133 6.72047 23.696 7.6755 23.7158C8.89394 23.7848 9.28476 23.7848 12.4113 23.7848C15.5379 23.7848 15.9287 23.7848 17.1471 23.7158C18.1022 23.696 19.0468 23.5133 19.9403 23.1756C20.71 22.8949 21.4057 22.4429 21.9749 21.8537C22.5637 21.2819 23.019 20.5872 23.3083 19.8191C23.6358 18.9232 23.8145 17.9796 23.837 17.0259C23.837 15.8075 23.906 15.4166 23.906 12.2901C23.906 9.16354 23.906 8.77272 23.837 7.55428ZM21.768 16.888C21.7598 17.6176 21.6277 18.3406 21.3772 19.026C21.1936 19.5262 20.8988 19.9782 20.5151 20.3479C20.142 20.7275 19.691 21.0216 19.1932 21.21C18.5078 21.4605 17.7848 21.5926 17.0552 21.6008C15.9057 21.6583 15.4804 21.6698 12.4573 21.6698C9.43419 21.6698 9.00888 21.6698 7.85942 21.6008C7.10174 21.6157 6.34723 21.499 5.62945 21.2559C5.15378 21.0575 4.72356 20.7641 4.36503 20.3938C3.98351 20.0246 3.69241 19.5722 3.51442 19.072C3.23286 18.377 3.07717 17.6375 3.05464 16.888C3.05464 15.7385 2.98567 15.3132 2.98567 12.2901C2.98567 9.26699 2.98567 8.84169 3.05464 7.69222C3.05883 6.94619 3.19503 6.20679 3.45695 5.50823C3.65931 5.02305 3.96992 4.59056 4.36503 4.24382C4.71323 3.84747 5.1451 3.53338 5.62945 3.32424C6.32993 3.07076 7.06852 2.93859 7.81344 2.93342C8.9629 2.93342 9.38821 2.86445 12.4113 2.86445C15.4344 2.86445 15.8597 2.86445 17.0092 2.93342C17.7389 2.94157 18.4618 3.07372 19.1472 3.32424C19.6695 3.5181 20.1384 3.83328 20.5151 4.24382C20.8906 4.59788 21.1848 5.0293 21.3772 5.50823C21.6329 6.20812 21.7651 6.94709 21.768 7.69222C21.8255 8.84169 21.837 9.26699 21.837 12.2901C21.837 15.3132 21.8255 15.7385 21.768 16.888ZM12.4113 6.39332C11.2455 6.39559 10.1066 6.74336 9.13838 7.39269C8.17017 8.04202 7.41616 8.96376 6.9716 10.0415C6.52705 11.1191 6.41192 12.3044 6.64074 13.4475C6.86957 14.5906 7.43208 15.6403 8.25722 16.4638C9.08235 17.2873 10.1331 17.8478 11.2766 18.0744C12.4202 18.301 13.6052 18.1835 14.682 17.7369C15.7589 17.2902 16.6791 16.5344 17.3266 15.565C17.974 14.5955 18.3196 13.4559 18.3196 12.2901C18.3211 11.5143 18.1692 10.7459 17.8727 10.029C17.5762 9.31217 17.1409 8.661 16.5918 8.11298C16.0427 7.56497 15.3907 7.13091 14.6732 6.83579C13.9558 6.54066 13.1871 6.39029 12.4113 6.39332ZM12.4113 16.1178C11.6543 16.1178 10.9142 15.8933 10.2847 15.4727C9.65527 15.0521 9.16466 14.4543 8.87495 13.7549C8.58524 13.0555 8.50944 12.2858 8.65713 11.5433C8.80482 10.8008 9.16938 10.1188 9.7047 9.58348C10.24 9.04816 10.9221 8.68361 11.6646 8.53591C12.4071 8.38822 13.1767 8.46402 13.8761 8.75373C14.5755 9.04344 15.1734 9.53405 15.594 10.1635C16.0145 10.793 16.239 11.533 16.239 12.2901C16.239 12.7928 16.14 13.2905 15.9477 13.7549C15.7553 14.2193 15.4734 14.6413 15.1179 14.9967C14.7625 15.3521 14.3405 15.6341 13.8761 15.8265C13.4117 16.0188 12.914 16.1178 12.4113 16.1178Z" fill="#FF671F"/>
</svg>
