<svg width="721" height="511" viewBox="0 0 721 511" fill="none" xmlns="http://www.w3.org/2000/svg">
<path d="M99.1286 418.291C81.9293 447.215 68.3944 478.283 56.2515 510.25C63.062 463.902 85.0492 426.642 108.469 390.14C81.6674 420.669 53.183 449.244 30.9932 484.775C33.2263 477.862 35.9077 471.379 39.2469 465.397C58.0875 431.642 84.0751 406.068 111.919 382.62C114.341 380.582 116.082 377.502 118.143 374.909C117.573 374.24 117.005 373.566 116.435 372.897C83.9964 401.888 47.5661 424.835 17.8597 458.12C17.8071 456.833 17.9867 455.836 18.472 455.106C21.1853 451.03 23.7293 446.764 26.769 443.032C51.6715 412.464 82.512 391.39 114.843 372.675C117.138 371.345 118.807 368.674 120.764 366.626C120.32 366.046 119.875 365.461 119.435 364.88C82.5352 389.274 44.1463 411.052 12.5474 444.725C11.9604 443.923 11.3726 443.116 10.7855 442.314C19.377 432.886 27.4602 422.753 36.6609 414.173C60.3483 392.088 87.6795 377.03 116.38 365.103C122.081 362.734 123.974 357.866 126.39 352.573C85.7826 373.846 43.2208 390.437 5.1885 417.845C14.0137 408.809 23.0543 400.081 33.1403 393.315C61.2957 374.414 91.8665 361.558 123.483 351.806C129.675 349.894 131.897 344.941 134.492 339.41C90.2264 360.563 43.4442 374.521 0.268122 398.788C7.25684 392.431 14.3631 386.178 22.2817 381.727C57.4192 361.966 94.6641 348.486 132.958 338.409C138.209 337.027 141.2 333.491 143.67 328.296C119.662 335.664 95.7113 343.087 72.2304 351.988C48.719 360.902 25.6689 371.293 2.01196 381.208C6.0254 378.044 9.69031 374.834 13.626 372.11C53.2127 344.676 97.4874 332.512 143.115 325.096C150.742 323.858 154.158 317.565 158.962 312.437C106.435 325.54 53.3743 335.846 3.0012 357.496C13.483 350.442 24.0688 343.526 35.3766 338.623C74.039 321.865 114.573 313.398 155.995 309.588C163.825 308.869 169.203 304.599 174.225 298.31C159.451 299.814 144.791 301.827 130.214 304.351C115.529 306.897 100.892 309.792 86.2942 312.831C71.6887 315.872 57.067 318.896 42.6162 322.65C28.4356 326.336 14.461 330.933 0.395691 335.131C1.95494 334.045 3.49985 332.588 5.28766 331.775C22.4771 323.986 39.2699 314.751 57.0075 308.915C94.7597 296.498 133.918 294.086 173.443 296.076C179.176 296.363 184.548 293.051 188.074 286.237C125.038 291.986 63.0636 300.242 3.78338 323.787C5.56892 322.014 7.42624 320.476 9.39216 319.133C23.8632 309.261 39.6783 302.745 56.0926 298.645C77.9529 293.188 100.017 288.404 122.224 284.864C143.186 281.522 164.502 280.361 185.811 283.346C194.899 284.619 200.834 279.601 206.77 273.604L206.715 273.733C207.438 273.335 208.159 272.933 208.882 272.534C207.641 272.598 206.405 272.648 205.169 272.56C167.002 269.907 129.231 272.797 91.9746 280.411C67.4544 285.423 43.2788 292.305 19.984 298.093C20.2634 297.916 21.5269 296.817 22.9693 296.219C40.6848 288.857 58.0754 280.246 76.2384 274.544C111.385 263.508 147.665 262.494 184.211 267.107C192.724 268.184 201.166 270.342 209.634 272.12C214.323 269.522 219.011 266.92 223.705 264.321C223.478 263.524 223.25 262.722 223.023 261.925C152.36 252.627 82.5743 252.76 15.3137 280.776C16.87 279.201 18.4817 277.939 20.2393 277.043C53.068 260.276 86.9475 247.357 123.416 244.04C155.631 241.106 187.508 244.898 218.375 257.19C228.517 261.225 235.157 258.048 242.463 251.462C228.737 248.18 214.997 245.176 201.171 243.335C187.052 241.454 172.857 240.19 158.691 239.613C144.7 239.043 130.682 239.318 116.717 239.875C102.572 240.438 88.4012 241.226 74.3714 242.966C60.7193 244.659 47.2328 247.684 33.6734 250.127C67.0894 234.372 102.336 227.043 138.64 224.582C106.431 223.438 74.8486 227.421 43.6339 235.052C45.1016 233.696 46.6403 232.705 48.2598 231.934C85.3157 214.374 124.422 210.431 164.527 213.877C194.951 216.489 224.331 225.907 253.134 237.549C262.866 241.484 270.143 239.337 278.548 232.719C242.908 218.275 207.442 207.267 170.932 202.341C134.047 197.362 97.8074 200.995 62.4524 212.65C62.6727 211.973 62.9129 211.673 63.2168 211.533C92.7905 197.887 123.95 192.166 155.965 191.203C197.768 189.946 236.827 202.991 273.712 226.378C281.94 231.597 289.14 231.172 297.394 222.716C278.518 215.446 260.648 207.642 242.361 201.774C223.852 195.837 205.055 190.619 186.149 187.281C167.429 183.979 148.418 182.529 129.543 181.913C110.73 181.298 91.9226 182.723 73.1155 183.256C92.0483 178.857 111.13 174.973 130.422 173.192C159.512 170.506 188.522 172.899 217.073 182.639C244.656 192.049 271.143 204.563 296.425 220.666C297.976 221.653 300.081 223.151 301.387 222.668C306.775 220.664 311.955 217.987 317.213 215.557C317.189 214.97 317.166 214.389 317.142 213.803C244.041 183.596 169.197 162.69 92.3952 151.276C94.2052 151.096 95.9718 150.85 97.7537 150.751C128.37 149.025 158.86 152.419 189.214 158.017C234.379 166.348 276.434 185.569 316.503 211.396C318.068 212.405 320.085 214.169 321.38 213.745C326.946 211.915 332.322 209.4 338.851 206.684C336.779 205.56 336.002 205.045 335.177 204.701C296.572 188.806 257.988 172.85 219.353 157.079C196.211 147.634 172.765 140.208 148.096 142.065C136.059 142.97 124.012 143.707 111.968 144.521C113.161 143.04 114.544 142.19 116.012 141.993C131.46 139.905 146.852 136.681 162.392 136.174C191.19 135.239 219.018 143.992 245.725 156.223C276.807 170.457 307.14 186.991 337.82 202.47C339.786 203.461 342.205 205.082 343.916 204.541C349.68 202.727 355.215 200.069 361.707 197.375C359.643 196.099 358.592 195.309 357.456 194.772C322.395 178.147 287.444 161.19 252.226 145.058C225.767 132.941 198.513 124.591 170.03 124.564C157.886 124.553 145.755 125.005 132.918 125.261C133.906 124.681 134.191 124.4 134.513 124.341C185 115.28 234.129 122.532 281.981 145.79C309.198 159.024 335.062 175.3 360.433 192.763C362.379 194.102 364.962 195.734 366.868 195.312C371.665 194.253 376.246 192.09 381.921 190.002C379.855 188.696 378.957 188.018 377.989 187.534C340.86 168.874 303.85 149.872 266.552 131.709C236.15 116.903 205.106 104.424 172.139 100.912C166.659 100.326 161.175 99.7626 155.693 99.1898C156.747 98.1687 157.803 97.9406 158.868 97.9033C202.907 96.4118 245.019 108.127 286.091 126.961C318.077 141.631 347.703 161.618 376.324 183.499C384.86 190.022 391.055 187.192 399.383 183.14C326.333 140.746 254.525 97.9877 173.204 85.6584C173.352 84.5961 173.505 83.5328 173.654 82.4704C182.619 82.491 191.599 81.9584 200.545 82.6356C237.229 85.4168 271.732 98.4097 304.181 118.477C335.357 137.753 365.756 158.754 396.535 178.906C398.825 180.405 401.721 182.542 403.877 182.058C410.698 180.531 417.304 177.902 423.99 175.7C424.098 175.095 424.206 174.489 424.317 173.882C351.186 128.243 274.922 91.5297 195.835 62.5317C200.393 63.1839 205.048 63.5844 209.632 64.5434C288.41 81.0481 360.934 115.25 425.681 171.458C427.069 172.662 429.072 174.189 430.46 173.887C435.802 172.718 441.009 170.867 446.266 169.269C446.311 168.623 446.362 167.98 446.407 167.333C445.53 167.002 444.6 166.804 443.789 166.319C406.978 144.282 370.333 121.864 333.339 100.258C298.123 79.69 262.236 60.9321 223.798 50.1739C222.664 49.8551 221.599 49.1715 220.501 48.6551C222.062 48.0141 223.463 48.1937 224.862 48.3438C270.197 53.1838 312.256 70.7859 352.439 95.6751C384.986 115.833 416.137 138.565 445.619 164.354C447.31 165.83 449.552 167.942 451.238 167.686C457.207 166.782 463.052 164.978 468.941 163.515C397.974 114.94 329.113 62.7964 247.922 41.2283C250.266 40.011 252.372 39.5261 254.468 39.6533C282.624 41.3487 309.74 49.1028 335.799 62.0361C382.876 85.3966 425.057 118.078 464.871 155.135C473.288 162.971 478.047 163.599 488.305 157.433C421.226 105.628 353.992 55.1472 277.815 23.5046C282.829 23.8674 287.693 24.5979 292.377 26.1367C322.809 36.1173 352.635 48.2344 380.914 65.026C421.355 89.0317 460.357 115.57 491.911 154.482C492.891 155.689 494.803 156.874 496.052 156.658C500.941 155.812 505.736 154.402 511.652 152.932C508.251 149.337 505.932 146.661 503.416 144.258C445.076 88.5688 381.612 42.8019 311.545 9.67099C313.137 9.76429 314.72 9.96307 316.213 10.5101C335.099 17.4262 354.14 23.8191 372.822 31.4467C427.061 53.5942 471.025 92.6962 507.463 143.471C512.37 150.308 516.417 153.395 523.713 150.789C529.381 148.763 535.364 147.77 541.653 146.207C540.65 145.01 540.196 144.347 539.642 143.828C516.148 121.823 493.008 99.2975 469.065 77.9751C436.717 49.1614 401.297 27.3529 361.14 17.5324C360.246 17.3126 359.353 17.037 358.493 16.6714C357.824 16.383 357.214 15.9125 355.203 14.6746C387.898 16.4778 417.732 24.8866 444.928 43.1142C483.336 68.8563 517.49 100.722 544.439 141.975C545.46 143.541 547.677 145.272 549.132 145.112C554.98 144.461 560.75 143.096 568.341 141.656C516.433 82.9406 463.844 29.0446 394.839 0.287367C396.231 0.275989 396.753 0.206491 397.263 0.276954C420.667 3.47948 442.623 12.7474 463.24 25.7113C506.357 52.8229 542.804 88.6318 568.864 137.245C569.661 138.729 571.624 140.549 572.848 140.425C578.684 139.82 584.457 138.596 591.127 137.44C549.332 81.8061 501.46 38.0164 443.201 9.99533C445.386 9.30218 447.146 9.38409 448.852 9.79231C486.347 18.7557 519.367 38.2217 545.854 70.5467C561.871 90.0932 575.795 111.876 590.729 132.589C591.929 134.255 593.813 136.773 595.108 136.618C602.918 135.673 610.646 134.066 619.911 132.412C581.136 82.9256 540.554 38.6887 489.361 5.91764C491.735 6.51173 492.598 6.62762 493.406 6.94597C517.043 16.2381 539.638 28.2041 559.563 45.9218C584.169 67.8046 602.713 95.7111 618.193 126.309C620.311 130.493 622.136 132.417 626.614 131.617C643.61 128.582 660.685 126.06 677.735 123.346C690.118 121.377 702.508 119.46 714.88 117.403C717.577 116.956 719.404 117.33 720.3 120.844C721.5 125.552 719.827 127.238 715.982 127.812C695.315 130.9 674.669 134.117 654.02 137.326C646 138.572 637.993 139.901 629.579 141.258C636.581 186.305 620.783 223.581 605.321 261.752C612.232 221.57 619.006 182.178 625.944 141.831C619.156 142.805 614.136 143.504 609.128 144.272C608.082 144.433 607.074 144.868 605.622 145.31C610.575 192.038 595.184 232.1 579.167 271.309C586.681 230.098 594.288 188.35 602.106 145.48C595.778 146.576 590.559 147.213 585.501 148.551C584.311 148.868 583.007 151.47 582.875 153.18C581.757 167.581 582.011 182.297 579.719 196.384C575.609 221.67 565.253 244.234 554.844 266.551C550.333 276.221 544.778 285.225 540.751 292.601C553.16 246.604 566.131 198.525 579.403 149.337C574.835 150.043 571.671 150.945 568.485 150.926C563.943 150.896 562.456 153.38 561.62 158.195C559.119 172.592 556.575 187.021 553.194 201.134C544.749 236.403 533.132 270.032 514.167 299.549C511.407 303.847 508.211 307.769 505.218 311.868C504.687 311.476 504.157 311.089 503.626 310.697C522.293 258.324 540.96 205.951 559.911 152.777C553.782 153.785 548.817 154.847 543.79 155.341C540.133 155.701 538.794 157.556 537.897 161.632C532.602 185.646 527.827 209.904 521.177 233.393C512.594 263.719 500.903 292.463 483.285 317.356C481.963 319.229 480.304 320.786 478.801 322.494C478.393 322.136 477.986 321.783 477.575 321.426C496.949 266.989 516.322 212.548 536.104 156.968C525.72 158.982 516.267 160.816 507.795 162.458C509.734 223.731 485.15 270.148 454.556 313.632C475.952 266.998 490.712 217.578 499.392 163.726C492.649 165.402 486.817 166.636 481.142 168.441C480.007 168.8 478.897 171.234 478.733 172.871C478.205 178.21 478.228 183.635 477.846 189.003C475.492 222.179 463.207 250.967 449.408 279.012C444.275 289.447 438.423 299.404 432.9 309.579C432.694 309.394 432.494 309.212 432.29 309.031C446.373 262.915 460.456 216.799 474.732 170.051C468.396 171.625 462.683 173.045 456.868 174.49C460.036 194.655 455.808 212.806 449.087 230.426C436.877 262.443 419.489 290.462 399.762 316.68C397.879 319.182 395.747 321.432 393.731 323.799C416.259 276.296 437.326 228.402 452.101 175.533C445.002 177.296 439.365 178.555 433.825 180.202C432.806 180.507 431.527 182.335 431.479 183.557C430.957 197.869 426.298 210.696 420.792 222.87C405.274 257.194 389.184 291.166 373.218 325.215C371.359 329.178 368.884 332.74 366.694 336.488C365.977 336.019 365.26 335.549 364.546 335.074C383.733 284.657 402.92 234.239 422.054 183.964C419.216 184.669 415.975 185.766 412.646 186.233C407.833 186.91 405.385 189.778 403.459 194.895C394.21 219.475 384.782 243.971 374.906 268.21C364.246 294.368 352.299 319.679 335.47 341.377C334.312 342.866 332.935 344.13 331.66 345.498C331.26 345.1 330.863 344.697 330.463 344.298C351.584 291.272 373.31 238.619 402.084 190.178C398.328 190.674 395.152 192.085 391.835 192.699C385.81 193.806 382.11 197.462 379.21 203.601C355.974 252.764 331.403 301.156 318.274 355.92C317.638 358.575 316.455 361.035 315.528 363.586C314.935 363.365 314.342 363.143 313.748 362.917C314.004 331.743 320.494 302.348 332.099 274.496C343.633 246.813 357.968 221.273 377.955 198.246C365.742 201.109 355.486 203.657 351.667 217.099C351.613 217.288 351.479 217.446 351.38 217.62C329.015 257.167 308.299 297.733 294.799 342.774C294.335 344.322 293.461 345.697 292.774 347.151C292.23 346.81 291.686 346.473 291.141 346.132C294.103 289.707 321.249 247.523 351.985 207.105C347.006 208.922 341.022 210.138 338.544 214.216C322.791 240.147 306.55 265.864 292.991 293.343C282.829 313.933 276.455 337.061 268.372 359.049C266.859 363.161 265.252 367.22 263.693 371.305C262.958 370.87 262.227 370.43 261.497 369.993C271.302 310.667 291.685 257.756 331.125 216.18C323.14 218.73 314.079 218.57 310.717 229.822C309.635 233.446 307.281 236.536 305.459 239.833C290.494 266.885 275.398 293.845 260.624 321.034C256.609 328.423 253.537 336.51 250.033 344.279C258.001 297.541 278.061 258.764 307.457 226.08C299.978 227.334 294.223 230.458 290.334 237.765C284.177 249.338 277.441 260.488 270.877 271.763C254.677 299.59 237.102 326.423 225.597 357.601C225.049 359.088 224.791 360.727 224.4 362.291C223.591 361.72 222.782 361.149 221.976 360.577C229.093 308.593 257.527 271.198 287.815 233.428C279.75 237.323 272.35 239.488 267.457 247.13C258.557 261.028 249.378 274.686 240.178 288.323C227.197 307.576 216.239 328.223 207.887 350.723C206.13 355.458 204.056 360.023 202.126 364.668C201.641 364.351 201.155 364.034 200.673 363.716C206.035 313.478 232.511 278.242 263.313 245.916C257.481 248.421 251.71 250.846 246.557 254.404C242.408 257.267 238.133 260.787 235.412 265.243C215.393 297.965 197.812 332.273 187.349 370.982C186.465 374.248 185.185 377.359 184.086 380.545C183.593 380.29 183.095 380.032 182.598 379.778C185.934 336.662 198.031 298.045 224.956 266.64C217.793 271.17 208.784 274.648 204.858 281.865C189.145 310.733 173.089 339.6 164.343 372.803C164.145 373.561 164.225 374.424 164.174 375.235C163.507 374.804 162.84 374.374 162.176 373.942C163.5 337.998 180.363 310.547 198.669 283.673C191.735 289.583 183.315 293.018 178.682 302.333C165.014 329.805 153.967 358.496 148.303 389.835C147.989 391.578 147.599 393.3 147.246 395.035C143.901 359.882 154.71 330.611 172.593 303.885C165.895 310.251 158.928 316.573 154.988 324.862C142.374 351.411 134.694 380.192 131.031 410.463C130.798 412.391 130.431 414.293 130.129 416.208C124.994 383.035 132.424 353.866 149.188 327.65C140.333 336.564 132.11 345.488 129.756 359.724C125.118 387.767 119.807 415.637 114.78 443.579C114.419 445.586 114.121 447.612 113.795 449.628C113.084 449.526 112.371 449.42 111.66 449.317C112.047 436.527 111.633 423.588 113.042 410.982C114.471 398.22 117.7 385.787 120.395 371.917C107.147 404.252 100.306 437.711 93.5239 471.233C91.8046 452.985 94.2462 435.463 99.1452 418.291L99.1286 418.291ZM256.548 244.088C237.672 239.443 219.783 235.042 201.892 230.637C201.841 231.032 201.788 231.431 201.737 231.825C211.322 235.214 220.926 238.52 230.479 242.028C233.78 243.241 237.245 244.41 240.133 246.532C245.888 250.757 250.684 249.355 256.548 244.088Z" fill="url(#paint0_linear_1860_2767)" fill-opacity="0.1"/>
<defs>
<linearGradient id="paint0_linear_1860_2767" x1="61.5736" y1="260.944" x2="77.606" y2="480.004" gradientUnits="userSpaceOnUse">
<stop stop-color="#00594F"/>
<stop offset="1" stop-color="#FF671F" stop-opacity="0"/>
</linearGradient>
</defs>
</svg>
