<svg width="614" height="424" viewBox="0 0 614 424" fill="none" xmlns="http://www.w3.org/2000/svg">
<path d="M532.044 346.587C547.614 370.653 560.213 396.711 571.686 423.597C564.069 384.159 544.152 353.15 523.071 322.853C546.729 347.889 571.711 371.179 591.725 400.696C589.572 394.866 587.063 389.422 584.024 384.435C566.882 356.298 544.11 335.476 519.876 316.553C517.768 314.908 516.186 312.342 514.356 310.206C514.805 309.609 515.25 309.007 515.699 308.409C544.002 331.889 575.388 350.02 601.587 377.295C601.577 376.19 601.386 375.343 600.95 374.738C598.514 371.359 596.211 367.81 593.517 364.739C571.444 339.59 544.805 322.829 517.02 308.152C515.047 307.109 513.542 304.89 511.822 303.217C512.169 302.701 512.516 302.181 512.859 301.664C544.698 321.016 577.671 338.062 605.467 365.59C605.924 364.878 606.382 364.162 606.839 363.449C599.27 355.731 592.096 347.387 584.053 340.421C563.348 322.492 539.891 310.738 515.421 301.726C510.56 299.937 508.776 295.844 506.538 291.409C541.343 307.93 577.586 320.353 610.496 342.24C602.748 334.868 594.833 327.768 586.126 322.394C561.821 307.382 535.75 297.654 508.934 290.629C503.682 289.252 501.621 285.1 499.223 280.469C537.079 296.732 576.737 306.721 613.813 325.699C607.711 320.545 601.515 315.485 594.715 312.004C564.542 296.55 532.869 286.568 500.462 279.547C496.019 278.584 493.373 275.679 491.093 271.33C511.454 276.633 531.77 281.984 551.754 288.623C571.765 295.27 591.451 303.204 611.625 310.704C608.141 308.161 604.946 305.565 601.545 303.396C567.336 281.552 529.846 272.995 491.424 268.564C485.002 267.825 481.886 262.575 477.66 258.383C522.082 267.397 566.834 273.991 609.812 290.421C600.763 284.818 591.633 279.337 581.983 275.612C548.99 262.88 514.779 257.333 480.02 255.815C473.45 255.53 468.779 252.096 464.322 246.918C476.726 247.584 489.056 248.69 501.338 250.238C513.71 251.801 526.057 253.665 538.377 255.654C550.704 257.644 563.044 259.619 575.271 262.226C587.27 264.788 599.134 268.137 611.058 271.142C609.71 270.277 608.359 269.094 606.832 268.472C592.149 262.521 577.738 255.315 562.678 251.061C530.626 242.011 497.816 241.597 464.883 244.971C460.106 245.459 455.481 242.846 452.252 237.155C505.146 239.422 557.259 243.883 607.756 261.562C606.191 260.118 604.576 258.877 602.878 257.81C590.379 249.959 576.897 245.041 563.015 242.22C544.528 238.465 525.898 235.296 507.201 233.199C489.552 231.219 471.697 231.124 454.022 234.581C446.483 236.056 441.318 232.005 436.11 227.116L436.16 227.224C435.54 226.913 434.921 226.599 434.301 226.288C435.34 226.29 436.374 226.281 437.404 226.154C469.174 222.269 500.846 223.152 532.284 228.106C552.974 231.366 573.455 236.245 593.155 240.223C592.914 240.083 591.813 239.195 590.583 238.742C575.478 233.18 560.593 226.533 545.184 222.413C515.366 214.436 485.018 215.099 454.683 220.595C447.617 221.877 440.655 224.083 433.656 225.965C429.63 223.936 425.606 221.903 421.577 219.874C421.733 219.181 421.89 218.484 422.047 217.791C480.686 206.84 538.985 204.008 596.335 225.183C594.97 223.899 593.571 222.885 592.066 222.191C563.945 209.205 535.108 199.562 504.506 198.258C477.475 197.103 451.005 201.698 425.733 213.536C417.429 217.423 411.75 214.98 405.373 209.644C416.702 206.251 428.054 203.097 439.527 200.935C451.242 198.728 463.047 197.044 474.857 195.952C486.52 194.874 498.241 194.517 509.929 194.405C521.769 194.291 533.638 194.368 545.43 195.268C556.904 196.143 568.296 198.167 579.724 199.688C551.155 187.594 521.408 182.8 490.98 182.223C517.837 179.883 544.385 181.964 570.777 187.187C569.494 186.087 568.168 185.302 566.783 184.71C535.098 171.222 502.268 169.494 468.91 174.139C443.606 177.662 419.456 186.975 395.88 198.169C387.914 201.953 381.747 200.42 374.451 195.101C403.62 181.217 432.788 170.286 463.081 164.522C493.685 158.698 524.107 160.283 554.125 168.78C553.913 168.209 553.7 167.962 553.44 167.855C528.169 157.407 501.903 153.818 475.119 154.344C440.148 155.031 408.065 167.86 378.227 189.463C371.57 194.283 365.538 194.223 358.292 187.323C373.757 180.295 388.36 172.853 403.391 167.051C418.604 161.181 434.09 155.915 449.743 152.257C465.243 148.636 481.063 146.591 496.804 145.266C512.493 143.945 528.263 144.373 543.995 144.036C527.997 141.064 511.896 138.541 495.707 137.828C471.295 136.754 447.162 140.03 423.719 149.583C401.069 158.812 379.465 170.656 359.016 185.525C357.761 186.437 356.066 187.81 354.954 187.451C350.37 185.96 345.932 183.885 341.439 182.023C341.434 181.52 341.43 181.02 341.425 180.517C401.231 151.541 462.88 130.464 526.56 117.439C525.04 117.361 523.554 117.225 522.062 117.215C496.416 117.028 471.088 121.224 445.966 127.303C408.584 136.35 374.255 154.599 341.859 178.427C340.594 179.358 338.982 180.955 337.883 180.646C333.157 179.313 328.562 177.384 322.995 175.331C324.679 174.281 325.306 173.806 325.982 173.477C357.567 158.224 389.134 142.92 420.751 127.771C439.689 118.699 458.965 111.344 479.649 111.894C489.74 112.163 499.835 112.286 509.929 112.475C508.871 111.256 507.68 110.586 506.446 110.479C493.455 109.341 480.464 107.227 467.462 107.449C443.367 107.863 420.485 116.539 398.686 128.151C373.314 141.662 348.665 157.114 323.681 171.676C322.08 172.609 320.126 174.1 318.675 173.709C313.785 172.397 309.051 170.353 303.515 168.317C305.186 167.137 306.031 166.415 306.958 165.907C335.553 150.177 364.044 134.168 392.791 118.855C414.388 107.353 436.807 99.0451 460.598 97.8198C470.742 97.2978 480.894 97.174 491.628 96.8512C490.778 96.3956 490.528 96.1667 490.257 96.1301C447.707 90.4943 406.97 98.7838 367.966 120.738C345.782 133.229 324.854 148.272 304.388 164.31C302.818 165.541 300.728 167.048 299.119 166.767C295.068 166.062 291.151 164.401 286.323 162.85C287.995 161.644 288.717 161.026 289.506 160.569C319.744 143.009 349.868 125.16 380.268 108.018C405.048 94.0446 430.461 82.038 457.853 77.6367C462.406 76.9032 466.963 76.1886 471.518 75.4663C470.596 74.6356 469.704 74.4846 468.813 74.4976C431.964 75.0778 397.274 86.8967 363.75 104.773C337.641 118.696 313.726 137.079 290.729 157.041C283.869 162.992 278.577 160.827 271.452 157.707C330.708 118.287 388.912 78.6069 456.329 64.6072C456.16 63.703 455.988 62.798 455.82 61.8938C448.332 62.2897 440.808 62.2123 433.364 63.1702C402.837 67.1023 374.556 79.6949 348.285 98.2641C323.046 116.102 298.527 135.386 273.654 153.957C271.804 155.338 269.474 157.293 267.653 156.968C261.892 155.947 256.264 153.973 250.587 152.368C250.472 151.853 250.357 151.339 250.238 150.823C309.428 108.619 371.606 73.9325 436.462 45.7401C432.682 46.4914 428.81 47.0311 425.021 48.0466C359.902 65.5178 300.744 97.8939 248.999 148.803C247.889 149.894 246.279 151.287 245.108 151.087C240.596 150.311 236.17 148.943 231.712 147.796C231.647 147.244 231.579 146.695 231.514 146.143C232.233 145.822 233.002 145.613 233.659 145.163C263.491 124.721 293.169 103.959 323.171 83.8789C351.732 64.7636 380.929 47.1714 412.59 36.328C413.524 36.0069 414.385 35.3761 415.281 34.8871C413.95 34.4036 412.787 34.6166 411.625 34.8043C373.956 40.8661 339.557 57.7282 307.026 80.7571C280.677 99.4088 255.603 120.208 232.048 143.556C230.697 144.893 228.912 146.797 227.493 146.649C222.469 146.126 217.512 144.826 212.532 143.821C269.791 99.1912 325.143 51.5917 392.066 29.6787C390.058 28.7342 388.278 28.4075 386.533 28.605C363.084 31.2464 340.756 39.037 319.527 51.2221C281.174 73.2318 247.299 103.024 215.583 136.466C208.878 143.538 204.929 144.277 196.104 139.425C249.981 92.1907 304.042 46.0854 366.359 15.749C362.185 16.2715 358.153 17.1029 354.304 18.6196C329.299 28.4584 304.889 40.103 281.965 55.6889C249.183 77.9715 217.708 102.364 192.969 137.048C192.2 138.124 190.652 139.22 189.6 139.088C185.481 138.569 181.417 137.563 176.414 136.552C179.106 133.328 180.932 130.936 182.933 128.77C229.349 78.5758 280.458 36.6697 337.608 5.31537C336.281 5.46259 334.968 5.69976 333.743 6.23166C318.255 12.9566 302.615 19.2397 287.328 26.5659C242.942 47.838 207.845 83.2086 179.52 128.266C175.705 134.334 172.453 137.151 166.25 135.225C161.432 133.727 156.392 133.128 151.074 132.055C151.862 130.987 152.214 130.399 152.655 129.931C171.364 110.078 189.756 89.7944 208.87 70.5081C234.692 44.4461 263.371 24.2588 296.507 14.1467C297.244 13.9206 297.979 13.6466 298.682 13.297C299.229 13.0215 299.719 12.5925 301.347 11.4466C274.111 14.3721 249.54 22.8385 227.581 39.6094C196.569 63.2945 169.365 92.0485 148.57 128.545C147.783 129.93 146.003 131.507 144.781 131.432C139.869 131.121 134.992 130.194 128.592 129.28C169.508 76.7632 211.195 28.3485 267.64 0.787794C266.476 0.83681 266.038 0.799258 265.614 0.881193C246.198 4.61385 228.243 13.4842 211.561 25.4659C176.672 50.5236 147.717 82.7543 127.971 125.521C127.367 126.827 125.803 128.47 124.775 128.415C119.875 128.143 115.002 127.337 109.383 126.628C141.98 77.1793 180.146 37.6259 227.646 11.1497C225.792 10.6479 224.325 10.7923 222.917 11.2142C191.97 20.4793 165.197 38.5576 144.417 67.3818C131.85 84.8116 121.126 104.07 109.513 122.453C108.58 123.932 107.111 126.17 106.023 126.092C99.4597 125.611 92.9377 124.56 85.1296 123.533C115.46 79.4811 147.518 39.8521 188.918 9.60277C186.96 10.2122 186.244 10.3479 185.582 10.6549C166.224 19.6169 147.847 30.8269 131.941 46.854C112.297 66.6486 97.9685 91.3504 86.3107 118.23C84.7153 121.906 83.2707 123.631 79.4972 123.135C65.1733 121.251 50.8054 119.81 36.4503 118.203C26.0249 117.038 15.5953 115.918 5.17515 114.677C2.90373 114.408 1.39312 114.805 0.791242 117.855C-0.0155909 121.941 1.45171 123.315 4.68795 123.645C22.0795 125.42 39.4599 127.306 56.8416 129.185C63.5932 129.914 70.3368 130.715 77.4212 131.523C73.447 170.43 88.1938 201.713 102.698 233.777C95.2528 199.629 87.9557 166.15 80.4818 131.861C86.1924 132.41 90.4145 132.796 94.6302 133.244C95.5108 133.338 96.3705 133.668 97.6015 133.986C95.4089 174.246 109.931 207.934 124.942 240.865C116.951 205.86 108.86 170.397 100.546 133.983C105.878 134.655 110.263 134.98 114.544 135.914C115.551 136.136 116.749 138.311 116.93 139.771C118.464 152.067 118.863 164.691 121.364 176.669C125.849 198.168 135.438 217.072 145.062 235.76C149.232 243.859 154.247 251.342 157.918 257.493C145.639 218.593 132.803 177.93 119.671 136.33C123.516 136.743 126.196 137.382 128.857 137.231C132.65 137.014 133.995 139.081 134.894 143.173C137.582 155.407 140.308 167.667 143.718 179.621C152.24 209.494 163.343 237.828 180.413 262.327C182.897 265.895 185.731 269.121 188.401 272.508C188.829 272.15 189.255 271.795 189.682 271.437C171.91 227.335 154.139 183.233 136.096 138.457C141.258 139.062 145.449 139.763 149.669 139.974C152.739 140.128 153.934 141.662 154.853 145.117C160.275 165.476 165.273 186.067 171.806 205.919C180.236 231.55 191.199 255.694 206.95 276.286C208.133 277.836 209.583 279.101 210.91 280.501C211.235 280.177 211.561 279.857 211.89 279.534C193.441 233.693 174.994 187.848 156.157 141.044C164.915 142.332 172.887 143.505 180.032 144.554C180.962 197.155 203.428 235.902 230.793 271.882C210.981 232.814 196.595 191.078 187.105 145.287C192.807 146.438 197.73 147.251 202.545 148.558C203.508 148.818 204.536 150.857 204.742 152.253C205.405 156.807 205.611 161.458 206.153 166.043C209.501 194.379 220.96 218.536 233.654 241.991C238.375 250.718 243.678 259.006 248.715 267.494C248.879 267.327 249.039 267.163 249.202 266.999C235.519 228.066 221.837 189.133 207.967 149.667C213.325 150.749 218.156 151.725 223.073 152.718C221.266 170.136 225.553 185.515 231.9 200.334C243.432 227.261 259.122 250.542 276.691 272.182C278.368 274.247 280.243 276.085 282.025 278.029C261.231 238.265 241.64 198.102 227.099 153.411C233.102 154.623 237.863 155.464 242.559 156.642C243.423 156.86 244.567 158.373 244.658 159.418C245.69 171.663 250.115 182.461 255.221 192.663C269.612 221.428 284.466 249.867 299.219 278.377C300.937 281.695 303.152 284.644 305.137 287.765C305.717 287.332 306.296 286.899 306.873 286.462C288.748 244.058 270.623 201.654 252.548 159.369C254.949 159.854 257.702 160.657 260.501 160.917C264.55 161.294 266.714 163.65 268.536 167.953C277.284 188.631 286.179 209.23 295.437 229.589C305.43 251.559 316.462 272.75 331.423 290.637C332.453 291.864 333.655 292.89 334.777 294.009C335.095 293.65 335.41 293.288 335.727 292.93C315.878 248.371 295.539 204.158 269.488 163.853C272.646 164.119 275.358 165.195 278.154 165.581C283.233 166.275 286.476 169.253 289.154 174.393C310.609 215.55 333.147 255.991 346.392 302.376C347.034 304.625 348.124 306.684 349.005 308.831C349.491 308.617 349.977 308.402 350.464 308.183C348.953 281.473 342.309 256.552 331.457 233.17C320.67 209.929 307.633 188.643 289.979 169.749C300.3 171.688 308.973 173.439 312.723 184.799C312.775 184.959 312.895 185.089 312.984 185.234C333.312 218.187 352.304 252.082 365.455 290.118C365.907 291.425 366.694 292.567 367.328 293.784C367.769 293.469 368.209 293.157 368.649 292.842C363.828 244.604 339.398 209.592 312.042 176.247C316.276 177.594 321.325 178.384 323.565 181.775C337.802 203.335 352.439 224.693 364.909 247.673C374.253 264.893 380.54 284.447 388.207 302.952C389.641 306.413 391.153 309.824 392.625 313.26C393.221 312.856 393.813 312.447 394.405 312.043C383.746 261.607 364.519 217.116 329.844 183.144C336.62 184.993 344.182 184.474 347.459 193.976C348.513 197.037 350.608 199.586 352.267 202.335C365.893 224.89 379.625 247.361 393.097 270.041C396.759 276.206 399.661 283.007 402.911 289.518C394.311 249.795 375.941 217.405 350.026 190.632C356.325 191.39 361.263 193.826 364.816 199.924C370.44 209.584 376.53 218.857 382.483 228.244C397.172 251.41 412.969 273.668 423.877 299.906C424.397 301.157 424.681 302.551 425.072 303.875C425.725 303.352 426.377 302.828 427.026 302.304C418.918 258.048 393.611 227.196 366.739 196.1C373.638 199.099 379.909 200.642 384.315 206.986C392.327 218.522 400.563 229.841 408.815 241.142C420.46 257.096 430.472 274.33 438.385 293.263C440.049 297.247 441.972 301.073 443.777 304.973C444.17 304.68 444.562 304.388 444.951 304.096C438.382 261.261 414.8 232.177 387.725 205.77C392.701 207.671 397.623 209.506 402.076 212.338C405.661 214.617 409.378 217.454 411.837 221.158C429.92 248.36 446.033 277.025 456.384 309.761C457.258 312.523 458.457 315.135 459.507 317.82C459.908 317.58 460.313 317.338 460.718 317.099C456.137 280.285 444.426 247.696 420.629 221.914C426.8 225.494 434.471 228.096 438.05 234.116C452.376 258.196 466.989 282.261 475.676 310.351C475.874 310.992 475.843 311.735 475.919 312.428C476.458 312.031 476.998 311.634 477.534 311.236C474.933 280.483 459.704 257.666 443.296 235.405C449.333 240.177 456.509 242.766 460.767 250.555C473.327 273.525 483.749 297.65 489.783 324.272C490.119 325.753 490.516 327.213 490.883 328.685C492.215 298.413 481.968 273.78 465.918 251.628C471.777 256.802 477.861 261.926 481.497 268.864C493.138 291.088 500.751 315.433 505.07 341.224C505.345 342.867 505.73 344.481 506.062 346.11C508.972 317.46 501.551 292.772 486.457 271.009C494.225 278.276 501.465 285.578 504.024 297.681C509.065 321.521 514.661 345.185 520.023 368.922C520.407 370.628 520.741 372.352 521.097 374.065C521.687 373.948 522.277 373.827 522.867 373.709C522.012 362.763 521.819 351.655 520.118 340.909C518.393 330.031 515.178 319.511 512.351 307.737C524.762 334.893 531.868 363.282 538.928 391.728C539.605 376.015 536.837 361.1 532.03 346.588L532.044 346.587ZM393.301 203.918C408.875 199.14 423.635 194.613 438.396 190.082C438.455 190.418 438.516 190.758 438.575 191.094C430.71 194.403 422.825 197.642 414.991 201.052C412.284 202.231 409.438 203.379 407.114 205.32C402.483 209.184 398.418 208.184 393.301 203.918Z" fill="url(#paint0_linear_359_2390)" fill-opacity="0.1"/>
<defs>
<linearGradient id="paint0_linear_359_2390" x1="523.287" y1="97.2843" x2="301.351" y2="390.097" gradientUnits="userSpaceOnUse">
<stop stop-color="white"/>
<stop offset="1" stop-color="#FF671F" stop-opacity="0"/>
</linearGradient>
</defs>
</svg>
