<svg width="722" height="511" viewBox="0 0 722 511" fill="none" xmlns="http://www.w3.org/2000/svg">
<path d="M622.44 418.291C639.639 447.215 653.174 478.283 665.317 510.249C658.506 463.902 636.519 426.641 613.1 390.14C639.901 420.669 668.385 449.244 690.575 484.775C688.342 477.862 685.661 471.379 682.321 465.397C663.481 431.642 637.493 406.068 609.649 382.62C607.228 380.581 605.487 377.502 603.425 374.909C603.995 374.24 604.563 373.566 605.133 372.897C637.572 401.888 674.002 424.835 703.709 458.12C703.761 456.833 703.582 455.836 703.096 455.106C700.383 451.03 697.839 446.764 694.799 443.032C669.897 412.464 639.056 391.39 606.725 372.675C604.43 371.345 602.762 368.674 600.804 366.626C601.248 366.045 601.693 365.461 602.133 364.88C639.033 389.274 677.422 411.052 709.021 444.725C709.608 443.923 710.196 443.116 710.783 442.314C702.191 432.886 694.108 422.753 684.907 414.173C661.22 392.088 633.889 377.03 605.188 365.103C599.487 362.734 597.594 357.866 595.178 352.572C635.786 373.846 678.348 390.436 716.38 417.845C707.555 408.809 698.514 400.081 688.428 393.314C660.273 374.414 629.702 361.558 598.085 351.806C591.893 349.894 589.672 344.941 587.077 339.41C631.342 360.563 678.124 374.521 721.3 398.788C714.311 392.431 707.205 386.178 699.287 381.727C664.149 361.966 626.904 348.486 588.61 338.409C583.36 337.027 580.368 333.491 577.898 328.296C601.906 335.664 625.857 343.087 649.338 351.988C672.849 360.902 695.899 371.293 719.556 381.208C715.543 378.044 711.878 374.834 707.942 372.11C668.356 344.676 624.081 332.512 578.453 325.096C570.827 323.857 567.411 317.565 562.606 312.437C615.133 325.54 668.194 335.846 718.567 357.495C708.085 350.442 697.5 343.526 686.192 338.623C647.529 321.865 606.996 313.398 565.574 309.588C557.744 308.869 552.365 304.598 547.343 298.31C562.117 299.814 576.777 301.827 591.355 304.351C606.039 306.897 620.676 309.791 635.274 312.831C649.88 315.872 664.501 318.896 678.952 322.65C693.133 326.336 707.107 330.933 721.173 335.131C719.613 334.044 718.069 332.588 716.281 331.775C699.091 323.986 682.298 314.751 664.561 308.915C626.809 296.497 587.65 294.086 548.125 296.076C542.392 296.363 537.02 293.051 533.494 286.237C596.53 291.986 658.505 300.242 717.785 323.787C715.999 322.014 714.142 320.476 712.176 319.133C697.705 309.261 681.89 302.745 665.476 298.645C643.615 293.187 621.551 288.404 599.344 284.864C578.382 281.522 557.066 280.361 535.757 283.346C526.669 284.618 520.735 279.6 514.799 273.604L514.853 273.733C514.131 273.335 513.409 272.932 512.687 272.534C513.928 272.598 515.163 272.648 516.4 272.56C554.566 269.907 592.337 272.797 629.594 280.411C654.114 285.423 678.29 292.305 701.584 298.093C701.305 297.916 700.041 296.817 698.599 296.219C680.884 288.857 663.493 280.246 645.33 274.544C610.183 263.507 573.903 262.494 537.358 267.107C528.845 268.183 520.402 270.341 511.935 272.12C507.245 269.522 502.557 266.92 497.864 264.321C498.091 263.523 498.318 262.722 498.545 261.925C569.208 252.627 638.994 252.76 706.255 280.776C704.698 279.201 703.087 277.939 701.329 277.043C668.5 260.276 634.621 247.357 598.152 244.04C565.937 241.106 534.061 244.898 503.194 257.189C493.051 261.225 486.412 258.048 479.106 251.462C492.831 248.18 506.571 245.176 520.397 243.334C534.516 241.454 548.712 240.19 562.877 239.612C576.868 239.043 590.886 239.318 604.851 239.875C618.997 240.438 633.167 241.226 647.197 242.966C660.849 244.659 674.336 247.684 687.895 250.127C654.479 234.372 619.232 227.043 582.928 224.582C615.137 223.438 646.72 227.42 677.934 235.052C676.467 233.696 674.928 232.705 673.309 231.934C636.253 214.373 597.146 210.431 557.041 213.876C526.618 216.489 497.237 225.907 468.434 237.549C458.702 241.484 451.426 239.337 443.021 232.718C478.66 218.275 514.127 207.267 550.637 202.341C587.522 197.362 623.761 200.995 659.116 212.65C658.896 211.973 658.655 211.673 658.352 211.533C628.778 197.887 597.619 192.166 565.603 191.203C523.8 189.945 484.742 202.991 447.857 226.378C439.628 231.597 432.428 231.172 424.174 222.716C443.051 215.446 460.92 207.642 479.207 201.774C497.716 195.837 516.514 190.619 535.419 187.281C554.139 183.979 573.15 182.529 592.025 181.913C610.839 181.298 629.646 182.723 648.453 183.256C629.52 178.857 610.438 174.973 591.147 173.191C562.056 170.506 533.046 172.899 504.496 182.639C476.913 192.049 450.426 204.563 425.144 220.666C423.592 221.653 421.488 223.151 420.181 222.668C414.793 220.664 409.613 217.987 404.355 215.556C404.379 214.97 404.403 214.388 404.427 213.802C477.528 183.596 552.371 162.69 629.173 151.276C627.363 151.096 625.597 150.85 623.815 150.751C593.199 149.025 562.709 152.419 532.355 158.017C487.189 166.348 445.134 185.569 405.065 211.396C403.5 212.405 401.483 214.169 400.188 213.745C394.622 211.915 389.246 209.4 382.717 206.684C384.79 205.56 385.566 205.045 386.392 204.701C424.996 188.806 463.581 172.85 502.216 157.079C525.358 147.634 548.804 140.208 573.473 142.064C585.509 142.97 597.557 143.707 609.601 144.52C608.408 143.04 607.024 142.19 605.556 141.993C590.108 139.904 574.717 136.681 559.177 136.174C530.378 135.239 502.55 143.992 475.844 156.223C444.761 170.456 414.429 186.991 383.748 202.47C381.783 203.461 379.363 205.082 377.652 204.541C371.888 202.727 366.354 200.069 359.861 197.375C361.925 196.099 362.976 195.309 364.112 194.772C399.173 178.147 434.124 161.19 469.342 145.058C495.801 132.941 523.055 124.591 551.538 124.564C563.683 124.552 575.813 125.005 588.651 125.261C587.662 124.681 587.377 124.399 587.055 124.341C536.568 115.28 487.439 122.532 439.587 145.79C412.37 159.023 386.506 175.3 361.136 192.762C359.189 194.102 356.606 195.734 354.7 195.312C349.904 194.253 345.322 192.089 339.647 190.001C341.713 188.696 342.612 188.018 343.58 187.534C380.709 168.874 417.718 149.872 455.016 131.709C485.418 116.903 516.462 104.424 549.43 100.912C554.91 100.326 560.393 99.7625 565.875 99.1897C564.821 98.1686 563.765 97.9404 562.7 97.9032C518.661 96.4116 476.549 108.127 435.478 126.961C403.491 141.631 373.866 161.618 345.245 183.499C336.708 190.022 330.513 187.191 322.186 183.14C395.235 140.746 467.043 97.9875 548.365 85.6583C548.216 84.5959 548.063 83.5326 547.914 82.4703C538.95 82.4909 529.969 81.9583 521.023 82.6354C484.339 85.4167 449.836 98.4096 417.387 118.477C386.211 137.753 355.813 158.754 325.033 178.906C322.743 180.404 319.848 182.542 317.691 182.058C310.871 180.53 304.265 177.902 297.578 175.7C297.471 175.094 297.363 174.488 297.251 173.882C370.382 128.243 446.647 91.5295 525.733 62.5316C521.176 63.1838 516.52 63.5843 511.937 64.5433C433.158 81.048 360.634 115.25 295.888 171.458C294.499 172.662 292.496 174.189 291.109 173.887C285.766 172.718 280.56 170.867 275.302 169.269C275.257 168.623 275.207 167.979 275.162 167.333C276.038 167.002 276.969 166.804 277.78 166.319C314.59 144.282 351.236 121.864 388.229 100.258C423.445 79.6899 459.333 60.932 497.77 50.1738C498.904 49.8549 499.969 49.1714 501.068 48.655C499.506 48.014 498.105 48.1936 496.707 48.3437C451.371 53.1837 409.313 70.7858 369.13 95.675C336.582 115.833 305.432 138.565 275.949 164.354C274.258 165.83 272.016 167.942 270.33 167.686C264.361 166.782 258.517 164.978 252.627 163.514C323.594 114.94 392.456 62.7963 473.647 41.2282C471.303 40.0109 469.196 39.526 467.101 39.6531C438.944 41.3486 411.828 49.1026 385.77 62.0359C338.692 85.3965 296.511 118.078 256.697 155.135C248.28 162.971 243.521 163.598 233.263 157.433C300.343 105.628 367.576 55.1471 443.754 23.5045C438.739 23.8672 433.875 24.5978 429.191 26.1366C398.76 36.1172 368.933 48.2343 340.654 65.0259C300.213 89.0316 261.212 115.57 229.658 154.482C228.677 155.689 226.765 156.874 225.516 156.658C220.627 155.812 215.833 154.402 209.916 152.932C213.318 149.337 215.637 146.661 218.152 144.258C276.492 88.5687 339.957 42.8018 410.024 9.67086C408.431 9.76417 406.848 9.96295 405.355 10.51C386.469 17.4261 367.428 23.819 348.746 31.4466C294.508 53.594 250.544 92.6961 214.105 143.471C209.198 150.308 205.152 153.395 197.856 150.789C192.188 148.763 186.205 147.769 179.916 146.207C180.919 145.01 181.372 144.347 181.927 143.828C205.42 121.823 228.56 99.2973 252.504 77.975C284.852 49.1613 320.271 27.3528 360.428 17.5323C361.322 17.3125 362.216 17.0369 363.075 16.6713C363.745 16.3829 364.354 15.9123 366.365 14.6745C333.67 16.4777 303.836 24.8864 276.64 43.114C238.232 68.8562 204.078 100.722 177.129 141.975C176.108 143.54 173.891 145.272 172.436 145.112C166.589 144.461 160.818 143.096 153.228 141.656C205.135 82.9404 257.724 29.0445 326.729 0.287234C325.337 0.275855 324.815 0.206355 324.305 0.276833C300.902 3.47934 278.946 12.7472 258.329 25.7112C215.211 52.8228 178.764 88.6317 152.705 137.245C151.908 138.729 149.944 140.549 148.72 140.425C142.884 139.82 137.112 138.596 130.442 137.44C172.236 81.8059 220.108 38.0163 278.367 9.9952C276.182 9.30205 274.422 9.38395 272.716 9.79219C235.221 18.7556 202.201 38.2216 175.714 70.5465C159.697 90.0931 145.773 111.876 130.84 132.588C129.64 134.255 127.755 136.773 126.46 136.618C118.65 135.673 110.923 134.066 101.658 132.412C140.433 82.9255 181.014 38.6886 232.208 5.9175C229.834 6.51161 228.971 6.62751 228.163 6.94585C204.526 16.2379 181.93 28.204 162.005 45.9217C137.399 67.8045 118.856 95.711 103.376 126.309C101.257 130.493 99.4321 132.416 94.9545 131.617C77.958 128.582 60.8831 126.06 43.8332 123.346C31.4505 121.376 19.0602 119.46 6.68831 117.403C3.99136 116.956 2.16432 117.33 1.26876 120.844C0.0683666 125.552 1.74099 127.238 5.58665 127.811C26.2529 130.9 46.8997 134.117 67.5481 137.326C75.5688 138.572 83.5756 139.901 91.9891 141.258C84.9877 186.305 100.785 223.581 116.248 261.752C109.336 221.57 102.562 182.178 95.6244 141.831C102.412 142.805 107.432 143.503 112.441 144.272C113.487 144.433 114.494 144.868 115.946 145.31C110.994 192.038 126.384 232.1 142.401 271.309C134.887 230.098 127.28 188.35 119.462 145.48C125.791 146.576 131.009 147.212 136.067 148.551C137.257 148.868 138.562 151.47 138.693 153.18C139.812 167.581 139.557 182.297 141.849 196.384C145.959 221.67 156.315 244.234 166.724 266.551C171.235 276.221 176.79 285.225 180.817 292.601C168.408 246.604 155.437 198.525 142.166 149.337C146.734 150.043 149.897 150.945 153.084 150.925C157.626 150.896 159.112 153.38 159.948 158.195C162.45 172.592 164.994 187.021 168.374 201.134C176.82 236.403 188.436 270.032 207.401 299.549C210.161 303.847 213.358 307.769 216.351 311.867C216.882 311.476 217.412 311.088 217.942 310.697C199.276 258.324 180.609 205.95 161.658 152.777C167.786 153.785 172.752 154.847 177.779 155.341C181.435 155.701 182.774 157.556 183.671 161.632C188.966 185.646 193.741 209.904 200.392 233.393C208.974 263.719 220.666 292.463 238.283 317.356C239.605 319.229 241.264 320.786 242.767 322.494C243.175 322.136 243.582 321.782 243.994 321.426C224.62 266.989 205.247 212.548 185.465 156.968C195.849 158.982 205.302 160.816 213.773 162.457C211.835 223.731 236.418 270.148 267.012 313.632C245.617 266.998 230.857 217.578 222.177 163.726C228.92 165.402 234.751 166.636 240.426 168.441C241.561 168.8 242.671 171.234 242.836 172.87C243.364 178.21 243.34 183.635 243.722 189.002C246.077 222.179 258.361 250.967 272.161 279.012C277.294 289.447 283.145 299.403 288.669 309.579C288.874 309.394 289.074 309.212 289.279 309.031C275.196 262.915 261.113 216.799 246.837 170.051C253.172 171.625 258.885 173.045 264.7 174.489C261.532 194.655 265.761 212.805 272.481 230.426C284.692 262.443 302.079 290.461 321.806 316.68C323.69 319.182 325.821 321.432 327.837 323.799C305.31 276.296 284.242 228.401 269.468 175.532C276.567 177.296 282.203 178.555 287.743 180.202C288.763 180.507 290.041 182.335 290.089 183.556C290.612 197.869 295.27 210.695 300.776 222.87C316.295 257.194 332.385 291.166 348.351 325.215C350.21 329.177 352.684 332.74 354.874 336.488C355.591 336.019 356.308 335.549 357.022 335.074C337.835 284.657 318.649 234.239 299.514 183.963C302.353 184.669 305.594 185.766 308.922 186.232C313.736 186.909 316.183 189.778 318.109 194.894C327.358 219.475 336.786 243.971 346.662 268.21C357.323 294.368 369.269 319.679 386.099 341.377C387.257 342.866 388.633 344.13 389.908 345.498C390.308 345.1 390.705 344.697 391.106 344.298C369.985 291.272 348.259 238.619 319.485 190.178C323.24 190.674 326.417 192.085 329.733 192.699C335.758 193.806 339.458 197.462 342.359 203.601C365.594 252.764 390.165 301.156 403.294 355.92C403.931 358.575 405.113 361.035 406.04 363.586C406.633 363.365 407.226 363.143 407.82 362.917C407.565 331.743 401.074 302.348 389.47 274.496C377.936 246.813 363.6 221.273 343.613 198.246C355.826 201.109 366.082 203.657 369.901 217.098C369.955 217.288 370.09 217.446 370.188 217.62C392.554 257.167 413.27 297.733 426.769 342.774C427.234 344.322 428.107 345.697 428.794 347.151C429.339 346.81 429.882 346.473 430.427 346.132C427.465 289.707 400.32 247.523 369.584 207.105C374.563 208.922 380.547 210.138 383.024 214.216C398.777 240.147 415.018 265.864 428.578 293.343C438.739 313.933 445.113 337.061 453.197 359.048C454.709 363.161 456.316 367.22 457.876 371.305C458.61 370.87 459.341 370.429 460.072 369.993C450.266 310.667 429.884 257.756 390.443 216.179C398.428 218.73 407.489 218.57 410.852 229.822C411.934 233.446 414.288 236.536 416.109 239.833C431.074 266.885 446.17 293.845 460.944 321.033C464.96 328.423 468.032 336.51 471.536 344.279C463.568 297.541 443.507 258.764 414.112 226.08C421.59 227.334 427.346 230.458 431.235 237.765C437.392 249.338 444.127 260.488 450.691 271.763C466.891 299.589 484.466 326.423 495.971 357.6C496.519 359.088 496.778 360.727 497.168 362.291C497.978 361.72 498.787 361.149 499.592 360.576C492.475 308.593 464.042 271.198 433.754 233.428C441.818 237.323 449.218 239.488 454.112 247.13C463.011 261.028 472.19 274.686 481.39 288.323C494.372 307.576 505.33 328.222 513.681 350.722C515.438 355.458 517.513 360.023 519.442 364.668C519.928 364.351 520.414 364.034 520.895 363.716C515.533 313.477 489.057 278.242 458.255 245.916C464.087 248.421 469.858 250.846 475.012 254.404C479.161 257.267 483.435 260.787 486.157 265.243C506.175 297.965 523.756 332.273 534.22 370.982C535.103 374.248 536.384 377.359 537.483 380.545C537.976 380.29 538.473 380.032 538.97 379.777C535.634 336.662 523.537 298.045 496.613 266.64C503.776 271.169 512.785 274.648 516.71 281.865C532.423 310.733 548.479 339.6 557.225 372.803C557.424 373.56 557.343 374.424 557.394 375.235C558.061 374.804 558.729 374.374 559.392 373.942C558.068 337.998 541.205 310.547 522.9 283.673C529.833 289.583 538.253 293.018 542.886 302.333C556.555 329.805 567.601 358.496 573.265 389.835C573.58 391.577 573.969 393.3 574.322 395.035C577.668 359.882 566.858 330.611 548.975 303.885C555.673 310.251 562.641 316.572 566.58 324.862C579.195 351.411 586.875 380.192 590.537 410.463C590.77 412.391 591.137 414.293 591.439 416.208C596.575 383.035 589.144 353.866 572.38 327.65C581.236 336.564 589.458 345.488 591.813 359.724C596.451 387.766 601.762 415.637 606.789 443.579C607.149 445.586 607.448 447.612 607.773 449.628C608.485 449.526 609.197 449.419 609.908 449.317C609.522 436.527 609.935 423.588 608.526 410.981C607.098 398.22 603.868 385.787 601.174 371.917C614.421 404.252 621.262 437.711 628.044 471.233C629.764 452.985 627.322 435.463 622.423 418.291L622.44 418.291ZM465.02 244.088C483.896 239.443 501.786 235.042 519.677 230.637C519.727 231.031 519.781 231.431 519.831 231.825C510.246 235.214 500.642 238.52 491.089 242.028C487.788 243.241 484.323 244.41 481.435 246.532C475.68 250.756 470.884 249.354 465.02 244.088Z" fill="url(#paint0_linear_1860_2768)" fill-opacity="0.1"/>
<defs>
<linearGradient id="paint0_linear_1860_2768" x1="659.995" y1="260.944" x2="643.962" y2="480.004" gradientUnits="userSpaceOnUse">
<stop stop-color="#00594F"/>
<stop offset="1" stop-color="#FF671F" stop-opacity="0"/>
</linearGradient>
</defs>
</svg>
