<svg width="24" height="24" viewBox="0 0 24 24" fill="none" xmlns="http://www.w3.org/2000/svg">
<path d="M5.68437 3.35092C5.68405 4.02834 5.42959 4.67789 4.97697 5.15666C4.52435 5.63543 3.91064 5.90421 3.27085 5.90388C2.63107 5.90354 2.01761 5.63411 1.56544 5.15485C1.11327 4.6756 0.859422 4.02579 0.859742 3.34837C0.860061 2.67094 1.11452 2.0214 1.56715 1.54262C2.01977 1.06385 2.63348 0.795072 3.27326 0.79541C3.91305 0.795749 4.5265 1.06518 4.97868 1.54443C5.43085 2.02368 5.68469 2.6735 5.68437 3.35092ZM5.75674 7.79528H0.932111V23.7848H5.75674V7.79528ZM13.3797 7.79528H8.57915V23.7848H13.3314V15.3941C13.3314 10.7199 19.0848 10.2857 19.0848 15.3941V23.7848H23.8491V13.6572C23.8491 5.77744 15.3336 6.07118 13.3314 9.94084L13.3797 7.79528Z" fill="#FF671F"/>
</svg>
