<svg width="22" height="18" viewBox="0 0 22 18" fill="none" xmlns="http://www.w3.org/2000/svg">
<path d="M19.3494 0.339844H2.65057C1.50253 0.339844 0.573654 1.27915 0.573654 2.4272L0.563217 14.9513C0.563217 16.0994 1.50253 17.0387 2.65057 17.0387H19.3494C20.4975 17.0387 21.4368 16.0994 21.4368 14.9513V2.4272C21.4368 1.27915 20.4975 0.339844 19.3494 0.339844ZM18.932 4.77548L11.5531 9.38853C11.2192 9.59727 10.7808 9.59727 10.4468 9.38853L3.06804 4.77548C2.96339 4.71673 2.87175 4.63736 2.79866 4.54217C2.72557 4.44697 2.67256 4.33794 2.64282 4.22167C2.61309 4.1054 2.60726 3.9843 2.62569 3.86571C2.64411 3.74712 2.68641 3.6335 2.75002 3.53173C2.81362 3.42995 2.89722 3.34215 2.99574 3.27362C3.09427 3.20509 3.20568 3.15726 3.32322 3.13304C3.44076 3.10881 3.562 3.10869 3.67959 3.13267C3.79719 3.15666 3.90869 3.20425 4.00735 3.27258L11 7.64559L17.9926 3.27258C18.0913 3.20425 18.2028 3.15666 18.3204 3.13267C18.438 3.10869 18.5592 3.10881 18.6768 3.13304C18.7943 3.15726 18.9057 3.20509 19.0042 3.27362C19.1028 3.34215 19.1864 3.42995 19.25 3.53173C19.3136 3.6335 19.3559 3.74712 19.3743 3.86571C19.3927 3.9843 19.3869 4.1054 19.3572 4.22167C19.3274 4.33794 19.2744 4.44697 19.2013 4.54217C19.1282 4.63736 19.0366 4.71673 18.932 4.77548Z" fill="#FF671F"/>
</svg>
