<svg width="722" height="623" viewBox="0 0 722 623" fill="none" xmlns="http://www.w3.org/2000/svg">
<path d="M622.44 510.317C639.639 545.557 653.174 583.409 665.317 622.356C658.506 565.888 636.519 520.491 613.1 476.019C639.901 513.215 668.385 548.029 690.575 591.319C688.342 582.897 685.661 574.997 682.321 567.709C663.481 526.583 637.493 495.425 609.649 466.857C607.228 464.373 605.487 460.621 603.425 457.462C603.995 456.647 604.563 455.826 605.133 455.01C637.572 490.332 674.002 518.29 703.709 558.843C703.761 557.275 703.582 556.06 703.096 555.171C700.383 550.205 697.839 545.008 694.799 540.46C669.897 503.217 639.056 477.542 606.725 454.74C604.43 453.12 602.762 449.865 600.804 447.37C601.248 446.663 601.693 445.951 602.133 445.243C639.033 474.964 677.422 501.497 709.021 542.523C709.608 541.546 710.196 540.563 710.783 539.586C702.191 528.099 694.108 515.753 684.907 505.3C661.22 478.393 633.889 460.046 605.188 445.514C599.487 442.628 597.594 436.698 595.178 430.248C635.786 456.167 678.348 476.38 716.38 509.773C707.555 498.765 698.514 488.13 688.428 479.887C660.273 456.859 629.702 441.196 598.085 429.314C591.893 426.985 589.672 420.95 587.077 414.211C631.342 439.983 678.124 456.989 721.3 486.556C714.312 478.811 707.205 471.192 699.287 465.769C664.149 441.693 626.904 425.27 588.61 412.992C583.36 411.309 580.368 407 577.898 400.67C601.906 409.648 625.857 418.691 649.338 429.537C672.849 440.397 695.899 453.056 719.556 465.136C715.543 461.282 711.878 457.371 707.942 454.052C668.356 420.627 624.081 405.808 578.453 396.772C570.827 395.263 567.411 387.596 562.606 381.349C615.133 397.313 668.194 409.869 718.567 436.246C708.085 427.653 697.5 419.227 686.192 413.253C647.529 392.835 606.996 382.519 565.574 377.877C557.744 377.002 552.365 371.798 547.343 364.136C562.117 365.97 576.777 368.421 591.355 371.496C606.039 374.599 620.676 378.125 635.274 381.829C649.88 385.534 664.501 389.218 678.952 393.792C693.133 398.283 707.107 403.883 721.173 408.998C719.614 407.674 718.069 405.9 716.281 404.909C699.091 395.419 682.299 384.168 664.561 377.058C626.809 361.929 587.65 358.991 548.125 361.415C542.392 361.765 537.02 357.729 533.494 349.428C596.53 356.431 658.505 366.491 717.785 395.178C715.999 393.017 714.142 391.142 712.176 389.507C697.705 377.48 681.89 369.54 665.476 364.545C643.615 357.896 621.551 352.068 599.344 347.755C578.382 343.683 557.066 342.268 535.757 345.905C526.669 347.456 520.735 341.342 514.799 334.036L514.853 334.193C514.131 333.708 513.409 333.218 512.687 332.733C513.928 332.81 515.163 332.871 516.4 332.764C554.566 329.532 592.337 333.053 629.594 342.33C654.114 348.436 678.29 356.82 701.584 363.873C701.305 363.657 700.042 362.318 698.599 361.589C680.884 352.619 663.493 342.128 645.33 335.182C610.183 321.735 573.903 320.5 537.358 326.12C528.845 327.432 520.402 330.061 511.935 332.228C507.245 329.063 502.557 325.892 497.864 322.726C498.091 321.754 498.318 320.778 498.545 319.806C569.208 308.478 638.994 308.64 706.255 342.775C704.698 340.856 703.087 339.317 701.329 338.226C668.5 317.797 634.621 302.058 598.152 298.016C565.937 294.442 534.061 299.061 503.194 314.037C493.051 318.953 486.412 315.083 479.106 307.059C492.832 303.06 506.571 299.4 520.397 297.157C534.516 294.866 548.712 293.325 562.878 292.622C576.868 291.929 590.887 292.263 604.851 292.941C618.997 293.628 633.167 294.588 647.197 296.708C660.849 298.771 674.336 302.456 687.895 305.432C654.479 286.237 619.233 277.308 582.928 274.309C615.137 272.916 646.72 277.768 677.934 287.066C676.467 285.414 674.928 284.206 673.309 283.266C636.253 261.872 597.146 257.068 557.041 261.266C526.618 264.449 497.237 275.923 468.434 290.108C458.702 294.902 451.426 292.287 443.021 284.223C478.66 266.625 514.127 253.214 550.637 247.212C587.522 241.145 623.761 245.572 659.116 259.772C658.896 258.947 658.656 258.582 658.352 258.411C628.778 241.786 597.619 234.815 565.603 233.642C523.8 232.11 484.742 248.003 447.857 276.498C439.628 282.856 432.428 282.338 424.174 272.036C443.051 263.178 460.92 253.671 479.208 246.521C497.716 239.287 516.514 232.93 535.419 228.864C554.139 224.84 573.15 223.074 592.026 222.323C610.839 221.573 629.646 223.31 648.453 223.96C629.52 218.599 610.438 213.868 591.147 211.697C562.056 208.426 533.046 211.341 504.496 223.208C476.913 234.673 450.426 249.919 425.144 269.538C423.592 270.741 421.488 272.566 420.181 271.977C414.793 269.536 409.614 266.274 404.355 263.313C404.379 262.599 404.403 261.89 404.427 261.176C477.528 224.374 552.372 198.903 629.173 184.996C627.363 184.777 625.597 184.478 623.815 184.356C593.199 182.254 562.709 186.389 532.355 193.209C487.189 203.36 445.134 226.777 405.065 258.244C403.501 259.474 401.483 261.623 400.188 261.106C394.622 258.877 389.246 255.812 382.717 252.503C384.79 251.133 385.566 250.506 386.392 250.087C424.996 230.721 463.581 211.282 502.216 192.066C525.358 180.559 548.804 171.511 573.473 173.773C585.509 174.877 597.557 175.775 609.601 176.766C608.408 174.962 607.024 173.926 605.556 173.686C590.108 171.142 574.717 167.214 559.177 166.597C530.378 165.458 502.55 176.121 475.844 191.024C444.761 208.365 414.429 228.51 383.748 247.369C381.783 248.577 379.363 250.552 377.652 249.893C371.889 247.683 366.354 244.444 359.861 241.162C361.925 239.607 362.976 238.644 364.112 237.99C399.173 217.735 434.125 197.075 469.342 177.421C495.801 162.658 523.055 152.484 551.538 152.451C563.683 152.437 575.813 152.989 588.651 153.3C587.663 152.594 587.377 152.251 587.055 152.18C536.568 141.14 487.439 149.976 439.588 178.313C412.371 194.436 386.506 214.266 361.136 235.542C359.19 237.174 356.606 239.162 354.7 238.648C349.904 237.358 345.322 234.722 339.647 232.178C341.714 230.587 342.612 229.762 343.58 229.171C380.709 206.437 417.718 183.285 455.016 161.156C485.418 143.118 516.463 127.913 549.43 123.635C554.91 122.921 560.393 122.234 565.875 121.536C564.822 120.292 563.765 120.014 562.7 119.969C518.661 118.152 476.549 132.426 435.478 155.372C403.491 173.245 373.866 197.597 345.245 224.255C336.708 232.203 330.513 228.754 322.186 223.819C395.235 172.167 467.043 120.072 548.365 105.05C548.216 103.756 548.063 102.46 547.914 101.166C538.95 101.191 529.969 100.542 521.023 101.367C484.339 104.756 449.836 120.586 417.387 145.035C386.212 168.521 355.813 194.107 325.033 218.659C322.743 220.485 319.848 223.09 317.691 222.5C310.871 220.639 304.265 217.437 297.578 214.754C297.471 214.016 297.363 213.278 297.251 212.538C370.382 156.934 446.647 112.204 525.733 76.8735C521.176 77.6682 516.52 78.1561 511.937 79.3245C433.158 99.4333 360.634 141.104 295.888 209.585C294.499 211.052 292.496 212.912 291.109 212.545C285.766 211.121 280.56 208.865 275.302 206.918C275.257 206.131 275.207 205.347 275.162 204.56C276.038 204.156 276.969 203.915 277.78 203.324C314.59 176.475 351.236 149.162 388.229 122.838C423.445 97.7785 459.333 74.9247 497.77 61.8172C498.904 61.4288 499.969 60.596 501.068 59.9668C499.506 59.1858 498.106 59.4047 496.707 59.5875C451.371 65.4844 409.313 86.9301 369.13 117.254C336.582 141.814 305.432 169.51 275.949 200.93C274.258 202.729 272.017 205.301 270.33 204.989C264.361 203.888 258.517 201.69 252.627 199.907C323.594 140.726 392.456 77.1961 473.647 50.9183C471.303 49.4351 469.196 48.8444 467.101 48.9993C438.944 51.065 411.828 60.5122 385.77 76.2696C338.692 104.731 296.511 144.549 256.697 189.698C248.28 199.245 243.521 200.01 233.263 192.498C300.343 129.38 367.576 67.8766 443.754 29.3245C438.739 29.7664 433.875 30.6565 429.191 32.5313C398.76 44.6912 368.933 59.4542 340.654 79.9125C300.214 109.16 261.212 141.493 229.658 188.903C228.677 190.373 226.765 191.817 225.516 191.553C220.627 190.523 215.833 188.805 209.916 187.014C213.318 182.634 215.637 179.374 218.152 176.445C276.492 108.596 339.957 52.8356 410.024 12.4701C408.431 12.5838 406.848 12.8259 405.355 13.4924C386.469 21.9187 367.428 29.7076 348.747 39.0007C294.508 65.9844 250.544 113.625 214.105 175.487C209.198 183.817 205.152 187.578 197.856 184.403C192.188 181.934 186.205 180.724 179.916 178.82C180.919 177.362 181.372 176.554 181.927 175.922C205.42 149.112 228.56 121.668 252.504 95.6892C284.852 60.5837 320.271 34.013 360.428 22.0481C361.322 21.7803 362.216 21.4446 363.075 20.9991C363.745 20.6477 364.354 20.0744 366.365 18.5662C333.67 20.7633 303.836 31.0082 276.64 53.216C238.232 84.5792 204.078 123.403 177.129 173.665C176.108 175.572 173.891 177.681 172.436 177.486C166.589 176.694 160.819 175.03 153.228 173.276C205.135 101.739 257.724 36.0741 326.73 1.03743C325.337 1.02354 324.816 0.938857 324.305 1.02473C300.902 4.92657 278.946 16.2182 258.329 32.013C215.211 65.0448 178.764 108.673 152.705 167.901C151.908 169.709 149.944 171.927 148.72 171.776C142.884 171.038 137.112 169.547 130.442 168.139C172.236 100.357 220.108 47.0051 278.367 12.8652C276.182 12.0207 274.423 12.1205 272.716 12.6179C235.221 23.5386 202.201 47.2551 175.714 86.6387C159.697 110.453 145.773 136.993 130.84 162.228C129.64 164.259 127.755 167.326 126.46 167.138C118.651 165.986 110.923 164.028 101.658 162.013C140.433 101.721 181.014 47.8242 232.208 7.89712C229.834 8.62098 228.971 8.76216 228.163 9.15003C204.526 20.4712 181.93 35.0501 162.005 56.6367C137.399 83.2979 118.856 117.298 103.376 154.578C101.257 159.676 99.4322 162.019 94.9546 161.045C77.958 157.347 60.8831 154.274 43.8332 150.968C31.4505 148.568 19.0603 146.233 6.68834 143.727C3.99139 143.182 2.16435 143.638 1.26879 147.919C0.0683959 153.656 1.74102 155.709 5.58668 156.408C26.253 160.171 46.8997 164.09 67.5482 168C75.5688 169.518 83.5757 171.137 91.9891 172.791C84.9877 227.675 100.785 273.09 116.248 319.596C109.336 270.64 102.562 222.646 95.6245 173.489C102.412 174.676 107.432 175.527 112.441 176.463C113.487 176.659 114.494 177.189 115.946 177.728C110.994 234.659 126.384 283.469 142.401 331.24C134.887 281.03 127.28 230.165 119.462 177.935C125.791 179.27 131.009 180.045 136.067 181.676C137.257 182.062 138.562 185.233 138.694 187.316C139.812 204.861 139.557 222.791 141.849 239.954C145.959 270.761 156.315 298.253 166.724 325.442C171.235 337.225 176.79 348.195 180.817 357.181C168.408 301.141 155.437 242.562 142.166 182.634C146.734 183.494 149.897 184.593 153.084 184.569C157.626 184.533 159.112 187.56 159.948 193.427C162.45 210.967 164.994 228.547 168.374 245.742C176.82 288.712 188.436 329.684 207.401 365.647C210.161 370.883 213.358 375.661 216.351 380.655C216.882 380.178 217.412 379.706 217.942 379.229C199.276 315.419 180.609 251.61 161.658 186.825C167.786 188.053 172.752 189.347 177.779 189.949C181.436 190.387 182.774 192.648 183.671 197.613C188.966 226.871 193.741 256.426 200.392 285.044C208.974 321.993 220.666 357.013 238.283 387.341C239.605 389.623 241.264 391.521 242.767 393.602C243.175 393.166 243.582 392.735 243.994 392.3C224.62 325.977 205.247 259.648 185.465 191.931C195.849 194.385 205.302 196.619 213.773 198.619C211.835 273.272 236.418 329.825 267.012 382.804C245.617 325.988 230.857 265.776 222.177 200.165C228.92 202.206 234.751 203.71 240.426 205.909C241.562 206.347 242.671 209.312 242.836 211.306C243.364 217.811 243.34 224.422 243.722 230.961C246.077 271.382 258.361 306.456 272.161 340.625C277.294 353.338 283.145 365.469 288.669 377.867C288.874 377.641 289.074 377.42 289.279 377.199C275.196 321.013 261.113 264.827 246.837 207.871C253.172 209.789 258.885 211.518 264.7 213.279C261.533 237.847 265.761 259.961 272.481 281.429C284.692 320.438 302.079 354.575 321.806 386.518C323.69 389.566 325.821 392.307 327.837 395.191C305.31 337.316 284.242 278.963 269.468 214.549C276.567 216.699 282.203 218.232 287.743 220.239C288.763 220.61 290.041 222.837 290.089 224.326C290.612 241.763 295.27 257.391 300.776 272.224C316.295 314.042 332.385 355.433 348.351 396.917C350.21 401.745 352.684 406.085 354.874 410.652C355.591 410.08 356.308 409.508 357.022 408.929C337.835 347.502 318.649 286.076 299.514 224.821C302.353 225.681 305.594 227.017 308.922 227.586C313.736 228.411 316.183 231.906 318.109 238.139C327.358 268.087 336.786 297.933 346.663 327.464C357.323 359.334 369.269 390.172 386.099 416.608C387.257 418.422 388.633 419.962 389.908 421.629C390.308 421.144 390.705 420.652 391.106 420.167C369.985 355.562 348.259 291.412 319.485 232.393C323.24 232.997 326.417 234.717 329.733 235.465C335.758 236.813 339.458 241.268 342.359 248.747C365.594 308.645 390.165 367.604 403.294 434.326C403.931 437.561 405.113 440.559 406.04 443.667C406.633 443.397 407.226 443.127 407.82 442.852C407.565 404.87 401.074 369.056 389.47 335.123C377.936 301.395 363.6 270.278 343.613 242.222C355.827 245.711 366.082 248.815 369.901 265.192C369.955 265.422 370.09 265.615 370.188 265.828C392.554 314.01 413.27 363.434 426.769 418.31C427.234 420.196 428.107 421.872 428.794 423.642C429.339 423.227 429.882 422.817 430.427 422.401C427.465 353.656 400.32 302.259 369.584 253.017C374.563 255.23 380.547 256.712 383.024 261.68C398.777 293.273 415.018 324.606 428.578 358.085C438.739 383.171 445.113 411.35 453.197 438.138C454.709 443.149 456.316 448.094 457.876 453.071C458.61 452.541 459.341 452.004 460.072 451.473C450.266 379.192 429.884 314.727 390.444 264.072C398.428 267.179 407.489 266.985 410.852 280.694C411.934 285.109 414.288 288.874 416.11 292.89C431.074 325.849 446.17 358.696 460.944 391.822C464.96 400.826 468.032 410.678 471.536 420.143C463.568 363.2 443.507 315.956 414.112 276.135C421.59 277.662 427.346 281.469 431.235 290.371C437.392 304.471 444.127 318.056 450.691 331.793C466.891 365.696 484.466 398.389 495.971 436.374C496.519 438.186 496.778 440.183 497.169 442.089C497.978 441.393 498.787 440.697 499.592 440C492.475 376.666 464.042 331.105 433.754 285.087C441.818 289.833 449.218 292.47 454.112 301.781C463.011 318.714 472.19 335.354 481.39 351.969C494.372 375.426 505.33 400.581 513.681 427.994C515.438 433.763 517.513 439.325 519.442 444.985C519.928 444.599 520.414 444.213 520.895 443.825C515.533 382.616 489.057 339.686 458.255 300.302C464.087 303.354 469.858 306.308 475.012 310.644C479.161 314.132 483.435 318.42 486.157 323.849C506.175 363.716 523.756 405.517 534.22 452.678C535.103 456.657 536.384 460.447 537.483 464.329C537.976 464.018 538.473 463.703 538.97 463.394C535.634 410.863 523.537 363.813 496.613 325.551C503.776 331.07 512.785 335.308 516.71 344.101C532.423 379.273 548.479 414.443 557.225 454.897C557.424 455.819 557.343 456.872 557.394 457.859C558.062 457.335 558.729 456.81 559.392 456.284C558.068 412.491 541.205 379.046 522.9 346.304C529.833 353.504 538.253 357.689 542.886 369.039C556.555 402.509 567.602 437.465 573.265 475.647C573.58 477.77 573.969 479.869 574.322 481.983C577.668 439.154 566.859 403.491 548.975 370.929C555.673 378.685 562.641 386.387 566.581 396.486C579.195 428.833 586.875 463.899 590.537 500.78C590.77 503.129 591.137 505.446 591.439 507.78C596.575 467.363 589.144 431.824 572.38 399.883C581.236 410.744 589.458 421.617 591.813 438.962C596.451 473.127 601.762 507.084 606.789 541.127C607.149 543.572 607.448 546.041 607.773 548.497C608.485 548.372 609.197 548.243 609.908 548.118C609.522 532.535 609.935 516.771 608.526 501.412C607.098 485.863 603.868 470.716 601.174 453.817C614.421 493.213 621.262 533.978 628.044 574.819C629.764 552.587 627.322 531.239 622.423 510.317L622.44 510.317ZM465.02 298.075C483.896 292.415 501.786 287.054 519.677 281.687C519.727 282.167 519.781 282.654 519.831 283.134C510.246 287.263 500.642 291.291 491.089 295.565C487.788 297.043 484.323 298.467 481.435 301.053C475.681 306.199 470.884 304.491 465.02 298.075Z" fill="url(#paint0_linear_1860_2792)" fill-opacity="0.05"/>
<defs>
<linearGradient id="paint0_linear_1860_2792" x1="659.995" y1="318.612" x2="636.258" y2="584.819" gradientUnits="userSpaceOnUse">
<stop stop-color="white"/>
<stop offset="1" stop-color="#FF671F" stop-opacity="0"/>
</linearGradient>
</defs>
</svg>
