<svg width="721" height="575" viewBox="0 0 721 575" fill="none" xmlns="http://www.w3.org/2000/svg">
<path d="M99.1286 470.703C81.9294 503.243 68.3945 538.194 56.2516 574.157C63.062 522.016 85.0493 480.098 108.469 439.034C81.6675 473.379 53.183 505.526 30.9932 545.498C33.2264 537.721 35.9077 530.427 39.2469 523.697C58.0875 485.723 84.0751 456.953 111.919 430.574C114.341 428.28 116.082 424.816 118.143 421.899C117.573 421.146 117.006 420.387 116.435 419.635C83.9964 452.25 47.5661 478.066 17.8597 515.511C17.8071 514.063 17.9867 512.941 18.472 512.12C21.1853 507.535 23.7294 502.736 26.7691 498.536C51.6715 464.148 82.5121 440.44 114.843 419.385C117.138 417.889 118.807 414.884 120.764 412.58C120.32 411.927 119.875 411.27 119.435 410.616C82.5352 438.059 44.1464 462.559 12.5475 500.441C11.9605 499.539 11.3726 498.632 10.7856 497.729C19.377 487.123 27.4602 475.723 36.661 466.07C60.3483 441.225 87.6795 424.285 116.38 410.866C122.081 408.201 123.974 402.725 126.39 396.77C85.7827 420.703 43.2208 439.367 5.1885 470.201C14.0138 460.036 23.0543 450.217 33.1403 442.605C61.2957 421.341 91.8665 406.879 123.483 395.908C129.675 393.757 131.897 388.184 134.492 381.962C90.2264 405.759 43.4443 421.462 0.268174 448.763C7.2569 441.611 14.3631 434.576 22.2817 429.568C57.4193 407.338 94.6642 392.173 132.958 380.836C138.209 379.282 141.2 375.304 143.67 369.459C119.662 377.748 95.7114 386.098 72.2305 396.113C48.7191 406.141 25.669 417.83 2.01197 428.985C6.02543 425.425 9.69036 421.814 13.626 418.75C53.2128 387.886 97.4875 374.202 143.115 365.859C150.742 364.466 154.158 357.386 158.962 351.617C106.435 366.358 53.3743 377.952 3.00126 402.308C13.483 394.373 24.0688 386.593 35.3767 381.077C74.039 362.224 114.573 352.698 155.995 348.412C163.825 347.604 169.203 342.799 174.225 335.724C159.451 337.417 144.791 339.681 130.214 342.52C115.529 345.385 100.892 348.641 86.2943 352.061C71.6887 355.482 57.067 358.884 42.6163 363.107C28.4357 367.254 14.461 372.425 0.395733 377.148C1.95494 375.926 3.49986 374.287 5.28771 373.373C22.4771 364.61 39.2699 354.221 57.0075 347.656C94.7597 333.686 133.918 330.973 173.443 333.211C179.176 333.534 184.548 329.808 188.074 322.143C125.038 328.61 63.0637 337.898 3.7834 364.387C5.56894 362.391 7.42626 360.661 9.3922 359.151C23.8633 348.045 39.6783 340.714 56.0927 336.101C77.9529 329.962 100.018 324.581 122.224 320.598C143.186 316.838 164.502 315.532 185.811 318.89C194.899 320.322 200.834 314.676 206.77 307.93L206.715 308.076C207.438 307.628 208.159 307.175 208.882 306.727C207.641 306.799 206.405 306.854 205.169 306.756C167.002 303.771 129.231 307.023 91.9746 315.589C67.4545 321.226 43.2789 328.969 19.984 335.481C20.2634 335.282 21.5269 334.045 22.9693 333.372C40.6848 325.09 58.0754 315.402 76.2384 308.988C111.385 296.572 147.665 295.431 184.211 300.621C192.724 301.832 201.166 304.26 209.634 306.261C214.323 303.338 219.011 300.411 223.705 297.487C223.478 296.59 223.25 295.688 223.023 294.791C152.36 284.331 82.5744 284.481 15.3137 315.999C16.87 314.227 18.4818 312.807 20.2393 311.799C53.068 292.936 86.9475 278.403 123.417 274.671C155.631 271.371 187.508 275.636 218.375 289.464C228.517 294.003 235.157 290.429 242.463 283.02C228.737 279.328 214.997 275.949 201.171 273.877C187.052 271.762 172.857 270.339 158.691 269.69C144.7 269.05 130.682 269.358 116.717 269.985C102.572 270.618 88.4012 271.505 74.3714 273.463C60.7193 275.368 47.2328 278.771 33.6734 281.519C67.0894 263.794 102.336 255.549 138.64 252.78C106.431 251.494 74.8486 255.974 43.6339 264.56C45.1017 263.034 46.6403 261.919 48.2598 261.051C85.3157 241.296 124.422 236.861 164.527 240.737C194.951 243.676 224.331 254.271 253.134 267.368C262.866 271.795 270.143 269.38 278.548 261.934C242.908 245.685 207.442 233.302 170.932 227.759C134.047 222.158 97.8074 226.245 62.4524 239.357C62.6727 238.596 62.913 238.258 63.2169 238.101C92.7905 222.749 123.95 216.312 155.965 215.23C197.768 213.815 236.827 228.49 273.712 254.801C281.94 260.672 289.14 260.194 297.394 250.681C278.518 242.502 260.648 233.723 242.361 227.122C223.852 220.442 205.055 214.572 186.149 210.817C167.429 207.102 148.418 205.471 129.543 204.778C110.73 204.086 91.9226 205.689 73.1155 206.289C92.0483 201.34 111.13 196.971 130.422 194.966C159.512 191.945 188.522 194.638 217.073 205.595C244.656 216.181 271.143 230.259 296.425 248.375C297.976 249.486 300.081 251.171 301.387 250.627C306.775 248.373 311.955 245.361 317.213 242.627C317.189 241.968 317.166 241.313 317.142 240.654C244.041 206.671 169.197 183.152 92.3952 170.311C94.2052 170.109 95.9718 169.832 97.7537 169.72C128.37 167.779 158.86 171.597 189.214 177.895C234.379 187.268 276.434 208.891 316.503 237.946C318.068 239.082 320.085 241.066 321.38 240.589C326.946 238.531 332.322 235.701 338.851 232.645C336.779 231.381 336.002 230.801 335.177 230.414C296.572 212.533 257.988 194.583 219.353 176.84C196.211 166.214 172.765 157.86 148.096 159.948C136.06 160.967 124.012 161.797 111.968 162.711C113.161 161.046 114.544 160.09 116.012 159.868C131.46 157.518 146.852 153.892 162.392 153.322C191.19 152.27 219.018 162.117 245.725 175.877C276.808 191.889 307.14 210.491 337.82 227.904C339.786 229.02 342.205 230.843 343.916 230.235C349.68 228.194 355.215 225.204 361.707 222.173C359.643 220.737 358.592 219.849 357.456 219.244C322.395 200.541 287.444 181.464 252.226 163.317C225.767 149.685 198.513 140.29 170.03 140.26C157.886 140.247 145.755 140.757 132.918 141.044C133.906 140.392 134.191 140.075 134.513 140.01C185 129.816 234.129 137.975 281.981 164.14C309.198 179.027 335.062 197.338 360.433 216.984C362.379 218.491 364.962 220.327 366.868 219.852C371.665 218.661 376.246 216.226 381.921 213.878C379.855 212.409 378.957 211.646 377.989 211.101C340.86 190.109 303.85 168.732 266.552 148.298C236.15 131.642 205.106 117.603 172.139 113.652C166.659 112.993 161.175 112.359 155.693 111.714C156.747 110.566 157.803 110.309 158.868 110.267C202.907 108.589 245.019 121.769 286.091 142.957C318.077 159.46 347.703 181.946 376.324 206.562C384.86 213.901 391.055 210.716 399.383 206.159C326.333 158.465 254.525 110.362 173.204 96.4914C173.352 95.2963 173.505 94.1001 173.654 92.905C182.619 92.9281 191.599 92.329 200.545 93.0908C237.229 96.2197 271.732 110.837 304.181 133.412C335.357 155.098 365.756 178.724 396.535 201.395C398.825 203.081 401.721 205.486 403.877 204.941C410.698 203.223 417.304 200.266 423.99 197.789C424.098 197.107 424.206 196.425 424.317 195.743C351.186 144.399 274.922 103.097 195.835 70.474C200.393 71.2077 205.048 71.6582 209.632 72.7371C288.41 91.3049 360.934 129.782 425.681 193.016C427.069 194.37 429.072 196.088 430.46 195.749C435.802 194.434 441.009 192.351 446.266 190.553C446.311 189.826 446.362 189.103 446.407 188.376C445.53 188.003 444.6 187.781 443.789 187.235C406.978 162.443 370.333 137.223 333.339 112.916C298.123 89.777 262.236 68.6744 223.798 56.5714C222.664 56.2127 221.599 55.4437 220.501 54.8628C222.062 54.1417 223.463 54.3437 224.862 54.5126C270.197 59.9575 312.256 79.7599 352.439 107.76C384.986 130.438 416.137 156.012 445.619 185.025C447.31 186.685 449.552 189.06 451.238 188.772C457.207 187.755 463.052 185.726 468.941 184.08C397.974 129.433 329.113 70.7717 247.922 46.5076C250.266 45.1381 252.372 44.5926 254.468 44.7357C282.624 46.6431 309.74 55.3664 335.799 69.9163C382.876 96.197 425.057 132.963 464.871 174.653C473.288 183.468 478.047 184.174 488.305 177.238C421.226 118.957 353.992 62.1664 277.815 26.5685C282.829 26.9765 287.693 27.7985 292.377 29.5296C322.809 40.7577 352.635 54.3895 380.914 73.28C421.355 100.286 460.357 130.142 491.911 173.919C492.891 175.276 494.803 176.609 496.052 176.366C500.941 175.415 505.736 173.828 511.652 172.174C508.251 168.13 505.932 165.12 503.416 162.416C445.076 99.7657 381.612 48.278 311.545 11.0056C313.137 11.1106 314.72 11.3342 316.213 11.9497C335.099 19.7303 354.14 26.9223 372.822 35.5033C427.061 60.4192 471.025 104.409 507.463 161.531C512.37 169.223 516.417 172.696 523.713 169.763C529.381 167.484 535.364 166.367 541.653 164.609C540.65 163.263 540.196 162.516 539.642 161.932C516.148 137.177 493.008 111.835 469.065 87.8478C436.717 55.4324 401.297 30.8978 361.14 19.8497C360.246 19.6025 359.353 19.2924 358.493 18.8811C357.824 18.5566 357.214 18.0273 355.203 16.6347C387.898 18.6634 417.732 28.1232 444.928 48.6292C483.336 77.5891 517.49 113.438 544.439 159.848C545.46 161.609 547.677 163.557 549.132 163.377C554.98 162.645 560.75 161.109 568.341 159.489C516.433 93.4339 463.844 32.8009 394.839 0.449049C396.231 0.436248 396.753 0.358061 397.263 0.437349C420.667 4.04017 442.623 14.4665 463.24 29.051C506.357 59.5516 542.804 99.8366 568.864 154.526C569.661 156.195 571.624 158.243 572.848 158.104C578.684 157.423 584.457 156.046 591.127 154.746C549.332 92.1576 501.46 42.8942 443.201 11.3705C445.386 10.5907 447.146 10.6829 448.852 11.1421C486.347 21.2259 519.367 43.1252 545.854 79.4908C561.871 101.481 575.795 125.986 590.729 149.288C591.929 151.163 593.813 153.995 595.108 153.821C602.918 152.758 610.646 150.95 619.911 149.089C581.136 93.4171 540.554 43.6506 489.361 6.7831C491.735 7.45147 492.598 7.58186 493.406 7.93999C517.043 18.3936 539.638 31.8554 559.563 51.7878C584.169 76.406 602.713 107.801 618.193 142.224C620.311 146.931 622.136 149.094 626.614 148.195C643.61 144.781 660.685 141.943 677.735 138.891C690.118 136.674 702.508 134.519 714.88 132.204C717.577 131.701 719.404 132.122 720.3 136.075C721.5 141.372 719.827 143.268 715.982 143.914C695.315 147.389 674.669 151.007 654.02 154.617C646 156.019 637.993 157.514 629.579 159.041C636.581 209.719 620.783 251.655 605.321 294.597C612.232 249.392 619.006 205.076 625.944 159.686C619.156 160.782 614.136 161.567 609.128 162.432C608.082 162.613 607.074 163.102 605.622 163.6C610.575 216.168 595.184 261.238 579.167 305.349C586.681 258.987 594.288 212.019 602.106 163.791C595.778 165.024 590.559 165.74 585.501 167.245C584.311 167.602 583.007 170.53 582.875 172.454C581.757 188.654 582.011 205.21 579.719 221.058C575.609 249.504 565.253 274.889 554.844 299.995C550.333 310.875 544.778 321.004 540.751 329.302C553.16 277.556 566.131 223.466 579.403 168.13C574.835 168.924 571.671 169.939 568.485 169.917C563.943 169.884 562.456 172.679 561.62 178.096C559.119 194.292 556.575 210.525 553.194 226.402C544.749 266.08 533.132 303.912 514.167 337.119C511.407 341.954 508.211 346.366 505.218 350.977C504.687 350.536 504.157 350.1 503.626 349.66C522.293 290.74 540.96 231.82 559.911 172C553.782 173.134 548.817 174.329 543.79 174.885C540.133 175.289 538.794 177.377 537.897 181.962C532.602 208.977 527.827 236.268 521.177 262.693C512.594 296.81 500.903 329.147 483.285 357.151C481.963 359.258 480.304 361.01 478.801 362.931C478.393 362.529 477.986 362.131 477.575 361.73C496.949 300.489 516.322 239.243 536.104 176.715C525.72 178.98 516.267 181.044 507.795 182.89C509.734 251.823 485.15 304.042 454.556 352.962C475.952 300.499 490.712 244.901 499.392 184.318C492.649 186.203 486.817 187.591 481.142 189.622C480.007 190.026 478.897 192.764 478.733 194.605C478.205 200.612 478.228 206.715 477.846 212.754C475.492 250.077 463.207 282.464 449.408 314.014C444.275 325.753 438.423 336.955 432.9 348.402C432.694 348.194 432.494 347.99 432.29 347.786C446.373 295.905 460.456 244.024 474.732 191.433C468.396 193.204 462.683 194.801 456.868 196.427C460.036 219.113 455.808 239.532 449.087 259.355C436.877 295.374 419.489 326.895 399.762 356.391C397.879 359.205 395.747 361.737 393.731 364.399C416.259 310.959 437.326 257.078 452.101 197.6C445.002 199.584 439.365 201.001 433.825 202.853C432.806 203.196 431.527 205.252 431.479 206.627C430.957 222.729 426.298 237.158 420.792 250.855C405.274 289.469 389.184 327.688 373.218 365.993C371.359 370.451 368.884 374.458 366.694 378.675C365.977 378.147 365.26 377.619 364.546 377.085C383.733 320.365 402.92 263.645 422.054 207.085C419.216 207.878 415.975 209.112 412.646 209.637C407.833 210.399 405.385 213.627 403.459 219.382C394.21 247.035 384.782 274.594 374.906 301.862C364.246 331.29 352.299 359.765 335.47 384.175C334.312 385.85 332.935 387.272 331.66 388.811C331.26 388.363 330.863 387.91 330.463 387.462C351.584 327.807 373.31 268.573 402.084 214.076C398.329 214.634 395.152 216.222 391.835 216.912C385.81 218.157 382.11 222.271 379.21 229.177C355.974 284.485 331.403 338.926 318.274 400.536C317.638 403.522 316.455 406.29 315.528 409.16C314.935 408.911 314.342 408.662 313.748 408.408C314.004 373.336 320.494 340.267 332.099 308.934C343.633 277.79 357.968 249.058 377.955 223.152C365.742 226.373 355.487 229.24 351.667 244.362C351.613 244.575 351.479 244.752 351.38 244.949C329.015 289.439 308.299 335.076 294.799 385.746C294.335 387.488 293.461 389.035 292.774 390.67C292.23 390.287 291.686 389.908 291.141 389.525C294.103 326.047 321.249 278.589 351.985 233.119C347.006 235.163 341.022 236.531 338.544 241.119C322.791 270.291 306.55 299.223 292.991 330.137C282.829 353.301 276.455 379.32 268.372 404.055C266.859 408.682 265.252 413.248 263.693 417.844C262.958 417.354 262.227 416.859 261.497 416.368C271.302 349.626 291.685 290.101 331.125 243.328C323.14 246.197 314.079 246.017 310.717 258.675C309.635 262.752 307.281 266.229 305.459 269.938C290.494 300.371 275.398 330.701 260.624 361.288C256.609 369.602 253.537 378.699 250.033 387.439C258.001 334.86 278.061 291.235 307.457 254.466C299.978 255.876 294.223 259.391 290.334 267.612C284.177 280.631 277.441 293.175 270.877 305.859C254.678 337.164 237.103 367.352 225.597 402.426C225.049 404.1 224.791 405.943 224.4 407.703C223.591 407.061 222.782 406.418 221.976 405.774C229.093 347.293 257.527 305.224 287.815 262.732C279.75 267.114 272.35 269.55 267.457 278.147C258.557 293.782 249.378 309.147 240.178 324.489C227.197 346.149 216.239 369.376 207.887 394.689C206.13 400.016 204.056 405.152 202.126 410.377C201.641 410.021 201.155 409.664 200.673 409.307C206.035 352.788 232.511 313.148 263.313 276.782C257.481 279.599 251.71 282.327 246.557 286.331C242.408 289.551 238.133 293.511 235.412 298.524C215.393 335.336 197.812 373.933 187.349 417.481C186.465 421.155 185.185 424.655 184.086 428.239C183.593 427.952 183.095 427.661 182.598 427.376C185.934 378.87 198.031 335.426 224.956 300.096C217.793 305.191 208.784 309.105 204.858 317.224C189.145 349.701 173.089 382.176 164.343 419.53C164.145 420.381 164.225 421.353 164.174 422.265C163.507 421.781 162.84 421.296 162.176 420.811C163.5 380.373 180.363 349.491 198.669 319.258C191.735 325.907 183.315 329.771 178.682 340.251C165.014 371.157 153.967 403.434 148.303 438.69C147.989 440.65 147.6 442.588 147.246 444.541C143.901 404.993 154.71 372.063 172.593 341.996C165.895 349.158 158.928 356.27 154.988 365.595C142.374 395.463 134.694 427.842 131.031 461.897C130.798 464.066 130.431 466.205 130.129 468.36C124.994 431.041 132.424 398.225 149.188 368.732C140.333 378.76 132.11 388.8 129.756 404.816C125.118 436.363 119.807 467.718 114.78 499.152C114.419 501.41 114.121 503.689 113.795 505.957C113.084 505.842 112.371 505.723 111.66 505.608C112.047 491.219 111.633 476.663 113.042 462.48C114.471 448.123 117.7 434.136 120.395 418.533C107.148 454.91 100.306 492.551 93.524 530.263C91.8047 509.734 94.2462 490.022 99.1452 470.704L99.1286 470.703ZM256.548 274.725C237.672 269.499 219.783 264.548 201.892 259.593C201.841 260.036 201.788 260.486 201.737 260.929C211.322 264.741 220.926 268.461 230.479 272.408C233.78 273.772 237.245 275.087 240.133 277.475C245.888 282.227 250.684 280.65 256.548 274.725Z" fill="url(#paint0_linear_28_5970)" fill-opacity="0.05"/>
<defs>
<linearGradient id="paint0_linear_28_5970" x1="61.5736" y1="293.688" x2="81.836" y2="539.782" gradientUnits="userSpaceOnUse">
<stop stop-color="white"/>
<stop offset="1" stop-color="#FF671F" stop-opacity="0"/>
</linearGradient>
</defs>
</svg>
