<svg width="38" height="37" viewBox="0 0 38 37" fill="none" xmlns="http://www.w3.org/2000/svg">
<mask id="path-1-outside-1_4_4791" maskUnits="userSpaceOnUse" x="0" y="-0.5" width="38" height="38" fill="black">
<rect fill="white" y="-0.5" width="38" height="38"/>
<path d="M15.8534 0.777767C14.0896 1.06794 12.3716 1.64352 10.7471 2.48733C9.16168 3.31108 7.70219 4.37061 6.40964 5.63727C5.11709 6.90392 4.02581 8.34144 3.1692 9.90973C2.28969 11.5181 1.67728 13.2258 1.34913 14.985C1.24802 15.5262 1.17361 16.0865 1.10207 16.6277C1.06964 16.8749 1.03529 17.1298 1 17.3818V19.6287C1.02766 19.8359 1.05437 20.043 1.08013 20.2501C1.13641 20.6978 1.19555 21.1607 1.27187 21.6094C2.49669 28.7903 8.0952 34.6158 15.2028 36.1039C16.4591 36.3673 17.7393 36.5 19.008 36.5C22.5546 36.5 25.9849 35.4729 28.9268 33.5295C31.9049 31.5622 34.2172 28.7597 35.6146 25.4246C37.6732 20.5117 37.428 14.9592 34.9431 10.1904C32.4591 5.42345 28.052 2.04538 22.8522 0.921901C22.3171 0.806403 21.7562 0.734814 21.2134 0.666088C20.9482 0.632679 20.6745 0.597362 20.4045 0.558226C20.3244 0.546772 20.2471 0.52959 20.1736 0.514318C20.1517 0.509545 20.1288 0.504773 20.1069 0.5L17.8699 0.5C17.6601 0.528636 17.4493 0.555363 17.2385 0.583044C16.7825 0.64127 16.3122 0.70236 15.8534 0.777767ZM31.1875 7.52628L31.3888 7.7525C37.1085 14.1631 36.6534 24.2973 30.3748 30.3443C27.2965 33.309 23.2548 34.9413 18.9927 34.9413C14.991 34.9413 11.079 33.4713 8.25928 30.9084L8.03797 30.707L8.24878 30.4941L10.189 28.5421L10.6259 28.1021L10.7814 27.9465L10.9722 28.0563L10.977 28.0582C11.0094 28.0753 11.0771 28.1107 11.1439 28.1565C11.8374 28.6328 12.6082 28.8638 13.4991 28.8638C13.9141 28.8638 14.3262 28.8638 14.7383 28.8638C15.6788 28.8638 16.6194 28.8638 17.5599 28.8638C18.5005 28.8638 19.441 28.8638 20.3816 28.8638C21.9823 28.8638 23.2891 28.8628 24.4939 28.86C25.9935 28.8561 27.3185 28.1126 28.0377 26.8707C28.7589 25.626 28.7455 24.1016 28.0005 22.793C27.0561 21.1331 26.0831 19.4512 25.1416 17.8256C24.7171 17.0916 24.2926 16.3585 23.8691 15.6245L23.7403 15.4011L23.6936 15.32L23.5839 15.13L23.7394 14.9745L26.8577 11.856L30.9748 7.73818L31.1885 7.52437L31.1875 7.52628ZM17.1536 9.88778C17.1536 9.52124 17.1526 9.15375 17.1526 8.78721V8.08181H20.8328V8.7538C20.8328 9.12416 20.8328 9.49547 20.8318 9.86582C20.8299 10.9521 20.829 12.0746 20.8414 13.178C20.8442 13.3833 20.9015 13.6066 20.9969 13.7746C21.5845 14.8179 22.194 15.8727 22.7845 16.8931C22.9934 17.2548 23.2033 17.6166 23.4112 17.9784C23.4551 18.0538 23.4971 18.1301 23.5467 18.2218C23.5724 18.2676 23.6001 18.3182 23.6306 18.3745L23.9664 18.9806L23.3006 18.7878C23.2596 18.7763 23.2243 18.7668 23.1928 18.7582C23.127 18.741 23.0707 18.7257 23.0106 18.7019C22.3037 18.4241 21.5988 18.2828 20.9167 18.2828C20.1784 18.2828 19.4439 18.448 18.7323 18.7735C18.1618 19.035 17.5885 19.1667 17.0305 19.1667C16.4725 19.1667 15.9354 19.0407 15.3965 18.7916C15.2438 18.721 15.0855 18.657 14.9166 18.5892C14.8346 18.5558 14.7507 18.5224 14.6648 18.4871L14.372 18.3659L14.5227 18.0872C14.5446 18.0461 14.5656 18.006 14.5866 17.9679C14.6305 17.8858 14.6715 17.8075 14.7163 17.7292C14.9195 17.377 15.1236 17.0238 15.3278 16.6716C15.8763 15.7238 16.4439 14.7435 16.9895 13.7727C17.083 13.6066 17.1402 13.3966 17.1421 13.2105C17.1545 12.1032 17.1536 10.9759 17.1517 9.88682L17.1536 9.88778ZM14.8871 20.2854C15.6139 20.5957 16.3437 20.7532 17.0563 20.7532C17.7688 20.7532 18.5091 20.5899 19.2178 20.2683C19.8073 20.001 20.393 19.8655 20.9606 19.8655C21.5177 19.8655 22.0767 19.9962 22.6204 20.253C23.2786 20.5642 23.9378 20.7226 24.6361 20.736C24.8354 20.7398 25.0729 20.8801 25.1769 21.0557L25.3868 21.4089C25.8265 22.1506 26.2825 22.9171 26.6965 23.6922C27.1105 24.4682 27.0991 25.3693 26.665 26.1023C26.23 26.8364 25.445 27.2793 24.5636 27.2879C23.913 27.2945 23.2166 27.2974 22.3705 27.2974C21.8077 27.2974 21.2449 27.2964 20.6821 27.2945C20.1193 27.2936 19.5574 27.2917 18.9956 27.2917H17.9482C17.1507 27.2926 16.3532 27.2936 15.5548 27.2936C14.9061 27.2936 14.2565 27.2936 13.6079 27.2926C12.5853 27.2917 11.7449 26.8507 11.3013 26.0823C10.8568 25.312 10.8949 24.3584 11.4062 23.4669C11.6142 23.1051 11.8231 22.7443 12.032 22.3835C12.4241 21.7077 12.8295 21.009 13.2158 20.316C13.3627 20.0525 13.5592 19.9199 13.8015 19.9199C13.8874 19.9199 13.977 19.937 14.0753 19.9714C14.4063 20.0898 14.6572 20.1862 14.888 20.2845L14.8871 20.2854ZM18.9765 2.06542C23.0249 2.06542 26.851 3.5039 29.7509 6.11644L29.9751 6.3188L29.7614 6.53261L26.9436 9.35229L22.9057 13.3938L22.4277 13.872L22.4173 13.1952C22.3972 11.8684 22.3991 10.5435 22.402 9.26161C22.4039 8.36531 22.4049 7.44132 22.3991 6.52593H15.5825V6.64143C15.5825 7.11106 15.5825 7.58164 15.5825 8.05127C15.5834 9.54415 15.5853 11.0886 15.572 12.6072C15.5691 12.9136 15.4794 13.2429 15.3259 13.5121C13.3102 17.0362 11.6342 19.9437 10.0526 22.6613C9.36582 23.842 9.23227 25.0084 9.64627 26.2274C9.69492 26.3715 9.71113 26.6626 9.54515 26.8325C8.89077 27.5017 8.21826 28.1746 7.56769 28.8246C7.40552 28.9869 7.24336 29.1482 7.08215 29.3105L6.87324 29.5195L6.67101 29.3029C1.8652 24.1627 0.56597 14.3464 6.84844 7.44991C10.0116 3.97734 14.3185 2.06542 18.9765 2.06542Z"/>
</mask>
<path d="M15.8534 0.777767C14.0896 1.06794 12.3716 1.64352 10.7471 2.48733C9.16168 3.31108 7.70219 4.37061 6.40964 5.63727C5.11709 6.90392 4.02581 8.34144 3.1692 9.90973C2.28969 11.5181 1.67728 13.2258 1.34913 14.985C1.24802 15.5262 1.17361 16.0865 1.10207 16.6277C1.06964 16.8749 1.03529 17.1298 1 17.3818V19.6287C1.02766 19.8359 1.05437 20.043 1.08013 20.2501C1.13641 20.6978 1.19555 21.1607 1.27187 21.6094C2.49669 28.7903 8.0952 34.6158 15.2028 36.1039C16.4591 36.3673 17.7393 36.5 19.008 36.5C22.5546 36.5 25.9849 35.4729 28.9268 33.5295C31.9049 31.5622 34.2172 28.7597 35.6146 25.4246C37.6732 20.5117 37.428 14.9592 34.9431 10.1904C32.4591 5.42345 28.052 2.04538 22.8522 0.921901C22.3171 0.806403 21.7562 0.734814 21.2134 0.666088C20.9482 0.632679 20.6745 0.597362 20.4045 0.558226C20.3244 0.546772 20.2471 0.52959 20.1736 0.514318C20.1517 0.509545 20.1288 0.504773 20.1069 0.5L17.8699 0.5C17.6601 0.528636 17.4493 0.555363 17.2385 0.583044C16.7825 0.64127 16.3122 0.70236 15.8534 0.777767ZM31.1875 7.52628L31.3888 7.7525C37.1085 14.1631 36.6534 24.2973 30.3748 30.3443C27.2965 33.309 23.2548 34.9413 18.9927 34.9413C14.991 34.9413 11.079 33.4713 8.25928 30.9084L8.03797 30.707L8.24878 30.4941L10.189 28.5421L10.6259 28.1021L10.7814 27.9465L10.9722 28.0563L10.977 28.0582C11.0094 28.0753 11.0771 28.1107 11.1439 28.1565C11.8374 28.6328 12.6082 28.8638 13.4991 28.8638C13.9141 28.8638 14.3262 28.8638 14.7383 28.8638C15.6788 28.8638 16.6194 28.8638 17.5599 28.8638C18.5005 28.8638 19.441 28.8638 20.3816 28.8638C21.9823 28.8638 23.2891 28.8628 24.4939 28.86C25.9935 28.8561 27.3185 28.1126 28.0377 26.8707C28.7589 25.626 28.7455 24.1016 28.0005 22.793C27.0561 21.1331 26.0831 19.4512 25.1416 17.8256C24.7171 17.0916 24.2926 16.3585 23.8691 15.6245L23.7403 15.4011L23.6936 15.32L23.5839 15.13L23.7394 14.9745L26.8577 11.856L30.9748 7.73818L31.1885 7.52437L31.1875 7.52628ZM17.1536 9.88778C17.1536 9.52124 17.1526 9.15375 17.1526 8.78721V8.08181H20.8328V8.7538C20.8328 9.12416 20.8328 9.49547 20.8318 9.86582C20.8299 10.9521 20.829 12.0746 20.8414 13.178C20.8442 13.3833 20.9015 13.6066 20.9969 13.7746C21.5845 14.8179 22.194 15.8727 22.7845 16.8931C22.9934 17.2548 23.2033 17.6166 23.4112 17.9784C23.4551 18.0538 23.4971 18.1301 23.5467 18.2218C23.5724 18.2676 23.6001 18.3182 23.6306 18.3745L23.9664 18.9806L23.3006 18.7878C23.2596 18.7763 23.2243 18.7668 23.1928 18.7582C23.127 18.741 23.0707 18.7257 23.0106 18.7019C22.3037 18.4241 21.5988 18.2828 20.9167 18.2828C20.1784 18.2828 19.4439 18.448 18.7323 18.7735C18.1618 19.035 17.5885 19.1667 17.0305 19.1667C16.4725 19.1667 15.9354 19.0407 15.3965 18.7916C15.2438 18.721 15.0855 18.657 14.9166 18.5892C14.8346 18.5558 14.7507 18.5224 14.6648 18.4871L14.372 18.3659L14.5227 18.0872C14.5446 18.0461 14.5656 18.006 14.5866 17.9679C14.6305 17.8858 14.6715 17.8075 14.7163 17.7292C14.9195 17.377 15.1236 17.0238 15.3278 16.6716C15.8763 15.7238 16.4439 14.7435 16.9895 13.7727C17.083 13.6066 17.1402 13.3966 17.1421 13.2105C17.1545 12.1032 17.1536 10.9759 17.1517 9.88682L17.1536 9.88778ZM14.8871 20.2854C15.6139 20.5957 16.3437 20.7532 17.0563 20.7532C17.7688 20.7532 18.5091 20.5899 19.2178 20.2683C19.8073 20.001 20.393 19.8655 20.9606 19.8655C21.5177 19.8655 22.0767 19.9962 22.6204 20.253C23.2786 20.5642 23.9378 20.7226 24.6361 20.736C24.8354 20.7398 25.0729 20.8801 25.1769 21.0557L25.3868 21.4089C25.8265 22.1506 26.2825 22.9171 26.6965 23.6922C27.1105 24.4682 27.0991 25.3693 26.665 26.1023C26.23 26.8364 25.445 27.2793 24.5636 27.2879C23.913 27.2945 23.2166 27.2974 22.3705 27.2974C21.8077 27.2974 21.2449 27.2964 20.6821 27.2945C20.1193 27.2936 19.5574 27.2917 18.9956 27.2917H17.9482C17.1507 27.2926 16.3532 27.2936 15.5548 27.2936C14.9061 27.2936 14.2565 27.2936 13.6079 27.2926C12.5853 27.2917 11.7449 26.8507 11.3013 26.0823C10.8568 25.312 10.8949 24.3584 11.4062 23.4669C11.6142 23.1051 11.8231 22.7443 12.032 22.3835C12.4241 21.7077 12.8295 21.009 13.2158 20.316C13.3627 20.0525 13.5592 19.9199 13.8015 19.9199C13.8874 19.9199 13.977 19.937 14.0753 19.9714C14.4063 20.0898 14.6572 20.1862 14.888 20.2845L14.8871 20.2854ZM18.9765 2.06542C23.0249 2.06542 26.851 3.5039 29.7509 6.11644L29.9751 6.3188L29.7614 6.53261L26.9436 9.35229L22.9057 13.3938L22.4277 13.872L22.4173 13.1952C22.3972 11.8684 22.3991 10.5435 22.402 9.26161C22.4039 8.36531 22.4049 7.44132 22.3991 6.52593H15.5825V6.64143C15.5825 7.11106 15.5825 7.58164 15.5825 8.05127C15.5834 9.54415 15.5853 11.0886 15.572 12.6072C15.5691 12.9136 15.4794 13.2429 15.3259 13.5121C13.3102 17.0362 11.6342 19.9437 10.0526 22.6613C9.36582 23.842 9.23227 25.0084 9.64627 26.2274C9.69492 26.3715 9.71113 26.6626 9.54515 26.8325C8.89077 27.5017 8.21826 28.1746 7.56769 28.8246C7.40552 28.9869 7.24336 29.1482 7.08215 29.3105L6.87324 29.5195L6.67101 29.3029C1.8652 24.1627 0.56597 14.3464 6.84844 7.44991C10.0116 3.97734 14.3185 2.06542 18.9765 2.06542Z" fill="#FF671F"/>
<path d="M15.8534 0.777767C14.0896 1.06794 12.3716 1.64352 10.7471 2.48733C9.16168 3.31108 7.70219 4.37061 6.40964 5.63727C5.11709 6.90392 4.02581 8.34144 3.1692 9.90973C2.28969 11.5181 1.67728 13.2258 1.34913 14.985C1.24802 15.5262 1.17361 16.0865 1.10207 16.6277C1.06964 16.8749 1.03529 17.1298 1 17.3818V19.6287C1.02766 19.8359 1.05437 20.043 1.08013 20.2501C1.13641 20.6978 1.19555 21.1607 1.27187 21.6094C2.49669 28.7903 8.0952 34.6158 15.2028 36.1039C16.4591 36.3673 17.7393 36.5 19.008 36.5C22.5546 36.5 25.9849 35.4729 28.9268 33.5295C31.9049 31.5622 34.2172 28.7597 35.6146 25.4246C37.6732 20.5117 37.428 14.9592 34.9431 10.1904C32.4591 5.42345 28.052 2.04538 22.8522 0.921901C22.3171 0.806403 21.7562 0.734814 21.2134 0.666088C20.9482 0.632679 20.6745 0.597362 20.4045 0.558226C20.3244 0.546772 20.2471 0.52959 20.1736 0.514318C20.1517 0.509545 20.1288 0.504773 20.1069 0.5L17.8699 0.5C17.6601 0.528636 17.4493 0.555363 17.2385 0.583044C16.7825 0.64127 16.3122 0.70236 15.8534 0.777767ZM31.1875 7.52628L31.3888 7.7525C37.1085 14.1631 36.6534 24.2973 30.3748 30.3443C27.2965 33.309 23.2548 34.9413 18.9927 34.9413C14.991 34.9413 11.079 33.4713 8.25928 30.9084L8.03797 30.707L8.24878 30.4941L10.189 28.5421L10.6259 28.1021L10.7814 27.9465L10.9722 28.0563L10.977 28.0582C11.0094 28.0753 11.0771 28.1107 11.1439 28.1565C11.8374 28.6328 12.6082 28.8638 13.4991 28.8638C13.9141 28.8638 14.3262 28.8638 14.7383 28.8638C15.6788 28.8638 16.6194 28.8638 17.5599 28.8638C18.5005 28.8638 19.441 28.8638 20.3816 28.8638C21.9823 28.8638 23.2891 28.8628 24.4939 28.86C25.9935 28.8561 27.3185 28.1126 28.0377 26.8707C28.7589 25.626 28.7455 24.1016 28.0005 22.793C27.0561 21.1331 26.0831 19.4512 25.1416 17.8256C24.7171 17.0916 24.2926 16.3585 23.8691 15.6245L23.7403 15.4011L23.6936 15.32L23.5839 15.13L23.7394 14.9745L26.8577 11.856L30.9748 7.73818L31.1885 7.52437L31.1875 7.52628ZM17.1536 9.88778C17.1536 9.52124 17.1526 9.15375 17.1526 8.78721V8.08181H20.8328V8.7538C20.8328 9.12416 20.8328 9.49547 20.8318 9.86582C20.8299 10.9521 20.829 12.0746 20.8414 13.178C20.8442 13.3833 20.9015 13.6066 20.9969 13.7746C21.5845 14.8179 22.194 15.8727 22.7845 16.8931C22.9934 17.2548 23.2033 17.6166 23.4112 17.9784C23.4551 18.0538 23.4971 18.1301 23.5467 18.2218C23.5724 18.2676 23.6001 18.3182 23.6306 18.3745L23.9664 18.9806L23.3006 18.7878C23.2596 18.7763 23.2243 18.7668 23.1928 18.7582C23.127 18.741 23.0707 18.7257 23.0106 18.7019C22.3037 18.4241 21.5988 18.2828 20.9167 18.2828C20.1784 18.2828 19.4439 18.448 18.7323 18.7735C18.1618 19.035 17.5885 19.1667 17.0305 19.1667C16.4725 19.1667 15.9354 19.0407 15.3965 18.7916C15.2438 18.721 15.0855 18.657 14.9166 18.5892C14.8346 18.5558 14.7507 18.5224 14.6648 18.4871L14.372 18.3659L14.5227 18.0872C14.5446 18.0461 14.5656 18.006 14.5866 17.9679C14.6305 17.8858 14.6715 17.8075 14.7163 17.7292C14.9195 17.377 15.1236 17.0238 15.3278 16.6716C15.8763 15.7238 16.4439 14.7435 16.9895 13.7727C17.083 13.6066 17.1402 13.3966 17.1421 13.2105C17.1545 12.1032 17.1536 10.9759 17.1517 9.88682L17.1536 9.88778ZM14.8871 20.2854C15.6139 20.5957 16.3437 20.7532 17.0563 20.7532C17.7688 20.7532 18.5091 20.5899 19.2178 20.2683C19.8073 20.001 20.393 19.8655 20.9606 19.8655C21.5177 19.8655 22.0767 19.9962 22.6204 20.253C23.2786 20.5642 23.9378 20.7226 24.6361 20.736C24.8354 20.7398 25.0729 20.8801 25.1769 21.0557L25.3868 21.4089C25.8265 22.1506 26.2825 22.9171 26.6965 23.6922C27.1105 24.4682 27.0991 25.3693 26.665 26.1023C26.23 26.8364 25.445 27.2793 24.5636 27.2879C23.913 27.2945 23.2166 27.2974 22.3705 27.2974C21.8077 27.2974 21.2449 27.2964 20.6821 27.2945C20.1193 27.2936 19.5574 27.2917 18.9956 27.2917H17.9482C17.1507 27.2926 16.3532 27.2936 15.5548 27.2936C14.9061 27.2936 14.2565 27.2936 13.6079 27.2926C12.5853 27.2917 11.7449 26.8507 11.3013 26.0823C10.8568 25.312 10.8949 24.3584 11.4062 23.4669C11.6142 23.1051 11.8231 22.7443 12.032 22.3835C12.4241 21.7077 12.8295 21.009 13.2158 20.316C13.3627 20.0525 13.5592 19.9199 13.8015 19.9199C13.8874 19.9199 13.977 19.937 14.0753 19.9714C14.4063 20.0898 14.6572 20.1862 14.888 20.2845L14.8871 20.2854ZM18.9765 2.06542C23.0249 2.06542 26.851 3.5039 29.7509 6.11644L29.9751 6.3188L29.7614 6.53261L26.9436 9.35229L22.9057 13.3938L22.4277 13.872L22.4173 13.1952C22.3972 11.8684 22.3991 10.5435 22.402 9.26161C22.4039 8.36531 22.4049 7.44132 22.3991 6.52593H15.5825V6.64143C15.5825 7.11106 15.5825 7.58164 15.5825 8.05127C15.5834 9.54415 15.5853 11.0886 15.572 12.6072C15.5691 12.9136 15.4794 13.2429 15.3259 13.5121C13.3102 17.0362 11.6342 19.9437 10.0526 22.6613C9.36582 23.842 9.23227 25.0084 9.64627 26.2274C9.69492 26.3715 9.71113 26.6626 9.54515 26.8325C8.89077 27.5017 8.21826 28.1746 7.56769 28.8246C7.40552 28.9869 7.24336 29.1482 7.08215 29.3105L6.87324 29.5195L6.67101 29.3029C1.8652 24.1627 0.56597 14.3464 6.84844 7.44991C10.0116 3.97734 14.3185 2.06542 18.9765 2.06542Z" stroke="#FF671F" mask="url(#path-1-outside-1_4_4791)"/>
</svg>
