<svg width="34" height="35" viewBox="0 0 34 35" fill="none" xmlns="http://www.w3.org/2000/svg">
<path d="M33.902 1.47119C33.8818 1.11444 33.735 0.77777 33.4895 0.525085C33.2441 0.2724 32.917 0.121297 32.5704 0.100464C19.0896 -0.714314 8.2915 3.46347 3.68751 11.3014C2.09164 13.9825 1.30523 17.0911 1.42802 20.2329C1.52896 23.1348 2.35059 26.0658 3.8699 28.9549L0.415146 32.5093C0.149332 32.7829 -8.85691e-09 33.154 0 33.541C8.85691e-09 33.9279 0.149332 34.299 0.415146 34.5727C0.68096 34.8463 1.04148 35 1.4174 35C1.79331 35 2.15384 34.8463 2.41965 34.5727L5.87264 31.0164C8.67752 32.5786 11.5267 33.4243 14.344 33.5282C14.5411 33.5355 14.7377 33.5392 14.9336 33.5392C17.7876 33.547 20.5876 32.738 23.0207 31.2024C30.635 26.4632 34.6953 15.3497 33.902 1.47119ZM21.5598 28.7088C17.5313 31.2206 12.7627 31.2607 7.9763 28.8492L23.6706 12.6958C23.8022 12.5603 23.9066 12.3995 23.9778 12.2225C24.0491 12.0454 24.0857 11.8557 24.0857 11.6641C24.0857 11.4725 24.0491 11.2828 23.9778 11.1058C23.9066 10.9287 23.8022 10.7679 23.6706 10.6324C23.5389 10.4969 23.3827 10.3895 23.2107 10.3161C23.0388 10.2428 22.8545 10.2051 22.6683 10.2051C22.4822 10.2051 22.2979 10.2428 22.1259 10.3161C21.9539 10.3895 21.7977 10.4969 21.6661 10.6324L5.97357 26.7949C3.63793 21.8734 3.67158 16.952 6.10992 12.8125C10.0215 6.16482 19.3198 2.52475 31.1326 2.95857C31.5558 15.1091 28.0178 24.6823 21.5598 28.7088Z" fill="#FF671F"/>
</svg>
