<svg width="29" height="19" viewBox="0 0 29 19" fill="none" xmlns="http://www.w3.org/2000/svg">
<path d="M11.6822 13.2701L18.9121 9.28992L11.6822 5.30978V13.2701ZM27.7859 2.8819C27.967 3.50545 28.0923 4.34128 28.1759 5.40265C28.2734 6.46402 28.3152 7.37945 28.3152 8.17548L28.3988 9.28992C28.3988 12.1954 28.1759 14.3314 27.7859 15.6979C27.4376 16.892 26.6296 17.6615 25.3759 17.9932C24.7212 18.1656 23.5231 18.285 21.6843 18.3646C19.8734 18.4575 18.2156 18.4973 16.6833 18.4973L14.4683 18.5769C8.63145 18.5769 4.9956 18.3646 3.56076 17.9932C2.30701 17.6615 1.49905 16.892 1.15078 15.6979C0.969687 15.0744 0.844313 14.2386 0.76073 13.1772C0.663216 12.1158 0.621425 11.2004 0.621425 10.4044L0.537842 9.28992C0.537842 6.38442 0.76073 4.24841 1.15078 2.8819C1.49905 1.68786 2.30701 0.918362 3.56076 0.586683C4.21549 0.414211 5.41351 0.294806 7.25233 0.215204C9.0633 0.122334 10.721 0.0825324 12.2534 0.0825324L14.4683 0.00292969C20.3052 0.00292969 23.9411 0.215204 25.3759 0.586683C26.6296 0.918362 27.4376 1.68786 27.7859 2.8819Z" fill="#FF671F"/>
</svg>
